<?xml version="1.0" encoding="UTF-8" standalone="no"?>
<svg xmlns="http://www.w3.org/2000/svg" version="1.2" baseProfile="tiny" width="300" height="214" viewBox="0 0 240 171.2" viewport-fill="#ffffff">
    <path fill="#000000" d="M 8.1781429,85.127914 A 55.744566,57.083204 0 0 0 0.95625,113.16079 a 55.744566,57.083204 0 0 0 3.5500089,19.71724 56.127037,56.987586 0 0 0 0.601564,1.67188 55.744566,57.083204 0 0 0 1.0312526,2.37813 56.127037,56.987586 0 0 0 1.5984415,3.37189 55.744566,57.083204 0 0 0 0.1421879,0.2875 c 0.00459,-0.003 0.00936,-0.005 0.014062,-0.008 a 56.127037,56.987586 0 0 0 49.3813739,30.04695 56.127037,56.987586 0 0 0 46.751679,-25.61413 80.52301,80.52301 0 0 0 53.04858,20.16881 80.52301,80.52301 0 0 0 60.40327,-27.37819 l -0.91876,0 a 80.200649,80.200649 0 0 0 15.56255,-23.97663 81.059827,81.059827 0 0 0 0.74062,-2.03126 80.200649,80.200649 0 0 0 1.77501,-5.00314 81.059827,81.059827 0 0 0 0.77968,-3.05 c -0.16804,0.22547 -0.33709,0.44246 -0.74687,0.93281 -0.16205,0.18232 -0.48589,0.40574 -0.75938,0.49688 -0.26336,0.1013 -0.72974,0.28393 -1.04375,0.41563 -0.31399,0.13166 -0.75923,0.24219 -0.99219,0.24219 l -0.41562,0 0,-2.96721 c 0,-2.886761 0.009,-2.969289 0.24218,-3.465626 0.41092,-0.881371 1.33239,-1.514021 2.43282,-1.795317 l 0.51719,0 0,-0.10156 c 0.62927,-0.09163 1.29471,-0.08145 1.95313,0.07499 l 0.002,0 c 0.0638,0.01505 0.12321,0.03527 0.18438,0.05313 a 81.059827,81.059827 0 0 0 0.29219,-1.926573 l -1.72344,0 -0.70782,0 0,-8.02658 c 0.53999,-0.09394 1.10103,-0.09562 1.65938,0.03438 0.57415,0.131777 1.10326,0.392457 1.56875,0.742186 a 81.059827,81.059827 0 0 0 0.15313,-3.081255 l -65.22048,0 c -47.55251,4.8e-5 -72.33559,-0.0064 -96.725242,-0.01407 a 81.059827,81.059827 0 0 0 1.793754,14.801605 c 0.09542,-0.781649 0.310112,-1.013163 0.812503,-1.498444 0.891346,-0.871082 2.067999,-1.296819 3.52657,-1.276563 0.496321,0.01044 1.104587,0.07051 1.35782,0.131248 0.668505,0.19245 1.539404,0.67925 1.954692,1.104691 0.202585,0.202569 0.454202,0.618754 0.565626,0.912499 0.202576,0.506449 0.212497,0.737359 0.212497,3.867199 l 0,3.34375 -4.253131,0 -2.510947,0 a 81.059827,81.059827 0 0 0 0.773438,2.32501 c 0.106888,-0.004 0.220233,-0.0391 0.278129,-0.0875 0.116481,-0.11647 0.548026,-0.18236 1.046875,-0.19375 0.498849,-0.0113 1.066291,0.0315 1.456251,0.13282 0.719162,0.18232 1.276259,0.46674 1.742197,0.87188 0.324129,0.29375 0.433737,0.44476 0.778121,1.10313 0.101297,0.2026 0.142242,1.54197 0.162505,6.10001 l 0.01718,4.7797 a 81.059827,81.059827 0 0 0 0.756258,1.23594 l -3.357824,0 a 85.098909,85.098909 0 0 1 -0.09531,-0.1672 l -1.604693,0 0,-0.79218 c 0,-0.42664 -0.04062,-0.8328 -0.08125,-0.89375 -0.152368,-0.23363 -0.710009,-0.42654 -1.695318,-0.58907 -0.558682,-0.10157 -1.208558,-0.24529 -1.442192,-0.32656 l -0.437501,-0.1625 0.0094,-4.32658 c 0.0083,-3.80207 0.0098,-4.48775 0.314064,-5.03907 a 85.098909,85.098909 0 0 1 -3.47547,-15.048324 l -3.664072,-0.025 -4.571886,-0.02031 0.03125,-2.570319 0.02969,-2.559382 0.284375,-0.589065 c 0.507893,-1.036099 1.616231,-1.920261 2.804695,-2.26563 0.721208,-0.213312 2.457709,-0.131297 3.168758,0.153129 0.460445,0.178735 0.850766,0.395833 1.19219,0.656249 A 85.098909,85.098909 0 0 1 73.853307,85.23885 C 33.840916,85.223674 12.440492,85.194386 8.1781429,85.127914 Z M 48.84387,87.499791 c 0.430267,-0.013 0.867656,0.03295 1.300004,0.145313 1.574465,0.406313 2.702282,1.422443 3.13907,2.814071 0.152367,0.518049 0.182813,0.954394 0.182813,2.884383 l 0,2.275006 -4.470323,0 -4.468762,0 0,-2.275006 c 0,-1.929989 0.03044,-2.366334 0.182813,-2.884383 0.544714,-1.733181 2.269892,-2.903064 4.134385,-2.959384 z m -21.664117,0.0031 c 0.268767,0.01168 0.538925,0.04569 0.809377,0.101561 1.401783,0.294577 2.590544,1.19825 3.159384,2.396878 0.32505,0.690738 0.324214,0.690338 0.354688,2.579694 l 0.04063,1.889069 -0.589064,-0.192185 c -1.198626,-0.406312 -2.895141,-0.417257 -4.053136,-0.03126 -0.8431,0.284424 -1.796778,0.833506 -2.446881,1.412507 l -0.609376,0.548441 -0.74219,-0.212505 -0.731251,-0.214064 0.02969,-2.550006 0.03125,-2.53907 0.325,-0.690626 c 0.764379,-1.608748 2.540522,-2.580238 4.421886,-2.498439 z m -10.895339,0.01563 c 0.513169,0.01928 1.013121,0.108752 1.435941,0.268753 0.822784,0.314872 1.603842,0.892866 2.04063,1.532811 0.629786,0.89389 0.690626,1.239419 0.690626,4.012514 l 0,2.459375 -0.679689,0.12188 -0.690627,0.131248 -0.609376,-0.354689 c -1.229099,-0.731362 -2.76385,-1.047682 -4.185948,-0.875002 -0.416472,0.06095 -0.792186,0.08203 -0.812502,0.05156 -0.03047,-0.02032 0.01094,-0.142168 0.07188,-0.264057 0.08126,-0.142216 0.09142,-0.447593 0.04063,-0.884378 -0.09142,-0.883738 -0.589758,-1.766365 -1.14844,-2.060941 -0.477418,-0.243793 -0.772671,-0.782746 -0.681252,-1.270315 0.152368,-0.812634 1.087343,-1.868677 2.123443,-2.396887 0.653911,-0.342825 1.54941,-0.504016 2.404694,-0.471872 z m 43.848547,0.0094 c 0.61328,0.03047 1.224167,0.122216 1.579692,0.259377 0.944678,0.365664 1.66712,0.91317 2.13438,1.634371 0.223473,0.355529 0.456242,0.813258 0.496877,1.006258 0.05079,0.203153 0.09219,1.452924 0.09219,2.77344 l 0,2.417198 -4.520325,0 -4.531261,0 0.03125,-2.570319 0.02969,-2.559382 0.284374,-0.589065 c 0.528209,-1.066571 1.564656,-1.910109 2.814071,-2.26563 0.360603,-0.106656 0.975786,-0.136728 1.589066,-0.106248 z m -22.578182,0.0016 c 0.713271,-0.02285 1.618678,0.07497 2.106255,0.257818 1.229099,0.467241 2.20385,1.412307 2.620319,2.550006 0.192999,0.518025 0.212502,0.81221 0.212502,2.701566 0,1.950309 -0.01014,2.102374 -0.162502,1.950005 -0.111734,-0.111736 -0.182806,-0.416337 -0.223437,-0.893754 l -0.05,-0.721874 -0.539064,-0.345313 c -0.294578,-0.193 -0.710905,-0.396089 -0.934377,-0.446881 -0.375842,-0.101576 -0.609239,-0.253793 -1.50313,-0.975002 -0.345366,-0.274257 -0.456141,-0.303905 -1.16719,-0.314065 -0.42663,-0.01016 -1.006212,-0.09139 -1.270315,-0.182808 -0.599313,-0.193001 -0.802213,-0.203921 -1.66563,-0.112505 -0.599312,0.07111 -0.701505,0.121816 -1.087502,0.52813 l -0.435939,0.437497 0,-0.446874 c 0,-0.639945 0.344468,-1.656164 0.760939,-2.225005 0.578998,-0.782154 1.696722,-1.483564 2.712507,-1.696876 0.172683,-0.03555 0.388808,-0.05645 0.626564,-0.06407 z m 55.615764,0.05313 c 0.50661,0.0027 1.016563,0.07619 1.50782,0.228122 1.296515,0.405153 2.542247,1.570203 2.856255,2.684382 0.081,0.263368 0.12188,1.286171 0.121872,2.815631 l 0,2.39063 -4.557819,0 -4.557828,0 0,-2.431254 c 0,-2.744943 0.05045,-3.007271 0.77969,-3.959386 0.843242,-1.101522 2.330191,-1.736196 3.85001,-1.728125 z m 21.806307,0.01563 c 0.47607,0 1.09369,0.06119 1.36719,0.142184 1.28637,0.334249 2.31085,1.165491 2.85782,2.279693 l 0.28281,0.567194 0.0313,2.551567 0.0297,2.562502 -4.51877,0 -4.50626,0 0,-2.431254 c 0,-2.137213 0.02,-2.490271 0.19219,-2.935943 0.628,-1.65102 2.30921,-2.725815 4.26408,-2.735943 z m 11.12502,0.0031 c 0.5609,0.0012 1.12652,0.06831 1.54689,0.2 1.1952,0.364641 2.19668,1.195723 2.70312,2.218757 0.22286,0.465922 0.27284,0.758339 0.34376,1.821877 0.0506,0.698906 0.0622,1.853477 0.0219,2.562511 l -0.061,1.296875 -4.55782,0 -4.54689,0 0.0281,-2.564063 c 0.0304,-2.552502 0.0312,-2.54999 0.30469,-3.1172 0.50642,-1.023034 1.49853,-1.844788 2.69376,-2.229693 0.40514,-0.126616 0.96255,-0.190337 1.52343,-0.189064 z m 98.65338,0.0047 c 0.23893,0.01314 0.47947,0.0474 0.71875,0.103129 1.23574,0.283616 2.28829,1.125795 2.86564,2.290629 l 0.33437,0.67813 0.0297,2.510943 0.0406,2.512502 -4.22345,0 -4.22345,0 0.0406,-2.512502 0.0297,-2.510943 0.33438,-0.67813 c 0.77108,-1.559859 2.38056,-2.48571 4.05314,-2.393758 z m -142.697231,0.0016 c 0.476057,-0.01015 1.093699,0.05178 1.367188,0.132808 1.266107,0.334249 2.308493,1.155275 2.845319,2.23907 l 0.293752,0.606249 0.03125,2.553135 0.02969,2.562502 -4.517196,0 -4.517202,0 0.02969,-2.562502 0.03125,-2.553135 0.282814,-0.585938 c 0.739413,-1.488963 2.279982,-2.38207 4.123451,-2.392189 z m 72.025181,0.0016 c 0.75206,-0.0012 1.50563,0.05027 1.99688,0.151561 2.71457,0.557081 5.2478,2.48075 6.45314,4.901573 0.15194,0.303888 0.33297,0.587616 0.39375,0.628129 0.0607,0.04049 0.0811,0.08125 0.0406,0.08125 -0.0405,0 0.0214,0.262576 0.13281,0.576569 0.45581,1.306619 0.47511,1.661356 0.51563,7.323451 l 0.0313,5.42033 -9.50158,0.0297 -9.50159,0.0203 0.0313,-5.64219 c 0.0405,-5.479777 0.0396,-5.672482 0.2625,-6.462516 0.28361,-1.002778 0.90235,-2.319389 1.47969,-3.129695 1.29651,-1.813093 3.52381,-3.281713 5.68127,-3.737514 0.48112,-0.106368 1.23229,-0.159664 1.98438,-0.160937 z m 48.78762,0.0016 c 0.41023,-0.0025 0.82092,0.04283 1.19062,0.139064 1.256,0.324137 2.4606,1.346756 2.90626,2.460942 0.21271,0.536826 0.2337,0.749106 0.26407,3.028136 l 0.0297,2.462502 -4.36565,0 -4.36563,0 0.0313,-2.462502 c 0.0304,-2.27903 0.0515,-2.49131 0.26406,-3.028136 0.43555,-1.093922 1.64935,-2.125885 2.8547,-2.450006 0.3697,-0.09624 0.78042,-0.147464 1.19063,-0.15 z m -22.23131,0.0016 c 0.2376,-0.01651 0.47778,-0.01533 0.71719,0.0031 0.2736,0.0211 0.54595,0.06475 0.81563,0.134376 1.41806,0.374785 2.4804,1.203915 3.03751,2.368758 l 0.31406,0.668754 0.0313,2.451566 0.0297,2.462502 -4.6172,0 -4.62033,0 0.0313,-2.462502 0.0297,-2.451566 0.31407,-0.668754 c 0.69017,-1.442435 2.25404,-2.39063 3.91719,-2.506263 z m 32.72196,0.01095 c 0.2213,-0.01684 0.44465,-0.01691 0.66875,0 0.25612,0.01933 0.51269,0.06073 0.76719,0.12656 1.25597,0.334257 2.33035,1.214011 2.86719,2.348446 0.27349,0.577353 0.2743,0.619161 0.3047,3.090632 l 0.0406,2.512502 -4.32657,0 -4.32501,0 0.0406,-2.512502 c 0.0304,-2.471471 0.0313,-2.513279 0.30469,-3.090632 0.67467,-1.434668 2.1087,-2.357222 3.65782,-2.475006 z m -109.06122,0.0047 c 1.05342,0.03036 1.16604,0.05176 1.89533,0.406249 0.942,0.445673 1.64096,1.103059 2.05625,1.943757 l 0.29375,0.607809 0.0297,2.553135 0.0313,2.562502 -4.51875,0 -4.517211,0 0.03125,-2.562502 0.02969,-2.553135 0.284376,-0.587497 c 0.374785,-0.749546 1.073175,-1.457356 1.853135,-1.862509 0.86096,-0.455801 1.23473,-0.538202 2.53125,-0.507809 z m 87.28929,0.0078 c 0.71125,-0.02279 1.61226,0.07392 2.09845,0.256249 1.27625,0.486194 2.26036,1.467988 2.625,2.632823 0.17217,0.557098 0.20156,0.932675 0.20157,2.907823 l 0,2.26875 -4.50627,0 -4.50782,0 0,-2.26875 c 0,-2.572758 0.11111,-3.150855 0.75938,-4.042202 0.57733,-0.77993 1.69181,-1.477916 2.70469,-1.690628 0.17217,-0.03547 0.38793,-0.05648 0.625,-0.06407 z m -54.5767,2.095319 c 0.3773,-0.0089 0.76042,0.03309 0.99844,0.134375 0.51659,0.212705 1.08272,0.77105 1.33594,1.328131 0.22284,0.476074 0.24219,0.627722 0.24219,2.501567 l 0,2.006253 -2.53125,0 -2.53283,0 0,-1.904693 c 0,-1.509211 0.0317,-2.016661 0.17344,-2.401565 0.18233,-0.546962 0.78979,-1.215588 1.34688,-1.489068 0.21776,-0.106353 0.58986,-0.166136 0.96719,-0.175 z m 32.93602,0.223439 c 0.42886,0.02337 0.86945,0.134865 1.18281,0.317186 0.25324,0.151936 0.57776,0.424736 0.7297,0.617193 0.47607,0.627986 0.53676,0.972547 0.54688,2.957815 l 0,1.854693 -2.5422,0 -2.54376,0 0.0406,-2.006253 c 0.0304,-1.975141 0.0305,-2.005941 0.31406,-2.471878 0.31401,-0.536833 0.80075,-0.942002 1.35783,-1.154691 0.14433,-0.05572 0.31363,-0.09104 0.49375,-0.107817 0.13507,-0.01257 0.27736,-0.01408 0.42031,-0.0063 z m -55.11263,7.378147 c 0.58968,0.01086 1.58158,0.13336 1.92344,0.262497 0.9116,0.354513 1.93523,1.346052 2.25938,2.196877 0.20257,0.536826 0.2125,0.761226 0.2125,3.759386 l 0,3.18907 -4.11251,0 -4.10158,0 0.0297,-3.32188 c 0.0304,-3.2919 0.0312,-3.31229 0.28437,-3.818761 0.45581,-0.92173 1.4576,-1.741508 2.53126,-2.065629 0.25323,-0.07091 0.50561,-0.151592 0.55626,-0.17188 0.0683,-0.02526 0.22061,-0.03335 0.41719,-0.02968 z m -44.02043,0.01874 c 0.575188,0.0089 1.161276,0.06992 1.521879,0.176568 1.137679,0.355522 2.022594,1.096723 2.459381,2.071877 0.182842,0.406321 0.203126,0.691711 0.203126,3.759381 l 0,3.33127 -4.215636,0 -4.226573,0 0.03125,-3.43282 0.02969,-3.423453 0.275001,-0.467193 c 0.487577,-0.832939 1.432655,-1.544477 2.468756,-1.879686 0.314892,-0.1016 0.87794,-0.144832 1.453128,-0.135944 z m -10.94534,0.0047 c 0.306085,0.0036 0.617044,0.03681 0.928128,0.101568 1.259572,0.264097 2.397583,1.085779 2.89532,2.101566 l 0.284374,0.579694 0.02031,3.30157 c 0.01016,1.99093 -0.0094,3.22033 -0.07032,3.09844 -0.05079,-0.11175 -0.09219,-0.50776 -0.09219,-0.87344 -0.01016,-0.36568 -0.08045,-0.87497 -0.171875,-1.13907 -0.132053,-0.39615 -0.244465,-0.51792 -0.681252,-0.77187 -0.294578,-0.17268 -0.741365,-0.47732 -1.015628,-0.69063 -2.295674,-1.82841 -2.752909,-2.06173 -4.195323,-2.07188 -0.497734,0 -1.066378,-0.0609 -1.259378,-0.14218 -0.335209,-0.1219 -0.375739,-0.11177 -0.650001,0.14218 l -0.295314,0.26406 0.06094,-0.59843 c 0.186651,-1.919838 2.099608,-3.326994 4.242199,-3.301578 z m 44.47198,0.03126 c 0.21147,-0.0042 0.36261,-0.0011 0.40313,0.01405 0.081,0.02026 0.3248,0.0617 0.5375,0.09219 0.21271,0.03038 0.40558,0.100152 0.43595,0.140624 0.0304,0.05073 0.12051,0.09218 0.20156,0.09218 0.19245,0 0.87179,0.465417 1.41875,0.971882 0.28362,0.263353 0.49728,0.587778 0.63907,0.982811 0.20258,0.546978 0.2125,0.780078 0.2125,3.818758 l 0,3.24063 -4.15314,0 -4.153136,0 0,-3.27032 0,-3.28281 0.304696,-0.596882 c 0.36463,-0.729275 0.86093,-1.227123 1.72187,-1.723445 0.59761,-0.344385 0.74859,-0.382969 1.67032,-0.443744 0.27853,-0.02026 0.54949,-0.03209 0.76093,-0.03594 z m 98.35025,0.03906 c 0.36432,-0.01326 0.73501,0.02174 1.10469,0.107816 1.23574,0.283609 2.50201,1.346052 2.95783,2.490636 0.23295,0.56722 0.24304,0.7095 0.27344,3.64687 l 0.0313,3.06876 -4.21408,0 -4.21407,0 0.0313,-3.06876 c 0.0405,-3.6059 0.0707,-3.778691 1.09375,-4.862502 0.80523,-0.866018 1.84296,-1.34294 2.93594,-1.38282 z m -10.7219,0.0078 c 0.43396,-0.0031 0.87444,0.04012 1.31251,0.131248 1.24586,0.263352 2.3713,1.022506 2.73594,1.83282 0.1722,0.364658 0.19219,0.738896 0.19219,3.868756 l 0,3.475 -4.20314,0 -4.2047,0 0,-3.475 c 0,-3.919916 0.0106,-3.949564 0.79063,-4.648446 0.84324,-0.75969 2.07468,-1.176787 3.37657,-1.184378 z m -11.32815,0.0016 c 0.2387,-0.01607 0.47981,-0.01551 0.72031,0.0031 0.27487,0.02141 0.54936,0.06634 0.82032,0.135937 1.39778,0.364657 2.48978,1.205443 3.04688,2.350005 l 0.29375,0.589074 0.0313,3.10781 0.0297,3.12031 -4.6172,0 -4.62033,0 0.0313,-3.12031 0.0297,-3.10781 0.29375,-0.589074 c 0.69796,-1.434667 2.26973,-2.376454 3.94064,-2.48907 z m 32.80789,0.0063 c 0.41242,-0.01326 0.8359,0.01619 1.25626,0.09219 1.21548,0.222841 2.4012,1.014084 2.84688,1.895318 0.16207,0.334248 0.18211,0.72949 0.2125,3.83908 l 0.0297,3.47343 -4.16251,0 -4.16251,0 0.0297,-3.47343 c 0.0304,-3.899649 0.0186,-3.829521 0.81875,-4.629707 0.74448,-0.72929 1.89393,-1.156994 3.13125,-1.196883 z m -87.89553,0.0094 c 0.83563,-0.02849 1.91648,0.07555 2.3875,0.257817 0.89135,0.344393 1.69177,1.060803 2.1172,1.881252 l 0.3625,0.700001 0.0313,3.22188 0.0297,3.22969 -4.31407,0 -4.31564,0 0.0313,-3.22031 0.0297,-3.21095 0.28437,-0.537494 c 0.53684,-1.023026 1.7516,-2.064573 2.63282,-2.246885 0.19244,-0.04051 0.44489,-0.0655 0.72344,-0.07501 z m -32.354769,0.0031 c 1.255995,0.03039 1.274235,0.0293 2.145318,0.454689 l 0.0031,0 c 0.709018,0.344386 0.971283,0.537938 1.33594,0.993755 0.263344,0.313993 0.466433,0.597746 0.476562,0.628121 0,0.04051 0.03056,0.162017 0.06094,0.273442 0.08103,0.253204 0.08039,0.912204 0.05,4.275014 l -0.02187,2.6625 -4.25314,0 -4.254698,0 0,-3.37188 c 0,-3.33242 6.56e-4,-3.374026 0.243753,-3.870323 0.395025,-0.830579 1.256131,-1.518164 2.370318,-1.882822 0.465929,-0.15192 0.820738,-0.19288 1.843756,-0.162496 z m 131.406579,0.0094 c 0.58585,0.01607 1.20171,0.101312 1.60625,0.243752 l 0,0.0016 c 1.07366,0.374777 1.86334,1.08349 2.1672,1.914068 0.1013,0.293746 0.13206,1.203765 0.14219,3.756255 l 0,3.36407 -3.92033,-0.0203 -3.9297,-0.0313 0,-3.49376 0,-3.493756 0.27344,-0.476561 c 0.46593,-0.790066 1.34674,-1.388283 2.46094,-1.671884 0.17474,-0.04313 0.39321,-0.07082 0.63282,-0.08438 0.17972,-0.01044 0.3719,-0.01266 0.56719,-0.0078 z m -87.51584,0.93125 c 0.36489,0.01096 0.74158,0.121664 1.13282,0.334377 0.55709,0.303865 1.09184,0.993058 1.26406,1.610947 0.0607,0.21268 0.10156,1.65232 0.10156,3.38438 l 0,3.01875 -2.53125,0 -2.53283,0 0,-3.03906 c 0,-3.4945 0.0514,-3.768471 0.83125,-4.528144 0.55079,-0.538098 1.12625,-0.799538 1.73439,-0.78125 z m 32.64227,0.168752 c 0.5576,-0.01524 1.13366,0.09215 1.63126,0.339065 0.35451,0.182304 0.68005,0.424785 0.82187,0.637497 0.22281,0.344394 0.22188,0.385666 0.22188,3.76876 l 0,3.43438 -2.53282,0 -2.53283,0 0,-3.425 c 0,-3.20076 0.0107,-3.43365 0.20313,-3.737515 0.37984,-0.626722 1.25821,-0.991867 2.18751,-1.017187 z m -44.18292,10.212522 c 0.20463,-0.0124 0.41392,-0.0128 0.62813,0 0.24479,0.0146 0.49579,0.0457 0.75155,0.0938 1.27628,0.24312 2.31995,1.00193 2.76563,2.0047 0.314,0.69891 0.32415,0.94253 0.29375,5.40938 l -0.0203,3.32188 -4.05314,0 -4.0625,0 0.0313,-4.18125 0.0297,-4.17501 0.27344,-0.4547 c 0.74445,-1.23303 1.93005,-1.93171 3.36251,-2.01875 z m -22.01256,0.005 c 0.5248,-0.0275 1.07392,0.0132 1.62344,0.12969 0.84068,0.18232 1.59038,0.55675 2.07657,1.03282 0.71917,0.71913 0.69914,0.61834 0.66874,5.38907 l -0.0203,4.27344 -4.00157,0 -4.000006,0 0,-4.25313 c 0,-4.09212 0.009,-4.27459 0.212496,-4.70001 0.50898,-1.09392 1.86622,-1.78928 3.44064,-1.87188 z m -11.157842,0.0203 c 0.777242,-0.0233 1.770916,0.0838 2.287501,0.28126 0.810314,0.29373 1.418892,0.72868 1.753132,1.225 l 0.273442,0.42656 0.02969,4.1125 c 0.03038,3.97055 0.02136,4.1421 -0.181258,4.68909 -0.253231,0.66848 -0.831113,1.24558 -1.35781,1.34687 -0.314002,0.0506 -0.365626,0.10217 -0.365626,0.34532 0,0.53682 -0.09953,0.5571 -3.107824,0.58749 l -2.765631,0.0406 0,-5.39845 c 0,-5.26703 0.0099,-5.41052 0.212505,-5.83596 0.374777,-0.76977 1.458396,-1.51702 2.54219,-1.75 0.184857,-0.038 0.42061,-0.0624 0.679691,-0.0703 z m 22.696922,0.006 c 0.55155,0.0125 1.0936,0.0919 1.50001,0.24375 0.86098,0.33427 1.5603,0.92217 1.90469,1.61094 l 0.29375,0.58751 0.0313,4.17501 0.0297,4.18125 -3.91094,0 -3.90783,0 0.0297,-4.18125 0.0313,-4.17501 0.30312,-0.54688 c 0.18231,-0.33425 0.5055,-0.70923 0.80937,-0.94219 0.2836,-0.21272 0.56735,-0.4353 0.62813,-0.48594 0.3925,-0.32287 1.33859,-0.48808 2.25781,-0.46719 z m -44.996979,0.0516 c 0.182999,-0.005 0.399181,-0.003 0.653126,0.005 0.822787,0.0203 1.056955,0.0617 1.575004,0.31563 0.731365,0.34536 1.543705,1.13817 1.868755,1.79844 0.121895,0.27426 0.274211,0.4875 0.325,0.4875 0.05079,0 0.09218,1.3091 0.09219,3.1172 0,1.89951 -0.0414,3.07892 -0.09219,3.02812 -0.08126,-0.0914 -0.314817,-1.42321 -0.487501,-2.825 -0.04063,-0.32505 -0.203781,-0.53738 -1.006252,-1.32969 -0.883732,-0.88373 -1.259378,-1.43276 -1.259378,-1.83907 0,-0.0914 -0.131225,-0.33434 -0.293751,-0.53749 -0.172683,-0.20316 -0.335931,-0.51874 -0.376564,-0.68125 -0.04063,-0.17271 -0.232781,-0.49764 -0.435938,-0.73127 -0.345366,-0.4063 -0.396797,-0.42733 -0.904689,-0.43749 -0.385999,0 -0.528131,-0.0406 -0.507815,-0.12187 0.05333,-0.15999 0.301004,-0.23416 0.850003,-0.24845 z m 143.473799,0.0188 c 0.48413,-0.0188 0.98277,0.0272 1.47657,0.14374 1.09392,0.26338 1.9146,0.80059 2.41094,1.59063 0.23295,0.37478 0.2437,0.4554 0.22343,1.87345 l -0.0297,1.47969 -0.34531,-0.29375 c -0.19246,-0.15193 -0.59696,-0.3957 -0.91095,-0.5375 -0.50644,-0.21272 -0.76017,-0.24228 -2.21875,-0.28282 l -1.65157,-0.0516 -0.39531,0.27344 c -0.2127,0.15194 -0.65873,0.32515 -1.00313,0.38594 -0.67864,0.13167 -0.69746,0.15128 -0.92032,1.20468 -0.22282,1.12434 -0.30312,0.73931 -0.30312,-1.48906 0,-2.12709 0.009,-2.18775 0.24219,-2.56251 0.6533,-1.04077 1.97261,-1.67789 3.42501,-1.73437 z m -32.85008,0.0141 c 0.21366,-0.014 0.42812,-0.0136 0.63905,0 0.28124,0.0182 0.55696,0.0614 0.82032,0.12969 0.32411,0.081 0.77017,0.24253 1.00313,0.36407 0.63813,0.32412 1.44758,1.14459 1.71094,1.74219 0.24309,0.51657 0.24306,0.57856 0.27345,4.49845 l 0.0297,3.97969 -4.16252,0 -4.16406,0 0.0313,-3.97969 c 0.0304,-3.91989 0.0303,-3.98188 0.27344,-4.49845 0.26332,-0.5976 1.07437,-1.41807 1.71249,-1.74219 0.55266,-0.28488 1.19178,-0.45161 1.83283,-0.49376 z m 10.90472,0.0109 c 0.69034,-0.0238 1.59934,0.0804 2.07031,0.27031 0.74954,0.29374 1.44784,0.83039 1.8125,1.3875 0.58747,0.89134 0.61875,1.11589 0.61875,5.26876 l 0,3.77657 -4.05157,0 -4.06251,0 0.0313,-3.97969 0.0297,-3.97033 0.27344,-0.57812 c 0.46593,-0.99264 1.50085,-1.80395 2.68594,-2.10781 0.157,-0.038 0.36207,-0.0594 0.5922,-0.0672 z m 11.56096,0.003 c 0.54442,0.0267 1.08967,0.11599 1.45938,0.25781 1.13442,0.43553 1.88423,1.11476 2.11719,1.94532 0.0607,0.19245 0.10156,2.06571 0.10156,4.41563 l 0,4.08126 -3.90157,0 -3.90782,0 0.0297,-4.28282 c 0.0304,-3.85912 0.0506,-4.30627 0.21251,-4.6 0.41529,-0.75968 1.30537,-1.38756 2.42969,-1.70158 0.36971,-0.10634 0.91494,-0.1422 1.45938,-0.11562 z m -50.32825,0.89219 c 0.35571,-0.0176 0.77821,-0.0128 1.38593,0.0125 1.79283,0.0709 2.1873,0.18112 3.84845,1.00157 2.08656,1.04328 3.73781,3.14106 4.42657,5.61252 0.22283,0.79008 0.22345,0.89252 0.22345,8.55002 0.008,3.23465 -0.0133,5.57289 -0.0438,6.82971 a 8.8575311,6.3076359 0 0 0 -5.60625,5.86408 8.8575311,6.3076359 0 0 0 0.006,0.13437 l -2.94219,0 a 6.3309757,4.1603554 0 0 0 0.0297,-0.40156 6.3309757,4.1603554 0 0 0 -6.3297,-4.16096 6.3309757,4.1603554 0 0 0 -1.39688,0.10782 c -0.19604,-0.0823 -0.85893,-0.57456 -1.65626,-1.23282 l -0.33437,-0.27344 0,-6.37189 c 0,-3.50461 0.0415,-6.37189 0.0922,-6.37189 0.0406,0 0.11023,-0.48603 0.14062,-1.09375 0.0607,-1.14458 0.26391,-1.99452 0.79062,-3.13907 0.15193,-0.34438 0.29454,-0.66888 0.30469,-0.70938 0.0203,-0.0406 0.11121,-0.16276 0.2125,-0.26407 0.1013,-0.1114 0.18124,-0.23293 0.18126,-0.27342 0,-0.19245 1.71218,-2.01564 1.88438,-2.01564 0.081,0 0.14062,-0.0509 0.14062,-0.10156 0,-0.0607 0.11132,-0.15091 0.25312,-0.20157 0.13168,-0.0506 0.42561,-0.21288 0.64845,-0.35469 0.62799,-0.38489 1.81426,-0.831 2.75625,-1.02343 0.33933,-0.0659 0.62866,-0.10584 0.98438,-0.12344 z m -16.02349,0.14688 c 0.38143,-0.0205 0.7584,0.0337 1.08127,0.17031 0.61785,0.26335 0.95216,0.54814 1.17499,1.01406 0.19245,0.40517 0.20163,0.61738 0.22188,3.86876 0,1.89412 0.0104,3.70636 0,4.02033 l -0.008,0.58749 -2.38126,0 -2.38126,0 0,-4.00156 c 0,-4.36558 0.0109,-4.44519 0.57814,-4.97189 0.43047,-0.41148 1.07832,-0.65337 1.71405,-0.6875 z m 33.22041,0.0688 c 0.54695,0.0304 0.83082,0.10145 1.25625,0.33437 0.32413,0.17219 0.63794,0.45608 0.8,0.68907 l 0.26406,0.40625 0.0297,4.08125 0.0313,4.08126 -2.54375,0 -2.53283,0 0,-3.96875 c 0,-3.83888 0.0104,-3.98165 0.21251,-4.4172 0.38489,-0.79006 1.34838,-1.2569 2.48282,-1.20625 z m -44.60012,11.63596 c 0.59002,-0.0279 1.26429,0.0129 1.78594,0.13438 1.22561,0.29372 2.14644,0.90295 2.55158,1.70313 0.22283,0.42542 0.21325,0.0396 0.20312,6.62344 l -0.009,3.57501 -1.23593,0 -1.24688,-0.0109 -0.60782,-0.39531 c -0.32411,-0.22284 -0.88143,-0.505 -1.23595,-0.62656 -0.35453,-0.13166 -0.63749,-0.26262 -0.63749,-0.30313 0,-0.0406 0.0902,-0.25293 0.20156,-0.46563 0.1418,-0.26335 0.21335,-0.63887 0.24375,-1.14532 0.0204,-0.41527 0.0908,-1.11526 0.15156,-1.56093 0.0709,-0.45582 0.10145,-1.03201 0.061,-1.31564 -0.0406,-0.28361 -0.0812,-0.93267 -0.10156,-1.45937 -0.0608,-1.46871 -0.30401,-2.23853 -1.21563,-3.77814 -0.28359,-0.48618 -0.31373,-0.59716 -0.19218,-0.69844 0.18738,-0.15193 0.69436,-0.24868 1.28437,-0.27656 z m 55.17827,0.1125 c 0.23135,-0.0139 0.46642,-0.0134 0.70155,0.003 0.26872,0.019 0.53881,0.0583 0.80469,0.12031 1.24587,0.29373 2.25696,1.08204 2.52033,1.95313 0.081,0.25324 0.12187,1.18561 0.12187,2.51251 l 0,2.11876 -0.2125,-0.325 c -0.11141,-0.18233 -0.33475,-0.39474 -0.47656,-0.46564 -0.15191,-0.081 -0.71786,-0.39538 -1.25469,-0.70937 -1.09393,-0.64825 -1.40818,-0.69912 -2.11719,-0.375 -0.2431,0.11141 -0.52604,0.20313 -0.61719,0.20313 -0.1013,0 -0.38503,0.14111 -0.62812,0.32343 -0.52671,0.36464 -1.26674,0.47606 -1.96564,0.29375 l -0.425,-0.12187 0,-1.52969 c 0,-0.86097 0.0494,-1.69124 0.12032,-1.91407 0.34895,-1.17101 1.8086,-1.9899 3.42813,-2.08751 z m 11.71408,0.008 0.002,0 c 0.54444,0.0267 1.08812,0.11602 1.45781,0.25781 0.74956,0.28362 1.33688,0.7186 1.68126,1.24531 l 0.28437,0.41563 0.009,2.08594 c 0.0104,1.14458 6.3e-4,1.98563 -0.0297,1.86408 -0.081,-0.39503 -0.28439,-0.47625 -0.87188,-0.3547 -0.85082,0.17217 -1.74246,-0.14147 -2.1375,-0.73907 -0.1418,-0.22282 -0.21294,-0.24358 -0.66875,-0.18281 -0.34437,0.0406 -0.63751,0.0104 -0.93125,-0.10156 -0.2431,-0.0912 -0.77927,-0.18205 -1.2047,-0.19219 -0.709,-0.0304 -0.80014,-0.0104 -1.13438,0.25313 l -0.37499,0.28437 0,-1.3375 c 0,-1.1547 0.0301,-1.40722 0.2125,-1.77188 0.35452,-0.73941 1.14594,-1.30707 2.25,-1.61094 0.36971,-0.10637 0.91182,-0.14219 1.45625,-0.11562 z m 9.52035,0.0735 c 0.0773,0.0418 -0.0273,0.2098 -0.29063,0.51875 -0.40516,0.47607 -0.46572,0.60845 -0.50625,1.12501 -0.081,0.95213 -0.81092,1.76109 -1.67189,1.82188 -0.2836,0.0203 -0.28367,0.009 -0.31406,-0.57813 -0.0607,-1.12431 0.6785,-2.11631 1.97501,-2.65313 0.47099,-0.19246 0.73057,-0.27616 0.80782,-0.23438 z m -31.97508,1.05313 c 0.85083,0 1.03342,0.0305 1.55,0.29375 1.02301,0.49632 0.98282,0.30363 0.98282,4.83126 0,3.68696 -0.0106,3.94098 -0.20314,4.35626 -0.0881,0.19205 -0.14906,0.47785 -0.17656,0.72501 a 8.8575311,6.3076359 0 0 0 -4.68595,-1.65313 l 0,-2.88126 c 0,-5.15564 -0.0504,-4.88182 0.98282,-5.37814 0.51657,-0.26335 0.69916,-0.29375 1.55001,-0.29375 z m -32.79696,0.0625 c 0.70902,0.0105 1.08364,0.0614 1.3875,0.20312 0.23295,0.10131 0.41563,0.24316 0.41563,0.31406 0,0.19247 -0.88178,0.84026 -1.35782,0.9922 -0.21271,0.0709 -0.56699,0.10073 -0.77968,0.0703 -0.35453,-0.0506 -0.42481,-0.0103 -0.93126,0.47656 l -0.55781,0.51562 -0.12187,0.91251 c -0.0607,0.49633 -0.15168,1.77241 -0.1922,2.83593 -0.0607,1.29651 -0.13228,2.0271 -0.22344,2.22971 -0.12157,0.26332 -0.14151,-0.16392 -0.17188,-3.58752 -0.0203,-4.22375 -0.0297,-4.15181 0.53751,-4.52657 0.50645,-0.33428 1.00266,-0.44608 1.99532,-0.43594 z" />
    <path fill="#dc0067" d="M 56.869141,55.267578 C 25.462386,55.267578 0,81.238245 0,113.23438 c 0,31.99614 25.462386,57.96484 56.869141,57.96484 31.406753,0 56.871089,-25.9687 56.871089,-57.96484 0,-31.996135 -25.464336,-57.966802 -56.871089,-57.966802 z m 0,1.603516 c 30.52323,0 55.267579,25.217131 55.267579,56.363286 0,31.14615 -24.744349,56.36132 -55.267579,56.36132 -30.523232,0 -55.2656254,-25.21517 -55.2656254,-56.36132 0,-31.146155 24.7423934,-56.363286 55.2656254,-56.363286 z" />
    <path fill="#dc0067" d="m 156.7168,22.048828 c -33.86776,0 -61.328128,27.937157 -61.328128,62.361328 0,34.425114 27.460368,62.361324 61.328128,62.361324 33.86683,0 61.32617,-27.93621 61.32617,-62.361324 0,-34.424171 -27.45934,-62.361328 -61.32617,-62.361328 z m 0,1.605469 c 32.98436,0 59.7207,27.184726 59.7207,60.755859 0,33.572104 -26.73634,60.755864 -59.7207,60.755864 -32.98532,0 -59.722659,-27.18376 -59.722659,-60.755864 0,-33.571133 26.737339,-60.755859 59.722659,-60.755859 z" />
    <path fill="#dc0067" d="m 156.45703,0.09179687 c -46.11093,0 -83.542967,37.82524513 -83.542968,84.31835913 0,46.493124 37.432038,84.318364 83.542968,84.318364 C 202.56797,168.72852 240,130.90328 240,84.410156 240,37.917041 202.56797,0.09179687 156.45703,0.09179687 Z m 0,8.71484373 c 41.35518,0 74.82813,33.7743344 74.82813,75.6035154 0,41.829194 -33.47295,75.603514 -74.82813,75.603514 -41.35517,0 -74.828124,-33.77432 -74.828124,-75.603514 0,-41.829181 33.472954,-75.6035154 74.828124,-75.6035154 z" />
    <path fill="#ffb400" d="m 42.360987,118.18302 -12.499082,0 9.998698,9.47778 -19.998343,0 0,9.47778 19.998343,0 -9.998698,9.47779 12.499082,0 14.998521,-14.21715 z" />
    <path fill="#ffb400" d="m 188.38671,101.6437 -15.68527,-16.233566 33.98507,0 0,-16.232609 -33.98507,0 15.68527,-16.233557 -20.91338,0 -23.52792,24.349862 23.52792,24.34987 z" />
</svg>