<?xml version="1.0" encoding="UTF-8" standalone="no"?>
<svg xmlns="http://www.w3.org/2000/svg" version="1.2" baseProfile="tiny" width="300" height="272" viewBox="0 0 240 217.6" viewport-fill="#ffffff">
    <path fill="#000000" d="m 9.5382227,85.566052 a 55.066403,56.388757 0 0 0 -7.1340347,27.691838 55.066403,56.388757 0 0 0 3.5068211,19.47737 55.444221,56.2943 0 0 0 0.5942457,1.65153 55.066403,56.388757 0 0 0 1.0187067,2.34921 55.444221,56.2943 0 0 0 1.5789957,3.33086 55.066403,56.388757 0 0 0 0.1404581,0.284 c 0.00453,-0.002 0.00924,-0.005 0.013891,-0.008 a 55.444221,56.2943 0 0 0 48.7806228,29.68142 55.444221,56.2943 0 0 0 46.182921,-25.30253 79.543404,79.543404 0 0 0 52.40321,19.92344 79.543404,79.543404 0 0 0 59.66844,-27.04512 l -0.90758,0 a 79.224965,79.224965 0 0 0 15.37321,-23.68493 80.073691,80.073691 0 0 0 0.73162,-2.00655 79.224965,79.224965 0 0 0 1.75341,-4.94227 80.073691,80.073691 0 0 0 0.77019,-3.01291 c -0.16599,0.22273 -0.33298,0.43708 -0.73778,0.92148 -0.16008,0.1801 -0.47998,0.40079 -0.75014,0.49082 -0.26015,0.10007 -0.72086,0.28048 -1.03106,0.41058 -0.31016,0.13006 -0.74999,0.23923 -0.98011,0.23923 l -0.41057,0 0,-2.9311 c 0,-2.85164 0.009,-2.93317 0.23924,-3.423458 0.40592,-0.87065 1.31617,-1.49561 2.40323,-1.77348 l 0.51089,0 0,-0.10032 c 0.62162,-0.0905 1.27896,-0.0805 1.92937,0.0741 l 0.002,0 c 0.063,0.0148 0.12171,0.0349 0.18212,0.0525 a 80.073691,80.073691 0 0 0 0.28865,-1.90314 l -1.70248,0 -0.69921,0 0,-7.92893 c 0.53343,-0.0928 1.08763,-0.0944 1.6392,0.034 0.56716,0.13017 1.08984,0.38768 1.54967,0.73315 a 80.073691,80.073691 0 0 0 0.15126,-3.04377 l -64.42704,0 c -46.974,5e-5 -71.45559,-0.006 -95.548523,-0.0139 a 80.073691,80.073691 0 0 0 1.771932,14.621538 c 0.09426,-0.772138 0.30634,-1.000838 0.802618,-1.480208 0.880502,-0.86049 2.04284,-1.28104 3.483668,-1.26104 0.490283,0.0103 1.091149,0.0696 1.341301,0.12966 0.660373,0.19011 1.520676,0.67099 1.930913,1.09125 0.20012,0.20011 0.448675,0.61123 0.558744,0.90139 0.200112,0.500298 0.209911,0.728388 0.209911,3.820168 l 0,3.30307 -4.201389,0 -2.4804,0 a 80.073691,80.073691 0 0 0 0.76403,2.29672 c 0.105587,-0.004 0.217553,-0.0386 0.274745,-0.0864 0.115063,-0.11505 0.541358,-0.18014 1.034139,-0.19139 0.49278,-0.0112 1.053318,0.0311 1.438535,0.1312 0.710413,0.1801 1.260733,0.46106 1.721002,0.86127 0.320185,0.29018 0.42846,0.43936 0.768655,1.08971 0.100064,0.20014 0.14051,1.52321 0.160528,6.0258 l 0.01699,4.72156 a 80.073691,80.073691 0 0 0 0.747057,1.2209 l -3.316974,0 a 84.063635,84.063635 0 0 1 -0.09415,-0.16516 l -1.58517,0 0,-0.78254 c 0,-0.42146 -0.04015,-0.82268 -0.08026,-0.88289 -0.150515,-0.23078 -0.701372,-0.42134 -1.674694,-0.5819 -0.551885,-0.10033 -1.193855,-0.24231 -1.424646,-0.32259 l -0.432179,-0.16052 0.0093,-4.27394 c 0.0082,-3.75582 0.0097,-4.43315 0.310243,-4.97778 A 84.063635,84.063635 0 0 1 75.243782,95.973662 l -3.619496,-0.0247 -4.516268,-0.02 0.03087,-2.53905 0.02933,-2.52825 0.280916,-0.58189 c 0.501715,-1.0235 1.596569,-1.89691 2.770575,-2.23808 0.712434,-0.21071 2.42781,-0.12969 3.130208,0.15127 0.454843,0.17657 0.840415,0.39102 1.177686,0.64827 a 84.063635,84.063635 0 0 1 -0.112674,-3.16571 c -39.526042,-0.015 -60.666119,-0.044 -64.8766141,-0.10956 z m 40.1710063,2.34302 c 0.425033,-0.0129 0.857101,0.0326 1.284188,0.14354 1.555312,0.40137 2.669408,1.40514 3.100883,2.77984 0.150512,0.51174 0.180588,0.94278 0.180588,2.84929 l 0,2.24733 -4.415939,0 -4.414398,0 0,-2.24733 c 0,-1.90651 0.03007,-2.33755 0.18059,-2.84929 0.538088,-1.7121 2.242278,-2.86775 4.084088,-2.92338 z m -21.400561,0.003 c 0.265497,0.0116 0.532368,0.0451 0.79953,0.10032 1.38473,0.291 2.559028,1.18368 3.120948,2.36772 0.321096,0.68234 0.32027,0.68194 0.350373,2.54831 l 0.04013,1.86609 -0.581898,-0.18984 c -1.184044,-0.40137 -2.859919,-0.41219 -4.003827,-0.0309 -0.832844,0.28096 -1.774919,0.82336 -2.417113,1.39532 l -0.601963,0.54176 -0.733161,-0.20991 -0.722355,-0.21146 0.02933,-2.51898 0.03087,-2.50819 0.321047,-0.68222 c 0.755079,-1.58918 2.509615,-2.54884 4.368091,-2.46804 z m -10.762792,0.0154 c 0.506926,0.0191 1.000796,0.10743 1.418472,0.26548 0.812775,0.31104 1.58433,0.88201 2.015805,1.51417 0.622124,0.88302 0.682224,1.22434 0.682224,3.96369 l 0,2.42946 -0.67142,0.1204 -0.682225,0.12965 -0.601963,-0.35037 c -1.214146,-0.72247 -2.730227,-1.03494 -4.135023,-0.86436 -0.411406,0.0603 -0.782549,0.081 -0.802618,0.0509 -0.0301,-0.02 0.01081,-0.14044 0.071,-0.26084 0.08027,-0.14049 0.0903,-0.44215 0.04013,-0.87362 -0.09031,-0.87299 -0.582584,-1.74488 -1.134469,-2.03587 -0.47161,-0.24083 -0.763272,-0.77322 -0.672964,-1.25486 0.150515,-0.80275 1.074114,-1.84594 2.097609,-2.36773 0.645957,-0.33865 1.530562,-0.49788 2.37544,-0.46613 z m 43.315107,0.009 c 0.605818,0.0301 1.209274,0.12073 1.560473,0.25623 0.933187,0.36121 1.646839,0.90205 2.108414,1.61448 0.220754,0.3512 0.450692,0.80337 0.490832,0.99402 0.05017,0.20068 0.09107,1.43525 0.09107,2.73969 l 0,2.38779 -4.465332,0 -4.476136,0 0.03087,-2.53904 0.02933,-2.52824 0.280916,-0.58191 c 0.521782,-1.0536 1.54562,-1.88687 2.779835,-2.23806 0.356216,-0.10536 0.963916,-0.13507 1.569735,-0.10496 z m -22.303507,0.002 c 0.704594,-0.0226 1.598987,0.0741 2.080632,0.25468 1.214147,0.46156 2.177038,1.39512 2.588441,2.51898 0.190651,0.51172 0.209916,0.80233 0.209916,2.66871 0,1.92657 -0.01002,2.07678 -0.160524,1.92628 -0.110376,-0.11038 -0.180583,-0.41128 -0.220719,-0.88289 l -0.04939,-0.71309 -0.532506,-0.34111 c -0.290994,-0.19065 -0.702257,-0.39127 -0.92301,-0.44145 -0.371269,-0.10034 -0.601827,-0.2507 -1.484843,-0.96314 -0.341165,-0.27092 -0.450592,-0.3002 -1.152991,-0.31024 -0.421439,-0.0101 -0.993971,-0.0903 -1.254861,-0.18058 -0.592022,-0.19066 -0.792453,-0.20144 -1.645366,-0.11115 -0.592022,0.0702 -0.692971,0.12034 -1.074273,0.52171 l -0.430636,0.43218 0,-0.44143 c 0,-0.63217 0.340279,-1.63602 0.751683,-2.19794 0.571954,-0.77265 1.676081,-1.46552 2.679508,-1.67624 0.170582,-0.0351 0.384077,-0.0558 0.618941,-0.0633 z m 54.939169,0.0524 c 0.500446,0.002 1.004195,0.0753 1.489476,0.22535 1.280742,0.40022 2.511319,1.5511 2.821507,2.65173 0.08002,0.26015 0.120398,1.27051 0.12039,2.78137 l 0,2.36154 -4.502371,0 -4.502379,0 0,-2.40167 c 0,-2.71155 0.04987,-2.97069 0.770204,-3.91122 0.832984,-1.08812 2.301842,-1.71507 3.803173,-1.7071 z m 21.541015,0.0154 c 0.47028,0 1.08039,0.0605 1.35056,0.14045 1.27072,0.33019 2.28274,1.15132 2.82305,2.25196 l 0.27938,0.56029 0.0309,2.52053 0.0293,2.53133 -4.4638,0 -4.45143,0 0,-2.40168 c 0,-2.11121 0.0198,-2.45997 0.18984,-2.90022 0.62036,-1.63094 2.28113,-2.69265 4.2122,-2.70266 z m 10.98969,0.003 c 0.55407,0.002 1.11281,0.0675 1.52806,0.19757 1.18066,0.36021 2.16996,1.18118 2.67024,2.19176 0.22015,0.46026 0.26953,0.74912 0.33957,1.79972 0.05,0.6904 0.0614,1.83093 0.0215,2.53134 l -0.0603,1.28109 -4.50237,0 -4.49158,0 0.0279,-2.53287 c 0.03,-2.52144 0.0307,-2.51896 0.30098,-3.07928 0.50026,-1.01058 1.4803,-1.82234 2.66099,-2.20257 0.40021,-0.12507 0.95084,-0.18801 1.50491,-0.18676 z m 97.4532,0.005 c 0.23603,0.0129 0.47364,0.0468 0.71001,0.10188 1.22071,0.28016 2.26045,1.1121 2.83077,2.26276 l 0.33031,0.66988 0.0293,2.4804 0.0401,2.48193 -4.17207,0 -4.17207,0 0.0401,-2.48193 0.0293,-2.4804 0.33031,-0.66988 c 0.7617,-1.54088 2.35161,-2.45547 4.00382,-2.36464 z m -140.961239,0.002 c 0.470265,-0.0101 1.080393,0.0512 1.350554,0.13119 1.250705,0.33019 2.28041,1.14122 2.810705,2.21183 l 0.290179,0.59888 0.0309,2.52207 0.02932,2.53132 -4.462241,0 -4.462248,0 0.02933,-2.53132 0.03087,-2.52207 0.279373,-0.57882 c 0.730417,-1.47085 2.252246,-2.35308 4.073288,-2.36308 z m 71.148959,0.002 c 0.7429,-7.9e-4 1.48731,0.0496 1.97258,0.14972 2.68154,0.55031 5.18395,2.45057 6.37464,4.84194 0.15009,0.3002 0.32891,0.58048 0.38895,0.62049 0.06,0.04 0.08,0.0803 0.0401,0.0803 -0.04,0 0.0211,0.25938 0.1312,0.56955 0.45026,1.29073 0.46932,1.64115 0.50935,7.234368 l 0.0309,5.35438 -9.38599,0.0293 -9.38599,0.02 0.0309,-5.57356 c 0.04,-5.413108 0.039,-5.603468 0.2593,-6.383888 0.28015,-0.99058 0.89138,-2.29118 1.46169,-3.09162 1.28075,-1.79104 3.48094,-3.24179 5.61215,-3.69204 0.47527,-0.10508 1.21732,-0.15773 1.96025,-0.15899 z m 48.19408,0.002 c 0.40524,-0.002 0.81093,0.0424 1.17615,0.13737 1.24072,0.3202 2.43065,1.33038 2.87089,2.43101 0.21014,0.53029 0.23086,0.73999 0.26086,2.9913 l 0.0293,2.43253 -4.31253,0 -4.31252,0 0.0309,-2.43253 c 0.03,-2.25131 0.0508,-2.46101 0.26085,-2.9913 0.43026,-1.08062 1.62928,-2.10003 2.81996,-2.4202 0.36521,-0.095 0.77093,-0.14567 1.17615,-0.14818 z m -21.96085,0.002 c 0.23471,-0.0163 0.47197,-0.0151 0.70847,0.003 0.27027,0.0208 0.5393,0.0639 0.8057,0.13275 1.40081,0.37022 2.45023,1.18926 3.00056,2.33993 l 0.31024,0.66062 0.0309,2.42174 0.0293,2.43255 -4.56103,0 -4.56411,0 0.0309,-2.43255 0.0293,-2.42174 0.31023,-0.66062 c 0.68179,-1.42488 2.22662,-2.36155 3.86954,-2.47577 z m 32.32389,0.0109 c 0.2186,-0.0166 0.43923,-0.0167 0.66061,0 0.253,0.0192 0.50646,0.06 0.75785,0.12502 1.2407,0.3302 2.30201,1.19925 2.83232,2.31988 0.27015,0.57033 0.27096,0.61163 0.30098,3.05303 l 0.0401,2.48194 -4.27394,0 -4.27239,0 0.0401,-2.48194 c 0.03,-2.4414 0.0309,-2.4827 0.30099,-3.05303 0.66645,-1.41721 2.08304,-2.32855 3.61332,-2.4449 z m -107.73443,0.003 c 1.0406,0.0299 1.15185,0.0512 1.87226,0.40131 0.93054,0.44025 1.621,1.08963 2.03124,1.92011 l 0.29017,0.60042 0.0293,2.52207 0.0309,2.53132 -4.46378,0 -4.462246,0 0.0309,-2.53132 0.02932,-2.52207 0.280916,-0.58036 c 0.37023,-0.74042 1.06012,-1.43962 1.83059,-1.83984 0.85049,-0.45026 1.21972,-0.53166 2.50046,-0.50164 z m 86.22736,0.008 c 0.7026,-0.0225 1.59265,0.073 2.07292,0.25314 1.26072,0.48027 2.23286,1.45012 2.59307,2.60078 0.17007,0.55033 0.19911,0.92134 0.19911,2.87246 l 0,2.24114 -4.45143,0 -4.453,0 0,-2.24114 c 0,-2.54146 0.10976,-3.11253 0.75015,-3.99303 0.5703,-0.77044 1.67122,-1.45993 2.67178,-1.67006 0.17009,-0.035 0.38321,-0.0558 0.6174,-0.0633 z m -53.91274,2.06983 c 0.37271,-0.009 0.75117,0.0327 0.98629,0.13274 0.5103,0.21012 1.06954,0.76168 1.31968,1.31198 0.22013,0.47028 0.23925,0.62009 0.23925,2.47113 l 0,1.98184 -2.50045,0 -2.50202,0 0,-1.88151 c 0,-1.49085 0.0312,-1.99213 0.17133,-2.37235 0.18011,-0.54031 0.78018,-1.20081 1.33049,-1.47096 0.21511,-0.10506 0.5827,-0.16411 0.95543,-0.17287 z m 32.53533,0.22072 c 0.42364,0.0231 0.85888,0.13323 1.16843,0.31333 0.25015,0.15009 0.57072,0.41957 0.72081,0.60969 0.47028,0.62034 0.53023,0.96071 0.54023,2.92183 l 0,1.83212 -2.51128,0 -2.51281,0 0.0401,-1.98184 c 0.03,-1.95111 0.0301,-1.98154 0.31025,-2.44181 0.31018,-0.5303 0.79099,-0.93054 1.34129,-1.14064 0.14258,-0.055 0.30983,-0.0899 0.48775,-0.1065 0.13342,-0.0125 0.27398,-0.0139 0.4152,-0.006 z m -54.44216,7.28839 c 0.58251,0.0108 1.56235,0.13174 1.90005,0.25931 0.90051,0.3502 1.91169,1.32967 2.23189,2.170148 0.20011,0.53029 0.20991,0.75195 0.20991,3.71364 l 0,3.15028 -4.06248,0 -4.05168,0 0.0293,-3.28146 c 0.03,-3.25186 0.0307,-3.27201 0.28092,-3.772318 0.45026,-0.9105 1.43986,-1.72031 2.50046,-2.04049 0.25015,-0.07 0.49946,-0.14975 0.54949,-0.16979 0.0675,-0.025 0.21793,-0.033 0.41211,-0.0293 z m -43.484891,0.0185 c 0.568191,0.009 1.147148,0.0691 1.503364,0.17443 1.123839,0.35119 1.997988,1.08338 2.429462,2.04667 0.180617,0.401388 0.200654,0.683308 0.200654,3.713668 l 0,3.29072 -4.16435,0 -4.175154,0 0.03087,-3.39105 0.02933,-3.3818 0.271655,-0.461508 c 0.481646,-0.8228 1.415226,-1.52569 2.438721,-1.85682 0.311062,-0.10036 0.867261,-0.14307 1.435451,-0.13429 z m -10.812184,0.005 c 0.302361,0.004 0.609536,0.0363 0.916837,0.10034 1.244248,0.26087 2.368415,1.07256 2.860096,2.076 l 0.280916,0.572628 0.02006,3.26141 c 0.01004,1.9667 -0.0093,3.18115 -0.06946,3.06075 -0.05017,-0.11039 -0.09107,-0.50158 -0.09107,-0.86282 -0.01004,-0.36123 -0.07947,-0.86431 -0.169785,-1.12521 -0.130446,-0.39134 -0.241491,-0.51162 -0.672963,-0.76248 -0.290995,-0.17058 -0.732347,-0.47151 -1.003273,-0.68222 -2.267746,-1.80617 -2.719418,-2.03666 -4.144284,-2.04668 -0.491679,0 -1.053406,-0.0602 -1.244057,-0.14046 -0.331131,-0.12041 -0.371169,-0.1104 -0.642094,0.14046 l -0.291721,0.26085 0.0602,-0.59115 c 0.18438,-1.896478 2.074065,-3.286528 4.190591,-3.261418 z m 43.930955,0.0309 c 0.2089,-0.004 0.3582,-7.9e-4 0.39822,0.0139 0.08,0.0199 0.32084,0.061 0.53098,0.0911 0.21011,0.03 0.40062,0.0989 0.43062,0.13892 0.03,0.0501 0.11905,0.0911 0.19911,0.0911 0.19011,0 0.86119,0.45976 1.4015,0.96006 0.28017,0.26014 0.49123,0.58063 0.63129,0.97085 0.20012,0.540318 0.20991,0.770588 0.20991,3.772298 l 0,3.20121 -4.10261,0 -4.10261,0 0,-3.23053 0,-3.24289 0.30098,-0.589618 c 0.36021,-0.7204 0.85047,-1.21219 1.70094,-1.70247 0.59033,-0.34019 0.73947,-0.37831 1.64999,-0.43835 0.27514,-0.02 0.54281,-0.0317 0.75168,-0.0355 z m 97.15376,0.0385 c 0.35989,-0.0131 0.72606,0.0215 1.09125,0.10651 1.22071,0.28015 2.47158,1.32966 2.92185,2.460318 0.23011,0.56032 0.24008,0.70087 0.27011,3.60252 l 0.0309,3.03142 -4.16281,0 -4.16281,0 0.0309,-3.03142 c 0.04,-3.56204 0.0698,-3.73273 1.08045,-4.803348 0.79544,-0.85549 1.82054,-1.32661 2.90023,-1.366 z m -10.59146,0.008 c 0.42868,-0.003 0.86381,0.0397 1.29655,0.12965 1.2307,0.26015 2.34245,1.01007 2.70265,1.81052 0.1701,0.360228 0.18985,0.729908 0.18985,3.821698 l 0,3.43273 -4.15199,0 -4.15355,0 0,-3.43273 c 0,-3.872238 0.0105,-3.901518 0.781,-4.591898 0.83298,-0.75045 2.04944,-1.16247 3.33549,-1.16997 z m -11.19034,0.002 c 0.2358,-0.0159 0.47397,-0.0153 0.71155,0.003 0.27153,0.0211 0.54268,0.0655 0.81035,0.13429 1.38077,0.36021 2.45947,1.19077 3.00981,2.321408 l 0.29017,0.5819 0.0309,3.07001 0.0293,3.08235 -4.56103,0 -4.56411,0 0.0309,-3.08235 0.0293,-3.07001 0.29016,-0.5819 c 0.68948,-1.417218 2.24213,-2.347538 3.89269,-2.458788 z m 32.40877,0.006 c 0.40741,-0.0131 0.82573,0.016 1.24097,0.0911 1.2007,0.22013 2.372,1.00175 2.81226,1.87226 0.16008,0.330178 0.17988,0.720618 0.2099,3.792368 l 0.0293,3.43119 -4.11186,0 -4.11188,0 0.0293,-3.43119 c 0.03,-3.852188 0.0184,-3.782928 0.8088,-4.573378 0.73542,-0.72041 1.87089,-1.14291 3.09315,-1.18232 z m -86.82623,0.009 c 0.82546,-0.0282 1.89317,0.0746 2.35845,0.25469 0.88051,0.3402 1.67119,1.04789 2.09145,1.85836 l 0.35808,0.691478 0.0309,3.18269 0.0293,3.1904 -4.26159,0 -4.26314,0 0.0309,-3.18114 0.0293,-3.17188 0.28092,-0.53096 c 0.53031,-1.010568 1.73029,-2.039458 2.60079,-2.219548 0.19011,-0.04 0.43948,-0.0647 0.71464,-0.0741 z m -31.961158,0.003 c 1.240715,0.03 1.258733,0.029 2.119218,0.44916 l 0.0032,0 c 0.700392,0.34019 0.959466,0.53139 1.319687,0.98166 0.260141,0.31018 0.460759,0.59047 0.470764,0.62048 0,0.04 0.03019,0.16005 0.06022,0.270118 0.08004,0.25013 0.07941,0.9011 0.04939,4.223 l -0.02157,2.63012 -4.201397,0 -4.202938,0 0,-3.33087 c 0,-3.29188 6.48e-4,-3.33297 0.240787,-3.823238 0.390219,-0.82046 1.24085,-1.49969 2.341482,-1.8599 0.460261,-0.15008 0.810753,-0.19054 1.821326,-0.16053 z m 129.807948,0.009 c 0.57872,0.0159 1.18708,0.10008 1.58671,0.24079 l 0,0.002 c 1.06059,0.37022 1.84066,1.07031 2.14083,1.89079 0.10006,0.290168 0.13046,1.189118 0.14045,3.710548 l 0,3.32316 -3.87262,-0.0201 -3.8819,-0.0309 0,-3.45126 0,-3.451258 0.27012,-0.47076 c 0.46026,-0.78045 1.33036,-1.37139 2.431,-1.65154 0.17261,-0.0426 0.38843,-0.0699 0.62512,-0.0834 0.17753,-0.0103 0.36737,-0.0124 0.56029,-0.008 z m -86.45117,0.91993 c 0.36045,0.0109 0.73257,0.12018 1.11904,0.3303 0.55032,0.30017 1.07857,0.98098 1.24868,1.591338 0.06,0.21011 0.10033,1.63224 0.10033,3.34322 l 0,2.98203 -2.50045,0 -2.50202,0 0,-3.0021 c 0,-3.45198 0.0508,-3.72262 0.82114,-4.473048 0.54407,-0.53155 1.11255,-0.78981 1.71328,-0.77174 z m 32.24517,0.16669 c 0.55082,-0.015 1.11987,0.091 1.6114,0.33494 0.3502,0.18009 0.67178,0.41962 0.81188,0.62975 0.22009,0.340198 0.21918,0.380958 0.21918,3.722908 l 0,3.3926 -2.50201,0 -2.50202,0 0,-3.38334 c 0,-3.16182 0.0105,-3.39188 0.20066,-3.692048 0.37522,-0.6191 1.2429,-0.97979 2.16091,-1.00481 z M 125.4825,108.92707 c 0.20214,-0.0122 0.40889,-0.0127 0.62049,0 0.24182,0.0144 0.48977,0.0451 0.74241,0.0926 1.26075,0.24015 2.29173,0.98974 2.73199,1.98031 0.31017,0.6904 0.3202,0.93106 0.29017,5.34358 l -0.02,3.28147 -4.00382,0 -4.01309,0 0.0309,-4.1304 0.0293,-4.12422 0.27011,-0.44916 c 0.7354,-1.21803 1.90658,-1.90821 3.3216,-1.99419 z m -21.74477,0.005 c 0.51842,-0.0272 1.06086,0.013 1.6037,0.12811 0.83045,0.1801 1.57103,0.54998 2.0513,1.02025 0.71041,0.71039 0.69064,0.61083 0.66062,5.32352 l -0.0201,4.22145 -3.95288,0 -3.95135,0 0,-4.20139 c 0,-4.04233 0.009,-4.22258 0.2099,-4.64283 0.50279,-1.08062 1.84352,-1.76751 3.39879,-1.84911 z m -11.022093,0.02 c 0.767786,-0.023 1.749372,0.0828 2.259673,0.27784 0.800456,0.29015 1.40163,0.71982 1.731805,1.2101 l 0.270114,0.42137 0.02932,4.06247 c 0.03003,3.92225 0.0211,4.09171 -0.179052,4.63204 -0.250152,0.66035 -0.821003,1.23043 -1.341292,1.3305 -0.310181,0.05 -0.361177,0.10091 -0.361177,0.34111 0,0.53028 -0.09832,0.55032 -3.070016,0.58034 l -2.731985,0.0401 0,-5.33277 c 0,-5.20296 0.0098,-5.3447 0.209919,-5.76496 0.370218,-0.76042 1.440653,-1.49858 2.511263,-1.72871 0.182608,-0.0375 0.415492,-0.0616 0.671421,-0.0694 z m 22.420803,0.006 c 0.54484,0.0123 1.08029,0.0908 1.48176,0.24077 0.85051,0.33021 1.54132,0.91096 1.88152,1.59135 l 0.29018,0.58035 0.0309,4.12422 0.0293,4.1304 -3.86337,0 -3.86028,0 0.0293,-4.1304 0.0309,-4.12422 0.29943,-0.54022 c 0.1801,-0.33018 0.49934,-0.70059 0.79952,-0.93073 0.28016,-0.21012 0.56045,-0.43 0.6205,-0.48002 0.38772,-0.31895 1.3223,-0.48215 2.23034,-0.4615 z m -44.449568,0.0509 c 0.180773,-0.005 0.394325,-0.003 0.645182,0.005 0.812777,0.0201 1.044096,0.0609 1.555843,0.31178 0.722467,0.34116 1.524924,1.12434 1.84602,1.77657 0.120412,0.27092 0.270875,0.48157 0.321047,0.48157 0.05017,0 0.09106,1.29317 0.09107,3.07927 0,1.87641 -0.0409,3.04146 -0.09107,2.99129 -0.08027,-0.0903 -0.310987,-1.4059 -0.481571,-2.79064 -0.04014,-0.32109 -0.201302,-0.53083 -0.99401,-1.31351 -0.872982,-0.87298 -1.244057,-1.41533 -1.244057,-1.8167 0,-0.0903 -0.129629,-0.33027 -0.290178,-0.53096 -0.170582,-0.20069 -0.331844,-0.51241 -0.371982,-0.67295 -0.04014,-0.1706 -0.22995,-0.49158 -0.430635,-0.72237 -0.341165,-0.40136 -0.39197,-0.42214 -0.893684,-0.43218 -0.381302,0 -0.521705,-0.0401 -0.501636,-0.12038 0.05269,-0.15804 0.297342,-0.23132 0.839661,-0.24542 z m 141.728368,0.0185 c 0.47824,-0.0186 0.97081,0.027 1.4586,0.142 1.08061,0.26017 1.89132,0.79085 2.3816,1.57128 0.23013,0.37021 0.24074,0.44986 0.22073,1.85065 l -0.0293,1.46169 -0.34111,-0.29018 c -0.19011,-0.15008 -0.58969,-0.39088 -0.89985,-0.53096 -0.50028,-0.21012 -0.75094,-0.23932 -2.19178,-0.27938 l -1.63147,-0.0511 -0.39051,0.27012 c -0.21011,0.15009 -0.65072,0.32118 -0.99092,0.38124 -0.67038,0.13008 -0.68898,0.14944 -0.90912,1.19003 -0.22012,1.11066 -0.29944,0.73031 -0.29944,-1.47095 0,-2.10122 0.009,-2.16113 0.23925,-2.53133 0.64535,-1.0281 1.9486,-1.65748 3.38334,-1.71327 z m -32.45045,0.0139 c 0.21106,-0.0138 0.42292,-0.0134 0.63128,0 0.27782,0.018 0.55019,0.0607 0.81034,0.12811 0.32017,0.08 0.7608,0.23958 0.99092,0.35964 0.63037,0.32017 1.42997,1.13066 1.69013,1.721 0.24013,0.51028 0.24011,0.57152 0.27012,4.44372 l 0.0293,3.93128 -4.11188,0 -4.11341,0 0.0309,-3.93128 c 0.03,-3.8722 0.0299,-3.93344 0.27012,-4.44372 0.26011,-0.59034 1.0613,-1.40083 1.69167,-1.721 0.54591,-0.28141 1.17727,-0.44612 1.81051,-0.48775 z m 10.77206,0.0109 c 0.68194,-0.0235 1.57988,0.0794 2.04513,0.26702 0.74041,0.29017 1.43023,0.82029 1.79044,1.37062 0.58034,0.8805 0.61124,1.10232 0.61124,5.20467 l 0,3.73063 -4.00228,0 -4.0131,0 0.0309,-3.93129 0.0293,-3.92202 0.27011,-0.57109 c 0.46026,-0.98056 1.4826,-1.78199 2.65327,-2.08218 0.15509,-0.0375 0.35767,-0.0587 0.58499,-0.0664 z m 11.42031,0.003 c 0.5378,0.0264 1.07642,0.11458 1.44163,0.25469 1.12063,0.43022 1.86131,1.10119 2.09143,1.92165 0.06,0.1901 0.10033,2.04057 0.10033,4.36191 l 0,4.03161 -3.85411,0 -3.86028,0 0.0293,-4.23072 c 0.03,-3.81218 0.05,-4.25388 0.20993,-4.54405 0.41024,-0.75043 1.28949,-1.37067 2.40013,-1.68087 0.36522,-0.10505 0.90382,-0.14047 1.44162,-0.11422 z m -49.71598,0.88134 c 0.35139,-0.0174 0.76874,-0.0126 1.36908,0.0123 1.77101,0.07 2.16069,0.17891 3.80163,0.98938 2.06117,1.03058 3.69234,3.10285 4.37272,5.54424 0.22011,0.78046 0.22072,0.88166 0.22072,8.44601 0.008,3.19529 -0.0131,5.50508 -0.0433,6.74661 a 8.7497744,6.2309001 0 0 0 -5.53806,5.79274 8.7497744,6.2309001 0 0 0 0.006,0.13274 l -2.90639,0 a 6.253956,4.1097425 0 0 0 0.0293,-0.39668 6.253956,4.1097425 0 0 0 -6.2527,-4.11033 6.253956,4.1097425 0 0 0 -1.37989,0.10651 c -0.19365,-0.0812 -0.84849,-0.56757 -1.63611,-1.21783 l -0.3303,-0.27011 0,-6.29437 c 0,-3.46198 0.041,-6.29437 0.0911,-6.29437 0.0401,0 0.10889,-0.48012 0.13891,-1.08045 0.06,-1.13066 0.2607,-1.97025 0.78101,-3.10088 0.15007,-0.34019 0.29095,-0.66074 0.30097,-0.70075 0.0201,-0.0401 0.10986,-0.16078 0.20992,-0.26085 0.10007,-0.11006 0.17903,-0.23011 0.17905,-0.27011 0,-0.19011 1.69136,-1.99111 1.86145,-1.99111 0.08,0 0.13892,-0.0503 0.13892,-0.10033 0,-0.06 0.10997,-0.14908 0.25005,-0.1991 0.13007,-0.05 0.42042,-0.2103 0.64055,-0.35038 0.62036,-0.38022 1.79218,-0.82089 2.72271,-1.01099 0.33521,-0.065 0.62103,-0.10454 0.97241,-0.12193 z m -15.82855,0.14508 c 0.37679,-0.0203 0.74918,0.0334 1.06811,0.16825 0.61035,0.26016 0.94058,0.54148 1.16071,1.00173 0.1901,0.40023 0.19917,0.60987 0.21917,3.82169 0,1.87107 0.0103,3.66127 0,3.97141 l -0.008,0.58036 -2.35229,0 -2.35229,0 0,-3.95289 c 0,-4.31246 0.0108,-4.3911 0.5711,-4.9114 0.42525,-0.40647 1.06521,-0.64543 1.6932,-0.67915 z m 32.81626,0.0679 c 0.5403,0.03 0.82073,0.10022 1.24097,0.33031 0.32019,0.17009 0.63018,0.45052 0.79027,0.68068 l 0.26086,0.40131 0.0293,4.03161 0.0309,4.03161 -2.51282,0 -2.50201,0 0,-3.92048 c 0,-3.79218 0.0103,-3.93321 0.20992,-4.36346 0.38021,-0.78044 1.33199,-1.24161 2.45262,-1.19158 z M 125.37136,121.644 c 0.58284,-0.0276 1.24891,0.0127 1.76422,0.13274 1.21069,0.29015 2.12032,0.89196 2.52053,1.68241 0.22013,0.42025 0.21065,0.0391 0.20066,6.54288 l -0.009,3.53152 -1.22091,0 -1.23172,-0.0109 -0.60041,-0.39051 c -0.32017,-0.22013 -0.87071,-0.49886 -1.22091,-0.61894 -0.35022,-0.13006 -0.62975,-0.25942 -0.62975,-0.29943 0,-0.0401 0.089,-0.24986 0.19911,-0.45997 0.14008,-0.26015 0.21077,-0.6311 0.2408,-1.13138 0.0202,-0.41022 0.0896,-1.10171 0.14971,-1.54195 0.07,-0.45027 0.10022,-1.01946 0.0603,-1.29963 -0.0401,-0.28016 -0.0802,-0.92132 -0.10032,-1.44162 -0.0601,-1.45084 -0.30031,-2.2113 -1.20085,-3.73217 -0.28014,-0.48028 -0.30991,-0.5899 -0.18984,-0.68994 0.1851,-0.1501 0.68591,-0.24567 1.26875,-0.2732 z m 54.50699,0.11113 c 0.22855,-0.0137 0.46076,-0.0132 0.69303,0.003 0.26545,0.0188 0.53225,0.0576 0.7949,0.11885 1.23071,0.29016 2.2295,1.06889 2.48965,1.92938 0.08,0.25015 0.1204,1.17117 0.1204,2.48193 l 0,2.09298 -0.20991,-0.32105 c -0.11006,-0.1801 -0.33068,-0.38992 -0.47077,-0.45996 -0.15006,-0.08 -0.70913,-0.39057 -1.23943,-0.70075 -1.08062,-0.64036 -1.39104,-0.69061 -2.09143,-0.37044 -0.24014,0.11006 -0.51964,0.20066 -0.60968,0.20066 -0.10007,0 -0.38036,0.13939 -0.62048,0.3195 -0.52029,0.3602 -1.25132,0.47028 -1.94173,0.29018 l -0.41983,-0.12039 0,-1.51108 c 0,-0.85049 0.0488,-1.67066 0.11886,-1.89079 0.34471,-1.15676 1.7866,-1.96568 3.38642,-2.06211 z m 11.57159,0.008 0.002,0 c 0.53781,0.0264 1.07487,0.11461 1.44007,0.25468 0.74045,0.28018 1.32062,0.70985 1.66081,1.23016 l 0.28092,0.41058 0.009,2.06055 c 0.0103,1.13065 6.1e-4,1.96148 -0.0293,1.8414 -0.08,-0.39022 -0.28093,-0.47046 -0.86128,-0.35037 -0.84048,0.17006 -1.72127,-0.13975 -2.1115,-0.73007 -0.14007,-0.22013 -0.21034,-0.24063 -0.66061,-0.1806 -0.34019,0.0401 -0.62975,0.0103 -0.91993,-0.10033 -0.24013,-0.0901 -0.76978,-0.17983 -1.19004,-0.18984 -0.70037,-0.03 -0.7904,-0.0103 -1.12057,0.25004 l -0.37044,0.28091 0,-1.32122 c 0,-1.14065 0.0298,-1.3901 0.20992,-1.75033 0.35021,-0.73041 1.132,-1.29118 2.22263,-1.59134 0.36522,-0.10508 0.90072,-0.14046 1.43854,-0.11422 z m 9.40451,0.0725 c 0.0764,0.0413 -0.027,0.20725 -0.28708,0.51243 -0.40023,0.47027 -0.46006,0.60105 -0.50009,1.11133 -0.08,0.94055 -0.80106,1.73967 -1.65155,1.79971 -0.28016,0.02 -0.28022,0.009 -0.31025,-0.5711 -0.06,-1.11062 0.67026,-2.09055 1.95098,-2.62085 0.46527,-0.19012 0.72169,-0.27281 0.79799,-0.23152 z m -31.58608,1.04031 c 0.84048,0 1.02085,0.0301 1.53115,0.29018 1.01056,0.49028 0.97086,0.29993 0.97086,4.77249 0,3.64209 -0.0105,3.89303 -0.20066,4.30326 -0.0869,0.18971 -0.14726,0.47203 -0.17441,0.71618 a 8.7497744,6.2309001 0 0 0 -4.62896,-1.63302 l 0,-2.8462 c 0,-5.09292 -0.0497,-4.82243 0.97087,-5.31271 0.51029,-0.26015 0.69066,-0.29018 1.53115,-0.29018 z m -32.39796,0.0617 c 0.70038,0.0104 1.07046,0.0607 1.37061,0.20065 0.23013,0.10007 0.41058,0.2402 0.41058,0.31024 0,0.19012 -0.87105,0.83004 -1.3413,0.98012 -0.21013,0.07 -0.56008,0.0995 -0.7702,0.0695 -0.3502,-0.05 -0.41964,-0.0102 -0.91993,0.47076 l -0.55102,0.50936 -0.12039,0.9014 c -0.06,0.49029 -0.14984,1.75085 -0.18986,2.80145 -0.06,1.28072 -0.13067,2.00242 -0.22073,2.20256 -0.12008,0.26012 -0.13977,-0.16192 -0.16977,-3.54387 -0.0201,-4.17236 -0.0293,-4.10129 0.53097,-4.4715 0.50028,-0.3302 0.99045,-0.44065 1.97104,-0.43064 z" />
    <path fill="#dc0067" d="m 57.637007,56.068692 c -31.024753,0 -56.1774381,25.65478 -56.1774381,57.261748 0,31.60697 25.1526851,57.25981 56.1774381,57.25981 31.024751,0 56.179363,-25.65284 56.179363,-57.25981 0,-31.606968 -25.154612,-57.261748 -56.179363,-57.261748 z m 0,1.584 c 30.151974,0 54.595353,24.91042 54.595353,55.677748 0,30.76731 -24.443379,55.67579 -54.595353,55.67579 -30.151976,0 -54.5934262,-24.90848 -54.5934262,-55.67579 0,-30.767328 24.4414502,-55.677748 54.5934262,-55.677748 z" />
    <path fill="#dc0067" d="m 156.27021,23.253982 c -33.45582,0 -60.582187,27.59735 -60.582187,61.60283 0,34.006388 27.126367,61.602808 60.582187,61.602808 33.45491,0 60.58026,-27.59642 60.58026,-61.602808 0,-34.00548 -27.12535,-61.60283 -60.58026,-61.60283 z m 0,1.58594 c 32.58317,0 58.99432,26.85407 58.99432,60.01689 0,33.163758 -26.41115,60.016878 -58.99432,60.016878 -32.58412,0 -58.996246,-26.85312 -58.996246,-60.016878 0,-33.16282 26.412126,-60.01689 58.996246,-60.01689 z" />
    <path fill="#dc0067" d="m 156.0136,1.5640123 c -45.55008,0 -82.526826,37.3651697 -82.526827,83.2927997 0,45.927618 36.976747,83.292788 82.526827,83.292788 45.55009,0 82.52683,-37.36517 82.52683,-83.292788 0,-45.92763 -36.97674,-83.2927997 -82.52683,-83.2927997 z m 0,8.6088397 c 40.85218,0 73.91799,33.36353 73.91799,74.68396 0,41.320418 -33.06581,74.683938 -73.91799,74.683938 -40.85216,0 -73.917983,-33.36352 -73.917983,-74.683938 0,-41.32043 33.065823,-74.68396 73.917983,-74.68396 z" />
    <path fill="#ffb400" d="m 43.305316,118.21889 -12.347054,0 9.877083,9.3625 -19.755102,0 0,9.3625 19.755102,0 -9.877083,9.36251 12.347054,0 14.816094,-14.04423 z" />
    <path fill="#ffb400" d="m 187.55492,101.88074 -15.49449,-16.036118 33.57171,0 0,-16.03517 -33.57171,0 15.49449,-16.03611 -20.65901,0 -23.24175,24.05369 23.24175,24.053708 z" />
    <path fill="#000000" d="m 4.6679687,210.84067 -3.3203125,-23.04688 5.1171875,0 1.1132813,11.40625 q 0.1367187,1.28907 0.2148437,2.83203 0.078125,1.52344 0.1171875,3.28125 l 0.1562501,0 q 0.039063,-1.89453 0.1367187,-3.63281 0.1171875,-1.75781 0.2539063,-3.22265 l 1.0351562,-10.66407 4.8046875,0 -3.320312,23.04688 -6.3085943,0 z" />
    <path fill="#000000" d="m 19.726562,192.24692 0,13.94531 q 0,0.76172 0.214844,1.09375 0.214844,0.3125 0.703125,0.3125 0.488281,0 0.703125,-0.3125 0.214844,-0.33203 0.214844,-1.09375 l 0,-13.94531 q 0,-0.74219 -0.234375,-1.07422 -0.214844,-0.33203 -0.722656,-0.33203 -0.46875,0 -0.683594,0.3125 -0.195313,0.3125 -0.195313,1.09375 z m -5.117187,1.5625 q 0,-3.57422 1.386719,-5.0586 1.40625,-1.5039 4.609375,-1.5039 3.203125,0 4.589843,1.5039 1.40625,1.48438 1.40625,5.0586 l 0,11.03515 q 0,3.55469 -1.40625,5.0586 -1.386718,1.5039 -4.589843,1.5039 -3.203125,0 -4.609375,-1.5039 -1.386719,-1.50391 -1.386719,-5.0586 l 0,-11.03515 z" />
    <path fill="#000000" d="m 33.203125,202.79379 q 0,0.80078 0.195312,1.11328 0.214844,0.29297 0.722657,0.29297 0.46875,0 0.683593,-0.33203 0.234375,-0.35156 0.234375,-1.07422 l 0,-10 q 0,-0.70312 -0.234375,-1.01562 -0.214843,-0.33203 -0.683593,-0.33203 -0.507813,0 -0.722657,0.29297 -0.195312,0.27343 -0.195312,1.05468 l 0,10 z m 1.835937,2.96875 -0.07813,0 q -0.546875,1.28907 -1.445312,1.9336 -0.878906,0.625 -2.148438,0.625 -1.679687,0 -2.460937,-0.91797 -0.78125,-0.9375 -0.78125,-2.96875 l 0,-13.47656 q 0,-1.73829 0.839844,-2.65625 0.839843,-0.9375 2.441406,-0.9375 1.210937,0 2.089844,0.5664 0.878906,0.56641 1.542968,1.79688 l 0.117188,0 0,-1.9336 4.960937,0 0,21.67969 q 0,3.61328 -1.386718,5.07813 -1.386719,1.48437 -4.609375,1.48437 -2.851563,0 -4.433594,-1.38672 -1.5625,-1.36719 -1.5625,-3.84765 l 0,-1.75782 5.078125,0 0,1.79688 q 0,0.76172 0.214844,1.07422 0.214843,0.33203 0.703125,0.33203 0.488281,0 0.703125,-0.33203 0.214843,-0.33203 0.214843,-1.07422 l 0,-5.07813 z" />
    <path fill="#000000" d="m 40.996094,191.4852 0,-3.69141 1.289062,0 0,-4.27734 5.117188,0 0,4.27734 1.484375,0 0,3.69141 -1.484375,0 0,14.00391 q 0,1.07421 0.253906,1.36718 0.273437,0.27344 1.054687,0.27344 l 0.175782,0 0,3.71094 -3.203125,0 q -1.855469,0 -2.636719,-0.83985 -0.761719,-0.85937 -0.761719,-3.20312 l 0,-15.3125 -1.289062,0 z" />
    <path fill="#000000" d="m 49.765625,210.84067 0,-28.8086 5.078125,0 0,28.8086 -5.078125,0 z" />
    <path fill="#000000" d="m 63.4375,205.64536 0,-6.11329 q -0.117188,0.0781 -0.3125,0.23438 -1.523438,1.17187 -1.523438,2.07031 l 0,3.8086 q 0,0.78125 0.195313,1.07421 0.214844,0.27344 0.722656,0.27344 0.46875,0 0.683594,-0.3125 0.234375,-0.33203 0.234375,-1.03515 z m -6.953125,-13.125 q 0,-2.61719 1.503906,-3.94532 1.523438,-1.32812 4.492188,-1.32812 3.242187,0 4.609375,1.48437 1.386718,1.46485 1.386718,5.07813 l 0,14.02344 q 0,0.91796 0.07813,1.64062 0.09766,0.70313 0.292969,1.36719 l -5.15625,0 q -0.09766,-0.41016 -0.15625,-0.82031 -0.05859,-0.42969 -0.05859,-0.78125 l 0,-0.35157 -0.07813,0 q -0.546875,1.13282 -1.484375,1.73828 -0.917968,0.60547 -2.148437,0.60547 -1.621094,0 -2.460938,-0.97656 -0.820312,-0.97656 -0.820312,-2.89062 l 0,-4.88282 q 0,-1.8164 0.644531,-2.94922 0.664063,-1.15234 2.109375,-1.93359 0.46875,-0.25391 1.328125,-0.68359 2.871094,-1.46485 2.871094,-2.79297 l 0,-1.64063 q 0,-0.74218 -0.234375,-1.07422 -0.214844,-0.33203 -0.722656,-0.33203 -0.46875,0 -0.683594,0.33203 -0.195313,0.33204 -0.195313,1.07422 l 0,3.35938 -5.117187,0 0,-3.32031 z" />
    <path fill="#000000" d="m 70.15625,210.84067 0,-23.04688 5,0 0,1.9336 0.07813,0 q 0.644531,-1.21094 1.542969,-1.77735 0.898437,-0.58593 2.089843,-0.58593 1.660157,0 2.480469,0.99609 0.839844,0.97656 0.839844,2.92969 l 0,19.55078 -5.117188,0 0,-17.8711 q 0,-0.80078 -0.214843,-1.07421 -0.195313,-0.29297 -0.703125,-0.29297 -0.46875,0 -0.703125,0.33203 -0.214844,0.33203 -0.214844,1.03515 l 0,17.8711 -5.078125,0 z" />
    <path fill="#000000" d="m 95.742187,210.84067 -5,0 0,-1.99219 -0.07813,0 q -0.507812,1.26953 -1.425781,1.91406 -0.898437,0.64453 -2.207031,0.64453 -1.660156,0 -2.480469,-0.95703 Q 83.75,209.47348 83.75,207.52036 l 0,-16.23047 q 0,-1.97266 0.820312,-2.94922 0.820313,-0.97656 2.460938,-0.97656 1.210937,0 2.089844,0.58593 0.878906,0.58594 1.464843,1.77735 l 0.07813,0 0,-7.69532 5.078125,0 0,28.8086 z m -6.914062,-5.03906 q 0,0.80078 0.195312,1.11328 0.214844,0.29297 0.722657,0.29297 0.46875,0 0.683593,-0.35157 0.234375,-0.35156 0.234375,-1.05468 l 0,-12.83204 q 0,-0.70312 -0.234375,-1.03515 -0.214843,-0.33203 -0.683593,-0.33203 -0.507813,0 -0.722657,0.29297 -0.195312,0.27343 -0.195312,1.07421 l 0,12.83204 z" />
    <path fill="#000000" d="m 97.734375,210.84067 0,-5.87891 5.292965,0 0,5.87891 -5.292965,0 z" />
    <path fill="#000000" d="m 105.80078,210.84067 0,-19.39453 -1.25,0 0,-3.65235 1.25,0 0,-2.1875 q 0,-1.67968 1.01563,-2.61718 1.01562,-0.95704 2.83203,-0.95704 l 2.87109,0 0,3.61329 q -0.89844,0 -1.26953,0.21484 -0.37109,0.19531 -0.37109,0.70312 l 0,1.23047 1.64062,0 0,3.65235 -1.64062,0 0,19.39453 -5.07813,0 z" />
    <path fill="#000000" d="m 113.4375,210.84067 0,-23.04688 5,0 0,1.9336 0.0781,0 q 0.64453,-1.21094 1.54296,-1.77735 0.89844,-0.58593 2.08985,-0.58593 1.66015,0 2.48047,0.99609 0.83984,0.97656 0.83984,2.92969 l 0,8.90625 -5.11719,0 0,-7.22657 q 0,-0.80078 -0.21484,-1.07421 -0.19531,-0.29297 -0.70313,-0.29297 -0.46875,0 -0.70312,0.33203 -0.21484,0.33203 -0.21484,1.03515 l 0,17.8711 -5.07813,0 z" />
    <path fill="#000000" d="m 132.5,192.24692 0,4.35547 1.83594,0 0,-4.35547 q 0,-0.76172 -0.21485,-1.07422 -0.21484,-0.33203 -0.70312,-0.33203 -0.48828,0 -0.70313,0.33203 -0.21484,0.3125 -0.21484,1.07422 z m 0,13.94531 q 0,0.76172 0.21484,1.09375 0.21485,0.3125 0.70313,0.3125 0.48828,0 0.70312,-0.3125 0.21485,-0.33203 0.21485,-1.09375 l 0,-4.31641 5.07812,0 0,4.27735 q 0,2.5 -1.58203,3.88672 -1.5625,1.36718 -4.41406,1.36718 -3.22266,0 -4.60938,-1.48437 -1.38671,-1.48438 -1.38671,-5.07813 l 0,-11.03515 q 0,-3.63281 1.36718,-5.09766 1.36719,-1.46484 4.58985,-1.46484 2.83203,0 4.43359,1.32812 1.60156,1.3086 1.60156,3.63282 l 0,7.83203 -6.91406,0 0,6.15234 z" />
    <path fill="#000000" d="m 141.01562,210.84067 0,-23.04688 5.07813,0 0,23.04688 -5.07813,0 z m 0,-24.4336 0,-4.375 5.07813,0 0,4.375 -5.07813,0 z" />
    <path fill="#000000" d="m 148.61328,210.84067 0,-19.39453 -1.25,0 0,-3.65235 1.25,0 0,-2.1875 q 0,-1.67968 1.01563,-2.61718 1.01562,-0.95704 2.83203,-0.95704 l 2.87109,0 0,3.61329 q -0.89844,0 -1.26953,0.21484 -0.37109,0.19531 -0.37109,0.70312 l 0,1.23047 1.64062,0 0,3.65235 -1.64062,0 0,19.39453 -5.07813,0 z" />
    <path fill="#000000" d="m 168.28125,187.79379 0,23.04688 -5,0 0,-1.91406 -0.11719,0 q -0.64453,1.1914 -1.52344,1.75781 -0.85937,0.54687 -2.07031,0.54687 -1.66015,0 -2.5,-0.95703 Q 156.25,209.2977 156.25,207.36411 l 0,-19.57032 5.07812,0 0,17.89063 q 0,0.76172 0.21485,1.05469 0.23437,0.29296 0.74219,0.29296 0.46875,0 0.66406,-0.3125 0.21484,-0.3125 0.21484,-1.03515 l 0,-17.89063 5.11719,0 z" />
    <path fill="#000000" d="m 169.92187,210.84067 0,-23.04688 5,0 0,1.9336 0.0781,0 q 0.64453,-1.21094 1.54297,-1.77735 0.89844,-0.58593 2.08984,-0.58593 1.66016,0 2.48047,0.99609 0.83984,0.97656 0.83984,2.92969 l 0,19.55078 -5.11718,0 0,-17.8711 q 0,-0.80078 -0.21485,-1.07421 -0.19531,-0.29297 -0.70312,-0.29297 -0.46875,0 -0.70313,0.33203 Q 175,192.26645 175,192.96957 l 0,17.8711 -5.07813,0 z" />
    <path fill="#000000" d="m 183.59375,210.84067 0,-28.8086 5.07812,0 0,15.80079 0.0781,0 2.16797,-10.03907 5.19531,0 -2.51953,9.96094 2.51953,13.08594 -5.35156,0 -2.01172,-12.07031 -0.0781,0 0,12.07031 -5.07812,0 z" />
    <path fill="#000000" d="m 197.10937,210.84067 0,-5.87891 5.29297,0 0,5.87891 -5.29297,0 z" />
    <path fill="#000000" d="m 204.375,210.84067 0,-23.04688 5,0 0,1.9336 0.0781,0 q 0.64454,-1.21094 1.54297,-1.77735 0.89844,-0.58593 2.08985,-0.58593 1.66015,0 2.48047,0.99609 0.83984,0.97656 0.83984,2.92969 l 0,19.55078 -5.11719,0 0,-17.8711 q 0,-0.80078 -0.21484,-1.07421 -0.19531,-0.29297 -0.70313,-0.29297 -0.46875,0 -0.70312,0.33203 -0.21485,0.33203 -0.21485,1.03515 l 0,17.8711 -5.07812,0 z" />
    <path fill="#000000" d="m 223.04687,192.24692 0,4.35547 1.83594,0 0,-4.35547 q 0,-0.76172 -0.21484,-1.07422 -0.21485,-0.33203 -0.70313,-0.33203 -0.48828,0 -0.70312,0.33203 -0.21485,0.3125 -0.21485,1.07422 z m 0,13.94531 q 0,0.76172 0.21485,1.09375 0.21484,0.3125 0.70312,0.3125 0.48828,0 0.70313,-0.3125 0.21484,-0.33203 0.21484,-1.09375 l 0,-4.31641 5.07813,0 0,4.27735 q 0,2.5 -1.58203,3.88672 -1.5625,1.36718 -4.41407,1.36718 -3.22265,0 -4.60937,-1.48437 -1.38672,-1.48438 -1.38672,-5.07813 l 0,-11.03515 q 0,-3.63281 1.36719,-5.09766 1.36718,-1.46484 4.58984,-1.46484 2.83203,0 4.43359,1.32812 1.60157,1.3086 1.60157,3.63282 l 0,7.83203 -6.91407,0 0,6.15234 z" />
    <path fill="#000000" d="m 230.76172,191.4852 0,-3.69141 1.28906,0 0,-4.27734 5.11719,0 0,4.27734 1.48437,0 0,3.69141 -1.48437,0 0,14.00391 q 0,1.07421 0.2539,1.36718 0.27344,0.27344 1.05469,0.27344 l 0.17578,0 0,3.71094 -3.20312,0 q -1.85547,0 -2.63672,-0.83985 -0.76172,-0.85937 -0.76172,-3.20312 l 0,-15.3125 -1.28906,0 z" />
</svg>