<?xml version="1.0" encoding="UTF-8" standalone="no"?>
<svg
   xmlns:dc="http://purl.org/dc/elements/1.1/"
   xmlns:cc="http://creativecommons.org/ns#"
   xmlns:rdf="http://www.w3.org/1999/02/22-rdf-syntax-ns#"
   xmlns:svg="http://www.w3.org/2000/svg"
   xmlns="http://www.w3.org/2000/svg"
   id="svg2"
   viewport-fill="#ffffff"
   viewBox="0 0 240 217.6"
   height="272"
   width="300"
   version="1.2">
  <metadata
     id="metadata62">
    <rdf:RDF>
      <cc:Work
         rdf:about="">
        <dc:format>image/svg+xml</dc:format>
        <dc:type
           rdf:resource="http://purl.org/dc/dcmitype/StillImage" />
        <dc:title></dc:title>
      </cc:Work>
    </rdf:RDF>
  </metadata>
  <defs
     id="defs60" />
  <path
     id="path8"
     transform="scale(0.8,0.8)"
     d="M 195.01758 1.9550781 C 148.94662 1.9550781 109.89711 32.537029 96.667969 74.623047 C 89.004888 71.696201 80.711338 70.085938 72.046875 70.085938 C 33.265934 70.085938 1.8242188 102.1534 1.8242188 141.66211 C 1.8242188 181.17082 33.265934 213.23828 72.046875 213.23828 C 94.811032 213.23828 115.03507 202.17973 127.86719 185.0625 C 145.91789 200.71469 169.38021 210.1875 195.01758 210.1875 C 251.95519 210.1875 298.17578 163.47983 298.17578 106.07031 C 298.17578 48.660775 251.95519 1.9550781 195.01758 1.9550781 z M 195.01758 12.716797 C 246.0828 12.716797 287.41406 54.419775 287.41406 106.07031 C 287.41406 157.72083 246.0828 199.42578 195.01758 199.42578 C 171.47649 199.42578 150.00753 190.55809 133.69922 175.94336 C 136.55739 170.61643 138.75818 164.87425 140.21875 158.83594 C 154.02931 173.74694 173.60862 183.07422 195.33789 183.07422 C 237.15653 183.07422 271.0625 148.5783 271.0625 106.07031 C 271.0625 63.563462 237.15653 29.068359 195.33789 29.068359 C 158.75661 29.068359 128.2302 55.463977 121.15625 90.527344 C 116.78026 86.160342 111.8452 82.377664 106.47266 79.289062 C 117.84858 40.738585 153.16034 12.716797 195.01758 12.716797 z M 195.33789 31.050781 C 236.06685 31.050781 269.08008 64.616788 269.08008 106.07031 C 269.08008 147.52501 236.06685 181.0918 195.33789 181.0918 C 173.69751 181.0918 154.23609 171.61532 140.74609 156.51562 C 141.73955 151.72254 142.26953 146.75532 142.26953 141.66211 C 142.26953 122.51957 134.87458 105.13904 122.85352 92.291016 C 129.21394 57.429677 159.23548 31.050781 195.33789 31.050781 z M 209.37305 68.988281 L 182.03125 97.283203 L 191.66406 107.25195 L 194.51953 110.20703 L 203.66406 119.66992 L 208.68359 124.86328 L 209.37305 125.57812 L 230.26758 125.57812 L 227.27734 122.48438 L 224.89258 120.01562 L 219.64453 114.58398 L 212.5625 107.25586 L 210.90039 105.53516 L 255.26758 105.53516 L 255.26758 89.033203 L 210.90039 89.033203 L 230.26758 68.988281 L 209.37305 68.988281 z M 72.046875 72.066406 C 80.512939 72.066406 88.613181 73.649224 96.09375 76.521484 C 93.343255 85.893242 91.859375 95.809113 91.859375 106.07031 C 91.859375 136.91887 105.20972 164.67202 126.39258 183.75391 C 113.9278 200.46735 94.227583 211.25781 72.046875 211.25781 C 34.356905 211.25781 3.8046875 180.12125 3.8046875 141.66211 C 3.8046875 103.20295 34.356905 72.066406 72.046875 72.066406 z M 105.91797 81.248047 C 111.37426 84.435529 116.36022 88.360062 120.73633 92.904297 C 120.00984 97.185627 119.60938 101.57887 119.60938 106.07031 C 119.60938 125.61517 126.79159 143.45434 138.60156 157.03711 C 137.232 163.23309 135.0633 169.11782 132.19336 174.56445 C 114.00157 157.52775 102.61914 133.16972 102.61914 106.07031 C 102.61914 97.470779 103.77231 89.149585 105.91797 81.248047 z M 122.43164 94.71875 C 133.52276 107.09235 140.29102 123.56462 140.29102 141.66211 C 140.29102 146.07979 139.8704 150.39565 139.09961 154.58398 C 128.18779 141.50547 121.5918 124.5798 121.5918 106.07031 C 121.5918 102.21099 121.87973 98.420643 122.43164 94.71875 z M 16.958984 106.97656 C 10.869679 117.04802 7.3476564 128.92005 7.3476562 141.66211 C 7.3476564 178.24472 36.308318 207.71484 72.046875 207.71484 C 91.955192 207.71484 109.75323 198.56367 121.62109 184.13867 C 109.13645 172.18179 99.510415 157.22063 93.888672 140.41992 C 93.914212 141.10685 93.931633 142.06131 93.931641 143.32812 C 93.931641 145.67364 93.881072 147.13107 93.818359 147.06836 C 93.718022 146.95548 93.430027 145.311 93.216797 143.58008 C 93.166622 143.17872 92.965494 142.91585 91.974609 141.9375 C 90.883382 140.84627 90.419922 140.16968 90.419922 139.66797 C 90.419922 139.55509 90.257327 139.25477 90.056641 139.00391 C 89.843413 138.75304 89.641969 138.36278 89.591797 138.16211 C 89.541622 137.94886 89.303591 137.54825 89.052734 137.25977 C 88.626278 136.75807 88.562689 136.7313 87.935547 136.71875 C 87.458919 136.71875 87.283507 136.66871 87.308594 136.56836 C 87.374456 136.37081 87.681476 136.27934 88.359375 136.26172 C 88.585341 136.25547 88.852444 136.25758 89.166016 136.26758 C 90.181987 136.2927 90.469691 136.34265 91.109375 136.65625 C 91.980413 137.06757 92.933795 137.99042 93.361328 138.78711 C 92.817326 137.0708 92.313099 135.33613 91.853516 133.58398 L 89.228516 133.58398 L 84.009766 133.58398 L 84.048828 129.3457 L 84.085938 125.11719 L 84.423828 124.54102 C 85.025886 123.51252 86.193287 122.63462 87.472656 122.2207 C 87.861484 122.09525 88.557341 122.04176 89.267578 122.05273 C 89.345676 122.05397 89.418065 122.06366 89.496094 122.06641 C 89.390958 121.35768 89.290532 120.6467 89.199219 119.93359 L 83.884766 119.91211 L 83.923828 116.73828 L 83.960938 113.57617 L 84.310547 112.84961 C 84.937691 111.57023 86.307883 110.4792 87.775391 110.05273 C 87.934567 110.00566 88.167719 109.9835 88.392578 109.95898 C 88.358831 109.00556 88.337001 108.0493 88.328125 107.08984 C 47.950373 107.07218 25.265084 107.0386 16.958984 106.97656 z M 106.17773 107.24023 C 106.19262 108.42798 106.22346 109.61119 106.2832 110.78711 C 107.18083 111.30937 107.90828 112.05428 108.35156 112.94922 L 108.71289 113.69727 L 108.75195 116.84961 L 108.78906 120.01367 L 107.2207 120.01367 C 107.4536 121.53353 107.7263 123.03999 108.0332 124.5332 C 108.06597 124.60263 108.11495 124.67964 108.13867 124.74219 C 108.26991 125.0703 108.33399 125.38676 108.36719 126.09375 C 109.30315 130.27208 110.52973 134.33595 112.01758 138.26758 C 112.54827 137.37932 113.79667 136.54776 115.05469 136.27734 C 115.28295 136.23047 115.57462 136.1992 115.89453 136.18945 C 116.85426 136.1607 118.08087 136.29331 118.71875 136.53711 C 119.71932 136.8998 120.47205 137.43793 120.88477 138.05078 L 121.2207 138.57617 L 121.25781 143.6543 C 121.29535 148.55711 121.28535 148.7699 121.03516 149.44531 C 120.72247 150.27075 120.00778 150.98233 119.35742 151.10742 C 118.9697 151.16992 118.90625 151.23491 118.90625 151.53516 C 118.90625 151.79601 118.87846 151.95581 118.62891 152.05859 C 122.16414 158.05838 126.37093 163.60215 131.14648 168.58594 C 132.63308 165.18269 133.83154 161.62086 134.74609 157.94141 C 132.53672 155.28013 130.49874 152.46973 128.63867 149.53125 L 125.16211 149.53125 L 125.16211 144.2793 C 125.16211 143.8491 125.16767 143.85946 125.16797 143.49609 C 123.52608 140.32883 122.07282 137.04576 120.85156 133.64844 L 116.65625 133.64844 L 111.40234 133.64844 L 111.40234 129.48438 C 111.40234 125.36953 111.4049 125.31791 111.70508 124.70508 C 112.19285 123.6795 113.25507 122.83112 114.63086 122.38086 C 115.20619 122.19326 115.64499 122.14218 116.9082 122.17969 C 117.22813 122.18742 117.45159 122.19365 117.66406 122.20312 C 117.51876 121.47921 117.4053 120.74443 117.2793 120.01367 L 116.78125 120.01367 L 111.1543 120.01367 L 111.1543 117.01172 C 111.1543 113.62228 111.21677 113.29871 112.11719 112.12305 C 113.02676 110.93488 114.54225 110.1872 116.16211 110.02344 C 116.11802 109.10004 116.09513 108.17141 116.08203 107.24023 C 112.74346 107.24001 109.53165 107.2406 106.17773 107.24023 z M 125.16602 107.24219 C 125.19433 109.03976 125.28179 110.82161 125.4375 112.58398 C 125.92697 111.8087 126.66276 111.10066 127.48828 110.67188 C 128.04961 110.37466 128.45156 110.21048 128.93359 110.12305 C 128.41404 109.14685 127.87027 108.18764 127.30469 107.24219 C 126.62941 107.24207 125.85342 107.24229 125.16602 107.24219 z M 137.58398 107.24414 C 138.32105 108.69428 139.01704 110.16887 139.66211 111.67188 C 140.68825 110.64099 142.15891 110.0163 143.79688 110.00781 C 144.38473 110.00781 145.14666 110.08366 145.48438 110.18359 C 147.07278 110.59633 148.33828 111.62225 149.01367 112.99805 L 149.36328 113.69922 L 149.40234 116.84961 L 149.43945 120.01367 L 143.85938 120.01367 L 142.67773 120.01367 C 142.87805 120.69042 143.06615 121.37207 143.24805 122.05664 C 143.34803 122.04184 143.4465 122.02593 143.62305 122.0293 C 144.35118 122.0428 145.57592 122.19405 145.99805 122.35352 C 147.12368 122.79127 148.38881 124.01581 148.78906 125.06641 C 149.0392 125.72927 149.05078 126.00492 149.05078 129.70703 L 149.05078 133.64648 L 145.38867 133.64648 C 145.48614 134.57802 145.55165 135.51775 145.61523 136.45898 C 145.66413 136.47472 145.72728 136.4808 145.77344 136.49805 C 146.83658 136.91081 147.69975 137.63779 148.125 138.48828 L 148.48828 139.21289 L 148.52539 144.36914 L 148.5625 149.53125 L 145.40625 149.53125 C 145.20169 151.5236 144.90618 153.48839 144.55078 155.43164 C 157.33317 169.06144 175.34859 177.54883 195.33594 177.54883 C 213.52494 177.54883 230.09471 170.52942 242.5625 158.99414 C 242.51816 159.00188 242.48791 159.00169 242.43945 159.01172 C 241.38885 159.22429 240.28857 158.83751 239.80078 158.09961 C 239.62569 157.82445 239.53745 157.79996 238.97461 157.875 C 238.54937 157.92512 238.18694 157.88633 237.82422 157.74805 C 237.52406 157.63542 236.86322 157.52423 236.33789 157.51172 C 235.46243 157.47422 235.35021 157.49879 234.9375 157.82422 L 234.47461 158.17578 L 234.47461 156.52344 C 234.47461 155.09762 234.51118 154.78622 234.73633 154.33594 C 235.17409 153.42292 236.15038 152.72286 237.51367 152.34766 C 237.9702 152.21631 238.64023 152.17032 239.3125 152.20312 L 239.31445 152.20312 C 239.98672 152.23612 240.65873 152.3464 241.11523 152.52148 C 242.0408 152.87171 242.76617 153.41016 243.19141 154.06055 L 243.54297 154.57227 L 243.55273 157.14844 C 243.55601 157.50812 243.55451 157.73539 243.55469 158.0332 C 246.28215 155.40938 248.80355 152.56908 251.08984 149.53125 L 247.5957 149.53125 L 247.63086 144.24219 C 247.66836 139.47696 247.69462 138.92521 247.89453 138.5625 C 248.40733 137.62446 249.50623 136.84869 250.89453 136.46094 C 251.35106 136.32962 252.02502 136.28555 252.69727 136.31836 C 253.36952 136.35136 254.04153 136.46158 254.49805 136.63672 C 255.89883 137.17449 256.82563 138.01349 257.11328 139.03906 C 257.134 139.10471 257.14573 139.64297 257.16211 139.99414 C 258.40185 137.65286 259.50459 135.22652 260.48633 132.73633 L 260.51367 129.35938 C 260.55117 124.54414 260.53739 124.63064 261.52539 123.64258 C 262.0814 123.09793 262.83253 122.71115 263.66797 122.46289 C 263.85457 121.65063 264.03805 120.83841 264.19727 120.01562 L 260.33789 120.01562 L 260.38867 116.91406 C 260.42617 113.86231 260.42801 113.81057 260.76562 113.09766 C 261.59869 111.32614 263.3684 110.18645 265.28125 110.04102 C 265.32841 110.03743 265.37651 110.04337 265.42383 110.04102 C 265.47323 109.1181 265.49296 108.18795 265.50781 107.25586 L 258.81055 107.25586 L 258.81055 109.07812 L 219.25 109.07812 L 221.45508 111.36133 C 222.40254 110.59423 223.61508 110.11507 224.87695 110.02734 C 225.17034 110.00697 225.46609 110.00862 225.76172 110.03125 C 226.09956 110.05725 226.43653 110.1112 226.76953 110.19727 C 228.52054 110.66004 229.83162 111.68471 230.51953 113.12305 L 230.9082 113.94727 L 230.94727 116.97461 L 230.98242 120.01562 L 229.81836 120.01562 L 234.04297 124.38672 C 234.1873 124.09563 234.39122 123.89316 234.69922 123.61719 C 235.74044 122.67912 237.26158 122.16367 238.86914 122.1543 C 239.40499 122.15055 239.94931 122.20397 240.49023 122.31641 C 242.02861 122.64159 243.41694 123.57952 243.86719 124.58008 C 244.07981 125.03036 244.10547 125.49268 244.10547 129.35742 L 244.10547 133.64844 L 238.91406 133.64844 L 233.72266 133.64844 L 233.72266 129.35742 C 233.72266 129.25679 233.72459 129.21958 233.72461 129.12305 L 230.93945 129.12305 L 230.94727 129.79492 L 230.98242 133.64844 L 225.28125 133.64844 L 219.57617 133.64844 L 219.61523 129.79492 L 219.62109 129.12305 L 214.71094 129.12305 C 214.71095 129.27083 214.71289 129.24863 214.71289 129.4082 L 214.71289 133.65039 L 211.58594 133.65039 L 208.45703 133.65039 L 208.45703 129.41992 C 208.45703 129.25912 208.46088 129.27197 208.46094 129.12305 L 207.86914 129.12305 L 203.83594 124.94922 C 203.84201 125.60231 203.84959 126.07106 203.85547 126.89258 L 203.89453 133.58594 L 192.16211 133.62305 L 180.42969 133.64844 L 180.46875 126.68164 C 180.51875 119.91526 180.51759 119.6767 180.79297 118.70117 C 181.14316 117.46295 181.90625 115.83649 182.61914 114.83594 C 184.21541 112.60366 186.95459 110.795 189.61133 110.22656 L 186.73633 107.25195 C 167.44289 107.25061 153.95442 107.24659 137.58398 107.24414 z M 274.5918 107.25586 C 274.56397 109.2069 274.46731 111.141 274.30469 113.05664 L 274.3457 112.97461 C 275.29783 111.04851 277.28435 109.90404 279.34961 110.01758 L 279.35156 110.01758 C 279.6466 110.0337 279.94282 110.07568 280.23828 110.14453 C 281.6695 110.473 282.89513 111.41495 283.63086 112.7168 C 283.76058 110.91136 283.83412 109.09004 283.85742 107.25586 L 274.5918 107.25586 z M 62.136719 109.88672 C 62.66801 109.87059 63.208329 109.92773 63.742188 110.06641 C 65.686328 110.56812 67.077844 111.82264 67.617188 113.54102 C 67.805328 114.18069 67.84375 114.71842 67.84375 117.10156 L 67.84375 119.91211 L 62.324219 119.91211 L 56.806641 119.91211 L 56.806641 117.10156 C 56.806641 114.71842 56.8431 114.18069 57.03125 113.54102 C 57.70386 111.40089 59.834456 109.95626 62.136719 109.88672 z M 35.386719 109.89062 C 35.71859 109.90516 36.050813 109.94662 36.384766 110.01562 C 38.115678 110.37937 39.584709 111.49456 40.287109 112.97461 C 40.688479 113.82753 40.686981 113.82719 40.724609 116.16016 L 40.775391 118.49219 L 40.046875 118.25586 C 38.56682 117.75415 36.472854 117.74018 35.042969 118.2168 C 34.001914 118.568 32.824227 119.24599 32.021484 119.96094 L 31.269531 120.63867 L 30.351562 120.37695 L 29.449219 120.11133 L 29.486328 116.96289 L 29.525391 113.82812 L 29.925781 112.97461 C 30.86963 110.98813 33.063624 109.78965 35.386719 109.89062 z M 21.931641 109.91016 C 22.565298 109.93403 23.182983 110.04267 23.705078 110.24023 C 24.721047 110.62903 25.685266 111.34457 26.224609 112.13477 C 27.002264 113.23854 27.078125 113.6637 27.078125 117.08789 L 27.078125 120.125 L 26.238281 120.27539 L 25.386719 120.4375 L 24.632812 120 C 23.11513 119.09691 21.220839 118.7067 19.464844 118.91992 C 18.950586 118.9953 18.486024 119.02005 18.460938 118.98242 C 18.423313 118.95742 18.475544 118.80675 18.550781 118.65625 C 18.651119 118.48064 18.662322 118.10379 18.599609 117.56445 C 18.486722 116.47322 17.871497 115.38327 17.181641 115.01953 C 16.592128 114.71849 16.228912 114.05322 16.341797 113.45117 C 16.529941 112.44773 17.683522 111.14443 18.962891 110.49219 C 19.770337 110.06888 20.875543 109.87047 21.931641 109.91016 z M 76.076172 109.91992 C 76.833444 109.95755 77.588345 110.07086 78.027344 110.24023 C 79.193827 110.69175 80.085141 111.36923 80.662109 112.25977 C 80.938052 112.69877 81.225216 113.26364 81.275391 113.50195 C 81.338103 113.7528 81.390625 115.29523 81.390625 116.92578 L 81.390625 119.91016 L 75.808594 119.91016 L 70.212891 119.91016 L 70.251953 116.73633 L 70.289062 113.57617 L 70.638672 112.84961 C 71.290899 111.53261 72.570513 110.49172 74.113281 110.05273 C 74.558551 109.92103 75.318898 109.88228 76.076172 109.91992 z M 48.197266 109.92383 C 49.078008 109.89558 50.194819 110.01646 50.796875 110.24219 C 52.314559 110.81914 53.518949 111.9858 54.033203 113.39062 C 54.271517 114.03029 54.294922 114.39359 54.294922 116.72656 C 54.294922 119.13478 54.283833 119.32289 54.095703 119.13477 C 53.957733 118.99679 53.868529 118.62076 53.818359 118.03125 L 53.757812 117.13867 L 53.091797 116.71289 C 52.728054 116.47458 52.213441 116.22288 51.9375 116.16016 C 51.473414 116.03473 51.185801 115.84758 50.082031 114.95703 C 49.655575 114.61838 49.518624 114.58091 48.640625 114.56836 C 48.113826 114.55573 47.398378 114.4566 47.072266 114.34375 C 46.332238 114.10542 46.081766 114.09222 45.015625 114.20508 C 44.275598 114.29283 44.148502 114.35571 43.671875 114.85742 L 43.134766 115.39648 L 43.134766 114.8457 C 43.134766 114.05549 43.559964 112.80006 44.074219 112.09766 C 44.789161 111.13184 46.169544 110.26535 47.423828 110.00195 C 47.637056 109.95808 47.903686 109.9332 48.197266 109.92383 z M 157.5332 110.01172 L 157.53516 110.01172 C 158.22774 110.01422 158.9243 110.09522 159.44336 110.25781 C 160.91918 110.70807 162.1559 111.73482 162.78125 112.99805 C 163.05644 113.57337 163.11948 113.9348 163.20703 115.24805 C 163.26953 116.11105 163.28423 117.5366 163.23438 118.41211 L 163.1582 120.01367 L 157.5293 120.01367 L 151.91602 120.01367 L 151.95117 116.84766 C 151.98867 113.69586 151.98832 113.69845 152.32617 112.99805 C 152.9515 111.73482 154.17648 110.71943 155.65234 110.24414 C 156.15261 110.0878 156.84062 110.01016 157.5332 110.01172 z M 252.32812 110.02539 C 252.83467 110.02289 253.3423 110.07855 253.79883 110.19727 C 255.34973 110.59752 256.83642 111.86054 257.38672 113.23633 C 257.64939 113.89919 257.67539 114.16047 257.71289 116.97461 L 257.75 120.01562 L 252.35938 120.01562 L 246.96875 120.01562 L 247.00586 116.97461 C 247.04336 114.16047 247.06947 113.89919 247.33203 113.23633 C 247.86986 111.88555 249.36907 110.61115 250.85742 110.21094 C 251.31393 110.09219 251.8216 110.02853 252.32812 110.02539 z M 238.39844 110.05469 C 239.27669 110.02656 240.38794 110.14592 240.98828 110.37109 C 242.56418 110.97143 243.78021 112.18472 244.23047 113.62305 C 244.44306 114.31096 244.47852 114.77399 244.47852 117.21289 L 244.47852 120.01367 L 238.91406 120.01367 L 233.34961 120.01367 L 233.34961 117.21289 C 233.34961 114.03607 233.48662 113.32328 234.28711 112.22266 C 234.99998 111.25961 236.37625 110.39743 237.62695 110.13477 C 237.83957 110.09102 238.1057 110.06406 238.39844 110.05469 z M 171.00781 112.64258 C 171.4737 112.63133 171.94633 112.68354 172.24023 112.80859 C 172.87811 113.07124 173.576 113.76134 173.88867 114.44922 C 174.16383 115.03707 174.18945 115.22331 174.18945 117.53711 L 174.18945 120.01367 L 171.0625 120.01367 L 167.93555 120.01367 L 167.93555 117.66211 C 167.93555 115.79855 167.97523 115.17254 168.15039 114.69727 C 168.37553 114.02188 169.12461 113.19705 169.8125 112.85938 C 170.08139 112.72803 170.5419 112.65353 171.00781 112.64258 z M 273.89648 116.8418 C 273.25743 121.68299 272.18336 126.38403 270.73438 130.91602 L 270.75781 133.64844 L 269.82227 133.64844 C 269.42686 134.74838 268.99933 135.83307 268.55859 136.91016 C 269.30635 137.27568 269.90902 137.7742 270.31836 138.42578 C 270.60602 138.88854 270.62072 138.98729 270.5957 140.73828 L 270.55859 142.56641 L 270.13281 142.20312 C 269.89517 142.01552 269.39551 141.71416 269.00781 141.53906 C 268.44958 141.3046 267.99752 141.25523 266.65625 141.21094 C 253.79969 168.05845 226.6913 186.61914 195.33594 186.61914 C 174.77967 186.61914 156.05073 178.64192 141.96289 165.58398 C 140.87839 168.85987 139.58477 172.03912 138.08594 175.09766 C 153.49601 188.08398 173.3392 195.88281 195.01758 195.88281 C 234.65201 195.88281 268.15214 169.82099 279.62891 133.62695 L 279.16211 133.625 L 274.30859 133.58594 L 274.30859 129.27344 L 274.30859 124.95898 L 274.64648 124.36914 C 275.22181 123.39358 276.30975 122.65488 277.68555 122.30469 C 277.90131 122.25144 278.17093 122.21805 278.4668 122.20117 C 278.68871 122.1883 278.92682 122.18591 279.16797 122.19141 C 279.89137 122.21128 280.65085 122.3163 281.15039 122.49219 L 281.15039 122.49414 C 281.57336 122.64179 281.94366 122.84335 282.28711 123.06641 C 282.47774 122.05447 282.6556 121.03756 282.8125 120.01367 L 279.06055 120.01367 L 273.8457 120.01367 L 273.89648 116.91211 L 273.89648 116.8418 z M 126.47656 120.01367 C 126.6731 121.02952 126.89657 122.03349 127.13477 123.0332 C 127.30224 122.91806 127.46773 122.80264 127.66406 122.68945 C 128.40197 122.26422 128.58841 122.21569 129.72656 122.14062 C 130.07049 122.11563 130.40493 122.10241 130.66602 122.09766 C 130.92714 122.09266 131.11404 122.09687 131.16406 122.11523 C 131.26406 122.14011 131.56545 122.19089 131.82812 122.22852 C 132.09076 122.26602 132.32773 122.35232 132.36523 122.40234 C 132.40273 122.46497 132.51516 122.51567 132.61523 122.51562 C 132.84595 122.51562 133.64232 123.06223 134.30664 123.66602 C 133.96659 122.43356 133.59459 121.21543 133.1875 120.01367 L 130.35156 120.01367 L 126.47656 120.01367 z M 75.751953 122.05859 C 76.129904 122.06359 76.514306 122.10354 76.898438 122.18359 C 78.453748 122.50968 79.858055 123.525 80.472656 124.7793 L 80.824219 125.49414 L 80.849609 129.57031 C 80.862159 132.02869 80.836919 133.54698 80.761719 133.39648 C 80.699006 133.2585 80.648438 132.76991 80.648438 132.31836 C 80.635886 131.86682 80.550394 131.23823 80.4375 130.91211 C 80.274442 130.42293 80.135043 130.27256 79.595703 129.95898 C 79.231959 129.74576 78.680454 129.36886 78.341797 129.10547 C 75.507114 126.84776 74.941239 126.56135 73.160156 126.54883 C 72.545558 126.54883 71.843782 126.47337 71.605469 126.37305 C 71.191555 126.22253 71.141391 126.23525 70.802734 126.54883 L 70.439453 126.87305 L 70.513672 126.13477 C 70.744147 123.76417 73.106296 122.02721 75.751953 122.05859 z M 252.10742 122.14453 C 252.55728 122.12816 253.01617 122.17108 253.47266 122.27734 C 254.99854 122.62753 256.56216 123.94019 257.125 125.35352 C 257.41264 126.05392 257.42535 126.23036 257.46289 129.85742 L 257.5 133.64648 L 252.29688 133.64648 L 247.09375 133.64648 L 247.13281 129.85742 C 247.18281 125.40487 247.21911 125.18984 248.48242 123.85156 C 249.47672 122.7822 250.75781 122.19377 252.10742 122.14453 z M 156.85938 122.17578 C 157.8912 122.14053 159.22504 122.26903 159.80664 122.49414 C 160.90728 122.91939 161.89654 123.80527 162.42188 124.81836 L 162.86914 125.68164 L 162.9082 129.66016 L 162.94336 133.64844 L 157.61719 133.64844 L 152.28906 133.64844 L 152.32617 129.67188 L 152.36328 125.70703 L 152.71484 125.04297 C 153.37773 123.77976 154.87672 122.49464 155.96484 122.26953 C 156.20248 122.21953 156.51542 122.18753 156.85938 122.17578 z M 171.10352 123.3418 C 171.55408 123.35542 172.01887 123.49126 172.50195 123.75391 C 173.18985 124.12912 173.84986 124.98119 174.0625 125.74414 C 174.1375 126.00678 174.18945 127.78314 174.18945 129.92188 L 174.18945 133.65039 L 171.0625 133.65039 L 167.93555 133.65039 L 167.93555 129.89648 C 167.93555 125.58151 167.99801 125.24468 168.96094 124.30664 C 169.64103 123.6422 170.3526 123.31921 171.10352 123.3418 z M 135.40234 128.18359 C 135.40539 128.69892 135.41797 128.86405 135.41797 129.64453 L 135.41797 133.64648 L 130.54102 133.64648 C 130.91336 134.55458 131.30919 135.4494 131.7168 136.33789 C 132.73839 136.56612 133.64772 137.01942 134.24023 137.59961 C 135.03185 138.3912 135.09371 138.61804 135.07227 142.7793 C 135.57855 143.64026 136.10806 144.48544 136.64844 145.32227 C 136.71343 144.11054 136.74805 142.89099 136.74805 141.66211 C 136.74805 137.04042 136.28217 132.53316 135.40234 128.18359 z M 156.85352 136.1582 C 157.10619 136.14295 157.36441 136.14233 157.62891 136.1582 C 157.93118 136.1762 158.24084 136.21602 158.55664 136.27539 C 160.13258 136.57558 161.42233 137.51179 161.97266 138.75 C 162.36037 139.613 162.37152 139.91404 162.33398 145.42969 L 162.30859 149.53125 L 157.30469 149.53125 L 152.28906 149.53125 L 152.32617 144.36914 L 152.36328 139.21289 L 152.70117 138.65234 C 153.62042 137.12981 155.08474 136.26568 156.85352 136.1582 z M 224.95508 136.30078 C 225.2189 136.28353 225.48369 136.28403 225.74414 136.30078 C 226.09142 136.32328 226.43262 136.37667 226.75781 136.46094 C 227.15802 136.56094 227.70844 136.76203 227.99609 136.91211 C 228.78406 137.31232 229.78417 138.32457 230.10938 139.0625 C 230.40954 139.70035 230.40975 139.77694 230.44727 144.61719 L 230.48438 149.53125 L 225.34375 149.53125 L 220.20117 149.53125 L 220.24023 144.61719 C 220.27773 139.77694 220.27785 139.70035 220.57812 139.0625 C 220.90326 138.32457 221.9054 137.31232 222.69336 136.91211 C 223.37575 136.56035 224.16353 136.35282 224.95508 136.30078 z M 238.42188 136.31445 C 239.2743 136.28508 240.395 136.41391 240.97656 136.64844 C 241.90207 137.01115 242.76458 137.67537 243.21484 138.36328 C 243.94027 139.46391 243.98047 139.7412 243.98047 144.86914 L 243.98047 149.53125 L 238.97656 149.53125 L 233.96094 149.53125 L 233.99805 144.61719 L 234.03516 139.71484 L 234.37305 139.00195 C 234.94837 137.77625 236.22612 136.77367 237.68945 136.39844 C 237.88332 136.35156 238.13773 136.32408 238.42188 136.31445 z M 190.55078 137.41992 C 190.99002 137.39817 191.51325 137.40442 192.26367 137.43555 C 194.47743 137.52305 194.96445 137.66074 197.01562 138.67383 C 199.5921 139.96205 201.62999 142.55178 202.48047 145.60352 C 202.75561 146.57909 202.75586 146.70472 202.75586 156.16016 C 202.76586 160.15427 202.74089 163.04184 202.70312 164.59375 A 10.937218 7.7886251 0 0 0 195.7793 171.83398 A 10.937218 7.7886251 0 0 0 195.78711 172 L 192.1543 172 A 7.817445 5.1371781 0 0 0 192.19141 171.50586 A 7.817445 5.1371781 0 0 0 184.375 166.36719 A 7.817445 5.1371781 0 0 0 182.65039 166.5 C 182.40833 166.3985 181.58999 165.79134 180.60547 164.97852 L 180.19141 164.64062 L 180.19141 156.77148 C 180.19141 152.44401 180.24402 148.9043 180.30664 148.9043 C 180.35677 148.9043 180.44294 148.3051 180.48047 147.55469 C 180.55547 146.14136 180.80664 145.09102 181.45703 143.67773 C 181.64462 143.2525 181.81951 142.85079 181.83203 142.80078 C 181.85716 142.75066 181.97063 142.60165 182.0957 142.47656 C 182.22079 142.33899 182.31833 142.18867 182.31836 142.13867 C 182.31836 141.90103 184.43192 139.64844 184.64453 139.64844 C 184.74453 139.64844 184.81836 139.58597 184.81836 139.52344 C 184.81836 139.44844 184.95576 139.33792 185.13086 139.27539 C 185.29345 139.21289 185.65648 139.01104 185.93164 138.83594 C 186.70709 138.36066 188.17278 137.80989 189.33594 137.57227 C 189.75495 137.49102 190.11156 137.44166 190.55078 137.41992 z M 170.76562 137.60156 C 171.23662 137.57619 171.7029 137.64394 172.10156 137.8125 C 172.8645 138.1377 173.27757 138.48914 173.55273 139.06445 C 173.79036 139.56474 173.80117 139.82702 173.82617 143.8418 C 173.82617 146.18063 173.83905 148.41897 173.82617 148.80664 L 173.81641 149.53125 L 170.875 149.53125 L 167.93555 149.53125 L 167.93555 144.58984 C 167.93555 139.19927 167.94806 139.10155 168.64844 138.45117 C 169.18 137.94308 169.98064 137.64371 170.76562 137.60156 z M 211.78516 137.6875 C 212.46053 137.725 212.81259 137.812 213.33789 138.09961 C 213.73813 138.31222 214.12411 138.66347 214.32422 138.95117 L 214.65039 139.45312 L 214.6875 144.49219 L 214.72656 149.53125 L 211.58594 149.53125 L 208.45703 149.53125 L 208.45703 144.63086 C 208.45703 139.89063 208.47118 139.71359 208.7207 139.17578 C 209.19597 138.20023 210.38437 137.62496 211.78516 137.6875 z M 34.253906 146 L 54.130859 146 L 54.839844 146 L 75.226562 165.32812 L 54.839844 184.65625 L 34.253906 184.65625 L 46.599609 172.95117 L 24.578125 172.95117 L 24.578125 157.70508 L 46.599609 157.70508 L 34.253906 146 z M 43.144531 149.54688 L 55.488281 161.24805 L 28.123047 161.24805 L 28.123047 169.4082 L 55.488281 169.4082 L 43.144531 181.11133 L 53.425781 181.11133 L 70.078125 165.33008 L 53.425781 149.54688 L 43.144531 149.54688 z M 156.71484 152.05469 C 157.44339 152.02019 158.27578 152.07065 158.91992 152.2207 C 160.43328 152.58339 161.57005 153.33616 162.07031 154.32422 C 162.34548 154.84953 162.3328 154.37223 162.32031 162.50195 L 162.31055 166.91602 L 160.7832 166.91602 L 159.24414 166.90234 L 158.49414 166.41602 C 158.09393 166.14085 157.40455 165.79073 156.9668 165.64062 C 156.52902 165.47805 156.17969 165.31759 156.17969 165.26758 C 156.17969 165.21745 156.29205 164.95404 156.42969 164.69141 C 156.60479 164.36622 156.69293 163.90269 156.73047 163.27734 C 156.75572 162.76457 156.84283 161.90186 156.91797 161.35156 C 157.00547 160.78873 157.04209 160.07678 156.99219 159.72656 C 156.94206 159.37636 156.89234 158.5742 156.86719 157.92383 C 156.79206 156.11028 156.49091 155.16085 155.36523 153.25977 C 155.01506 152.65942 154.97882 152.52153 155.12891 152.39648 C 155.36028 152.20886 155.98629 152.0891 156.71484 152.05469 z M 224.84766 152.19336 C 225.13334 152.17623 225.42451 152.17702 225.71484 152.19727 C 226.04666 152.22077 226.37872 152.26914 226.70703 152.3457 C 228.24542 152.7084 229.49512 153.6822 229.82031 154.75781 C 229.92031 155.0705 229.9707 156.22288 229.9707 157.86133 L 229.9707 160.47656 L 229.70898 160.07617 C 229.57141 159.85105 229.29425 159.58755 229.11914 159.5 C 228.93157 159.4 228.23319 159.01273 227.57031 158.625 C 226.21954 157.82455 225.83057 157.7619 224.95508 158.16211 C 224.6549 158.29968 224.30591 158.41211 224.19336 158.41211 C 224.06827 158.41211 223.71812 158.58736 223.41797 158.8125 C 222.76761 159.26275 221.85325 159.39895 220.99023 159.17383 L 220.4668 159.02344 L 220.4668 157.13477 C 220.4668 156.07165 220.52766 155.04665 220.61523 154.77148 C 221.04612 153.32553 222.84788 152.3139 224.84766 152.19336 z M 211.58594 153.5957 C 212.63654 153.5957 212.86213 153.63193 213.5 153.95703 C 214.7632 154.56988 214.71289 154.33313 214.71289 159.92383 C 214.71289 164.47644 214.70059 164.78995 214.46289 165.30273 C 214.35427 165.53987 214.27808 165.89208 214.24414 166.19727 A 10.937218 7.7886251 0 0 0 208.45703 164.15625 L 208.45703 160.59766 C 208.45703 154.23151 208.39614 154.56988 209.67188 153.95703 C 210.30974 153.63184 210.53532 153.5957 211.58594 153.5957 z M 171.08789 153.67188 C 171.96337 153.68488 172.42559 153.74889 172.80078 153.92383 C 173.08844 154.04892 173.31445 154.223 173.31445 154.31055 C 173.31445 154.5482 172.22648 155.34756 171.63867 155.53516 C 171.37601 155.62266 170.93843 155.66055 170.67578 155.62305 C 170.23803 155.56055 170.15075 155.60974 169.52539 156.21094 L 168.83594 156.84766 L 168.68555 157.97461 C 168.61055 158.58747 168.49924 160.16331 168.44922 161.47656 C 168.37422 163.07746 168.28445 163.98029 168.17188 164.23047 C 168.02177 164.55562 167.99844 164.02627 167.96094 159.79883 C 167.93581 154.58338 167.92466 154.6737 168.625 154.21094 C 169.25035 153.79819 169.86215 153.65936 171.08789 153.67188 z M 62.207031 227.54102 L 62.207031 263.55078 L 68.554688 263.55078 L 68.554688 227.54102 L 62.207031 227.54102 z M 113.33008 227.54102 L 113.33008 237.16016 L 113.23242 237.16016 C 112.74414 236.16731 112.13477 235.42578 111.40234 234.9375 C 110.66992 234.44922 109.79818 234.20508 108.78906 234.20508 C 107.42187 234.20508 106.39648 234.61198 105.71289 235.42578 C 105.0293 236.23958 104.6875 237.4694 104.6875 239.11328 L 104.6875 259.40039 C 104.6875 261.02799 105.02019 262.2487 105.6875 263.0625 C 106.37109 263.86003 107.4056 264.25977 108.78906 264.25977 C 109.87956 264.25977 110.79818 263.99023 111.54688 263.45312 C 112.31185 262.91602 112.9069 262.11849 113.33008 261.06055 L 113.42773 261.06055 L 113.42773 263.55078 L 119.67773 263.55078 L 119.67773 227.54102 L 113.33008 227.54102 z M 137.06055 227.54102 C 135.54687 227.54102 134.36783 227.93879 133.52148 228.73633 C 132.67513 229.51758 132.25 230.60808 132.25 232.00781 L 132.25 234.74219 L 130.6875 234.74219 L 130.6875 239.30859 L 132.25 239.30859 L 132.25 263.55078 L 138.59961 263.55078 L 138.59961 239.30859 L 140.64844 239.30859 L 140.64844 234.74219 L 138.59961 234.74219 L 138.59961 233.20508 C 138.59961 232.7819 138.75326 232.48893 139.0625 232.32617 C 139.37174 232.14714 139.89974 232.05664 140.64844 232.05664 L 140.64844 227.54102 L 137.06055 227.54102 z M 176.26953 227.54102 L 176.26953 233.00977 L 182.61719 233.00977 L 182.61719 227.54102 L 176.26953 227.54102 z M 190.57617 227.54102 C 189.0625 227.54102 187.88346 227.93879 187.03711 228.73633 C 186.19075 229.51758 185.76562 230.60808 185.76562 232.00781 L 185.76562 234.74219 L 184.20312 234.74219 L 184.20312 239.30859 L 185.76562 239.30859 L 185.76562 263.55078 L 192.11523 263.55078 L 192.11523 239.30859 L 194.16406 239.30859 L 194.16406 234.74219 L 192.11523 234.74219 L 192.11523 233.20508 C 192.11523 232.7819 192.26888 232.48893 192.57812 232.32617 C 192.88737 232.14714 193.41536 232.05664 194.16406 232.05664 L 194.16406 227.54102 L 190.57617 227.54102 z M 229.49219 227.54102 L 229.49219 263.55078 L 235.83984 263.55078 L 235.83984 248.46289 L 235.9375 248.46289 L 238.45117 263.55078 L 245.14062 263.55078 L 241.99219 247.19336 L 245.14062 234.74219 L 238.64648 234.74219 L 235.9375 247.29102 L 235.83984 247.29102 L 235.83984 227.54102 L 229.49219 227.54102 z M 52.855469 229.39648 L 52.855469 234.74219 L 51.246094 234.74219 L 51.246094 239.35742 L 52.855469 239.35742 L 52.855469 258.49805 C 52.855469 260.45117 53.173828 261.78581 53.808594 262.50195 C 54.459635 263.20183 55.559245 263.55078 57.105469 263.55078 L 61.109375 263.55078 L 61.109375 258.91211 L 60.888672 258.91211 C 60.23763 258.91211 59.798177 258.79818 59.570312 258.57031 C 59.358724 258.32617 59.253906 257.7565 59.253906 256.86133 L 59.253906 239.35742 L 61.109375 239.35742 L 61.109375 234.74219 L 59.253906 234.74219 L 59.253906 229.39648 L 52.855469 229.39648 z M 290.0625 229.39648 L 290.0625 234.74219 L 288.45312 234.74219 L 288.45312 239.35742 L 290.0625 239.35742 L 290.0625 258.49805 C 290.0625 260.45117 290.38086 261.78581 291.01562 262.50195 C 291.66667 263.20183 292.76627 263.55078 294.3125 263.55078 L 298.31445 263.55078 L 298.31445 258.91211 L 298.0957 258.91211 C 297.44466 258.91211 297.00521 258.79818 296.77734 258.57031 C 296.56576 258.32617 296.46094 257.7565 296.46094 256.86133 L 296.46094 239.35742 L 298.31445 239.35742 L 298.31445 234.74219 L 296.46094 234.74219 L 296.46094 229.39648 L 290.0625 229.39648 z M 25.757812 234.05859 C 23.088542 234.05859 21.167969 234.6862 19.996094 235.93945 C 18.840495 237.17644 18.261719 239.2832 18.261719 242.26172 L 18.261719 256.05664 C 18.261719 259.01888 18.840495 261.12565 19.996094 262.37891 C 21.167969 263.63216 23.088542 264.25977 25.757812 264.25977 C 28.427083 264.25977 30.338542 263.63216 31.494141 262.37891 C 32.666016 261.12565 33.251953 259.01888 33.251953 256.05664 L 33.251953 242.26172 C 33.251953 239.2832 32.666016 237.17644 31.494141 235.93945 C 30.338542 234.6862 28.427083 234.05859 25.757812 234.05859 z M 78.101562 234.05859 C 75.627604 234.05859 73.753907 234.61198 72.484375 235.71875 C 71.23112 236.82553 70.605469 238.4694 70.605469 240.65039 L 70.605469 244.80078 L 77.001953 244.80078 L 77.001953 240.60156 C 77.001953 239.98308 77.083333 239.53647 77.246094 239.25977 C 77.42513 238.98307 77.710938 238.84375 78.101562 238.84375 C 78.524739 238.84375 78.82487 238.98307 79.003906 239.25977 C 79.199219 239.53647 79.296875 239.98308 79.296875 240.60156 L 79.296875 242.65234 C 79.296875 243.75911 78.101563 244.92382 75.708984 246.14453 C 74.992839 246.5026 74.439453 246.78646 74.048828 246.99805 C 72.844401 247.64909 71.965495 248.45573 71.412109 249.41602 C 70.875 250.36003 70.605469 251.5879 70.605469 253.10156 L 70.605469 259.20508 C 70.605469 260.80013 70.947266 262.00456 71.630859 262.81836 C 72.330729 263.63216 73.35612 264.03906 74.707031 264.03906 C 75.732422 264.03906 76.627605 263.78776 77.392578 263.2832 C 78.173828 262.77865 78.792318 262.05339 79.248047 261.10938 L 79.345703 261.10938 L 79.345703 261.54883 C 79.345703 261.84179 79.371097 262.16732 79.419922 262.52539 C 79.468747 262.86718 79.533851 263.20898 79.615234 263.55078 L 86.060547 263.55078 C 85.897789 262.9974 85.774743 262.42774 85.693359 261.8418 C 85.628251 261.23958 85.595703 260.55598 85.595703 259.79102 L 85.595703 242.26172 C 85.595703 239.25065 85.01888 237.13477 83.863281 235.91406 C 82.723958 234.67709 80.803385 234.05859 78.101562 234.05859 z M 166.72461 234.05859 C 164.03906 234.05859 162.12565 234.66993 160.98633 235.89062 C 159.84701 237.11133 159.27734 239.23438 159.27734 242.26172 L 159.27734 256.05664 C 159.27734 259.05143 159.85417 261.16731 161.00977 262.4043 C 162.16537 263.64127 164.08789 264.25977 166.77344 264.25977 C 169.14974 264.25977 170.98698 263.6901 172.28906 262.55078 C 173.60742 261.39518 174.26758 259.77474 174.26758 257.69141 L 174.26758 252.3457 L 167.91992 252.3457 L 167.91992 257.74023 C 167.91992 258.375 167.82943 258.83073 167.65039 259.10742 C 167.47136 259.36784 167.18034 259.49805 166.77344 259.49805 C 166.36654 259.49805 166.07162 259.36784 165.89258 259.10742 C 165.71354 258.83073 165.625 258.375 165.625 257.74023 L 165.625 250.05078 L 174.26758 250.05078 L 174.26758 240.25977 C 174.26758 238.32292 173.60026 236.80925 172.26562 235.71875 C 170.93099 234.61198 169.08463 234.05859 166.72461 234.05859 z M 279.90625 234.05859 C 277.2207 234.05859 275.30924 234.66993 274.16992 235.89062 C 273.0306 237.11133 272.46094 239.23438 272.46094 242.26172 L 272.46094 256.05664 C 272.46094 259.05143 273.03971 261.16731 274.19531 262.4043 C 275.35091 263.64127 277.26954 264.25977 279.95508 264.25977 C 282.33139 264.25977 284.17253 263.6901 285.47461 262.55078 C 286.79297 261.39518 287.45117 259.77474 287.45117 257.69141 L 287.45117 252.3457 L 281.10352 252.3457 L 281.10352 257.74023 C 281.10352 258.375 281.01497 258.83073 280.83594 259.10742 C 280.6569 259.36784 280.36198 259.49805 279.95508 259.49805 C 279.54818 259.49805 279.25716 259.36784 279.07812 259.10742 C 278.89908 258.83073 278.80859 258.375 278.80859 257.74023 L 278.80859 250.05078 L 287.45117 250.05078 L 287.45117 240.25977 C 287.45117 238.32292 286.78386 236.80925 285.44922 235.71875 C 284.11459 234.61198 282.26628 234.05859 279.90625 234.05859 z M 39.257812 234.20508 C 37.923177 234.20508 36.904947 234.5957 36.205078 235.37695 C 35.505208 236.14192 35.15625 237.24869 35.15625 238.69727 L 35.15625 255.54297 C 35.15625 257.23568 35.481771 258.47266 36.132812 259.25391 C 36.783854 260.01888 37.809245 260.40234 39.208984 260.40234 C 40.266928 260.40234 41.16211 260.14193 41.894531 259.62109 C 42.643229 259.08399 43.245443 258.27735 43.701172 257.20312 L 43.798828 257.20312 L 43.798828 263.55078 C 43.798828 264.16927 43.708333 264.61784 43.529297 264.89453 C 43.35026 265.17122 43.057291 265.30859 42.650391 265.30859 C 42.243489 265.30859 41.95052 265.17122 41.771484 264.89453 C 41.592448 264.63411 41.503906 264.18555 41.503906 263.55078 L 41.503906 261.30469 L 35.15625 261.30469 L 35.15625 263.50195 C 35.15625 265.569 35.807292 267.17318 37.109375 268.3125 C 38.427734 269.4681 40.274088 270.04492 42.650391 270.04492 C 45.335937 270.04492 47.25651 269.42643 48.412109 268.18945 C 49.567708 266.96874 50.146484 264.85286 50.146484 261.8418 L 50.146484 234.74219 L 43.945312 234.74219 L 43.945312 237.16016 L 43.798828 237.16016 C 43.245443 236.13476 42.601562 235.38607 41.869141 234.91406 C 41.136718 234.44206 40.266927 234.20508 39.257812 234.20508 z M 98.583984 234.20508 C 97.591146 234.20508 96.721354 234.44922 95.972656 234.9375 C 95.223958 235.40951 94.580078 236.15104 94.042969 237.16016 L 93.945312 237.16016 L 93.945312 234.74219 L 87.695312 234.74219 L 87.695312 263.55078 L 94.042969 263.55078 L 94.042969 241.21289 C 94.042969 240.62696 94.133463 240.19466 94.3125 239.91797 C 94.507812 239.64128 94.800781 239.50391 95.191406 239.50391 C 95.614583 239.50391 95.907552 239.625 96.070312 239.86914 C 96.249348 240.097 96.337891 240.54557 96.337891 241.21289 L 96.337891 263.55078 L 102.73438 263.55078 L 102.73438 239.11328 C 102.73438 237.48567 102.38542 236.26497 101.68555 235.45117 C 101.00195 234.6211 99.967449 234.20508 98.583984 234.20508 z M 152.68555 234.20508 C 151.69271 234.20508 150.82097 234.44922 150.07227 234.9375 C 149.32357 235.40951 148.68164 236.15104 148.14453 237.16016 L 148.04688 237.16016 L 148.04688 234.74219 L 141.79688 234.74219 L 141.79688 263.55078 L 148.14453 263.55078 L 148.14453 241.21289 C 148.14453 240.62696 148.23308 240.19466 148.41211 239.91797 C 148.60742 239.64128 148.90039 239.50391 149.29102 239.50391 C 149.7142 239.50391 150.00716 239.625 150.16992 239.86914 C 150.34896 240.097 150.43945 240.54557 150.43945 241.21289 L 150.43945 250.24609 L 156.83594 250.24609 L 156.83594 239.11328 C 156.83594 237.48567 156.48502 236.26497 155.78516 235.45117 C 155.10156 234.6211 154.06901 234.20508 152.68555 234.20508 z M 223.29102 234.20508 C 222.29818 234.20508 221.42643 234.44922 220.67773 234.9375 C 219.92903 235.40951 219.28711 236.15104 218.75 237.16016 L 218.65234 237.16016 L 218.65234 234.74219 L 212.40234 234.74219 L 212.40234 263.55078 L 218.75 263.55078 L 218.75 241.21289 C 218.75 240.62696 218.83857 240.19466 219.01758 239.91797 C 219.21289 239.64128 219.50586 239.50391 219.89648 239.50391 C 220.31966 239.50391 220.61263 239.625 220.77539 239.86914 C 220.95443 240.097 221.04492 240.54557 221.04492 241.21289 L 221.04492 263.55078 L 227.44141 263.55078 L 227.44141 239.11328 C 227.44141 237.48567 227.09049 236.26497 226.39062 235.45117 C 225.70703 234.6211 224.67448 234.20508 223.29102 234.20508 z M 266.35742 234.20508 C 265.36458 234.20508 264.49284 234.44922 263.74414 234.9375 C 262.99545 235.40951 262.35352 236.15104 261.81641 237.16016 L 261.71875 237.16016 L 261.71875 234.74219 L 255.46875 234.74219 L 255.46875 263.55078 L 261.81641 263.55078 L 261.81641 241.21289 C 261.81641 240.62696 261.90494 240.19466 262.08398 239.91797 C 262.27929 239.64128 262.57227 239.50391 262.96289 239.50391 C 263.38607 239.50391 263.67904 239.625 263.8418 239.86914 C 264.02083 240.097 264.11133 240.54557 264.11133 241.21289 L 264.11133 263.55078 L 270.50781 263.55078 L 270.50781 239.11328 C 270.50781 237.48567 270.1569 236.26497 269.45703 235.45117 C 268.77343 234.6211 267.74088 234.20508 266.35742 234.20508 z M 1.6835938 234.74219 L 5.8339844 263.55078 L 13.720703 263.55078 L 17.871094 234.74219 L 11.865234 234.74219 L 10.572266 248.07227 C 10.458333 249.29297 10.351562 250.63672 10.253906 252.10156 C 10.172527 253.55013 10.116537 255.0638 10.083984 256.64258 L 9.8867188 256.64258 C 9.8541667 255.17774 9.8053385 253.81055 9.7402344 252.54102 C 9.6751302 251.25522 9.5865885 250.07422 9.4726562 249 L 8.0800781 234.74219 L 1.6835938 234.74219 z M 176.26953 234.74219 L 176.26953 263.55078 L 182.61719 263.55078 L 182.61719 234.74219 L 176.26953 234.74219 z M 195.3125 234.74219 L 195.3125 259.20508 C 195.3125 260.8164 195.6543 262.02995 196.33789 262.84375 C 197.03777 263.64128 198.07943 264.03906 199.46289 264.03906 C 200.47201 264.03906 201.33464 263.81119 202.05078 263.35547 C 202.78321 262.88346 203.41797 262.15104 203.95508 261.1582 L 204.10156 261.1582 L 204.10156 263.55078 L 210.35156 263.55078 L 210.35156 234.74219 L 203.95508 234.74219 L 203.95508 257.10547 C 203.95508 257.70768 203.86653 258.13997 203.6875 258.40039 C 203.52474 258.66081 203.24805 258.79102 202.85742 258.79102 C 202.43424 258.79102 202.125 258.66796 201.92969 258.42383 C 201.75065 258.17969 201.66016 257.74024 201.66016 257.10547 L 201.66016 234.74219 L 195.3125 234.74219 z M 25.757812 238.55078 C 26.180989 238.55078 26.48112 238.69011 26.660156 238.9668 C 26.855469 239.24349 26.953125 239.6901 26.953125 240.30859 L 26.953125 257.74023 C 26.953125 258.375 26.86263 258.83073 26.683594 259.10742 C 26.504557 259.36784 26.211588 259.49805 25.804688 259.49805 C 25.397787 259.49805 25.104818 259.36784 24.925781 259.10742 C 24.746745 258.83073 24.658203 258.375 24.658203 257.74023 L 24.658203 240.30859 C 24.658203 239.65755 24.739583 239.20182 24.902344 238.94141 C 25.08138 238.68099 25.367188 238.55078 25.757812 238.55078 z M 166.77344 238.55078 C 167.18034 238.55078 167.47136 238.69011 167.65039 238.9668 C 167.82943 239.22721 167.91992 239.67383 167.91992 240.30859 L 167.91992 245.75391 L 165.625 245.75391 L 165.625 240.30859 C 165.625 239.67383 165.71354 239.22721 165.89258 238.9668 C 166.07162 238.69011 166.36654 238.55078 166.77344 238.55078 z M 279.95508 238.55078 C 280.36198 238.55078 280.6569 238.69011 280.83594 238.9668 C 281.01497 239.22721 281.10352 239.67383 281.10352 240.30859 L 281.10352 245.75391 L 278.80859 245.75391 L 278.80859 240.30859 C 278.80859 239.67383 278.89908 239.22721 279.07812 238.9668 C 279.25716 238.69011 279.54818 238.55078 279.95508 238.55078 z M 42.652344 239.30859 C 43.042969 239.30859 43.326824 239.44596 43.505859 239.72266 C 43.701172 239.98307 43.798828 240.40625 43.798828 240.99219 L 43.798828 253.49219 C 43.798828 254.0944 43.701172 254.54297 43.505859 254.83594 C 43.326824 255.11263 43.042969 255.25 42.652344 255.25 C 42.229166 255.25 41.927084 255.12891 41.748047 254.88477 C 41.585287 254.62435 41.503906 254.1595 41.503906 253.49219 L 41.503906 240.99219 C 41.503906 240.34115 41.585287 239.90169 41.748047 239.67383 C 41.927084 239.42969 42.229166 239.30859 42.652344 239.30859 z M 112.18359 239.50391 C 112.57422 239.50391 112.85807 239.64128 113.03711 239.91797 C 113.23242 240.19466 113.33008 240.62696 113.33008 241.21289 L 113.33008 257.25195 C 113.33008 257.83789 113.23242 258.27735 113.03711 258.57031 C 112.85807 258.86329 112.57422 259.00977 112.18359 259.00977 C 111.76042 259.00977 111.45833 258.88867 111.2793 258.64453 C 111.11654 258.38411 111.03516 257.91927 111.03516 257.25195 L 111.03516 241.21289 C 111.03516 240.54557 111.11654 240.097 111.2793 239.86914 C 111.45833 239.625 111.76042 239.50391 112.18359 239.50391 z M 79.296875 249.41602 L 79.296875 257.05664 C 79.296875 257.64257 79.199219 258.07487 79.003906 258.35156 C 78.82487 258.61198 78.539062 258.74219 78.148438 258.74219 C 77.725261 258.74219 77.42513 258.62826 77.246094 258.40039 C 77.083333 258.15626 77.001953 257.70768 77.001953 257.05664 L 77.001953 252.29688 C 77.001953 251.54817 77.636718 250.68554 78.90625 249.70898 C 79.06901 249.57875 79.199218 249.4811 79.296875 249.41602 z M 122.16797 256.20312 L 122.16797 263.55078 L 128.7832 263.55078 L 128.7832 256.20312 L 122.16797 256.20312 z M 246.38672 256.20312 L 246.38672 263.55078 L 253.00195 263.55078 L 253.00195 256.20312 L 246.38672 256.20312 z "
     style="fill:#000000" />
</svg>
