<?xml version="1.0" encoding="UTF-8" standalone="no"?>
<svg
   xmlns:dc="http://purl.org/dc/elements/1.1/"
   xmlns:cc="http://creativecommons.org/ns#"
   xmlns:rdf="http://www.w3.org/1999/02/22-rdf-syntax-ns#"
   xmlns:svg="http://www.w3.org/2000/svg"
   xmlns="http://www.w3.org/2000/svg"
   id="svg2"
   viewport-fill="#ffffff"
   viewBox="0 0 240 36"
   height="45"
   width="300"
   version="1.2">
  <metadata
     id="metadata62">
    <rdf:RDF>
      <cc:Work
         rdf:about="">
        <dc:format>image/svg+xml</dc:format>
        <dc:type
           rdf:resource="http://purl.org/dc/dcmitype/StillImage" />
        <dc:title></dc:title>
      </cc:Work>
    </rdf:RDF>
  </metadata>
  <defs
     id="defs60" />
  <path
     style="fill:#ffffff"
     id="path16"
     d="M 4.6679687,30.00469 1.3476562,6.95781 l 5.1171875,0 1.1132813,11.40625 q 0.1367187,1.28907 0.2148437,2.83203 0.078125,1.52344 0.1171875,3.28125 l 0.1562501,0 q 0.039063,-1.89453 0.1367187,-3.63281 0.1171875,-1.75781 0.2539063,-3.22265 l 1.0351562,-10.66407 4.8046875,0 -3.320312,23.04688 -6.3085943,0 z" />
  <path
     style="fill:#ffffff"
     id="path18"
     d="m 19.726562,11.41094 0,13.94531 q 0,0.76172 0.214844,1.09375 0.214844,0.3125 0.703125,0.3125 0.488281,0 0.703125,-0.3125 0.214844,-0.33203 0.214844,-1.09375 l 0,-13.94531 q 0,-0.74219 -0.234375,-1.07422 -0.214844,-0.33203 -0.722656,-0.33203 -0.46875,0 -0.683594,0.3125 -0.195313,0.3125 -0.195313,1.09375 z m -5.117187,1.5625 q 0,-3.57422 1.386719,-5.0586 1.40625,-1.5039 4.609375,-1.5039 3.203125,0 4.589843,1.5039 1.40625,1.48438 1.40625,5.0586 l 0,11.03515 q 0,3.55469 -1.40625,5.0586 -1.386718,1.5039 -4.589843,1.5039 -3.203125,0 -4.609375,-1.5039 -1.386719,-1.50391 -1.386719,-5.0586 l 0,-11.03515 z" />
  <path
     style="fill:#ffffff"
     id="path20"
     d="m 33.203125,21.95781 q 0,0.80078 0.195312,1.11328 0.214844,0.29297 0.722657,0.29297 0.46875,0 0.683593,-0.33203 0.234375,-0.35156 0.234375,-1.07422 l 0,-10 q 0,-0.70312 -0.234375,-1.01562 -0.214843,-0.33203 -0.683593,-0.33203 -0.507813,0 -0.722657,0.29297 -0.195312,0.27343 -0.195312,1.05468 l 0,10 z m 1.835937,2.96875 -0.07813,0 q -0.546875,1.28907 -1.445312,1.9336 -0.878906,0.625 -2.148438,0.625 -1.679687,0 -2.460937,-0.91797 -0.78125,-0.9375 -0.78125,-2.96875 l 0,-13.47656 q 0,-1.73829 0.839844,-2.65625 0.839843,-0.9375 2.441406,-0.9375 1.210937,0 2.089844,0.5664 0.878906,0.56641 1.542968,1.79688 l 0.117188,0 0,-1.9336 4.960937,0 0,21.67969 q 0,3.61328 -1.386718,5.07813 Q 37.343745,35.2 34.121089,35.2 q -2.851563,0 -4.433594,-1.38672 -1.5625,-1.36719 -1.5625,-3.84765 l 0,-1.75782 5.078125,0 0,1.79688 q 0,0.76172 0.214844,1.07422 0.214843,0.33203 0.703125,0.33203 0.488281,0 0.703125,-0.33203 0.214843,-0.33203 0.214843,-1.07422 l 0,-5.07813 z" />
  <path
     style="fill:#ffffff"
     id="path22"
     d="m 40.996094,10.64922 0,-3.69141 1.289062,0 0,-4.27734 5.117188,0 0,4.27734 1.484375,0 0,3.69141 -1.484375,0 0,14.00391 q 0,1.07421 0.253906,1.36718 0.273437,0.27344 1.054687,0.27344 l 0.175782,0 0,3.71094 -3.203125,0 q -1.855469,0 -2.636719,-0.83985 -0.761719,-0.85937 -0.761719,-3.20312 l 0,-15.3125 -1.289062,0 z" />
  <path
     style="fill:#ffffff"
     id="path24"
     d="m 49.765625,30.00469 0,-28.8086 5.078125,0 0,28.8086 -5.078125,0 z" />
  <path
     style="fill:#ffffff"
     id="path26"
     d="m 63.4375,24.80938 0,-6.11329 q -0.117188,0.0781 -0.3125,0.23438 -1.523438,1.17187 -1.523438,2.07031 l 0,3.8086 q 0,0.78125 0.195313,1.07421 0.214844,0.27344 0.722656,0.27344 0.46875,0 0.683594,-0.3125 Q 63.4375,25.5125 63.4375,24.80938 Z m -6.953125,-13.125 q 0,-2.61719 1.503906,-3.94532 1.523438,-1.32812 4.492188,-1.32812 3.242187,0 4.609375,1.48437 1.386718,1.46485 1.386718,5.07813 l 0,14.02344 q 0,0.91796 0.07813,1.64062 0.09766,0.70313 0.292969,1.36719 l -5.15625,0 q -0.09766,-0.41016 -0.15625,-0.82031 -0.05859,-0.42969 -0.05859,-0.78125 l 0,-0.35157 -0.07813,0 q -0.546875,1.13282 -1.484375,1.73828 -0.917968,0.60547 -2.148437,0.60547 -1.621094,0 -2.460938,-0.97656 -0.820312,-0.97656 -0.820312,-2.89062 l 0,-4.88282 q 0,-1.8164 0.644531,-2.94922 0.664063,-1.15234 2.109375,-1.93359 0.46875,-0.25391 1.328125,-0.68359 2.871094,-1.46485 2.871094,-2.79297 l 0,-1.64063 q 0,-0.74218 -0.234375,-1.07422 -0.214844,-0.33203 -0.722656,-0.33203 -0.46875,0 -0.683594,0.33203 -0.195313,0.33204 -0.195313,1.07422 l 0,3.35938 -5.117187,0 0,-3.32031 z" />
  <path
     style="fill:#ffffff"
     id="path28"
     d="m 70.15625,30.00469 0,-23.04688 5,0 0,1.9336 0.07813,0 q 0.644531,-1.21094 1.542969,-1.77735 0.898437,-0.58593 2.089843,-0.58593 1.660157,0 2.480469,0.99609 0.839844,0.97656 0.839844,2.92969 l 0,19.55078 -5.117188,0 0,-17.8711 q 0,-0.80078 -0.214843,-1.07421 -0.195313,-0.29297 -0.703125,-0.29297 -0.46875,0 -0.703125,0.33203 -0.214844,0.33203 -0.214844,1.03515 l 0,17.8711 -5.078125,0 z" />
  <path
     style="fill:#ffffff"
     id="path30"
     d="m 95.742187,30.00469 -5,0 0,-1.99219 -0.07813,0 q -0.507812,1.26953 -1.425781,1.91406 -0.898437,0.64453 -2.207031,0.64453 -1.660156,0 -2.480469,-0.95703 Q 83.75,28.6375 83.75,26.68438 l 0,-16.23047 q 0,-1.97266 0.820312,-2.94922 0.820313,-0.97656 2.460938,-0.97656 1.210937,0 2.089844,0.58593 Q 90,7.7 90.585937,8.89141 l 0.07813,0 0,-7.69532 5.078125,0 0,28.8086 z m -6.914062,-5.03906 q 0,0.80078 0.195312,1.11328 0.214844,0.29297 0.722657,0.29297 0.46875,0 0.683593,-0.35157 0.234375,-0.35156 0.234375,-1.05468 l 0,-12.83204 q 0,-0.70312 -0.234375,-1.03515 -0.214843,-0.33203 -0.683593,-0.33203 -0.507813,0 -0.722657,0.29297 -0.195312,0.27343 -0.195312,1.07421 l 0,12.83204 z" />
  <path
     style="fill:#ffffff"
     id="path32"
     d="m 97.734375,30.00469 0,-5.87891 5.292965,0 0,5.87891 -5.292965,0 z" />
  <path
     style="fill:#ffffff"
     id="path34"
     d="m 105.80078,30.00469 0,-19.39453 -1.25,0 0,-3.65235 1.25,0 0,-2.1875 q 0,-1.67968 1.01563,-2.61718 1.01562,-0.95704 2.83203,-0.95704 l 2.87109,0 0,3.61329 q -0.89844,0 -1.26953,0.21484 -0.37109,0.19531 -0.37109,0.70312 l 0,1.23047 1.64062,0 0,3.65235 -1.64062,0 0,19.39453 -5.07813,0 z" />
  <path
     style="fill:#ffffff"
     id="path36"
     d="m 113.4375,30.00469 0,-23.04688 5,0 0,1.9336 0.0781,0 q 0.64453,-1.21094 1.54296,-1.77735 0.89844,-0.58593 2.08985,-0.58593 1.66015,0 2.48047,0.99609 0.83984,0.97656 0.83984,2.92969 l 0,8.90625 -5.11719,0 0,-7.22657 q 0,-0.80078 -0.21484,-1.07421 -0.19531,-0.29297 -0.70313,-0.29297 -0.46875,0 -0.70312,0.33203 -0.21484,0.33203 -0.21484,1.03515 l 0,17.8711 -5.07813,0 z" />
  <path
     style="fill:#ffffff"
     id="path38"
     d="m 132.5,11.41094 0,4.35547 1.83594,0 0,-4.35547 q 0,-0.76172 -0.21485,-1.07422 -0.21484,-0.33203 -0.70312,-0.33203 -0.48828,0 -0.70313,0.33203 Q 132.5,10.64922 132.5,11.41094 Z m 0,13.94531 q 0,0.76172 0.21484,1.09375 0.21485,0.3125 0.70313,0.3125 0.48828,0 0.70312,-0.3125 0.21485,-0.33203 0.21485,-1.09375 l 0,-4.31641 5.07812,0 0,4.27735 q 0,2.5 -1.58203,3.88672 -1.5625,1.36718 -4.41406,1.36718 -3.22266,0 -4.60938,-1.48437 -1.38671,-1.48438 -1.38671,-5.07813 l 0,-11.03515 q 0,-3.63281 1.36718,-5.09766 1.36719,-1.46484 4.58985,-1.46484 2.83203,0 4.43359,1.32812 1.60156,1.3086 1.60156,3.63282 l 0,7.83203 -6.91406,0 0,6.15234 z" />
  <path
     style="fill:#ffffff"
     id="path40"
     d="m 141.01562,30.00469 0,-23.04688 5.07813,0 0,23.04688 -5.07813,0 z m 0,-24.4336 0,-4.375 5.07813,0 0,4.375 -5.07813,0 z" />
  <path
     style="fill:#ffffff"
     id="path42"
     d="m 148.61328,30.00469 0,-19.39453 -1.25,0 0,-3.65235 1.25,0 0,-2.1875 q 0,-1.67968 1.01563,-2.61718 1.01562,-0.95704 2.83203,-0.95704 l 2.87109,0 0,3.61329 q -0.89844,0 -1.26953,0.21484 -0.37109,0.19531 -0.37109,0.70312 l 0,1.23047 1.64062,0 0,3.65235 -1.64062,0 0,19.39453 -5.07813,0 z" />
  <path
     style="fill:#ffffff"
     id="path44"
     d="m 168.28125,6.95781 0,23.04688 -5,0 0,-1.91406 -0.11719,0 q -0.64453,1.1914 -1.52344,1.75781 -0.85937,0.54687 -2.07031,0.54687 -1.66015,0 -2.5,-0.95703 Q 156.25,28.46172 156.25,26.52813 l 0,-19.57032 5.07812,0 0,17.89063 q 0,0.76172 0.21485,1.05469 0.23437,0.29296 0.74219,0.29296 0.46875,0 0.66406,-0.3125 0.21484,-0.3125 0.21484,-1.03515 l 0,-17.89063 5.11719,0 z" />
  <path
     style="fill:#ffffff"
     id="path46"
     d="m 169.92187,30.00469 0,-23.04688 5,0 0,1.9336 0.0781,0 q 0.64453,-1.21094 1.54297,-1.77735 0.89844,-0.58593 2.08984,-0.58593 1.66016,0 2.48047,0.99609 0.83984,0.97656 0.83984,2.92969 l 0,19.55078 -5.11718,0 0,-17.8711 q 0,-0.80078 -0.21485,-1.07421 -0.19531,-0.29297 -0.70312,-0.29297 -0.46875,0 -0.70313,0.33203 Q 175,11.43047 175,12.13359 l 0,17.8711 -5.07813,0 z" />
  <path
     style="fill:#ffffff"
     id="path48"
     d="m 183.59375,30.00469 0,-28.8086 5.07812,0 0,15.80079 0.0781,0 2.16797,-10.03907 5.19531,0 -2.51953,9.96094 2.51953,13.08594 -5.35156,0 -2.01172,-12.07031 -0.0781,0 0,12.07031 -5.07812,0 z" />
  <path
     style="fill:#ffffff"
     id="path50"
     d="m 197.10937,30.00469 0,-5.87891 5.29297,0 0,5.87891 -5.29297,0 z" />
  <path
     style="fill:#ffffff"
     id="path52"
     d="m 204.375,30.00469 0,-23.04688 5,0 0,1.9336 0.0781,0 q 0.64454,-1.21094 1.54297,-1.77735 0.89844,-0.58593 2.08985,-0.58593 1.66015,0 2.48047,0.99609 0.83984,0.97656 0.83984,2.92969 l 0,19.55078 -5.11719,0 0,-17.8711 q 0,-0.80078 -0.21484,-1.07421 -0.19531,-0.29297 -0.70313,-0.29297 -0.46875,0 -0.70312,0.33203 -0.21485,0.33203 -0.21485,1.03515 l 0,17.8711 -5.07812,0 z" />
  <path
     style="fill:#ffffff"
     id="path54"
     d="m 223.04687,11.41094 0,4.35547 1.83594,0 0,-4.35547 q 0,-0.76172 -0.21484,-1.07422 -0.21485,-0.33203 -0.70313,-0.33203 -0.48828,0 -0.70312,0.33203 -0.21485,0.3125 -0.21485,1.07422 z m 0,13.94531 q 0,0.76172 0.21485,1.09375 0.21484,0.3125 0.70312,0.3125 0.48828,0 0.70313,-0.3125 0.21484,-0.33203 0.21484,-1.09375 l 0,-4.31641 5.07813,0 0,4.27735 q 0,2.5 -1.58203,3.88672 -1.5625,1.36718 -4.41407,1.36718 -3.22265,0 -4.60937,-1.48437 -1.38672,-1.48438 -1.38672,-5.07813 l 0,-11.03515 q 0,-3.63281 1.36719,-5.09766 1.36718,-1.46484 4.58984,-1.46484 2.83203,0 4.43359,1.32812 1.60157,1.3086 1.60157,3.63282 l 0,7.83203 -6.91407,0 0,6.15234 z" />
  <path
     style="fill:#ffffff"
     id="path56"
     d="m 230.76172,10.64922 0,-3.69141 1.28906,0 0,-4.27734 5.11719,0 0,4.27734 1.48437,0 0,3.69141 -1.48437,0 0,14.00391 q 0,1.07421 0.2539,1.36718 0.27344,0.27344 1.05469,0.27344 l 0.17578,0 0,3.71094 -3.20312,0 q -1.85547,0 -2.63672,-0.83985 -0.76172,-0.85937 -0.76172,-3.20312 l 0,-15.3125 -1.28906,0 z" />
</svg>
