<?xml version="1.0" encoding="UTF-8" standalone="no"?>
<svg xmlns="http://www.w3.org/2000/svg" version="1.2" baseProfile="tiny" width="200" height="200" viewBox="0 0 160 160" viewport-fill="#ffffff">
    <path fill="#000000" d="m 2.2265626,80.515567 a 77.635888,77.635888 0 0 0 1.7187513,14.17657 c 0.091391,-0.748616 0.296958,-0.971153 0.7781255,-1.435937 0.853696,-0.834289 1.9796017,-1.242833 3.3765651,-1.223433 0.4753579,0.01 1.0574688,0.06838 1.300001,0.126561 0.6402715,0.18432 1.4741295,0.650344 1.8718765,1.057808 0.194033,0.194016 0.437036,0.592105 0.54375,0.873441 0.194024,0.485064 0.203125,0.707056 0.203126,3.704691 l 0,3.201562 -4.0750036,0 -2.4031269,0 a 77.635888,77.635888 0 0 0 0.7406257,2.22813 c 0.1023692,-0.004 0.2101766,-0.0365 0.2656252,-0.0828 0.1115597,-0.11157 0.525347,-0.17503 1.0031257,-0.18594 0.4777787,-0.0109 1.0202583,0.0296 1.3937515,0.12657 0.6887788,0.17462 1.2224954,0.4479 1.6687514,0.83594 0.310436,0.28133 0.417034,0.42568 0.746875,1.05624 0.09702,0.19404 0.135283,1.47511 0.154688,5.84062 l 0.01719,4.57814 a 77.635888,77.635888 0 0 0 10.993759,15.35313 l -0.542188,0 a 77.121745,77.121745 0 0 0 57.810982,26.2219 77.121745,77.121745 0 0 0 57.851607,-26.2219 l -0.88125,0 a 76.813001,76.813001 0 0 0 14.90625,-22.96407 77.635888,77.635888 0 0 0 0.70938,-1.94531 76.813001,76.813001 0 0 0 1.70001,-4.79221 77.635888,77.635888 0 0 0 0.74686,-2.920304 c -0.16094,0.215952 -0.32313,0.422544 -0.71562,0.892184 -0.15521,0.17463 -0.46463,0.38927 -0.72656,0.47656 -0.25223,0.0969 -0.69924,0.27232 -1,0.39844 -0.30072,0.12611 -0.72687,0.23126 -0.95,0.23126 l -0.39844,0 0,-2.840629 c 0,-2.764826 0.008,-2.843386 0.23125,-3.318755 0.39304,-0.843032 1.27315,-1.450009 2.325,-1.720313 l 0.50156,0 0,-0.09844 c 0.6021,-0.08764 1.23874,-0.07783 1.86876,0.07187 l 0.003,0 c 0.0611,0.0144 0.11798,0.03447 0.17656,0.05157 a 77.635888,77.635888 0 0 0 0.27969,-1.845313 l -1.65001,0 -0.67812,0 0,-7.68751 c 0.51713,-0.08995 1.05427,-0.0917 1.58907,0.03282 0.5499,0.126208 1.05573,0.375977 1.50157,0.710937 a 77.635888,77.635888 0 0 0 0.14686,-2.951563 l -62.465662,0 c -45.543899,4e-5 -69.279695,-0.0051 -92.6391315,-0.01251 z m 16.3609494,2.131249 c 0.485209,0.0026 0.974814,0.07324 1.445314,0.218752 1.241748,0.38804 2.433646,1.503201 2.734377,2.570314 0.07756,0.252249 0.117202,1.233577 0.117188,2.698442 l 0,2.289066 -4.365628,0 -4.365629,0 0,-2.32813 c 0,-2.628994 0.04846,-2.88185 0.746876,-3.793754 0.807621,-1.054994 2.231881,-1.662418 3.687502,-1.65469 z m 20.885954,0.01563 c 0.45596,0 1.047432,0.05837 1.309376,0.135944 1.232027,0.320128 2.212081,1.115673 2.735939,2.18281 l 0.271876,0.543753 0.02968,2.445313 0.02812,2.45313 -4.326565,0 -4.317192,0 0,-2.32813 c 0,-2.046937 0.01948,-2.38565 0.184375,-2.812498 0.601469,-1.581281 2.212073,-2.61061 4.084379,-2.620322 z m 10.654695,0.0031 c 0.537204,0.0012 1.078655,0.06449 1.481252,0.190624 1.144723,0.34924 2.105563,1.145177 2.590626,2.125002 0.213429,0.44624 0.260213,0.728257 0.328125,1.746881 0.04846,0.669376 0.05909,1.774041 0.02031,2.453121 l -0.05938,1.242194 -4.364066,0 -4.356253,0 0.02969,-2.45469 c 0.02911,-2.444682 0.02869,-2.444258 0.290625,-2.987506 0.485049,-0.979817 1.434958,-1.76573 2.579691,-2.134378 0.38804,-0.121264 0.922179,-0.182464 1.459375,-0.181248 z m 94.486009,0.0047 c 0.22883,0.01259 0.45988,0.04508 0.68907,0.09844 1.18353,0.271632 2.19236,1.078121 2.74531,2.193745 l 0.32031,0.648441 0.0281,2.40625 0.039,2.406258 -4.04687,0 -4.04376,0 0.0391,-2.406258 0.0281,-2.40625 0.32032,-0.648441 c 0.7385,-1.493968 2.27933,-2.380249 3.88125,-2.292185 z m -136.6704156,0.0016 c 0.4559535,-0.0097 1.0474395,0.04896 1.3093757,0.126568 1.2126299,0.320128 2.2124119,1.105729 2.7265649,2.143746 l 0.28125,0.582817 0.02969,2.445313 0.02812,2.45313 -4.326566,0 -4.3250034,0 0.028125,-2.45313 0.029687,-2.445313 0.2703128,-0.562506 C 4.7034911,83.53641 6.1781493,82.681553 7.9437507,82.671849 Z m 68.9828646,0.0016 c 0.720304,-0.0012 1.442001,0.0483 1.912502,0.145312 2.599899,0.533545 5.02682,2.375186 6.181254,4.693748 0.14552,0.291032 0.318344,0.562768 0.37656,0.601568 0.05822,0.03878 0.07785,0.07812 0.03906,0.07812 -0.03878,0 0.02145,0.252401 0.128128,0.553129 0.436544,1.251432 0.454944,1.591144 0.493752,7.014068 l 0.02969,5.190629 -9.10001,0.0281 -9.100007,0.0187 0.02969,-5.403132 c 0.03878,-5.248308 0.03812,-5.432388 0.251563,-6.189069 0.271635,-0.960409 0.862664,-2.220794 1.415626,-2.996874 1.241747,-1.736506 3.375862,-3.144706 5.442191,-3.581259 0.460803,-0.101872 1.179692,-0.151904 1.900002,-0.15312 z m 46.728161,0.0016 c 0.39289,-0.0024 0.78654,0.04066 1.14062,0.132816 1.20295,0.31044 2.35597,1.290689 2.78283,2.35781 0.20372,0.514152 0.22402,0.71724 0.25312,2.900002 l 0.0281,2.357818 -4.18125,0 -4.18126,0 0.0297,-2.357818 c 0.0291,-2.182762 0.0494,-2.38585 0.25312,-2.900002 0.41716,-1.047713 1.57995,-2.036449 2.73438,-2.346874 0.3541,-0.09217 0.74775,-0.14132 1.14063,-0.143752 z m -21.29377,0.0016 0.002,0 c 0.22756,-0.01582 0.45665,-0.01614 0.68594,0.0016 0.26205,0.02021 0.52296,0.06299 0.78126,0.129688 1.35816,0.358952 2.3758,1.154673 2.90938,2.270314 l 0.30155,0.639057 0.0297,2.348441 0.0281,2.357818 -4.42189,0 -4.424997,0 0.02969,-2.357818 0.02812,-2.348441 0.301561,-0.639057 c 0.66104,-1.381505 2.157106,-2.290825 3.749996,-2.40157 z m 31.34064,0.0094 c 0.21196,-0.01612 0.42601,-0.01619 0.64063,0 0.24531,0.01852 0.49065,0.05882 0.73438,0.12188 1.20293,0.320128 2.23273,1.163481 2.74688,2.250002 0.26193,0.552968 0.26153,0.592296 0.29063,2.95937 l 0.039,2.406258 -4.1422,0 -4.14375,0 0.039,-2.406258 c 0.0291,-2.367074 0.0303,-2.406402 0.29219,-2.95937 0.64616,-1.374065 2.01943,-2.259066 3.50311,-2.371882 z m -104.453192,0.0047 c 1.008906,0.02909 1.115579,0.04956 1.814064,0.389064 0.902208,0.426849 1.571012,1.057313 1.968751,1.862498 l 0.28125,0.582817 0.02969,2.445313 0.02969,2.45313 -4.328129,0 -4.326565,0 0.02969,-2.45313 0.02812,-2.445313 0.273438,-0.562505 c 0.358945,-0.717881 1.026445,-1.397898 1.773439,-1.785938 0.824597,-0.436544 1.184816,-0.51504 2.426564,-0.485936 z m 83.600072,0.0078 c 0.6812,-0.02183 1.54529,0.07068 2.01094,0.245312 1.22233,0.465648 2.1648,1.407809 2.51405,2.523434 0.16491,0.533569 0.19374,0.892665 0.19375,2.784378 l 0,2.171882 -4.31718,0 -4.31719,0 0,-2.171882 c 0,-2.464082 0.10724,-3.018186 0.72811,-3.871875 0.55296,-0.746984 1.61898,-1.416585 2.58907,-1.620313 0.16491,-0.03396 0.37138,-0.05367 0.59845,-0.06094 z m -52.270361,2.007809 c 0.361366,-0.0085 0.728275,0.03112 0.956251,0.128128 0.494755,0.203721 1.037156,0.738329 1.279688,1.271873 0.213421,0.455969 0.232813,0.600625 0.232813,2.395315 l 0,1.921881 -2.425002,0 -2.426563,0 0,-1.823441 c 0,-1.445466 0.03139,-1.931361 0.167187,-2.300003 0.174627,-0.523856 0.75549,-1.164632 1.289063,-1.42656 0.208564,-0.101864 0.565197,-0.158704 0.926563,-0.167193 z m 31.545339,0.214065 c 0.410736,0.02239 0.83268,0.128504 1.132809,0.303128 0.242528,0.145512 0.55292,0.407856 0.69844,0.592185 0.45596,0.601464 0.513745,0.92984 0.523441,2.83125 l 0,1.776569 -2.434379,0 -2.435937,0 0.03906,-1.921881 c 0.02912,-1.891706 0.02839,-1.92093 0.3,-2.367186 0.300736,-0.51416 0.768001,-0.900985 1.301569,-1.104689 0.138233,-0.05336 0.299377,-0.08706 0.471873,-0.103128 0.129375,-0.01205 0.266216,-0.0138 0.403128,-0.0062 z m -52.784417,7.065629 c 0.564782,0.01041 1.514775,0.127888 1.842188,0.251568 0.873105,0.339536 1.852065,1.289793 2.162502,2.104682 0.194024,0.514153 0.203125,0.728472 0.203125,3.600002 l 0,3.054689 -3.937503,0 -3.929691,0 0.02969,-3.182809 c 0.0291,-3.15285 0.02937,-3.171186 0.271875,-3.656251 0.436557,-0.8828 1.396691,-1.669265 2.425002,-1.979689 0.242532,-0.0679 0.484298,-0.144656 0.532813,-0.164064 0.06548,-0.0242 0.211737,-0.03163 0.400001,-0.02813 z m -10.050008,0.05157 c 0.202512,-0.004 0.347129,0.0011 0.385938,0.01563 0.07757,0.0194 0.310331,0.05674 0.514063,0.08593 0.20373,0.02909 0.3881,0.09718 0.417187,0.135936 0.02911,0.0486 0.116123,0.08907 0.19375,0.08907 0.184319,0 0.833948,0.446176 1.357815,0.93125 0.271626,0.252232 0.476697,0.562272 0.612499,0.940624 0.194034,0.523872 0.203126,0.74592 0.203126,3.656251 l 0,3.10469 -3.976566,0 -3.978128,0 0,-3.132811 0,-3.143753 0.290626,-0.571873 c 0.349237,-0.698473 0.825412,-1.174657 1.650001,-1.650001 0.572365,-0.329841 0.717206,-0.368352 1.600001,-0.426568 0.266779,-0.0194 0.527175,-0.03068 0.729688,-0.03437 z m 94.195377,0.0375 c 0.34894,-0.0127 0.70374,0.02069 1.05782,0.103128 1.18353,0.271624 2.39627,1.291265 2.83281,2.387498 0.22313,0.543264 0.23182,0.678881 0.26094,3.492195 l 0.0297,2.93906 -4.03438,0 -4.0375,0 0.0297,-2.93906 c 0.0388,-3.453595 0.0685,-3.618227 1.04843,-4.65626 0.77122,-0.82944 1.76569,-1.288369 2.8125,-1.326561 z m -10.27031,0.0078 c 0.41563,-0.003 0.83825,0.03928 1.25781,0.12656 1.19324,0.252233 2.27107,0.978609 2.62031,1.754689 0.16492,0.349257 0.18437,0.708609 0.18437,3.706251 l 0,3.328131 -4.02655,0 -4.02657,0 0,-3.328131 c 0,-3.75433 0.0107,-3.78377 0.75781,-4.453131 0.80763,-0.7276 1.98591,-1.127105 3.23282,-1.134369 z m -10.85001,0.0031 c 0.22862,-0.0154 0.46027,-0.01634 0.69063,0.0016 0.26325,0.02049 0.52642,0.06458 0.78593,0.131247 1.33873,0.349248 2.38518,1.153777 2.91876,2.250002 l 0.28124,0.564065 0.0297,2.978122 0.0281,2.987505 -4.42189,0 -4.424998,0 0.02969,-2.987505 0.02812,-2.978122 0.281248,-0.564065 c 0.668481,-1.374073 2.17312,-2.274954 3.77344,-2.382818 z m 31.42346,0.0047 c 0.39501,-0.0127 0.80052,0.01627 1.20312,0.08907 1.16415,0.213432 2.29972,0.970057 2.72657,1.814066 0.15523,0.320128 0.17403,0.698328 0.20312,3.676562 l 0.0281,3.328133 -3.98594,0 -3.98751,0 0.0281,-3.328133 c 0.0291,-3.734922 0.0195,-3.666426 0.78593,-4.432811 0.71304,-0.698481 1.81339,-1.108681 2.99844,-1.146881 z m -84.182877,0.0094 c 0.800343,-0.0273 1.834828,0.07231 2.28594,0.246872 0.853699,0.329856 1.620681,1.015777 2.028127,1.80157 l 0.348436,0.670312 0.02969,3.085939 0.02812,3.093748 -4.132815,0 -4.132816,0 0.02969,-3.084372 0.02969,-3.075003 0.271874,-0.515624 c 0.514161,-0.979817 1.676321,-1.978522 2.520315,-2.15313 0.184326,-0.0388 0.426972,-0.06121 0.69375,-0.07032 z m -30.989086,0.0016 c 1.202948,0.02911 1.221973,0.0301 2.056252,0.437505 l 0.0016,0 c 0.679072,0.32984 0.928878,0.515 1.278125,0.95156 0.252223,0.300728 0.448114,0.572465 0.457813,0.601561 0,0.0388 0.02871,0.155792 0.05781,0.262504 0.07757,0.24252 0.07755,0.872992 0.04844,4.093751 l -0.02031,2.55001 -4.073441,0 -4.075003,0 0,-3.229694 c 0,-3.191667 -1.4e-5,-3.230915 0.232812,-3.70626 0.378334,-0.795496 1.203193,-1.455432 2.270314,-1.804681 0.446248,-0.145512 0.785822,-0.185352 1.765627,-0.156256 z m 125.856343,0.0094 c 0.5611,0.0154 1.15005,0.09796 1.5375,0.234376 l 0,0.0016 c 1.0283,0.358953 1.7871,1.037329 2.07813,1.832818 0.0969,0.281352 0.12624,1.153761 0.13594,3.598443 l 0,3.221884 -3.75626,-0.0203 -3.76249,-0.0297 0,-3.345315 0,-3.346874 0.26093,-0.456256 c 0.44625,-0.756689 1.29067,-1.329937 2.35782,-1.601561 0.16733,-0.0413 0.37519,-0.06825 0.60469,-0.08125 0.17212,-0.01001 0.3567,-0.01242 0.54374,-0.0078 z m -83.818811,0.893752 c 0.349469,0.0105 0.709672,0.116584 1.084376,0.320312 0.533565,0.291032 1.047588,0.950409 1.212501,1.542185 0.05822,0.203712 0.09687,1.581737 0.09687,3.240635 l 0,2.890627 -2.425002,0 -2.426563,0 0,-2.909379 c 0,-3.346891 0.04984,-3.608355 0.796874,-4.335939 0.527505,-0.515377 1.078491,-0.765961 1.660939,-0.748441 z m 31.264083,0.160936 c 0.53404,-0.0146 1.084377,0.08853 1.560945,0.325 0.339528,0.174608 0.651672,0.407208 0.787497,0.610936 0.213408,0.329841 0.212504,0.369201 0.212504,3.609379 l 0,3.287508 -2.425003,0 -2.426569,0 0,-3.279692 c 0,-3.065554 0.01095,-3.287098 0.195312,-3.57813 0.363792,-0.600249 1.205257,-0.950753 2.095314,-0.975001 z m -42.317216,9.781003 c 0.195993,-0.0119 0.396416,-0.0122 0.601562,0 0.234459,0.014 0.473798,0.0446 0.718751,0.0906 1.222351,0.23284 2.221581,0.95835 2.64844,1.91875 0.30073,0.66939 0.310361,0.90307 0.28125,5.18125 l -0.01875,3.18126 -3.881253,0 -3.890628,0 0.02969,-4.00469 0.02969,-3.99844 0.260936,-0.43594 c 0.713019,-1.18096 1.848373,-1.84946 3.220316,-1.93281 z m -21.082829,0.005 c 0.502638,-0.0263 1.028402,0.0134 1.55469,0.125 0.805182,0.17462 1.52341,0.53311 1.989064,0.98906 0.688777,0.68877 0.669728,0.59173 0.640624,5.16094 l -0.02031,4.0922 -3.831252,0 -3.831253,0 0,-4.07345 c 0,-3.91926 0.009,-4.09255 0.203126,-4.5 0.487476,-1.04772 1.7874,-1.71461 3.295314,-1.79375 z m -10.687508,0.0203 c 0.744412,-0.0223 1.697427,0.0796 2.19219,0.26876 0.776088,0.28131 1.35956,0.69808 1.679688,1.17343 l 0.260938,0.40781 0.02812,3.93907 c 0.02911,3.80284 0.02062,3.96675 -0.173437,4.49063 -0.242532,0.64025 -0.795546,1.19362 -1.300001,1.29063 -0.30073,0.0485 -0.35,0.0968 -0.35,0.32968 0,0.51415 -0.09689,0.53339 -2.978127,0.56251 l -2.646878,0.039 0,-5.17032 c 0,-5.04456 0.0091,-5.18161 0.203126,-5.58906 0.358953,-0.73727 1.396359,-1.45344 2.434377,-1.67657 0.177048,-0.0364 0.401861,-0.0581 0.65,-0.0656 z m 21.73908,0.006 c 0.52824,0.012 1.046687,0.0874 1.435938,0.2328 0.824603,0.32015 1.495167,0.88251 1.825001,1.5422 l 0.28125,0.5625 0.02969,3.99844 0.02813,4.00469 -3.745315,0 -3.743754,0 0.02969,-4.00469 0.02969,-3.99844 0.290625,-0.52344 c 0.174627,-0.32014 0.485522,-0.67844 0.776563,-0.90157 0.27162,-0.20371 0.541795,-0.41713 0.600001,-0.46562 0.375922,-0.30924 1.282111,-0.46687 2.162502,-0.44687 z m 94.317261,0.0671 c 0.46368,-0.018 0.94113,0.0259 1.41406,0.13751 1.04771,0.25225 1.83401,0.76674 2.30938,1.52343 0.22312,0.35894 0.23347,0.43561 0.21406,1.79375 l -0.0297,1.41719 -0.32969,-0.28126 c -0.18432,-0.1455 -0.57272,-0.37981 -0.87345,-0.51561 -0.48505,-0.20374 -0.72648,-0.2315 -2.12344,-0.27032 l -1.58281,-0.05 -0.37812,0.2625 c -0.20373,0.14553 -0.6311,0.31054 -0.96094,0.36875 -0.64997,0.12612 -0.66938,0.14576 -0.88281,1.15469 -0.21342,1.07683 -0.28906,0.70767 -0.28906,-1.42656 0,-2.03724 0.008,-2.09419 0.23125,-2.45313 0.62571,-0.99679 1.89019,-1.60683 3.28125,-1.66094 z m -31.46253,0.0125 c 0.20465,-0.0134 0.40892,-0.013 0.61095,0 0.26936,0.0174 0.53369,0.0595 0.78593,0.12501 0.31043,0.0776 0.73781,0.23202 0.96094,0.34843 0.61118,0.31043 1.38838,1.09639 1.64062,1.66875 0.23282,0.49475 0.23184,0.55193 0.26095,4.30625 l 0.0281,3.81251 -3.98749,0 -3.987511,0 0.02969,-3.81251 c 0.02912,-3.75432 0.02968,-3.8115 0.262504,-4.30625 0.252208,-0.57236 1.029437,-1.35832 1.640617,-1.66875 0.52931,-0.27284 1.14073,-0.43308 1.75469,-0.47344 z m 10.44376,0.0109 c 0.66119,-0.0228 1.53329,0.0774 1.98437,0.25938 0.71788,0.28133 1.38513,0.79455 1.73439,1.32812 0.56264,0.8537 0.59374,1.06787 0.59374,5.04531 l 0,3.6172 -3.88125,0 -3.89063,0 0.0297,-3.81251 0.0281,-3.80156 0.26251,-0.55313 c 0.44626,-0.95072 1.43683,-1.72771 2.57188,-2.01875 0.15035,-0.0364 0.34677,-0.0565 0.56718,-0.064 z m 11.07345,0.003 c 0.52143,0.0255 1.04277,0.11105 1.39688,0.24688 1.0865,0.41713 1.805,1.06701 2.02812,1.8625 0.0582,0.18432 0.0969,1.97747 0.0969,4.22813 l 0,3.90938 -3.73594,0 -3.74374,0 0.0281,-4.10157 c 0.0291,-3.69613 0.0496,-4.12336 0.20469,-4.40469 0.39775,-0.72758 1.2513,-1.32894 2.32813,-1.62968 0.35409,-0.10187 0.87544,-0.1364 1.39688,-0.11095 z m -48.203164,0.85313 c 0.340687,-0.0168 0.744506,-0.0117 1.326563,0.0125 1.717106,0.0679 2.096516,0.17358 3.6875,0.95936 1.998426,0.99921 3.579395,3.00637 4.239067,5.37344 0.213409,0.75669 0.214065,0.85503 0.214065,8.18908 0.0073,3.09684 -0.01312,5.3362 -0.04219,6.54063 a 8.4833912,6.0412032 0 0 0 -5.368749,5.61875 8.4833912,6.0412032 0 0 0 0.0062,0.12812 l -2.818752,0 a 6.0635575,3.9846234 0 0 0 0.02969,-0.38593 6.0635575,3.9846234 0 0 0 -6.064067,-3.98438 6.0635575,3.9846234 0 0 0 -1.337501,0.10312 c -0.187333,-0.0783 -0.821869,-0.55044 -1.585939,-1.18125 l -0.320312,-0.26093 0,-6.10313 c 0,-3.3566 0.03895,-6.10157 0.08749,-6.10157 0.03878,0 0.106834,-0.46482 0.135937,-1.04688 0.05822,-1.09624 0.251791,-1.9116 0.756251,-3.00781 0.145516,-0.32984 0.282474,-0.64089 0.292188,-0.67969 0.01944,-0.0388 0.106108,-0.15612 0.203124,-0.25313 0.09701,-0.1067 0.173423,-0.22213 0.173438,-0.26093 0,-0.18432 1.639769,-1.93125 1.804689,-1.93125 0.07757,0 0.135937,-0.0483 0.135937,-0.0969 0,-0.0582 0.106378,-0.14524 0.242189,-0.19375 0.126126,-0.0485 0.408453,-0.20324 0.621875,-0.33906 0.601478,-0.36864 1.736856,-0.79536 2.639065,-0.97969 0.324987,-0.063 0.601499,-0.10189 0.942188,-0.11875 z m -15.346887,0.14218 c 0.365326,-0.0196 0.726719,0.0316 1.035938,0.16251 0.591778,0.25223 0.91158,0.52562 1.125001,0.97187 0.184327,0.38804 0.194658,0.59065 0.214063,3.70469 0,1.81412 0.0097,3.54928 0,3.85001 l -0.0094,0.5625 -2.279689,0 -2.28125,0 0,-3.83125 c 0,-4.18118 0.01141,-4.25806 0.554687,-4.76251 0.412301,-0.39411 1.031749,-0.62512 1.640626,-0.65782 z m 31.817215,0.0656 c 0.523848,0.0291 0.795681,0.0972 1.203121,0.32031 0.310448,0.16492 0.611976,0.43623 0.767192,0.65936 l 0.25156,0.38907 0.02969,3.90782 0.02969,3.90938 -2.435939,0 -2.426569,0 0,-3.80158 c 0,-3.67672 0.01069,-3.81253 0.204688,-4.22968 0.368648,-0.75669 1.290041,-1.20319 2.37657,-1.15468 z M 49.492223,115.2764 c 0.565088,-0.0267 1.209765,0.0117 1.709376,0.12813 1.173836,0.28132 2.055721,0.86487 2.443753,1.63124 0.213429,0.40745 0.205002,0.038 0.195311,6.34376 l -0.0094,3.425 -1.182814,0 -1.195313,-0.0109 -0.58125,-0.37813 c -0.310436,-0.21344 -0.844836,-0.48514 -1.184376,-0.60156 -0.339549,-0.12611 -0.609376,-0.25182 -0.609376,-0.29062 0,-0.0388 0.08549,-0.24161 0.192188,-0.44532 0.135817,-0.25223 0.205273,-0.61182 0.234375,-1.09687 0.01953,-0.39774 0.08555,-1.06692 0.14375,-1.49376 0.0679,-0.43656 0.09816,-0.9893 0.05938,-1.26094 -0.03878,-0.27163 -0.07743,-0.89242 -0.09687,-1.39687 -0.05832,-1.40667 -0.290959,-2.14574 -1.164064,-3.62031 -0.27162,-0.46564 -0.300788,-0.57176 -0.184375,-0.66876 0.179469,-0.14551 0.664599,-0.23736 1.229688,-0.26406 z m 52.846917,0.10781 c 0.22157,-0.0133 0.44667,-0.0128 0.67187,0.003 0.25737,0.0182 0.51567,0.0546 0.77031,0.11406 1.19325,0.28132 2.16341,1.03759 2.41563,1.87188 0.0776,0.24253 0.11719,1.1354 0.11719,2.40625 l 0,2.02968 -0.20469,-0.31093 c -0.10671,-0.17463 -0.32042,-0.37896 -0.45624,-0.44688 -0.1455,-0.0776 -0.68897,-0.37895 -1.20313,-0.67969 -1.04772,-0.62088 -1.3475,-0.66823 -2.02657,-0.3578 -0.23282,0.1067 -0.50332,0.19375 -0.59062,0.19375 -0.097,0 -0.36874,0.13475 -0.60156,0.30937 -0.50445,0.34924 -1.21345,0.45586 -1.882817,0.28125 l -0.407816,-0.11563 0,-1.46562 c 0,-0.82461 0.04772,-1.61938 0.115625,-1.83282 0.334223,-1.12155 1.731708,-1.90652 3.282818,-2 z m 11.22032,0.008 c 0.52144,0.0255 1.04434,0.11107 1.39844,0.24688 0.71789,0.27164 1.27955,0.68773 1.60937,1.19219 l 0.27188,0.39844 0.009,1.99844 c 0.01,1.09623 9.6e-4,1.90235 -0.0281,1.78593 -0.0776,-0.37834 -0.27328,-0.45705 -0.83593,-0.34062 -0.81489,0.16489 -1.66853,-0.13545 -2.04688,-0.70782 -0.13582,-0.21341 -0.20252,-0.2332 -0.63907,-0.175 -0.32983,0.0388 -0.61086,0.0104 -0.89219,-0.0968 -0.23283,-0.0873 -0.74724,-0.17466 -1.15469,-0.18437 -0.67907,-0.0291 -0.76737,-0.0102 -1.0875,0.24218 l -0.35781,0.27344 0,-1.28125 c 0,-1.10592 0.0284,-1.34919 0.20312,-1.69844 0.33956,-0.70818 1.09727,-1.25116 2.1547,-1.54219 0.35409,-0.10186 0.87387,-0.1364 1.3953,-0.11094 z m 9.11876,0.0703 c 0.074,0.04 -0.0275,0.20099 -0.27969,0.49689 -0.38806,0.45595 -0.44712,0.58182 -0.48595,1.07655 -0.0776,0.91192 -0.77541,1.68867 -1.59999,1.74688 -0.27164,0.0194 -0.27246,0.009 -0.30157,-0.55312 -0.0582,-1.07683 0.65046,-2.02804 1.8922,-2.54218 0.45109,-0.18435 0.70101,-0.26503 0.775,-0.22502 z m -30.625025,1.00782 c 0.81489,0 0.98961,0.029 1.484378,0.28125 0.979792,0.47536 0.940625,0.29174 0.940625,4.62813 0,3.53121 -0.01098,3.77257 -0.195313,4.17031 -0.0844,0.18416 -0.142488,0.45843 -0.168752,0.69532 a 8.4833912,6.0412032 0 0 0 -4.487507,-1.58281 l 0,-2.75938 c 0,-4.93786 -0.04736,-4.67621 0.942193,-5.15157 0.49476,-0.25221 0.669472,-0.28125 1.484376,-0.28125 z m -31.412526,0.0609 c 0.679072,0.01 1.037101,0.0579 1.328127,0.19375 0.223118,0.0969 0.398436,0.23364 0.398436,0.30156 0,0.18432 -0.844062,0.80449 -1.3,0.95 -0.20373,0.0679 -0.543152,0.0978 -0.746875,0.0687 -0.339532,-0.0485 -0.407133,-0.0101 -0.892189,0.45625 l -0.534375,0.49375 -0.115626,0.87344 c -0.05822,0.47537 -0.145572,1.69702 -0.184374,2.71563 -0.05822,1.24174 -0.126761,1.9419 -0.214063,2.13594 -0.116428,0.25221 -0.134975,-0.15694 -0.164063,-3.43595 -0.01944,-4.04534 -0.0292,-3.97699 0.514063,-4.33593 0.485064,-0.32015 0.960223,-0.42689 1.910939,-0.41719 z" />
    <path fill="#dc0067" d="M 80,0 C 35.844436,0 0,35.887704 0,80 c 0,44.11231 35.844436,80 80,80 44.15557,0 80,-35.88769 80,-80 C 160,35.887703 124.15557,0 80,0 Z m 0,8.2670537 c 39.60148,0 71.6543,32.0457533 71.6543,71.7329463 0,39.68722 -32.05282,71.73295 -71.6543,71.73295 C 40.398526,151.73295 8.3457031,119.68722 8.3457031,80 8.3457031,40.312807 40.398526,8.2670537 80,8.2670537 Z" />
    <path fill="#dc0067" d="m 80.000977,21.2744 c -32.431582,0 -58.726575,26.308363 -58.726575,58.7256 0,32.41814 26.294994,58.7256 58.726575,58.7256 32.430693,0 58.724623,-26.30746 58.724623,-58.7256 0,-32.417237 -26.29393,-58.7256 -58.724623,-58.7256 z m 0,1.511596 c 31.585643,0 57.187513,25.600073 57.187513,57.214004 0,31.61486 -25.60187,57.214 -57.187513,57.214 -31.58656,0 -57.189465,-25.59914 -57.189465,-57.214 0,-31.613931 25.602905,-57.214004 57.189465,-57.214004 z" />
    <path fill="#ffb400" d="m 109.78244,96.11463 -15.022757,-15.547891 32.549607,0 0,-15.546976 -32.549607,0 15.022757,-15.547883 -20.030046,0 -22.534138,23.321372 22.534138,23.321378 z" />
</svg>