<?xml version="1.0" encoding="UTF-8" standalone="no"?>
<svg
   xmlns:dc="http://purl.org/dc/elements/1.1/"
   xmlns:cc="http://creativecommons.org/ns#"
   xmlns:rdf="http://www.w3.org/1999/02/22-rdf-syntax-ns#"
   xmlns:svg="http://www.w3.org/2000/svg"
   xmlns="http://www.w3.org/2000/svg"
   viewBox="0 0 264 264"
   height="264"
   width="264"
   version="1.1">
	<path
		d="M 32 32 L 32 40 L 32 48 L 32 56 L 32 64 L 32 72 L 32 80 L 32 88 L 40 88 L 48 88 L 56 88 L 64 88 L 72 88 L 80 88 L 88 88 L 88 80 L 88 72 L 88 64 L 88 56 L 88 48 L 88 40 L 88 32 L 80 32 L 72 32 L 64 32 L 56 32 L 48 32 L 40 32 L 32 32 z M 96 32 L 96 40 L 104 40 L 112 40 L 120 40 L 120 48 L 120 56 L 112 56 L 112 64 L 112 72 L 120 72 L 120 80 L 128 80 L 128 88 L 136 88 L 136 80 L 136 72 L 136 64 L 144 64 L 144 56 L 144 48 L 136 48 L 136 56 L 128 56 L 128 48 L 136 48 L 136 40 L 128 40 L 128 32 L 120 32 L 112 32 L 104 32 L 96 32 z M 136 40 L 144 40 L 144 32 L 136 32 L 136 40 z M 144 40 L 144 48 L 152 48 L 152 40 L 144 40 z M 144 64 L 144 72 L 144 80 L 144 88 L 152 88 L 152 80 L 152 72 L 152 64 L 144 64 z M 152 88 L 152 96 L 160 96 L 160 104 L 152 104 L 152 96 L 144 96 L 144 104 L 136 104 L 136 112 L 144 112 L 144 120 L 144 128 L 152 128 L 152 120 L 160 120 L 160 112 L 168 112 L 168 104 L 168 96 L 168 88 L 168 80 L 168 72 L 168 64 L 168 56 L 160 56 L 160 64 L 160 72 L 160 80 L 160 88 L 152 88 z M 152 128 L 152 136 L 144 136 L 136 136 L 136 144 L 144 144 L 144 152 L 144 160 L 152 160 L 160 160 L 160 152 L 168 152 L 176 152 L 176 160 L 168 160 L 160 160 L 160 168 L 160 176 L 160 184 L 152 184 L 152 192 L 144 192 L 144 200 L 136 200 L 136 192 L 128 192 L 128 184 L 136 184 L 136 192 L 144 192 L 144 184 L 144 176 L 136 176 L 128 176 L 120 176 L 112 176 L 104 176 L 104 184 L 112 184 L 112 192 L 120 192 L 120 200 L 120 208 L 120 216 L 128 216 L 128 208 L 136 208 L 136 216 L 144 216 L 144 208 L 152 208 L 152 216 L 160 216 L 160 208 L 168 208 L 168 216 L 176 216 L 176 208 L 184 208 L 184 216 L 184 224 L 192 224 L 200 224 L 200 216 L 200 208 L 192 208 L 192 200 L 200 200 L 200 208 L 208 208 L 208 200 L 208 192 L 200 192 L 200 184 L 208 184 L 208 176 L 200 176 L 200 168 L 200 160 L 200 152 L 208 152 L 208 160 L 208 168 L 216 168 L 216 176 L 224 176 L 224 168 L 224 160 L 216 160 L 216 152 L 224 152 L 224 160 L 232 160 L 232 152 L 232 144 L 224 144 L 224 136 L 216 136 L 216 144 L 208 144 L 200 144 L 200 136 L 192 136 L 192 144 L 184 144 L 176 144 L 176 136 L 168 136 L 168 128 L 160 128 L 152 128 z M 176 136 L 184 136 L 192 136 L 192 128 L 200 128 L 208 128 L 216 128 L 224 128 L 224 136 L 232 136 L 232 128 L 232 120 L 232 112 L 224 112 L 224 120 L 216 120 L 208 120 L 208 112 L 216 112 L 224 112 L 224 104 L 216 104 L 208 104 L 200 104 L 192 104 L 184 104 L 184 112 L 176 112 L 176 120 L 184 120 L 184 128 L 176 128 L 176 136 z M 184 104 L 184 96 L 176 96 L 176 104 L 184 104 z M 224 104 L 232 104 L 232 96 L 224 96 L 224 104 z M 224 176 L 224 184 L 224 192 L 232 192 L 232 184 L 232 176 L 224 176 z M 224 192 L 216 192 L 216 200 L 216 208 L 208 208 L 208 216 L 208 224 L 216 224 L 224 224 L 224 232 L 232 232 L 232 224 L 232 216 L 232 208 L 232 200 L 224 200 L 224 192 z M 208 224 L 200 224 L 200 232 L 208 232 L 208 224 z M 184 224 L 176 224 L 168 224 L 160 224 L 160 232 L 168 232 L 176 232 L 184 232 L 184 224 z M 136 216 L 128 216 L 128 224 L 128 232 L 136 232 L 136 224 L 136 216 z M 112 192 L 104 192 L 96 192 L 96 200 L 96 208 L 104 208 L 104 200 L 112 200 L 112 192 z M 104 208 L 104 216 L 112 216 L 112 208 L 104 208 z M 104 216 L 96 216 L 96 224 L 96 232 L 104 232 L 112 232 L 112 224 L 104 224 L 104 216 z M 104 176 L 104 168 L 96 168 L 96 176 L 104 176 z M 144 176 L 152 176 L 152 168 L 144 168 L 144 176 z M 144 168 L 144 160 L 136 160 L 128 160 L 128 168 L 136 168 L 144 168 z M 128 160 L 128 152 L 120 152 L 120 144 L 128 144 L 128 136 L 136 136 L 136 128 L 128 128 L 128 120 L 128 112 L 128 104 L 120 104 L 112 104 L 112 112 L 120 112 L 120 120 L 120 128 L 112 128 L 104 128 L 104 120 L 112 120 L 112 112 L 104 112 L 96 112 L 96 104 L 88 104 L 88 112 L 80 112 L 80 120 L 88 120 L 88 128 L 96 128 L 96 136 L 96 144 L 96 152 L 88 152 L 88 160 L 96 160 L 104 160 L 112 160 L 112 168 L 120 168 L 120 160 L 128 160 z M 88 160 L 80 160 L 80 152 L 88 152 L 88 144 L 80 144 L 80 136 L 88 136 L 88 128 L 80 128 L 72 128 L 72 120 L 64 120 L 64 112 L 56 112 L 56 104 L 48 104 L 48 96 L 40 96 L 32 96 L 32 104 L 32 112 L 40 112 L 40 120 L 48 120 L 56 120 L 56 128 L 64 128 L 64 136 L 56 136 L 56 144 L 64 144 L 72 144 L 72 152 L 64 152 L 64 160 L 72 160 L 72 168 L 80 168 L 88 168 L 88 160 z M 56 144 L 48 144 L 48 152 L 40 152 L 40 160 L 40 168 L 48 168 L 56 168 L 56 160 L 56 152 L 56 144 z M 40 120 L 32 120 L 32 128 L 32 136 L 40 136 L 48 136 L 48 128 L 40 128 L 40 120 z M 56 104 L 64 104 L 72 104 L 72 96 L 64 96 L 56 96 L 56 104 z M 88 104 L 88 96 L 80 96 L 80 104 L 88 104 z M 112 104 L 112 96 L 112 88 L 104 88 L 104 80 L 96 80 L 96 88 L 96 96 L 104 96 L 104 104 L 112 104 z M 104 80 L 112 80 L 112 72 L 104 72 L 104 80 z M 112 80 L 112 88 L 120 88 L 120 80 L 112 80 z M 128 144 L 128 152 L 136 152 L 136 144 L 128 144 z M 144 96 L 144 88 L 136 88 L 136 96 L 144 96 z M 112 56 L 112 48 L 104 48 L 104 56 L 112 56 z M 176 32 L 176 40 L 176 48 L 176 56 L 176 64 L 176 72 L 176 80 L 176 88 L 184 88 L 192 88 L 200 88 L 208 88 L 216 88 L 224 88 L 232 88 L 232 80 L 232 72 L 232 64 L 232 56 L 232 48 L 232 40 L 232 32 L 224 32 L 216 32 L 208 32 L 200 32 L 192 32 L 184 32 L 176 32 z M 40 40 L 48 40 L 56 40 L 64 40 L 72 40 L 80 40 L 80 48 L 80 56 L 80 64 L 80 72 L 80 80 L 72 80 L 64 80 L 56 80 L 48 80 L 40 80 L 40 72 L 40 64 L 40 56 L 40 48 L 40 40 z M 184 40 L 192 40 L 200 40 L 208 40 L 216 40 L 224 40 L 224 48 L 224 56 L 224 64 L 224 72 L 224 80 L 216 80 L 208 80 L 200 80 L 192 80 L 184 80 L 184 72 L 184 64 L 184 56 L 184 48 L 184 40 z M 48 48 L 48 56 L 48 64 L 48 72 L 56 72 L 64 72 L 72 72 L 72 64 L 72 56 L 72 48 L 64 48 L 56 48 L 48 48 z M 192 48 L 192 56 L 192 64 L 192 72 L 200 72 L 208 72 L 216 72 L 216 64 L 216 56 L 216 48 L 208 48 L 200 48 L 192 48 z M 192 112 L 200 112 L 200 120 L 192 120 L 192 112 z M 104 136 L 112 136 L 112 144 L 112 152 L 104 152 L 104 144 L 104 136 z M 168 168 L 176 168 L 184 168 L 192 168 L 192 176 L 192 184 L 192 192 L 184 192 L 176 192 L 168 192 L 168 184 L 168 176 L 168 168 z M 32 176 L 32 184 L 32 192 L 32 200 L 32 208 L 32 216 L 32 224 L 32 232 L 40 232 L 48 232 L 56 232 L 64 232 L 72 232 L 80 232 L 88 232 L 88 224 L 88 216 L 88 208 L 88 200 L 88 192 L 88 184 L 88 176 L 80 176 L 72 176 L 64 176 L 56 176 L 48 176 L 40 176 L 32 176 z M 176 176 L 176 184 L 184 184 L 184 176 L 176 176 z M 40 184 L 48 184 L 56 184 L 64 184 L 72 184 L 80 184 L 80 192 L 80 200 L 80 208 L 80 216 L 80 224 L 72 224 L 64 224 L 56 224 L 48 224 L 40 224 L 40 216 L 40 208 L 40 200 L 40 192 L 40 184 z M 48 192 L 48 200 L 48 208 L 48 216 L 56 216 L 64 216 L 72 216 L 72 208 L 72 200 L 72 192 L 64 192 L 56 192 L 48 192 z "
		fill="#000000" />
</svg>
