<?xml version="1.0" encoding="UTF-8" standalone="no"?>
<svg
   xmlns:dc="http://purl.org/dc/elements/1.1/"
   xmlns:cc="http://creativecommons.org/ns#"
   xmlns:rdf="http://www.w3.org/1999/02/22-rdf-syntax-ns#"
   xmlns:svg="http://www.w3.org/2000/svg"
   xmlns="http://www.w3.org/2000/svg"
   xml:space="preserve"
   enable-background="new 0 0 512 512"
   viewBox="0 0 512 384"
   height="384"
   width="512"
   y="0px"
   x="0px"
   id="Layer_1"
   version="1.1"><defs
     id="defs4255" /><path
     id="path4251"
     d="m 320,32 c 53.031,0 96,42.969 96,96 0,12.625 -2.594,24.625 -7.031,35.688 40.844,11.062 71.031,48 71.031,92.312 0,53.031 -42.969,96 -96,96 l -272,0 c -44.188,0 -80,-35.813 -80,-80 0,-44.187 35.813,-80 80,-80 2.453,0 4.75,0.5 7.141,0.719 -4.5,-10 -7.141,-21.031 -7.141,-32.719 0,-44.188 35.813,-80 80,-80 14.438,0 27.797,4.125 39.484,10.813 C 246.016,56.25 280.156,32 320,32 M 320,0 C 279.062,0 241.469,19.344 217.656,51.063 209.266,49.031 200.703,48 192,48 130.25,48 80,98.25 80,160 c 0,1.563 0.031,3.094 0.094,4.625 C 33.828,178.375 0,221.313 0,272 0,333.75 50.25,384 112,384 l 272,0 c 70.594,0 128,-57.406 128,-128 0,-46.656 -25.656,-88.813 -65.156,-111.125 C 447.625,139.313 448,133.656 448,128 448,57.438 390.594,0 320,0 l 0,0 z" /><metadata
     id="metadata4799"><rdf:RDF><cc:Work
         rdf:about=""><dc:title></dc:title></cc:Work></rdf:RDF></metadata></svg>