<?xml version="1.0" encoding="UTF-8" standalone="no"?>
<svg
   xmlns:dc="http://purl.org/dc/elements/1.1/"
   xmlns:cc="http://creativecommons.org/ns#"
   xmlns:rdf="http://www.w3.org/1999/02/22-rdf-syntax-ns#"
   xmlns:svg="http://www.w3.org/2000/svg"
   xmlns="http://www.w3.org/2000/svg"
   height="632"
   width="1000"
   id="svg2"
   xml:space="preserve"
   enable-background="new 0 0 1000 1000"
   viewBox="0 0 1000 632"
   y="0px"
   x="0px"
   version="1.1"><defs
     id="defs12" /><path
     d="m 900.40816,554.04 0,-518.67 c 0,-19.39 -14.48979,-35.1 -32.34694,-35.1 l -719.69387,0 c -17.85715,0 -32.34694,15.71 -32.34694,35.1 l 0,518.67 -106.02041,0 0,42.86 c 0,19.39 14.489796,35.1 32.346939,35.1 l 935.306121,0 C 995.5102,632 1010,616.29 1010,596.9 l 0,-42.86 -109.59184,0 z m -324.18367,14.8 -132.44898,0 0,-22.76 132.44898,0 0,22.76 z m 257.65306,-57.45 -651.22449,0 0,-438.78 651.22449,0 0,438.78 z"
     id="path8" /><metadata
     id="metadata4141"><rdf:RDF><cc:Work
         rdf:about=""><dc:title></dc:title></cc:Work></rdf:RDF></metadata></svg>