<?xml version="1.0" encoding="UTF-8" standalone="no"?>
<svg
   xmlns:dc="http://purl.org/dc/elements/1.1/"
   xmlns:cc="http://creativecommons.org/ns#"
   xmlns:rdf="http://www.w3.org/1999/02/22-rdf-syntax-ns#"
   xmlns:svg="http://www.w3.org/2000/svg"
   xmlns="http://www.w3.org/2000/svg"
   version="1.1"
   id="svg2"
   viewBox="0 0 750 727"
   height="727"
   width="750">
  <defs
     id="defs4" />
  <metadata
     id="metadata7">
    <rdf:RDF>
      <cc:Work
         rdf:about="">
        <dc:format>image/svg+xml</dc:format>
        <dc:type
           rdf:resource="http://purl.org/dc/dcmitype/StillImage" />
        <dc:title></dc:title>
      </cc:Work>
    </rdf:RDF>
  </metadata>
  <path
     style="opacity:1;fill:#000000;fill-opacity:1;stroke:none;stroke-width:6.28224754;stroke-linejoin:round;stroke-miterlimit:4;stroke-dasharray:none;stroke-opacity:1"
     d="M 57.330078,546.41016 C 25.569192,546.41016 0,571.97935 0,603.74023 l 0,65.92969 c 0,31.76092 25.569192,57.33012 57.330078,57.33012 l 635.339842,0 c 31.76089,0 57.33008,-25.5692 57.33008,-57.33012 l 0,-65.92969 c 0,-31.76088 -25.56919,-57.33007 -57.33008,-57.33007 l -635.339842,0 z m 112.884762,75.28515 30.01954,0 0,30.01953 -30.01954,0 0,-30.01953 z m 63.25782,0 30.01953,0 0,30.01953 -30.01953,0 0,-30.01953 z m 63.25976,0 30.01953,0 0,30.01953 -30.01953,0 0,-30.01953 z m 63.25781,0 30.01954,0 0,30.01953 -30.01954,0 0,-30.01953 z m 63.25782,0 30.01953,0 0,30.01953 -30.01953,0 0,-30.01953 z m 63.25976,0 30.01953,0 0,30.01953 -30.01953,0 0,-30.01953 z m 63.25781,0 30.01954,0 0,30.01953 -30.01954,0 0,-30.01953 z"
     id="rect4136" />
  <path
     style="opacity:1;fill:#000000;fill-opacity:1;stroke:none;stroke-width:4.30926275;stroke-linejoin:round;stroke-miterlimit:4;stroke-dasharray:none;stroke-opacity:1"
     d="m 108.37472,157.47542 c -12.739022,0 -22.994949,10.25594 -22.994949,22.99495 l 0,340.67801 45.989899,0 0,-340.67801 c 0,-12.73901 -10.25593,-22.99495 -22.99495,-22.99495 z"
     id="rect4163" />
  <path
     id="path4170"
     d="m 641.62532,157.47542 c -12.73903,0 -22.99495,10.25594 -22.99495,22.99495 l 0,340.67801 45.9899,0 0,-340.67801 c 0,-12.73901 -10.25594,-22.99495 -22.99495,-22.99495 z"
     style="opacity:1;fill:#000000;fill-opacity:1;stroke:none;stroke-width:4.30926275;stroke-linejoin:round;stroke-miterlimit:4;stroke-dasharray:none;stroke-opacity:1" />
  <path
     style="fill:#020202;stroke:none"
     id="path4291"
     d="m 352.35664,1.01849 c 94.33832,-6.7941 190.8608,28.50199 258.19082,94.97947 8.82226,9.08195 7.67179,24.96907 -1.63562,33.29209 -8.54848,10.07741 -25.6676,10.25556 -34.48986,0.43885 C 516.82414,74.27799 435.50231,44.29337 355.65203,50.25708 c -66.33555,4.2677 -130.59665,32.84116 -178.73207,78.6062 -4.28079,4.3754 -9.74727,7.96771 -16.04213,8.27571 -15.76834,1.849 -30.35099,-14.63096 -26.94791,-30.05507 0.96024,-5.53694 4.51632,-10.14888 8.58271,-13.83681 C 198.8664,39.28989 274.52044,6.15181 352.35664,1.01849 Z" />
  <path
     style="fill:#020202;stroke:none"
     id="path4293"
     d="m 350.02149,93.53196 c 72.27511,-7.86103 147.32523,18.77989 198.47119,70.4251 7.99087,9.12925 6.99541,24.05714 -1.88423,32.26139 -8.09856,9.91133 -24.42352,11.02456 -33.60109,2.03723 -32.74654,-32.28354 -77.01789,-52.78259 -122.92385,-56.13838 -55.74884,-4.62401 -112.70552,16.52728 -152.40016,55.80723 -9.15342,9.67479 -26.20308,8.57364 -34.44155,-1.71916 -8.88064,-8.3814 -9.61541,-23.71291 -1.09108,-32.59255 39.33933,-39.36148 92.53762,-64.402 147.87077,-70.08086 z" />
  <path
     style="fill:#020202;stroke:none"
     id="path4295"
     d="m 360.70382,184.81242 c 45.61004,-4.52839 92.76309,12.93596 124.50109,45.96736 8.6904,9.04571 7.68387,24.61375 -1.47055,32.98408 -8.31094,10.03111 -24.96906,10.7075 -34.00269,1.30447 -17.89012,-18.36419 -42.67096,-29.97254 -68.32749,-31.37162 -29.11799,-2.07547 -58.58123,9.42618 -79.25843,29.889 -5.08602,5.7161 -12.63904,9.22487 -20.36921,8.31295 -17.94951,-1.25816 -30.41038,-25.21969 -18.04513,-39.60103 24.96907,-27.07977 60.43124,-43.85666 96.97241,-47.48521 z" />
</svg>
