<?xml version="1.0" encoding="UTF-8" standalone="no"?>
<svg
   xmlns:dc="http://purl.org/dc/elements/1.1/"
   xmlns:cc="http://creativecommons.org/ns#"
   xmlns:rdf="http://www.w3.org/1999/02/22-rdf-syntax-ns#"
   xmlns:svg="http://www.w3.org/2000/svg"
   xmlns="http://www.w3.org/2000/svg"
   xml:space="preserve"
   width="32px"
   viewBox="0 0 32 32"
   version="1.1"
   id="svg2"
   height="32px"
   enable-background="new 0 0 32 32"><defs
     id="defs13" /><path
     id="path7"
     d="M 2 2 L 2 10 L 4 10 L 4 12 L 2 12 L 2 20 L 4 20 L 4 22 L 2 22 L 2 30 L 17.349609 30 C 18.894609 31.248 20.859 31.999 23 32 C 27.971 31.998 31.998 27.971 32 23 C 31.999 20.858 31.248 18.894609 30 17.349609 L 30 12 L 28 12 L 28 10 L 30 10 L 30 2 L 2 2 z M 4 6 L 8 6 L 8 8 L 4 8 L 4 6 z M 6 10 L 26 10 L 26 12 L 6 12 L 6 10 z M 4 16 L 8 16 L 8 18 L 4 18 L 4 16 z M 23 16.115234 C 26.799 16.124234 29.873812 19.199 29.882812 23 C 29.873812 26.799 26.799 29.873812 23 29.882812 C 19.199 29.873812 16.124234 26.799 16.115234 23 C 16.124234 19.199 19.199 16.124234 23 16.115234 z M 22.001953 18 L 22.001953 19.662109 C 21.772953 19.730109 21.555609 19.819641 21.349609 19.931641 L 20.207031 18.792969 L 18.792969 20.207031 L 19.933594 21.347656 C 19.821594 21.554656 19.731109 21.771 19.662109 22 L 18 22 L 18 24 L 19.662109 24 C 19.735109 24.246 19.834031 24.478266 19.957031 24.697266 L 18.792969 25.861328 L 20.205078 27.277344 L 21.392578 26.089844 C 21.584578 26.190844 21.787047 26.272938 21.998047 26.335938 L 21.998047 28 L 24 28 L 24 26.335938 C 24.229 26.267937 24.444391 26.176453 24.650391 26.064453 L 25.863281 27.277344 L 27.277344 25.861328 L 26.064453 24.650391 C 26.175453 24.444391 26.266938 24.228 26.335938 24 L 28 24 L 28 21.998047 L 26.337891 21.998047 C 26.274891 21.786047 26.191797 21.585578 26.091797 21.392578 L 27.279297 20.205078 L 25.863281 18.791016 L 24.697266 19.957031 C 24.477266 19.834031 24.246953 19.735109 24.001953 19.662109 L 24.001953 18 L 22.001953 18 z M 6 20 L 14.521484 20 C 14.296484 20.638 14.134594 21.306 14.058594 22 L 6 22 L 6 20 z M 22.998047 21.498047 C 23.827047 21.501047 24.496047 22.169047 24.498047 22.998047 C 24.496047 23.827047 23.827047 24.496047 22.998047 24.498047 C 22.169047 24.496047 21.501047 23.827047 21.498047 22.998047 C 21.501047 22.169047 22.169047 21.501047 22.998047 21.498047 z M 4 26 L 8 26 L 8 28 L 4 28 L 4 26 z " /><metadata
     id="metadata4166"><rdf:RDF><cc:Work
         rdf:about=""><dc:title></dc:title></cc:Work></rdf:RDF></metadata></svg>