<?xml version="1.0" encoding="UTF-8" standalone="no"?>
<!-- Created with Inkscape (http://www.inkscape.org/) -->

<svg
   xmlns:dc="http://purl.org/dc/elements/1.1/"
   xmlns:cc="http://creativecommons.org/ns#"
   xmlns:rdf="http://www.w3.org/1999/02/22-rdf-syntax-ns#"
   xmlns:svg="http://www.w3.org/2000/svg"
   xmlns="http://www.w3.org/2000/svg"
   xmlns:sodipodi="http://sodipodi.sourceforge.net/DTD/sodipodi-0.dtd"
   xmlns:inkscape="http://www.inkscape.org/namespaces/inkscape"
   width="1000"
   height="670"
   viewBox="0 0 1000 670"
   id="svg2"
   version="1.1"
   inkscape:version="0.91 r13725"
   sodipodi:docname="ffv-network.svg">
  <defs
     id="defs4" />
  <sodipodi:namedview
     id="base"
     pagecolor="#dc0067"
     bordercolor="#666666"
     borderopacity="1.0"
     inkscape:pageopacity="1"
     inkscape:pageshadow="2"
     inkscape:zoom="0.39"
     inkscape:cx="163.74569"
     inkscape:cy="596.53095"
     inkscape:document-units="px"
     inkscape:current-layer="g6202"
     showgrid="false"
     units="px"
     inkscape:window-width="1440"
     inkscape:window-height="851"
     inkscape:window-x="0"
     inkscape:window-y="1"
     inkscape:window-maximized="1" />
  <metadata
     id="metadata7">
    <rdf:RDF>
      <cc:Work
         rdf:about="">
        <dc:format>image/svg+xml</dc:format>
        <dc:type
           rdf:resource="http://purl.org/dc/dcmitype/StillImage" />
        <dc:title></dc:title>
      </cc:Work>
    </rdf:RDF>
  </metadata>
  <g
     inkscape:label="Ebene 1"
     inkscape:groupmode="layer"
     id="layer1"
     transform="translate(0,-382.36216)">
    <g
       id="g6202"
       transform="matrix(0.86217543,0,0,0.86217543,89.431523,187.9013)">
      <path
         id="rect6178"
         transform="translate(0,52.362161)"
         d="m -37.976562,430.60352 0,10 10,0 0,-10 -10,0 z m 20,0 0,10 9.9999995,0 0,-10 -9.9999995,0 z m 19.9999995,0 0,10 10.0000005,0 0,-10 -10.0000005,0 z m 20.0000005,0 0,10 10,0 0,-10 -10,0 z m -60,20 0,10 10,0 0,-10 -10,0 z m 0,20 0,10 10,0 0,-10 -10,0 z m 0,20 0,10 10,0 0,-10 -10,0 z m 0.002,20 0,10 10,0 0,-10 -10,0 z m 0,20 0,10 10,0 0,-10 -10,0 z m 0,20 0,10 10,0 0,-10 -10,0 z m 0,20 0,10 10,0 0,-10 -10,0 z m 0.002,20 0,10 10,0 0,-10 -10,0 z m 0,20 0,10 10,0 0,-10 -10,0 z m 0,20 0,10 10,0 0,-10 -10,0 z m 0,20 0,10 10,0 0,-10 -10,0 z m 0.002,20 0,10 10,0 0,-10 -10,0 z m 0,20 0,10 10,0 0,-10 -10,0 z m 0,20 0,10 10,0 0,-10 -10,0 z m 0,20 0,10 10,0 0,-10 -10,0 z m 0.002,20 0,10 10,0 0,-10 -10,0 z m 0,20 0,10 10,0 0,-10 -10,0 z m 0.002,20 0,10 10,0 0,-10 -10,0 z m 20,0 0,10 10.0000001,0 0,-10 -10.0000001,0 z m 20.0000001,0 0,10 9.9999999,0 0,-10 -9.9999999,0 z m 19.9999999,0 0,10 10,0 0,-10 -10,0 z"
         style="opacity:1;fill:#ffb400;fill-opacity:1;stroke:none;stroke-width:5.69999981;stroke-linejoin:round;stroke-miterlimit:4;stroke-dasharray:none;stroke-opacity:1"
         inkscape:connector-curvature="0" />
      <path
         sodipodi:nodetypes="sccccccccs"
         inkscape:connector-curvature="0"
         id="rect4613"
         transform="translate(0,52.362161)"
         d="m 772.50586,659.72266 c -13.80712,0 -25,11.19288 -25,25 3.6e-4,11.87951 8.3605,22.11824 20,24.49414 l 0,74.11718 -293.41016,0 0,25 303.41016,0 0,-99.14257 c 11.63016,-2.37399 19.98758,-12.59878 20,-24.46875 0,-13.80712 -11.19288,-25 -25,-25 z"
         style="opacity:1;fill:#009ee0;fill-opacity:1;stroke:none;stroke-width:5.69999981;stroke-linejoin:round;stroke-miterlimit:4;stroke-dasharray:none;stroke-opacity:1" />
      <path
         id="path6196"
         d="m 845.86914,566.57896 0,146.03711 a 25,25 0 0 0 -20,24.46875 25,25 0 0 0 25,25 25,25 0 0 0 25,-25 25,25 0 0 0 -20,-24.49414 l 0,-146.01172 -10,0 z"
         style="opacity:1;fill:#ffb400;fill-opacity:1;stroke:none;stroke-width:5.69999981;stroke-linejoin:round;stroke-miterlimit:4;stroke-dasharray:none;stroke-opacity:1"
         inkscape:connector-curvature="0" />
      <path
         inkscape:connector-curvature="0"
         id="rect4621"
         d="m 909.01172,566.57896 0,276.40039 -752.88867,0 0,10 762.88867,0 c -0.19288,-91.93967 -0.12596,-194.56572 -0.0391,-286.40039 l -9.96094,0 z"
         style="opacity:1;fill:#ffb400;fill-opacity:1;stroke:none;stroke-width:5.69999981;stroke-linejoin:round;stroke-miterlimit:4;stroke-dasharray:none;stroke-opacity:1" />
      <path
         style="fill:#000000;stroke:none"
         inkscape:connector-curvature="0"
         id="path4251"
         d="m 888.92742,626.342 c 46.18162,0 83.60081,37.41921 83.60081,83.60081 0,10.99439 -2.25896,21.44448 -6.12289,31.0786 35.56866,9.63325 61.85676,41.80041 61.85676,80.38914 0,46.18161 -37.4192,83.60081 -83.60081,83.60081 l -236.86895,0 c -38.48075,0 -69.66733,-31.18746 -69.66733,-69.66734 0,-38.47988 31.18744,-69.66733 69.66733,-69.66733 2.13618,0 4.1365,0.43541 6.21868,0.62613 -3.91878,-8.70842 -6.21868,-18.31468 -6.21868,-28.49308 0,-38.48074 31.18746,-69.66733 69.66734,-69.66733 12.57321,0 24.20679,3.59221 34.38433,9.41641 12.65505,-30.0989 42.38559,-51.21682 77.08341,-51.21682 m 0,-27.86693 c -35.65052,0 -68.38806,16.84556 -89.12542,44.46779 -7.30637,-1.76956 -14.76337,-2.66738 -22.34232,-2.66738 -53.77448,0 -97.53427,43.75979 -97.53427,97.53426 0,1.36113 0.027,2.69439 0.0818,4.02765 -40.29037,11.97407 -69.74921,49.36627 -69.74921,93.50663 0,53.77448 43.75981,97.53427 97.53427,97.53427 l 236.86897,0 c 61.47626,0 111.46776,-49.99155 111.46776,-111.46774 0,-40.62999 -22.3423,-77.34207 -56.7406,-96.77228 0.6802,-4.84363 1.0067,-9.76997 1.0067,-14.69546 0,-61.44833 -49.99153,-111.46774 -111.46774,-111.46774 l 0,0 z" />
      <g
         transform="matrix(1.0061403,0,0,1.0061403,5.8563962,-5.3443488)"
         id="g4503">
        <rect
           style="opacity:1;fill:#ffb400;fill-opacity:1;stroke:none;stroke-width:5.69999981;stroke-linejoin:round;stroke-miterlimit:4;stroke-dasharray:none;stroke-opacity:1"
           id="rect4501"
           width="122.58064"
           height="25.806452"
           x="53.225807"
           y="836.23315" />
        <g
           id="g4491">
          <path
             id="rect4136-7"
             d="m 37.442214,826.09503 c -7.78654,0 -14.055116,6.26858 -14.055116,14.05511 l 0,16.16341 c 0,7.78655 6.268576,14.05513 14.055116,14.05513 l 155.760736,0 c 7.78654,0 14.05512,-6.26858 14.05512,-14.05513 l 0,-16.16341 c 0,-7.78653 -6.26858,-14.05511 -14.05512,-14.05511 l -155.760736,0 z m 27.674974,18.457 7.359629,0 0,7.35963 -7.359629,0 0,-7.35963 z m 15.508369,0 7.359626,0 0,7.35963 -7.359626,0 0,-7.35963 z m 15.508844,0 7.359629,0 0,7.35963 -7.359629,0 0,-7.35963 z m 15.508369,0 7.35963,0 0,7.35963 -7.35963,0 0,-7.35963 z m 15.50837,0 7.35962,0 0,7.35963 -7.35962,0 0,-7.35963 z m 15.50884,0 7.35963,0 0,7.35963 -7.35963,0 0,-7.35963 z m 15.50837,0 7.35963,0 0,7.35963 -7.35963,0 0,-7.35963 z"
             style="opacity:1;fill:#000000;fill-opacity:1;stroke:none;stroke-width:6.28224754;stroke-linejoin:round;stroke-miterlimit:4;stroke-dasharray:none;stroke-opacity:1"
             inkscape:connector-curvature="0" />
          <path
             id="rect4163"
             d="m 49.956384,730.74329 c -3.123115,0 -5.637471,2.51436 -5.637471,5.63747 l 0,83.52106 11.274943,0 0,-83.52106 c 0,-3.12311 -2.514357,-5.63747 -5.637472,-5.63747 z"
             style="opacity:1;fill:#000000;fill-opacity:1;stroke:none;stroke-width:4.30926275;stroke-linejoin:round;stroke-miterlimit:4;stroke-dasharray:none;stroke-opacity:1"
             inkscape:connector-curvature="0" />
          <path
             style="opacity:1;fill:#000000;fill-opacity:1;stroke:none;stroke-width:4.30926275;stroke-linejoin:round;stroke-miterlimit:4;stroke-dasharray:none;stroke-opacity:1"
             d="m 180.68879,730.74329 c -3.12312,0 -5.63747,2.51436 -5.63747,5.63747 l 0,83.52106 11.27494,0 0,-83.52106 c 0,-3.12311 -2.51436,-5.63747 -5.63747,-5.63747 z"
             id="path4170"
             inkscape:connector-curvature="0" />
          <path
             d="m 109.77131,692.3861 c 23.1281,-1.66565 46.79168,6.98759 63.29839,23.28529 2.16288,2.22655 1.88083,6.12145 -0.40099,8.16194 -2.09576,2.47059 -6.2927,2.51426 -8.45558,0.10758 -14.12076,-13.59441 -34.05772,-20.94548 -53.63392,-19.48341 -16.262911,1.04628 -32.017245,8.05138 -43.818186,19.2712 -1.049484,1.07268 -2.389654,1.95337 -3.93291,2.02888 -3.865786,0.4533 -7.440888,-3.58694 -6.606584,-7.36834 0.235414,-1.35744 1.107227,-2.48811 2.104148,-3.39225 13.815763,-13.22822 32.363205,-21.35239 51.445632,-22.61089 z"
             id="path4291"
             style="fill:#ffb400;fill-opacity:1;stroke:none"
             inkscape:connector-curvature="0" />
          <path
             d="m 109.19882,715.06683 c 17.71906,-1.92722 36.11844,4.6041 48.65745,17.2655 1.95905,2.23814 1.715,5.89788 -0.46194,7.90925 -1.98545,2.42987 -5.9877,2.70279 -8.23769,0.49945 -8.02818,-7.91468 -18.8818,-12.94025 -30.13617,-13.76296 -13.66745,-1.13363 -27.631026,4.05185 -37.362615,13.68177 -2.244065,2.37189 -6.423981,2.10193 -8.443735,-0.42147 -2.177189,-2.05479 -2.357326,-5.81349 -0.267491,-7.99043 9.644481,-9.64991 22.686643,-15.78888 36.252191,-17.18111 z"
             id="path4293"
             style="fill:#ffb400;fill-opacity:1;stroke:none"
             inkscape:connector-curvature="0" />
          <path
             d="m 111.81771,737.44526 c 11.18182,-1.11018 22.74192,3.1714 30.52285,11.26942 2.13055,2.21766 1.88379,6.03434 -0.36052,8.08642 -2.03752,2.45924 -6.12145,2.62506 -8.33615,0.3198 -4.38596,-4.50218 -10.46126,-7.3481 -16.75125,-7.6911 -7.13861,-0.50883 -14.36185,2.31093 -19.4311,7.32762 -1.246895,1.40137 -3.098604,2.26158 -4.993742,2.03802 -4.400525,-0.30846 -7.455448,-6.1829 -4.423967,-9.70864 6.121449,-6.63891 14.815399,-10.75196 23.773879,-11.64154 z"
             id="path4295"
             style="fill:#ffb400;fill-opacity:1;stroke:none"
             inkscape:connector-curvature="0" />
        </g>
      </g>
      <g
         transform="matrix(0.38619297,0,0,0.38619297,-82.733448,179.81787)"
         id="g4563">
        <path
           inkscape:connector-curvature="0"
           style="opacity:1;fill:#ffb400;fill-opacity:1;stroke:none;stroke-width:5.69999981;stroke-linejoin:round;stroke-miterlimit:4;stroke-dasharray:none;stroke-opacity:1"
           d="m 683.87109,69.355469 c -16.08387,0 -29.0332,12.947378 -29.0332,29.03125 l 0,141.935551 c 0,16.08387 12.94933,29.0332 29.0332,29.0332 l 51.61329,0 c 16.08387,0 29.03124,-12.94933 29.03124,-29.0332 l 0,-141.935551 c 10e-6,-16.083872 -12.94737,-29.03125 -29.03124,-29.03125 l -51.61329,0 z m -350,4.83789 0,188.708981 233.8711,0 0,-188.708981 -233.8711,0 z"
           transform="translate(0,52.362161)"
           id="rect4552" />
        <g
           id="g4548"
           transform="matrix(1.3878473,0,0,1.3878473,-112.60082,-46.004211)">
          <path
             inkscape:connector-curvature="0"
             style="fill:#000000;stroke:none"
             d="m 625.49039,118.61425 -65.98263,0 c -5.49714,0 -9.99634,4.49497 -9.99634,9.99634 l 0,128.00309 c 0,5.50137 4.4992,10.00057 9.99634,10.00057 l 65.98263,0 c 5.49715,0 9.99634,-4.49074 9.99634,-9.99634 l 0,-128.00732 c 0,-5.50137 -4.49919,-9.99634 -9.99634,-9.99634 z m -43.54583,7.20549 21.10903,0 c 0.66811,0 1.20937,0.54125 1.20937,1.21359 0,0.66812 -0.54126,1.20938 -1.20937,1.20938 l -21.10903,0 c -0.66811,0 -1.20937,-0.54126 -1.20937,-1.20938 0,-0.67234 0.54126,-1.21359 1.20937,-1.21359 z m 10.55451,135.79634 c -2.76125,0 -4.99816,-2.23691 -4.99816,-5.0024 0,-2.76549 2.23691,-4.99818 4.99816,-4.99818 2.76126,0 4.99818,2.23269 4.99818,4.99818 0,2.76549 -2.23692,5.0024 -4.99818,5.0024 z m 36.03167,-13.50183 -72.06332,0 0,-113.64708 72.06332,0 0,113.64708 z"
             id="path5" />
          <path
             inkscape:connector-curvature="0"
             d="m 498.925,248.34999 0,-121.51261 c 0,-4.54263 -3.39462,-8.22313 -7.57814,-8.22313 l -168.60794,0 c -4.18353,0 -7.57816,3.6805 -7.57816,8.22313 l 0,121.51261 -24.83818,0 0,10.04113 c 0,4.54263 3.39463,8.22313 7.57816,8.22313 l 219.12099,0 c 4.18354,0 7.57817,-3.6805 7.57817,-8.22313 l 0,-10.04113 -25.6749,0 z m -75.94887,3.46731 -31.02979,0 0,-5.33215 31.02979,0 0,5.33215 z m 60.36227,-13.45923 -152.56712,0 0,-102.7962 152.56712,0 0,102.7962 z"
             id="path8" />
        </g>
      </g>
      <g
         transform="matrix(1.0061403,0,0,1.0061403,0.9879751,-4.0719818)"
         id="g4513">
        <rect
           style="opacity:1;fill:#ffb400;fill-opacity:1;stroke:none;stroke-width:5.69999981;stroke-linejoin:round;stroke-miterlimit:4;stroke-dasharray:none;stroke-opacity:1"
           id="rect4499"
           width="132.25807"
           height="20.967741"
           x="54.838711"
           y="478.16861" />
        <g
           id="g4477">
          <path
             inkscape:connector-curvature="0"
             style="opacity:1;fill:#000000;fill-opacity:1;stroke:none;stroke-width:6.28224754;stroke-linejoin:round;stroke-miterlimit:4;stroke-dasharray:none;stroke-opacity:1"
             d="m 42.280924,466.4176 c -7.78654,0 -14.055116,6.26858 -14.055116,14.05511 l 0,16.16341 c 0,7.78655 6.268576,14.05513 14.055116,14.05513 l 155.760736,0 c 7.78654,0 14.05512,-6.26858 14.05512,-14.05513 l 0,-16.16341 c 0,-7.78653 -6.26858,-14.05511 -14.05512,-14.05511 l -155.760736,0 z m 27.674974,18.457 7.359629,0 0,7.35963 -7.359629,0 0,-7.35963 z m 15.508369,0 7.359626,0 0,7.35963 -7.359626,0 0,-7.35963 z m 15.508843,0 7.35963,0 0,7.35963 -7.35963,0 0,-7.35963 z m 15.50837,0 7.35963,0 0,7.35963 -7.35963,0 0,-7.35963 z m 15.50837,0 7.35962,0 0,7.35963 -7.35962,0 0,-7.35963 z m 15.50884,0 7.35963,0 0,7.35963 -7.35963,0 0,-7.35963 z m 15.50837,0 7.35963,0 0,7.35963 -7.35963,0 0,-7.35963 z"
             id="path4412" />
          <path
             inkscape:connector-curvature="0"
             style="opacity:1;fill:#000000;fill-opacity:1;stroke:none;stroke-width:4.30926275;stroke-linejoin:round;stroke-miterlimit:4;stroke-dasharray:none;stroke-opacity:1"
             d="m 54.795094,371.06586 c -3.123115,0 -5.637471,2.51436 -5.637471,5.63747 l 0,83.52106 11.274943,0 0,-83.52106 c 0,-3.12311 -2.514357,-5.63747 -5.637472,-5.63747 z"
             id="path4414" />
          <path
             inkscape:connector-curvature="0"
             id="path4416"
             d="m 185.5275,371.06586 c -3.12312,0 -5.63747,2.51436 -5.63747,5.63747 l 0,83.52106 11.27494,0 0,-83.52106 c 0,-3.12311 -2.51436,-5.63747 -5.63747,-5.63747 z"
             style="opacity:1;fill:#000000;fill-opacity:1;stroke:none;stroke-width:4.30926275;stroke-linejoin:round;stroke-miterlimit:4;stroke-dasharray:none;stroke-opacity:1" />
          <path
             inkscape:connector-curvature="0"
             style="fill:#ffb400;fill-opacity:1;stroke:none"
             id="path4418"
             d="m 114.61002,332.70867 c 23.1281,-1.66565 46.79168,6.98759 63.29839,23.28529 2.16288,2.22655 1.88083,6.12145 -0.40099,8.16194 -2.09576,2.47059 -6.2927,2.51426 -8.45558,0.10758 -14.12076,-13.59441 -34.05772,-20.94548 -53.63392,-19.48341 -16.262911,1.04628 -32.017245,8.05138 -43.818186,19.2712 -1.049484,1.07268 -2.389654,1.95337 -3.93291,2.02888 -3.865786,0.4533 -7.440888,-3.58694 -6.606584,-7.36834 0.235414,-1.35744 1.107227,-2.48811 2.104148,-3.39225 13.815763,-13.22822 32.363205,-21.35239 51.445632,-22.61089 z" />
          <path
             inkscape:connector-curvature="0"
             style="fill:#ffb400;fill-opacity:1;stroke:none"
             id="path4420"
             d="m 114.03753,355.3894 c 17.71906,-1.92722 36.11844,4.6041 48.65745,17.2655 1.95905,2.23814 1.715,5.89788 -0.46194,7.90925 -1.98545,2.42987 -5.9877,2.70279 -8.23769,0.49945 -8.02818,-7.91468 -18.8818,-12.94025 -30.13617,-13.76296 -13.66745,-1.13363 -27.631026,4.05185 -37.362615,13.68177 -2.244065,2.37189 -6.423981,2.10193 -8.443735,-0.42147 -2.177189,-2.05479 -2.357326,-5.81349 -0.267491,-7.99043 9.644481,-9.64991 22.686641,-15.78888 36.252191,-17.18111 z" />
          <path
             inkscape:connector-curvature="0"
             style="fill:#ffb400;fill-opacity:1;stroke:none"
             id="path4422"
             d="m 116.65642,377.76783 c 11.18182,-1.11018 22.74192,3.1714 30.52285,11.26942 2.13055,2.21766 1.88379,6.03434 -0.36052,8.08642 -2.03752,2.45924 -6.12145,2.62506 -8.33615,0.3198 -4.38596,-4.50218 -10.46126,-7.3481 -16.75125,-7.6911 -7.13861,-0.50883 -14.36185,2.31093 -19.4311,7.32762 -1.2469,1.40137 -3.098604,2.26158 -4.993742,2.03802 -4.400525,-0.30846 -7.455448,-6.1829 -4.423967,-9.70864 6.121449,-6.63891 14.815399,-10.75196 23.773879,-11.64154 z" />
        </g>
      </g>
      <g
         transform="matrix(1.0061403,0,0,1.0061403,-1.8569572,-8.5899461)"
         id="g4525">
        <rect
           style="opacity:1;fill:#009ee0;fill-opacity:1;stroke:none;stroke-width:5.69999981;stroke-linejoin:round;stroke-miterlimit:4;stroke-dasharray:none;stroke-opacity:1"
           id="rect4523"
           width="124.19355"
           height="25.806452"
           x="330.64517"
           y="837.84607" />
        <g
           id="g4463">
          <path
             id="path4426"
             d="m 316.47448,829.32082 c -7.78654,0 -14.05512,6.26858 -14.05512,14.05511 l 0,16.16341 c 0,7.78655 6.26858,14.05513 14.05512,14.05513 l 155.76073,0 c 7.78654,0 14.05512,-6.26858 14.05512,-14.05513 l 0,-16.16341 c 0,-7.78653 -6.26858,-14.05511 -14.05512,-14.05511 l -155.76073,0 z m 27.67497,18.457 7.35963,0 0,7.35963 -7.35963,0 0,-7.35963 z m 15.50837,0 7.35963,0 0,7.35963 -7.35963,0 0,-7.35963 z m 15.50884,0 7.35963,0 0,7.35963 -7.35963,0 0,-7.35963 z m 15.50837,0 7.35963,0 0,7.35963 -7.35963,0 0,-7.35963 z m 15.50837,0 7.35962,0 0,7.35963 -7.35962,0 0,-7.35963 z m 15.50884,0 7.35963,0 0,7.35963 -7.35963,0 0,-7.35963 z m 15.50837,0 7.35963,0 0,7.35963 -7.35963,0 0,-7.35963 z"
             style="opacity:1;fill:#000000;fill-opacity:1;stroke:none;stroke-width:6.28224754;stroke-linejoin:round;stroke-miterlimit:4;stroke-dasharray:none;stroke-opacity:1"
             inkscape:connector-curvature="0" />
          <path
             id="path4428"
             d="m 328.98865,733.96908 c -3.12312,0 -5.63748,2.51436 -5.63748,5.63747 l 0,83.52106 11.27495,0 0,-83.52106 c 0,-3.12311 -2.51436,-5.63747 -5.63747,-5.63747 z"
             style="opacity:1;fill:#000000;fill-opacity:1;stroke:none;stroke-width:4.30926275;stroke-linejoin:round;stroke-miterlimit:4;stroke-dasharray:none;stroke-opacity:1"
             inkscape:connector-curvature="0" />
          <path
             style="opacity:1;fill:#000000;fill-opacity:1;stroke:none;stroke-width:4.30926275;stroke-linejoin:round;stroke-miterlimit:4;stroke-dasharray:none;stroke-opacity:1"
             d="m 459.72105,733.96908 c -3.12312,0 -5.63747,2.51436 -5.63747,5.63747 l 0,83.52106 11.27494,0 0,-83.52106 c 0,-3.12311 -2.51436,-5.63747 -5.63747,-5.63747 z"
             id="path4430"
             inkscape:connector-curvature="0" />
          <path
             d="m 388.80357,695.61189 c 23.1281,-1.66565 46.79168,6.98759 63.29839,23.28529 2.16288,2.22655 1.88083,6.12145 -0.40099,8.16194 -2.09575,2.47059 -6.2927,2.51426 -8.45558,0.10758 -14.12076,-13.59441 -34.05772,-20.94548 -53.63392,-19.48341 -16.26291,1.04628 -32.01724,8.05138 -43.81818,19.2712 -1.04949,1.07268 -2.38966,1.95337 -3.93291,2.02888 -3.86579,0.4533 -7.44089,-3.58694 -6.60659,-7.36834 0.23542,-1.35744 1.10723,-2.48811 2.10415,-3.39225 13.81576,-13.22822 32.36321,-21.35239 51.44563,-22.61089 z"
             id="path4432"
             style="fill:#009ee0;fill-opacity:1;stroke:none"
             inkscape:connector-curvature="0" />
          <path
             d="m 388.23108,718.29262 c 17.71906,-1.92722 36.11844,4.6041 48.65745,17.2655 1.95905,2.23814 1.71501,5.89788 -0.46194,7.90925 -1.98545,2.42987 -5.9877,2.70279 -8.23768,0.49945 -8.02819,-7.91468 -18.88181,-12.94025 -30.13617,-13.76296 -13.66746,-1.13363 -27.63103,4.05185 -37.36262,13.68177 -2.24407,2.37189 -6.42398,2.10193 -8.44374,-0.42147 -2.17719,-2.05479 -2.35732,-5.81349 -0.26749,-7.99043 9.64448,-9.64991 22.68664,-15.78888 36.25219,-17.18111 z"
             id="path4434"
             style="fill:#009ee0;fill-opacity:1;stroke:none"
             inkscape:connector-curvature="0" />
          <path
             d="m 390.84997,740.67105 c 11.18182,-1.11018 22.74192,3.1714 30.52285,11.26942 2.13055,2.21766 1.88379,6.03434 -0.36052,8.08642 -2.03752,2.45924 -6.12145,2.62506 -8.33614,0.3198 -4.38597,-4.50218 -10.46127,-7.3481 -16.75126,-7.6911 -7.1386,-0.50883 -14.36185,2.31093 -19.4311,7.32762 -1.24689,1.40137 -3.0986,2.26158 -4.99374,2.03802 -4.40052,-0.30846 -7.45545,-6.1829 -4.42397,-9.70864 6.12145,-6.63891 14.8154,-10.75196 23.77388,-11.64154 z"
             id="path4436"
             style="fill:#009ee0;fill-opacity:1;stroke:none"
             inkscape:connector-curvature="0" />
        </g>
      </g>
      <g
         id="g4569"
         transform="matrix(0.38619297,0,0,0.38619297,-82.733448,538.43147)">
        <path
           id="path4571"
           transform="translate(0,52.362161)"
           d="m 683.87109,69.355469 c -16.08387,0 -29.0332,12.947378 -29.0332,29.03125 l 0,141.935551 c 0,16.08387 12.94933,29.0332 29.0332,29.0332 l 51.61329,0 c 16.08387,0 29.03124,-12.94933 29.03124,-29.0332 l 0,-141.935551 c 10e-6,-16.083872 -12.94737,-29.03125 -29.03124,-29.03125 l -51.61329,0 z m -350,4.83789 0,188.708981 233.8711,0 0,-188.708981 -233.8711,0 z"
           style="opacity:1;fill:#ffb400;fill-opacity:1;stroke:none;stroke-width:5.69999981;stroke-linejoin:round;stroke-miterlimit:4;stroke-dasharray:none;stroke-opacity:1"
           inkscape:connector-curvature="0" />
        <g
           transform="matrix(1.3878473,0,0,1.3878473,-112.60082,-46.004211)"
           id="g4573">
          <path
             id="path4575"
             d="m 625.49039,118.61425 -65.98263,0 c -5.49714,0 -9.99634,4.49497 -9.99634,9.99634 l 0,128.00309 c 0,5.50137 4.4992,10.00057 9.99634,10.00057 l 65.98263,0 c 5.49715,0 9.99634,-4.49074 9.99634,-9.99634 l 0,-128.00732 c 0,-5.50137 -4.49919,-9.99634 -9.99634,-9.99634 z m -43.54583,7.20549 21.10903,0 c 0.66811,0 1.20937,0.54125 1.20937,1.21359 0,0.66812 -0.54126,1.20938 -1.20937,1.20938 l -21.10903,0 c -0.66811,0 -1.20937,-0.54126 -1.20937,-1.20938 0,-0.67234 0.54126,-1.21359 1.20937,-1.21359 z m 10.55451,135.79634 c -2.76125,0 -4.99816,-2.23691 -4.99816,-5.0024 0,-2.76549 2.23691,-4.99818 4.99816,-4.99818 2.76126,0 4.99818,2.23269 4.99818,4.99818 0,2.76549 -2.23692,5.0024 -4.99818,5.0024 z m 36.03167,-13.50183 -72.06332,0 0,-113.64708 72.06332,0 0,113.64708 z"
             style="fill:#000000;stroke:none"
             inkscape:connector-curvature="0" />
          <path
             id="path4577"
             d="m 498.925,248.34999 0,-121.51261 c 0,-4.54263 -3.39462,-8.22313 -7.57814,-8.22313 l -168.60794,0 c -4.18353,0 -7.57816,3.6805 -7.57816,8.22313 l 0,121.51261 -24.83818,0 0,10.04113 c 0,4.54263 3.39463,8.22313 7.57816,8.22313 l 219.12099,0 c 4.18354,0 7.57817,-3.6805 7.57817,-8.22313 l 0,-10.04113 -25.6749,0 z m -75.94887,3.46731 -31.02979,0 0,-5.33215 31.02979,0 0,5.33215 z m 60.36227,-13.45923 -152.56712,0 0,-102.7962 152.56712,0 0,102.7962 z"
             inkscape:connector-curvature="0" />
        </g>
      </g>
      <g
         id="g4593">
        <path
           inkscape:connector-curvature="0"
           style="opacity:1;fill:#009ee0;fill-opacity:1;stroke:none;stroke-width:5.69999981;stroke-linejoin:round;stroke-miterlimit:4;stroke-dasharray:none;stroke-opacity:1"
           d="m 454.40501,585.43796 c -6.21148,0 -11.21242,5.00019 -11.21242,11.21167 l 0,54.81451 c 0,6.21148 5.00094,11.21242 11.21242,11.21242 l 19.93269,0 c 6.21147,0 11.21166,-5.00094 11.21166,-11.21242 l 0,-54.81451 c 0,-6.21148 -5.00019,-11.21167 -11.21166,-11.21167 l -19.93269,0 z m -135.16754,1.86836 0,72.87809 90.31937,0 0,-72.87809 -90.31937,0 z"
           id="path4581" />
        <g
           id="g4583"
           transform="matrix(0.53597687,0,0,0.53597687,146.81315,520.66497)">
          <path
             inkscape:connector-curvature="0"
             style="fill:#000000;stroke:none"
             d="m 625.49039,118.61425 -65.98263,0 c -5.49714,0 -9.99634,4.49497 -9.99634,9.99634 l 0,128.00309 c 0,5.50137 4.4992,10.00057 9.99634,10.00057 l 65.98263,0 c 5.49715,0 9.99634,-4.49074 9.99634,-9.99634 l 0,-128.00732 c 0,-5.50137 -4.49919,-9.99634 -9.99634,-9.99634 z m -43.54583,7.20549 21.10903,0 c 0.66811,0 1.20937,0.54125 1.20937,1.21359 0,0.66812 -0.54126,1.20938 -1.20937,1.20938 l -21.10903,0 c -0.66811,0 -1.20937,-0.54126 -1.20937,-1.20938 0,-0.67234 0.54126,-1.21359 1.20937,-1.21359 z m 10.55451,135.79634 c -2.76125,0 -4.99816,-2.23691 -4.99816,-5.0024 0,-2.76549 2.23691,-4.99818 4.99816,-4.99818 2.76126,0 4.99818,2.23269 4.99818,4.99818 0,2.76549 -2.23692,5.0024 -4.99818,5.0024 z m 36.03167,-13.50183 -72.06332,0 0,-113.64708 72.06332,0 0,113.64708 z"
             id="path4585" />
          <path
             inkscape:connector-curvature="0"
             d="m 498.925,248.34999 0,-121.51261 c 0,-4.54263 -3.39462,-8.22313 -7.57814,-8.22313 l -168.60794,0 c -4.18353,0 -7.57816,3.6805 -7.57816,8.22313 l 0,121.51261 -24.83818,0 0,10.04113 c 0,4.54263 3.39463,8.22313 7.57816,8.22313 l 219.12099,0 c 4.18354,0 7.57817,-3.6805 7.57817,-8.22313 l 0,-10.04113 -25.6749,0 z m -75.94887,3.46731 -31.02979,0 0,-5.33215 31.02979,0 0,5.33215 z m 60.36227,-13.45923 -152.56712,0 0,-102.7962 152.56712,0 0,102.7962 z"
             id="path4587" />
        </g>
      </g>
      <g
         id="g6198">
        <path
           style="opacity:1;fill:#ffb400;fill-opacity:1;stroke:none;stroke-width:5.69999981;stroke-linejoin:round;stroke-miterlimit:4;stroke-dasharray:none;stroke-opacity:1"
           d="m 764.32422,508.59654 0,9.90039 18.38476,0 0,-9.90039 -18.38476,0 z m 0,24.75 0,12.01953 20.50586,0 0,-12.01953 -20.50586,0 z m 150.25976,2.82812 a 19.445436,19.445436 0 0 0 -19.44531,19.44531 19.445436,19.445436 0 0 0 19.44531,19.44531 19.445436,19.445436 0 0 0 19.44532,-19.44531 19.445436,19.445436 0 0 0 -19.44532,-19.44531 z m -149.55273,21.91992 0,12.02149 16.26367,0 0,-12.02149 -16.26367,0 z"
           id="path4671"
           inkscape:connector-curvature="0" />
        <path
           d="m 762.47062,502.04563 0,20.39453 5.09766,0 0,5.09766 -5.09766,0 0,20.39453 5.09766,0 0,5.09765 -5.09766,0 0,20.39258 137.38672,0 c 3.93847,3.18137 8.94457,5.09706 14.40235,5.09961 12.67195,-0.005 22.93826,-10.27141 22.94336,-22.94336 -0.003,-5.46034 -1.91629,-10.46582 -5.09766,-14.40429 l 0,-13.63672 -5.09961,0 0,-5.09766 5.09961,0 0,-20.39453 z m 5.09766,10.19726 10.19727,0 0,5.09766 -10.19727,0 z m 154.33984,10.19727 0,5.09766 -149.24218,0 0,-5.09766 z m -154.33984,15.29492 10.19727,0 0,5.09766 -10.19727,0 z m 146.69141,0.29297 c 9.68432,0.023 17.52393,7.86136 17.54687,17.55078 -0.0229,9.68431 -7.86255,17.52198 -17.54687,17.54492 -9.68942,-0.0229 -17.52589,-7.86061 -17.54883,-17.54492 0.023,-9.68942 7.85941,-17.52783 17.54883,-17.55078 z m -2.54297,4.80469 0,4.23828 c -0.58376,0.17334 -1.13893,0.40004 -1.66406,0.68555 l -2.91211,-2.90235 -3.60352,3.60547 2.90625,2.9082 c -0.28551,0.52768 -0.51551,1.07835 -0.69141,1.66211 l -4.23632,0 0,5.09766 4.23632,0 c 0.1861,0.6271 0.43841,1.21907 0.75196,1.77734 l -2.9668,2.96875 3.59961,3.60938 3.02539,-3.02734 c 0.48944,0.25746 1.00704,0.46635 1.54492,0.62695 l 0,4.24219 5.10352,0 0,-4.24219 c 0.58376,-0.17334 1.13307,-0.4059 1.6582,-0.69141 l 3.0918,3.0918 3.60351,-3.60938 -3.09179,-3.08789 c 0.28296,-0.52513 0.51551,-1.07699 0.6914,-1.6582 l 4.24219,0 0,-5.10351 -4.23633,0 c -0.1606,-0.54042 -0.37203,-1.05098 -0.62695,-1.54297 l 3.02734,-3.02735 -3.60937,-3.60351 -2.97266,2.9707 c -0.56081,-0.31355 -1.1489,-0.56391 -1.77344,-0.75 l 0,-4.23828 z m -19.07031,5.09961 c -0.57356,1.62637 -0.98595,3.32852 -1.17969,5.09765 l -118.80078,0 0,-5.09765 z m 21.60937,3.81836 c 2.11327,0.008 3.81912,1.71096 3.82422,3.82422 -0.005,2.11327 -1.71095,3.81716 -3.82422,3.82226 -2.11326,-0.005 -3.81657,-1.70899 -3.82422,-3.82226 0.008,-2.11326 1.71096,-3.81657 3.82422,-3.82422 z m -146.6875,11.47656 10.19727,0 0,5.09766 -10.19727,0 z"
           id="path7"
           inkscape:connector-curvature="0"
           sodipodi:nodetypes="cccccccccccccccccccccccccccccccccccccccccccccccccccccccccccccccccccccccccccccccccccccccc" />
      </g>
      <text
         sodipodi:linespacing="125%"
         id="text4680"
         y="941.63861"
         x="29.784595"
         style="font-style:normal;font-variant:normal;font-weight:bold;font-stretch:condensed;font-size:70px;line-height:125%;font-family:'DIN Condensed';-inkscape-font-specification:'DIN Condensed, Bold Condensed';letter-spacing:0px;word-spacing:0px;fill:#ffb400;fill-opacity:1;stroke:none;stroke-width:1px;stroke-linecap:butt;stroke-linejoin:miter;stroke-opacity:1"
         xml:space="preserve"><tspan
           y="941.63861"
           x="29.784595"
           id="tspan4682"
           sodipodi:role="line">Freifunk</tspan></text>
      <text
         xml:space="preserve"
         style="font-style:normal;font-variant:normal;font-weight:bold;font-stretch:condensed;font-size:68.67060089px;line-height:125%;font-family:'DIN Condensed';-inkscape-font-specification:'DIN Condensed, Bold Condensed';letter-spacing:0px;word-spacing:0px;fill:#009ee0;fill-opacity:1;stroke:none;stroke-width:1px;stroke-linecap:butt;stroke-linejoin:miter;stroke-opacity:1"
         x="331.71021"
         y="941.16931"
         id="text4684"
         sodipodi:linespacing="125%"><tspan
           sodipodi:role="line"
           id="tspan4686"
           x="331.71021"
           y="941.16931">Privat</tspan></text>
      <text
         sodipodi:linespacing="125%"
         id="text4688"
         y="1002.2308"
         x="746.91742"
         style="font-style:normal;font-variant:normal;font-weight:bold;font-stretch:condensed;font-size:70px;line-height:125%;font-family:'DIN Condensed';-inkscape-font-specification:'DIN Condensed,  Bold Condensed';letter-spacing:0px;word-spacing:0px;fill:#000000;fill-opacity:1;stroke:none;stroke-width:1px;stroke-linecap:butt;stroke-linejoin:miter;stroke-opacity:1"
         xml:space="preserve"><tspan
           y="1002.2308"
           x="746.91742"
           id="tspan4690"
           sodipodi:role="line">Internet</tspan></text>
      <text
         xml:space="preserve"
         style="font-style:normal;font-variant:normal;font-weight:bold;font-stretch:condensed;font-size:70px;line-height:100%;font-family:'DIN Condensed';-inkscape-font-specification:'DIN Condensed, Bold Condensed';letter-spacing:0px;word-spacing:0px;fill:#ffb400;fill-opacity:1;stroke:none;stroke-width:1px;stroke-linecap:butt;stroke-linejoin:miter;stroke-opacity:1"
         x="660.20795"
         y="399.20056"
         id="text4692"
         sodipodi:linespacing="100%"><tspan
           sodipodi:role="line"
           id="tspan4694"
           x="660.20795"
           y="399.20056">S<tspan
   style="line-height:100%"
   id="tspan6265">erver:</tspan></tspan><tspan
           id="tspan4696"
           sodipodi:role="line"
           x="660.20795"
           y="469.20056"><tspan
   style="line-height:100%"
   id="tspan6267">Freifunk Vogtl</tspan>and</tspan></text>
      <text
         transform="matrix(0,-1,1,0,0,0)"
         xml:space="preserve"
         style="font-style:normal;font-variant:normal;font-weight:bold;font-stretch:condensed;font-size:70px;line-height:125%;font-family:'DIN Condensed';-inkscape-font-specification:'DIN Condensed, Bold Condensed';letter-spacing:0px;word-spacing:0px;fill:#ffb400;fill-opacity:1;stroke:none;stroke-width:1px;stroke-linecap:butt;stroke-linejoin:miter;stroke-opacity:1"
         x="-726.5661"
         y="-53.887756"
         id="text6190"
         sodipodi:linespacing="125%"><tspan
           sodipodi:role="line"
           id="tspan6192"
           x="-726.5661"
           y="-53.887756">Mesh</tspan></text>
    </g>
  </g>
</svg>
