<?xml version="1.0" encoding="UTF-8" standalone="no"?>
<svg
   xmlns:dc="http://purl.org/dc/elements/1.1/"
   xmlns:cc="http://creativecommons.org/ns#"
   xmlns:rdf="http://www.w3.org/1999/02/22-rdf-syntax-ns#"
   xmlns:svg="http://www.w3.org/2000/svg"
   xmlns="http://www.w3.org/2000/svg"
   version="1.0"
   width="960.000000pt"
   height="960.000000pt"
   viewBox="0 0 960.000000 960.000000">
  <path
     style="fill:#000000"
     d="m 205.90625,481.975 c 0.0195,2.77302 0.0774,5.53646 0.17813,8.28906 1.303,0.0742 2.59216,0.23646 3.28124,0.44063 4.6388,1.22461 8.46285,4.23073 10.42969,8.20156 l 1.07656,2.22969 0.11251,9.35312 0.1078,9.38438 -12.33124,0 c 0.321,2.2153 0.66881,4.4211 1.04219,6.61874 0.0342,0.008 0.0921,0.0144 0.12343,0.0219 2.4493,0.7051 5.63938,2.48816 7.16094,4.04688 0.74225,0.74219 1.67147,2.2644 2.07968,3.34062 0.74223,1.85556 0.77812,2.70473 0.77813,14.17188 l 0,12.24843 -2.15625,0 c 3.30208,10.84471 7.25579,21.40164 11.81563,31.62657 0.0103,-14.71627 0.0935,-15.98507 0.77031,-17.40626 1.37314,-2.82034 5.34167,-5.56049 9.3125,-6.41405 0.67727,-0.13924 1.53671,-0.22131 2.48594,-0.25 0.35596,-0.0107 0.72565,-0.0149 1.10156,-0.011 2.6314,0.0274 5.6283,0.40591 7.28438,1.03907 2.96884,1.07613 5.20195,2.6691 6.42656,4.4875 l 0.99688,1.56094 0.1078,15.06875 c 0.11136,14.54737 0.0799,15.17407 -0.66249,17.17812 -0.92779,2.44922 -3.04371,4.5664 -4.97344,4.9375 -1.15041,0.18554 -1.33907,0.37008 -1.33907,1.26094 0,1.84595 -0.44315,2.02269 -9.59531,2.12969 C 288.63078,698.5394 377.73346,754.40625 480,754.40625 c 51.49342,0 99.64817,-14.16723 140.7875,-38.82812 a 78.431374,78.431374 0 0 0 0.34375,1.22187 78.431374,78.431374 0 0 1 -2.66094,-19.79375 78.431374,78.431374 0 0 1 78.43125,-78.43125 78.431374,78.431374 0 0 1 19.38282,2.57031 78.431374,78.431374 0 0 0 -0.9172,-0.27187 c 24.27845,-40.61426 38.35711,-88.06932 38.72188,-138.85313 l -49.46562,0 c -0.0906,10.24907 -0.86831,20.33375 -2.28906,30.21251 l 0.125,7.64062 -1.34376,0 c -0.66748,3.72351 -1.42789,7.41427 -2.27656,11.07187 0.823,0.81207 1.49686,1.68532 1.95312,2.58751 0.59383,1.22461 0.66528,2.67112 0.77657,14.06405 l 0.10781,12.73126 -11.84218,0 c -1.00863,2.63185 -2.05876,5.24332 -3.16251,7.82656 0.26743,-0.003 0.53387,-0.0123 0.80313,-0.005 1.34679,0.0382 2.71345,0.21262 4.07031,0.53282 4.00791,0.96494 7.01591,2.93348 8.83438,5.82812 0.85353,1.37308 0.893,1.66707 0.81875,6.8625 l -0.11406,5.42031 -1.26094,-1.075 c -0.7051,-0.5566 -2.19178,-1.45395 -3.34219,-1.97344 -1.85551,-0.77939 -2.77795,-0.88587 -8.12187,-1.03437 l -6.05469,-0.19063 -1.44687,1.00469 c -0.4454,0.31816 -1.17494,0.65181 -1.95,0.92813 -37.60684,71.44362 -112.56428,120.19531 -198.90469,120.19531 -76.71987,0 -144.44947,-38.49274 -184.97969,-97.19062 l -10.69219,0 -14.65625,0 0,-15.58126 c 0,-14.99273 0.0339,-15.65696 0.77656,-17.21562 0.78921,-1.69621 2.13987,-3.12802 3.86719,-4.24219 -1.46409,-3.32417 -2.84941,-6.69076 -4.15469,-10.09688 l -0.48906,0 0,-1.28593 c -4.72485,-12.56082 -8.36816,-25.64938 -10.79062,-39.1625 l -14.075,0 -16.7,0 0,-8.90626 c 0,-10.05694 0.18608,-11.02409 2.8578,-14.51249 3.08948,-4.03577 8.53792,-6.35926 14.10626,-6.32969 1.85612,0.01 3.72827,0.28089 5.52812,0.8375 1.81476,0.56711 3.5999,1.5412 5.17969,2.75468 -0.23442,-3.88661 -0.37057,-7.79867 -0.40469,-11.73593 -12.8259,-0.004 -36.91956,-0.002 -49.47031,-0.006 z m 55.35,0.008 c 0.17989,20.25953 3.09697,39.86033 8.41875,58.44531 l 0,-4.11719 1.1125,-2.1875 c 1.33597,-2.67194 3.15656,-4.49256 6.31094,-6.31094 2.18952,-1.26177 2.74327,-1.41012 6.12031,-1.63281 1.02053,-0.0742 2.0175,-0.11713 2.79219,-0.13125 0.77468,-0.0153 1.32809,0.004 1.47656,0.0594 0.29674,0.0742 1.18627,0.218 1.96563,0.32968 0.77933,0.11128 1.4856,0.37205 1.59687,0.52032 0.11136,0.1859 0.44367,0.34062 0.74062,0.34062 0.70511,0 3.18976,1.7069 5.19376,3.5625 1.03908,0.96488 1.82425,2.14952 2.34375,3.59688 0.74225,2.00401 0.77656,2.85432 0.77656,13.98749 l 0,11.87656 -15.21251,0 -8.47031,0 c 1.05206,2.66794 2.16928,5.3034 3.32188,7.91875 1.06225,-0.2302 2.17142,-0.38065 3.31407,-0.44062 0.48069,-0.0251 0.9674,-0.0349 1.4578,-0.0281 1.47122,0.0203 2.97912,0.1861 4.48907,0.50626 3.08013,0.66798 5.82806,2.03861 7.60937,3.78281 2.63484,2.6348 2.56133,2.26471 2.45,19.74375 L 299.00938,603 c 39.36564,57.87492 105.73675,95.86562 180.99375,95.86562 73.30514,0 138.17761,-36.04947 177.87343,-91.40937 l -10.60469,0 -14.32187,0 0.10782,-15.68907 c 0.11132,-14.13916 0.18952,-15.7738 0.7828,-16.85 1.52156,-2.78328 4.78696,-5.08392 8.90625,-6.23436 1.01591,-0.29228 2.39189,-0.44035 3.85782,-0.45469 0.48864,-0.005 0.98725,0.005 1.48593,0.0297 1.99468,0.0975 3.98915,0.42571 5.34376,0.94531 4.15629,1.59569 6.90428,4.08193 7.7578,7.125 0.22264,0.70509 0.37188,7.56377 0.37188,16.17343 l 0,9.66094 c 4.00381,-5.94554 7.71824,-12.10089 11.13438,-18.44219 6.5e-4,-7.57536 0.0385,-7.84945 0.88438,-9.20937 1.3613,-2.16864 3.51496,-3.85612 6.09687,-4.94844 1.36497,-3.0426 2.66708,-6.11984 3.89531,-9.23437 l -12.4,0 0.10625,-12.73126 c 0.11132,-14.28756 0.0759,-14.02608 3.00781,-16.95781 2.72766,-2.67196 6.93703,-4.24136 11.47032,-4.3875 0.37776,-0.0121 0.75707,-0.0142 1.13906,-0.006 1.14596,0.0237 2.30742,0.13798 3.4625,0.34687 1.09268,0.20034 2.17913,0.52671 3.22031,0.95157 0.5622,-2.54094 1.08469,-5.09693 1.55781,-7.67031 l -8.525,0 -15.85156,0 0.14844,-9.20469 c 0.11132,-9.055 0.11536,-9.20499 1.11719,-11.32031 2.47181,-5.25635 7.72589,-8.64188 13.40156,-9.07344 0.40541,-0.0308 0.81319,-0.0468 1.22187,-0.0469 0.40869,-3e-5 0.81918,0.0159 1.22969,0.0469 0.93841,0.0708 1.87701,0.22439 2.80937,0.46562 2.88375,0.76743 5.50738,2.3224 7.54844,4.39844 0.29608,-4.33905 0.46484,-8.7136 0.50469,-13.11875 l -37.76719,0 0,0.14844 -124.51562,0 15.44062,15.97969 c 2.78764,-4.55946 8.05322,-7.52018 13.6375,-7.90938 l 0.003,0 0.006,0 c 0.43526,-0.0302 0.87183,-0.0459 1.30938,-0.0453 0.43754,6e-4 0.87549,0.0177 1.31405,0.0516 1.00246,0.0773 2.00097,0.24016 2.98907,0.49531 5.1955,1.37313 9.08852,4.41817 11.12968,8.68594 l 1.15313,2.44375 0.11407,8.98438 0.10624,9.01875 -10.77188,0 18.94844,19.60938 c 0.13763,-6.41317 0.68205,-6.97957 2.85,-8.92188 3.08951,-2.78336 7.59726,-4.31128 12.3672,-4.33907 1.58994,-0.0115 3.20595,0.1505 4.81093,0.48438 4.56462,0.96489 8.68746,3.74368 10.02343,6.7125 0.6309,1.33604 0.70626,2.71095 0.70626,14.17812 l 0,12.73126 -15.40313,0 -15.40313,0 0,-12.73126 c 0,-2.39259 0.007,-4.27265 0.0219,-5.95156 l -8.33124,0 0.0719,7.25469 0.10781,11.42813 -16.91563,0 -16.92656,0 0.11251,-11.42813 0.0687,-7.25469 -14.62812,0 c 0.007,1.65332 0.0109,3.48166 0.0109,6.10625 l 0,12.57657 -9.27656,0 -9.28282,0 0,-12.54688 c 0,-2.79953 0.004,-4.90609 0.0172,-6.61719 L 503.02187,526.8625 c 0.0687,3.28583 0.10919,7.50316 0.15157,13.42344 l 0.11406,19.85624 -34.81094,0.10782 -34.81094,0.0703 0.11251,-20.66875 c 0.14834,-20.07686 0.146,-20.78038 0.96249,-23.675 1.03912,-3.67394 3.30034,-8.49522 5.41563,-11.46406 4.75018,-6.64282 12.91423,-12.03001 20.81875,-13.7 1.63177,-0.36074 4.11437,-0.54492 6.65938,-0.575 l -7.95,-8.22812 c -74.44413,-0.006 -146.71246,-0.0127 -198.42813,-0.0266 z m 63.71406,8.20156 c 1.74423,0 4.00578,0.22355 5.00782,0.52031 4.713,1.22461 8.46321,4.26777 10.46718,8.35 l 1.03907,2.07969 0.11406,9.35468 0.10781,9.38438 -16.55156,0 -16.51407,0 0,-8.90626 c 0,-7.83034 0.0739,-9.12495 0.70469,-10.7578 2.30087,-6.04904 8.46269,-9.98785 15.625,-10.025 z m 401.05938,0.0109 c 0.38048,-0.008 0.76231,-0.002 1.14531,0.0188 0.87537,0.0482 1.7592,0.174 2.63594,0.37812 4.52747,1.03911 8.38631,4.12293 10.50156,8.39064 l 1.225,2.48124 0.10781,9.20469 0.15,9.20469 -15.48125,0 -15.46875,0 0.14844,-9.20469 0.10781,-9.20469 1.225,-2.48124 c 2.6485,-5.35784 7.99591,-8.67168 13.70313,-8.78751 z m -360.30156,0.002 c 2.05501,0.005 4.12709,0.24717 5.66718,0.72969 4.37903,1.33598 8.05382,4.3799 9.90938,8.12813 0.81645,1.70705 0.99489,2.78617 1.25469,6.68281 0.18537,2.56063 0.22644,6.78663 0.0781,9.38437 l -0.22656,4.75157 -16.69532,0 -16.66406,0 0.11406,-9.39062 c 0.11136,-9.35188 0.10893,-9.35 1.11094,-11.42813 1.8555,-3.74819 5.4897,-6.75383 9.86875,-8.16407 1.48441,-0.46388 3.52783,-0.6984 5.58282,-0.69375 z m 281.26874,0.036 c 1.50296,-0.009 3.00958,0.15528 4.36407,0.5078 4.60176,1.18756 9.0124,4.93816 10.64531,9.02032 0.77931,1.96683 0.85587,2.74382 0.96719,11.09375 l 0.10781,9.01875 -15.99531,0 -15.99376,0 0.11251,-9.01875 c 0.11132,-8.34993 0.18944,-9.12692 0.96875,-11.09375 1.5958,-4.00792 6.04322,-7.79063 10.45938,-8.97812 1.35456,-0.35259 2.86113,-0.54071 4.36405,-0.55 z m -362.775,0.039 c 0.49845,-8.1e-4 1.03904,0.006 1.63282,0.0203 3.85945,0.11128 4.26865,0.19033 6.94062,1.48907 3.45131,1.63287 6.00975,4.04485 7.53125,7.125 l 1.075,2.22969 0.11406,9.35312 0.11407,9.38438 -16.55782,0 -16.55,0 0.11251,-9.38438 0.1078,-9.35312 1.04688,-2.15156 c 1.3731,-2.74619 3.92683,-5.3484 6.78438,-6.83282 2.7601,-1.4612 4.1593,-1.87397 7.64843,-1.87969 z m 321.43751,0.05 c 2.60585,-0.0835 5.91088,0.27103 7.69218,0.93907 4.6759,1.78128 8.28117,5.38541 9.61719,9.65312 0.63084,2.04112 0.74059,3.415 0.74063,10.65156 l 0,8.30782 -16.51407,0 -16.51562,0 0,-8.30782 c 0,-9.42609 0.41085,-11.54524 2.78593,-14.81093 2.11529,-2.85751 6.19215,-5.4191 9.90313,-6.19844 0.63084,-0.12991 1.42199,-0.20656 2.29063,-0.23438 z m -199.95625,7.68126 c 1.38237,-0.0325 2.78729,0.11953 3.65937,0.49062 1.89265,0.77931 3.96753,2.8246 4.89532,4.86563 0.81641,1.74425 0.89062,2.29709 0.89062,9.16249 l 0,7.35157 -9.27657,0 -9.28281,0 0,-6.975 c 0,-5.52948 0.11959,-7.38824 0.63907,-8.79844 0.66801,-2.00396 2.89012,-4.45583 4.93125,-5.45782 0.79784,-0.38966 2.16139,-0.60659 3.54375,-0.63905 z m -81.24688,27.84843 c 2.16052,0.0398 5.7944,0.48938 7.04688,0.9625 3.33997,1.29886 7.08433,4.93428 8.27187,8.05156 0.74222,1.96684 0.77813,2.78558 0.77813,13.77032 l 0,11.68593 -15.06251,0 -15.0328,0 0.11249,-12.175 c 0.11132,-12.06089 0.11295,-12.13193 1.04063,-13.98749 1.67,-3.37707 5.34285,-6.38596 9.27656,-7.57344 0.92777,-0.25976 1.85191,-0.55232 2.0375,-0.62656 0.25048,-0.0926 0.81107,-0.1212 1.53125,-0.10782 z m 322.89375,0.3375 c 1.00835,0.0302 2.02631,0.16032 3.04218,0.39688 4.52748,1.03907 9.166,4.94084 10.83595,9.13437 0.85356,2.0782 0.88705,2.59578 0.99843,13.35782 l 0.11406,11.24374 -15.4328,0 -15.44532,0 0.11406,-11.24374 c 0.14842,-13.21138 0.26076,-13.84005 4.00938,-17.81095 2.95022,-3.17293 6.75492,-4.92889 10.75937,-5.075 0.33371,-0.0121 0.66857,-0.0132 1.00469,-0.003 z m -404.56562,0.0734 c 0.67509,-0.007 1.45908,0.003 2.39531,0.0312 l 0.002,0 c 4.59979,0.11131 4.67463,0.11518 7.86562,1.67343 l 0.006,0 c 2.59772,1.26178 3.55305,1.97061 4.88905,3.64064 0.96487,1.1504 1.71447,2.19024 1.75157,2.30156 0,0.14841 0.10899,0.59492 0.22031,1.00312 0.29673,0.92774 0.2973,3.34026 0.18594,15.66094 l -0.0781,9.75469 -15.58281,0 -15.5875,0 0,-12.35469 c 0,-12.20939 -2e-5,-12.35974 0.89062,-14.17813 1.44728,-3.04308 4.60222,-5.5671 8.68438,-6.90313 1.28031,-0.41748 2.3312,-0.60766 4.35782,-0.62968 z m 122.125,0.008 c 2.83209,0.0121 6.05096,0.3782 7.56093,0.96251 3.26573,1.26182 6.20073,3.88464 7.75938,6.89062 l 1.33281,2.56406 0.1125,11.80625 0.10782,11.83438 -15.80938,0 -15.80938,0 0.1125,-11.79844 0.11406,-11.76407 1.04063,-1.97187 c 1.96687,-3.74819 6.41201,-7.56955 9.64062,-8.2375 0.70512,-0.14842 1.63416,-0.23391 2.65469,-0.26875 0.3827,-0.0131 0.77823,-0.0189 1.18282,-0.0172 z m 360.65937,0.0531 c 0.34827,-0.005 0.70475,-0.003 1.0625,0.006 2.14643,0.0589 4.3991,0.37503 5.88125,0.89687 l 0,0.006 c 3.93365,1.37313 6.83669,3.96787 7.95,7.01093 0.37068,1.07628 0.48321,4.41375 0.52032,13.76563 l 0,12.325 -14.37032,-0.0781 -14.39219,-0.11407 0,-12.79687 0,-12.80313 0.99844,-1.74531 c 1.70709,-2.89464 4.93647,-5.08749 9.01875,-6.12656 0.64009,-0.15799 1.43613,-0.26121 2.31406,-0.31093 0.32922,-0.0192 0.66893,-0.0311 1.01719,-0.0359 z m -319.57813,3.425 c 1.33687,0.0402 2.71505,0.44566 4.14844,1.225 2.04109,1.1133 4.00665,3.63622 4.6375,5.9 0.22272,0.77928 0.37188,6.05094 0.37188,12.39687 l 0,11.05782 -9.27657,0 -9.28281,0 0,-11.12969 c 0,-12.80319 0.19072,-13.80264 3.04844,-16.58594 2.0179,-1.97152 4.12503,-2.93109 6.35312,-2.86406 z m -41.14531,37.99687 c 0.38349,-1.5e-4 0.77168,0.0126 1.16407,0.0359 0.89689,0.0535 1.81296,0.16934 2.75,0.34531 4.67597,0.8907 8.49835,3.66672 10.13124,7.34062 1.15043,2.56068 1.18636,3.45458 1.075,19.82032 l -0.0719,12.17032 -14.84688,0 -14.88281,0 0.11407,-15.32032 0.11249,-15.29532 0.99844,-1.66718 c 2.72758,-4.51764 7.07053,-7.0749 12.31876,-7.39375 0.37487,-0.0227 0.754,-0.0358 1.13749,-0.0359 z M 325.33438,567.9 c 2.02072,0.0459 4.00471,0.33442 5.49375,0.89062 3.15444,1.22472 5.71949,3.37644 6.98125,5.9 l 1.075,2.15156 0.11406,15.29532 0.10781,15.32032 -14.32812,0 -14.32031,0 0.11249,-15.32032 0.11407,-15.29532 1.11249,-2.00156 c 0.66803,-1.22465 1.85698,-2.59644 2.97031,-3.45 1.03907,-0.77927 2.07268,-1.59576 2.29532,-1.78124 1.43806,-1.18297 4.90404,-1.78589 8.27188,-1.70938 z m 241.61718,0.26718 c 0.38982,2e-4 0.77765,0.0127 1.16406,0.0375 1.03041,0.0666 2.04133,0.22753 3.00625,0.47813 1.18752,0.29684 2.82301,0.88749 3.67657,1.3328 2.33801,1.18752 5.31164,4.19488 6.27656,6.38438 0.89063,1.89262 0.88709,2.11166 0.99844,16.47344 l 0.10625,14.58438 -15.25313,0 -15.25469,0 0.11407,-14.58438 c 0.1114,-14.36178 0.11404,-14.58082 1.00468,-16.47344 0.9648,-2.1895 3.937,-5.19686 6.275,-6.38438 2.02483,-1.04372 4.36387,-1.65653 6.71251,-1.81093 0.39142,-0.0257 0.78361,-0.0377 1.17343,-0.0375 z m 39.76094,0.0688 c 2.3566,0.0245 5.09951,0.394 6.60937,1.00312 2.74618,1.0762 5.29832,3.03857 6.63438,5.07969 2.15232,3.26574 2.27188,4.08627 2.27188,19.30156 l 0,13.83594 -14.84844,0 -14.88282,0 0.11407,-14.58438 0.10624,-14.54218 1.00469,-2.11563 c 1.70712,-3.63688 5.49705,-6.60853 9.83907,-7.72188 0.57515,-0.13924 1.32559,-0.21661 2.16875,-0.24531 0.31617,-0.0109 0.64615,-0.0144 0.98281,-0.0109 z m -140.82656,3.25156 c 0.82742,0.008 1.76952,0.035 2.88281,0.0813 6.56862,0.25974 8.02011,0.66439 14.10625,3.67031 7.64478,3.82237 13.69211,11.50128 16.21562,20.55625 0.81637,2.89464 0.82032,3.27091 0.82032,31.32656 0.0279,11.84664 -0.0513,20.4129 -0.1625,25.02031 a 32.452338,23.109999 0 0 0 -20.5375,21.49376 32.452338,23.109999 0 0 0 0.0234,0.49062 l -10.78282,0 a 23.195513,15.242766 0 0 0 0.11406,-1.47656 23.195513,15.242766 0 0 0 -23.19687,-15.24218 23.195513,15.242766 0 0 0 -5.11719,0.39374 c -0.71662,-0.29953 -3.14431,-2.10565 -6.06718,-4.51874 l -1.225,-0.99688 0,-23.34688 c 0,-12.84032 0.14869,-23.34219 0.33437,-23.34219 0.14835,0 0.40899,-1.77807 0.52031,-4.00469 0.22272,-4.19354 0.964,-7.31124 2.89376,-11.50468 0.55664,-1.26178 1.08002,-2.45313 1.11718,-2.60156 0.0744,-0.14842 0.40544,-0.59609 0.77656,-0.96719 0.3711,-0.40817 0.66401,-0.85001 0.66406,-0.99844 0,-0.70509 6.27225,-7.38749 6.90313,-7.38749 0.29674,0 0.52031,-0.1844 0.52031,-0.37032 0,-0.22262 0.40703,-0.55662 0.92656,-0.74219 0.48248,-0.18553 1.56171,-0.7773 2.37813,-1.29687 2.3009,-1.41019 6.64558,-3.04174 10.09687,-3.74688 1.24321,-0.241 2.29986,-0.39018 3.60313,-0.45469 0.65163,-0.0321 1.36476,-0.0428 2.19219,-0.0344 z m -59.85625,0.57344 c 1.03385,0.0469 2.03314,0.25095 2.92031,0.62656 2.26378,0.96488 3.4867,2.0101 4.30313,3.71719 0.70512,1.4844 0.74452,2.25943 0.81874,14.17187 0,6.93972 0.0371,13.57772 0,14.72813 l -0.0359,2.15156 -8.72032,0 -8.72656,0 0,-14.65625 c 0,-15.99468 0.0436,-16.28903 2.12188,-18.21875 1.57722,-1.50763 3.9458,-2.39054 6.275,-2.51563 0.34938,-0.0187 0.69913,-0.0203 1.04375,-0.005 z m 119.89844,0.24219 c 0.25447,-0.003 0.51209,0.002 0.77187,0.014 2.00393,0.11132 3.0445,0.37152 4.60313,1.225 1.18758,0.6309 2.34061,1.66832 2.93437,2.52188 l 0.9625,1.48907 0.1125,14.94843 0.11406,14.95469 -9.31874,0 -9.28282,0 0,-14.54219 c 0,-14.06491 0.0423,-14.58548 0.78438,-16.18124 1.32208,-2.71373 4.50157,-4.38435 8.31875,-4.42969 z m -160.96719,42.61405 c 1.69515,0.0191 3.44003,0.18475 4.87344,0.51876 4.49039,1.07616 7.86405,3.30896 9.34844,6.24062 0.81644,1.55866 0.78394,0.14516 0.74687,24.26719 l -0.0359,13.10156 -4.525,0 -4.57188,-0.0406 -2.22343,-1.44687 c -1.18754,-0.8165 -3.23238,-1.85621 -4.53126,-2.30157 -1.2989,-0.48242 -2.33124,-0.96251 -2.33124,-1.11094 0,-0.14843 0.32777,-0.92541 0.73593,-1.70469 0.51956,-0.96488 0.78555,-2.3398 0.89688,-4.19531 0.0747,-1.52152 0.32736,-4.08122 0.55,-5.71406 0.25974,-1.67001 0.37491,-3.78431 0.22656,-4.82343 -0.14835,-1.03911 -0.29595,-3.41404 -0.37031,-5.34376 -0.2231,-5.38108 -1.11315,-8.20918 -4.45313,-13.85 -1.03905,-1.78124 -1.15001,-2.18675 -0.70469,-2.55781 0.68655,-0.55663 2.54144,-0.90724 4.70313,-1.00938 0.54043,-0.0255 1.10058,-0.0361 1.66563,-0.0297 z m 201.775,0.40469 c 0.42891,0.002 0.85988,0.0182 1.29062,0.0484 0.98454,0.0696 1.97278,0.20848 2.94688,0.43594 4.56465,1.07616 8.27578,3.96945 9.24062,7.16093 0.29685,0.92779 0.44847,4.3432 0.44844,9.20469 l 0,7.76407 -0.78281,-1.18907 c -0.40821,-0.66801 -1.22575,-1.44955 -1.74531,-1.70937 -0.5566,-0.29687 -2.63626,-1.44957 -4.60313,-2.6 -4.00794,-2.37512 -5.15542,-2.55627 -7.75312,-1.36875 -0.89063,0.40817 -1.92542,0.74063 -2.25938,0.74063 -0.37106,0 -1.40938,0.51638 -2.3,1.18437 -1.92973,1.33599 -4.64253,1.74295 -7.20313,1.075 l -1.55937,-0.44219 0,-5.60625 c 0,-3.15445 0.18241,-6.19444 0.44219,-7.01093 1.27853,-4.29037 6.6242,-7.29396 12.55781,-7.65156 l 0,0.002 c 0.4238,-0.0254 0.85078,-0.0392 1.27969,-0.0375 z m 40.15624,0.0375 c 0.48808,-0.005 0.98572,0.005 1.48438,0.0297 l 0.002,0 c 1.99472,0.0976 3.99542,0.4258 5.35,0.94532 2.74621,1.03913 4.89456,2.62961 6.15625,4.55937 l 1.04062,1.525 0.0344,7.64375 c 0.0382,4.19352 0.004,7.27817 -0.10782,6.83281 -0.29686,-1.44729 -1.04607,-1.74851 -3.19843,-1.30313 -3.11728,0.63078 -6.38235,-0.51825 -7.82969,-2.7078 -0.51956,-0.81637 -0.77534,-0.8914 -2.44531,-0.66876 -1.26174,0.14843 -2.33631,0.0398 -3.41251,-0.37031 -0.89067,-0.33396 -2.85852,-0.66909 -4.41718,-0.70625 -2.59771,-0.11132 -2.93476,-0.0389 -4.15938,0.92656 l -1.36875,1.04688 0,-4.90156 c 0,-4.23058 0.10819,-5.16086 0.77656,-6.49688 1.29895,-2.70907 4.19711,-4.7867 8.24219,-5.9 1.01591,-0.29224 2.3889,-0.44035 3.85312,-0.45468 z m 36.23126,0.26249 c 0.0566,0.005 0.10212,0.0168 0.1375,0.036 0.28308,0.153 -0.10559,0.76961 -1.07032,1.90156 -1.48448,1.74419 -1.70927,2.22464 -1.8578,4.11718 -0.29686,3.48846 -2.96754,6.46014 -6.12188,6.68282 -1.03913,0.0742 -1.04176,0.0347 -1.15312,-2.11563 -0.22264,-4.1193 2.48891,-7.75821 7.23905,-9.725 1.50991,-0.61706 2.43037,-0.93069 2.82657,-0.89688 z m -117.01562,3.89219 c 3.11728,0 3.78544,0.11004 5.67812,1.075 3.7481,1.81844 3.59844,1.11628 3.59844,17.70469 0,13.50828 -0.0417,14.43162 -0.74688,15.95312 -0.32288,0.7045 -0.54484,1.75318 -0.64532,2.65938 A 32.452338,23.109999 0 0 0 516.825,650.85156 l 0,-10.55469 c 0,-18.88926 -0.18074,-17.88937 3.60469,-19.70781 1.89265,-0.9648 2.56079,-1.075 5.67813,-1.075 z m -120.16564,0.23281 c 2.59772,0.0383 3.96796,0.22092 5.08126,0.74063 0.85352,0.37068 1.525,0.89331 1.525,1.15312 0,0.70511 -3.22929,3.07775 -4.97344,3.63438 -0.77934,0.25974 -2.0785,0.3738 -2.85782,0.2625 -1.29884,-0.18553 -1.55696,-0.0386 -3.41249,1.74532 l -2.04375,1.88905 -0.44219,3.34219 c -0.22271,1.81848 -0.55781,6.49092 -0.70625,10.3875 -0.22272,4.75015 -0.48478,7.4296 -0.81875,8.17188 -0.44538,0.9648 -0.51685,-0.60179 -0.62813,-13.14531 -0.0744,-15.47503 -0.111,-15.21285 1.9672,-16.58595 1.85556,-1.22469 3.67251,-1.6324 7.30936,-1.59531 z m 316.24532,3.15 a 78.431374,78.431374 0 0 1 1.86875,0.68595 78.431374,78.431374 0 0 0 -1.86875,-0.68595 z m 7.5,2.99063 a 78.431374,78.431374 0 0 1 0.92656,0.43594 78.431374,78.431374 0 0 0 -0.92656,-0.43594 z m -106.84844,96.51406 a 78.431374,78.431374 0 0 0 0.74532,2.10782 78.431374,78.431374 0 0 1 -0.74532,-2.10782 z m 2.7875,6.99375 a 78.431374,78.431374 0 0 0 1.18438,2.51407 78.431374,78.431374 0 0 1 -1.18438,-2.51407 z" />
  <path
     style="fill:#dc0067"
     d="m 480,173.96875 c -168.91255,0 -306.03125,137.28422 -306.03125,306.03125 0,168.74709 137.1187,306.03125 306.03125,306.03125 56.28286,0 109.03289,-15.24592 154.35938,-41.81563 A 78.431374,78.431374 0 0 1 620.7875,715.57813 C 579.64818,740.23902 531.49342,754.40625 480,754.40625 328.50865,754.40625 205.89375,631.81937 205.89375,480 c 0,-151.81926 122.6149,-274.40625 274.10625,-274.40625 151.49138,0 274.10625,122.58699 274.10625,274.40625 0,51.54651 -14.13851,99.72035 -38.73907,140.87344 a 78.431374,78.431374 0 0 1 28.75626,13.63281 C 770.75453,589.13039 786.03125,536.31881 786.03125,480 786.03125,311.25296 648.91258,173.96875 480,173.96875 Z" />
  <path
     style="fill:#dc0067"
     d="m 480.00374,255.35128 c -124.06367,0 -224.65245,100.63993 -224.65245,224.64872 0,124.01225 100.58879,224.64873 224.65245,224.64873 124.06027,0 224.64499,-100.63648 224.64499,-224.64873 0,-124.00879 -100.58472,-224.64872 -224.64499,-224.64872 z m 0,5.78246 c 120.82762,0 218.76493,97.93043 218.76493,218.86626 0,120.93939 -97.93731,218.86626 -218.76493,218.86626 -120.83112,0 -218.77239,-97.92687 -218.77239,-218.86626 0,-120.93583 97.94127,-218.86626 218.77239,-218.86626 z" />
  <path
     style="fill:#ffb400"
     d="m 593.92965,541.64486 -57.468,-59.47685 124.51516,0 0,-59.47336 -124.51516,0 57.468,-59.47682 -76.62287,0 -86.20202,89.2135 86.20202,89.21353 z" />
  <path
     style="fill:#0084ff"
     d="m 475.66026,34.129467 c -3.4,2.7 -3.5,7.1 -0.1,10.4 1.3,1.4 3.4,2.5 4.5,2.5 3.1,0 7,-4.4 7,-7.9 0,-3.2 -3.8,-7.1 -7,-7.1 -1,0 -2.9,0.9 -4.4,2.1 z" />
  <path
     style="fill:#0084ff"
     d="m 411.06026,39.029467 c -2.6,2.6 -2.6,8.1 -0.2,10.3 4.4,4 12.2,0.7 12.2,-5.1 0,-6 -7.8,-9.4 -12,-5.2 z" />
  <path
     style="fill:#0084ff"
     d="m 570.76026,44.829467 c -4,4.4 -0.6,12.2 5.2,12.2 3.4,0 7.1,-3.9 7.1,-7.6 0,-5.5 -8.6,-8.7 -12.3,-4.6 z" />
  <path
     style="fill:#0084ff"
     d="m 633.86026,62.629467 c -7.6,4.1 -1.9,15.8 6,12.5 6.3,-2.6 6.2,-10.8 0,-13 -1.7,-0.6 -3.1,-1.1 -3.2,-1.1 -0.1,0.1 -1.3,0.7 -2.8,1.6 z" />
  <path
     style="fill:#0084ff"
     d="m 467.36026,65.929467 c -7,2.4 -12.3,6 -16.7,11.4 -16.2,19.7 -9.7,49.000003 13.4,60.100003 5.9,2.8 7.4,3.1 16,3.1 8.6,0 10.1,-0.3 16,-3.1 23.1,-11.1 29.6,-40.400003 13.3,-60.200003 -9.4,-11.5 -27.3,-16.3 -42,-11.3 z m 19.8,13.3 c 8.7,2.6 16.9,13.5 16.9,22.400003 0,9.5 -5.1,17.8 -13.5,21.9 -11.1,5.5 -24.4,1.6 -31,-8.9 -2.6,-4.3 -3,-5.9 -3,-12 0.1,-8.500003 2.4,-13.700003 8.4,-18.700003 6.6,-5.6 14.1,-7.2 22.2,-4.7 z" />
  <path
     style="fill:#0084ff"
     d="m 475.26026,97.329467 c -4.6,4.800003 -1.7,11.700003 4.8,11.700003 2.9,0 4.3,-0.6 5.4,-2.2 2.3,-3.2 2,-7.100003 -0.7,-9.600003 -3,-2.8 -6.8,-2.8 -9.5,0.1 z" />
  <path
     style="fill:#0084ff"
     d="m 415.06026,68.829467 c -29.6,4.1 -75.9,17.9 -104.7,31.1 -19.7,9.000003 -41.6,21.100003 -59,32.600003 l -17.3,11.5 0,3.8 c 0,3.9 1.6,6.2 5.3,7.5 2.3,0.8 3.3,0.3 18.7,-9.7 25.8,-16.9 48.4,-28.8 73.6,-39 19.3,-7.700003 53.4,-17.400003 75.9,-21.600003 14.7,-2.7 16.5,-3.7 16.5,-8.9 0,-5.3 -3.5,-8.1 -9,-7.3 z" />
  <path
     style="fill:#0084ff"
     d="m 539.06026,71.029467 c -2.5,2.5 -2.6,7.4 -0.2,9.8 1.2,1.2 6.5,2.8 15.8,4.6 22.7,4.6 48.9,12 69.2,19.600003 5.8,2.2 11.7,4 13.2,4 3.1,0 7,-3.7 7,-6.8 0,-4.400003 -4,-6.900003 -21.5,-13.000003 -26.2,-9.2 -39.7,-13 -62.8,-17.8 -14.7,-2.9 -18.1,-3 -20.7,-0.4 z" />
  <path
     style="fill:#0084ff"
     d="m 259.56026,91.029467 c -2.3,2.5 -2.4,7.6 -0.2,9.700003 2.3,2.4 8.6,2.2 10.3,-0.2 2,-2.700003 1.7,-7.900003 -0.4,-9.800003 -2.6,-2.3 -7.5,-2.1 -9.7,0.3 z" />
  <path
     style="fill:#0084ff"
     d="m 690.76026,90.829467 c -1.9,2.1 -2.2,6.4 -0.7,9.200003 1.4,2.6 6.5,3.5 9.4,1.6 4,-2.600003 4.1,-9.200003 0.2,-11.800003 -2.1,-1.4 -7.3,-0.8 -8.9,1 z" />
  <path
     style="fill:#0084ff"
     d="m 570.16026,110.62947 c -2.4,3 -2.6,4.3 -1,7.8 1.3,2.8 3.4,3.8 14.4,6.5 4.4,1.1 11.2,3.1 15.1,4.4 6.3,2.2 7.4,2.3 10.2,1.1 5.9,-2.5 5.2,-10.2 -1.2,-12.9 -6.1,-2.6 -30,-9.5 -32.8,-9.5 -1.7,0 -3.4,1 -4.7,2.6 z" />
  <path
     style="fill:#0084ff"
     d="m 352.26026,118.02947 c -4.9,4.5 -1.6,12.4 5,12.2 6.5,-0.2 9.2,-8.2 4.2,-12.1 -3.4,-2.7 -6.4,-2.7 -9.2,-0.1 z" />
  <path
     style="fill:#0084ff"
     d="m 198.16026,132.02947 c -23.2,18.5 -48.4,43.9 -68.8,69.4 -25.2,31.6 -50.300004,74.4 -63.700004,108.8 -11.2,28.5 -11.3,29.3 -7,32.7 6.4,5.1 10,1.6 16.3,-15.9 16.5,-45.9 45.400004,-94 80.500004,-133.9 11.7,-13.4 35.9,-36.8 48.1,-46.6 5.5,-4.4 11,-9 12.3,-10.2 2.9,-2.9 2.9,-7.3 -0.1,-10.1 -4,-3.8 -6.7,-2.9 -17.6,5.8 z" />
  <path
     style="fill:#0084ff"
     d="m 689.06026,126.22947 c -2.7,2.9 -2.6,7.9 0.3,10.5 1.2,1.1 8.1,5.9 15.3,10.7 13.9,9.1 17.6,10.3 20.8,6.7 1.2,-1.3 1.6,-3.2 1.4,-5.7 -0.3,-3.5 -0.9,-4.3 -8.3,-9.4 -14.3,-9.9 -22.8,-15 -25.1,-15 -1.3,0 -3.2,1 -4.4,2.2 z" />
  <path
     style="fill:#0084ff"
     d="m 744.66026,126.12947 c -2.5,2 -3.3,5 -2,8.3 0.3,0.9 3.6,4 7.3,6.8 3.6,2.9 9.9,8.1 14,11.5 8.2,7 11.3,7.8 14.9,4 3.6,-3.8 2.9,-7.4 -2.5,-12.5 -9.5,-8.9 -24.5,-20.2 -26.7,-20.2 -1.3,0 -3.5,0.9 -5,2.1 z" />
  <path
     style="fill:#0084ff"
     d="m 409.06026,134.52947 c -29,6.3 -42.8,10.6 -66.2,20.6 -18.3,7.8 -31.7,14.6 -44.7,22.6 -27,16.7 -44.1,30 -64.8,50.5 -11.7,11.5 -13.3,13.4 -13.3,16.4 0,4.2 4.2,7.8 7.9,6.9 1.4,-0.4 8,-6 14.7,-12.4 11.8,-11.5 29.9,-26.6 43.7,-36.5 9.9,-7 33.7,-21 44.3,-26.1 28.1,-13.5 66.2,-26.1 87.3,-29 6.4,-0.9 9.1,-3.2 9.1,-7.8 0,-3.5 -2,-6.1 -5.5,-7 -1.1,-0.3 -6.7,0.5 -12.5,1.8 z" />
  <path
     style="fill:#0084ff"
     d="m 541.06026,133.72947 c -2.5,0.9 -4,3.5 -4,6.9 0,3.6 2,6.1 5.3,6.9 1.2,0.3 7.4,1.6 13.7,3 20.3,4.5 35.5,9.7 63.7,21.7 15.5,6.6 18.2,6.9 20.6,2 1.7,-3.4 0.9,-7 -2.3,-9.4 -3.7,-2.7 -32.8,-15 -46.5,-19.6 -11,-3.7 -37.1,-10.4 -45.5,-11.6 -1.9,-0.3 -4.2,-0.3 -5,0.1 z" />
  <path
     style="fill:#0084ff"
     d="m 292.56026,144.12947 c -8.8,4.8 -27.6,17.2 -28.5,18.9 -0.6,1 -1,2.6 -1,3.5 0,2.5 4.6,6.5 7.6,6.5 2.4,0 28.1,-14.8 32.7,-18.8 3.9,-3.4 0.6,-12.2 -4.6,-12.2 -1.2,0 -4,1 -6.2,2.1 z" />
  <path
     style="fill:#0084ff"
     d="m 661.06026,144.32947 c -1.3,0.7 -2.9,2.5 -3.5,4 -2,5.8 4.6,11.6 9.9,8.8 5.1,-2.8 5.3,-9.1 0.4,-12.5 -2.7,-1.9 -3.5,-2 -6.8,-0.3 z" />
  <path
     style="fill:#0084ff"
     d="m 187.26026,184.62947 c -3.1,2.1 -3.1,8.7 0,10.8 6.9,4.9 14.9,-3.1 9.8,-9.7 -2.5,-3.1 -6.3,-3.6 -9.8,-1.1 z" />
  <path
     style="fill:#0084ff"
     d="m 764.16026,186.62947 c -3.9,5 -3.2,6.2 12.4,22.7 6.4,6.7 12.1,11.9 13.5,12.2 3.9,0.9 8,-2.7 8,-7 0,-2.8 -1.5,-5 -9.3,-13.7 -5.2,-5.7 -11,-11.8 -13.1,-13.6 -4.6,-4 -8.6,-4.3 -11.5,-0.6 z" />
  <path
     style="fill:#0084ff"
     d="m 813.76026,192.82947 c -1,1 -1.7,3.4 -1.7,5.3 0,2.8 1.8,5.6 9.8,15.9 5.3,6.8 14.2,19.2 19.8,27.5 11.2,16.7 13.3,18.4 18.1,14.9 4.1,-3.1 4.5,-6.1 1.5,-11.4 -6.4,-11.4 -27.2,-40.4 -36.1,-50.3 -3.8,-4.2 -8.6,-5 -11.4,-1.9 z" />
  <path
     style="fill:#0084ff"
     d="m 686.06026,197.72947 c -2.5,0.9 -4,3.5 -4,7.1 0,3.7 -0.7,3 17.5,18.1 11.7,9.7 14.3,10.7 18.6,7.3 1.5,-1.3 2.2,-3 2.2,-5.2 0,-3.8 -2.8,-6.7 -19.6,-20.2 -9.3,-7.4 -11.2,-8.3 -14.7,-7.1 z" />
  <path
     style="fill:#0084ff"
     d="m 736.66026,202.62947 c -2.6,2.6 -3,6.1 -1,9.2 1,1.5 6.1,7.2 11.5,12.7 30,30.8 54.9,68.2 71.9,108 4.4,10.5 7.6,14.5 11.3,14.5 4.6,-0.1 8.1,-5.1 6.8,-9.6 -1.6,-5.4 -18.1,-39.5 -23.8,-49.2 -16.2,-27.7 -35.5,-53.3 -56.1,-74.4 -11,-11.3 -12.9,-12.8 -15.8,-12.8 -1.8,0 -4,0.7 -4.8,1.6 z" />
  <path
     style="fill:#0084ff"
     d="m 144.86026,233.72947 c -3.6,4.3 -2.7,9.3 2.1,11.3 7.1,2.9 13.4,-5.7 8.1,-11 -2.5,-2.5 -8.1,-2.7 -10.2,-0.3 z" />
  <path
     style="fill:#0084ff"
     d="m 155.16026,275.72947 c -5.4,5.5 -15.9,25 -28.8,53.8 -5.5,12.2 -13.3,34.9 -13.3,38.6 0,3.7 4.4,7.2 8,6.4 3.8,-1 4.6,-2.1 8.9,-14.2 8.5,-23.8 20.1,-48.9 31.1,-67.3 6.8,-11.4 7.4,-14.7 3.4,-17.9 -3.6,-2.8 -6,-2.6 -9.3,0.6 z" />
  <path
     style="fill:#0084ff"
     d="m 183.86026,289.22947 c -1.7,1.4 -12,18.3 -16.2,26.5 -1.4,2.9 -2.6,6.4 -2.6,7.8 0,5.6 7.9,8.6 12,4.5 1,-1 3,-4.1 4.4,-6.7 1.3,-2.6 4.9,-9.1 8,-14.2 6,-10.2 6.8,-13.9 3.6,-17.1 -2.3,-2.3 -6.8,-2.6 -9.2,-0.8 z" />
  <path
     style="fill:#0084ff"
     d="m 769.56026,293.52947 c -3.6,3.5 -3.1,6.7 2.4,15.9 7.2,11.8 14.1,25.7 19,37.9 5.4,13.3 7.1,15.7 11.6,15.7 3.5,0 7.5,-3.6 7.5,-6.7 0,-4.1 -17.2,-41 -25.1,-53.9 -7.3,-11.9 -10.6,-13.8 -15.4,-8.9 z" />
  <path
     style="fill:#0084ff"
     d="m 880.76026,302.72947 c -4.2,4.8 -1,12.3 5.1,12.3 6.5,0 9.2,-9.6 3.8,-13.2 -2,-1.4 -7.3,-0.8 -8.9,0.9 z" />
  <path
     style="fill:#0084ff"
     d="m 97.660256,317.62947 c -4,4.1 -3.2,8.4 2.2,11.3 3.200004,1.7 7.700004,-0.2 9.200004,-3.9 0.9,-2.3 0.9,-3.4 -0.4,-5.8 -2.6,-5 -6.9,-5.6 -11.000004,-1.6 z" />
  <path
     style="fill:#0084ff"
     d="m 855.36026,317.02947 c -4.6,1.9 -5.7,8.3 -2,11.8 2.9,2.8 6.7,2.8 9.5,0.2 5.5,-5.2 -0.5,-14.8 -7.5,-12 z" />
  <path
     style="fill:#0084ff"
     d="m 902.36026,362.52947 c -6.8,4.8 -1,15.7 6.8,12.5 5.6,-2.4 5.9,-10.3 0.3,-12.9 -3.3,-1.5 -4.5,-1.4 -7.1,0.4 z" />
  <path
     style="fill:#0084ff"
     d="m 872.76026,379.82947 c -3.8,4.2 -0.7,12.2 4.7,12.2 6.3,0 9.9,-7.7 5.6,-12 -2.6,-2.6 -8.1,-2.6 -10.3,-0.2 z" />
  <path
     style="fill:#0084ff"
     d="m 41.760256,394.82947 c -1.8,1.9 -5,18.9 -6.3,32.9 -0.6,6.7 -0.6,7 2.1,9.1 3.1,2.5 4.4,2.7 7.9,1.1 3.1,-1.4 4.3,-4.6 5.1,-12.9 0.3,-3.6 1.3,-10.9 2.1,-16.4 1.6,-9.5 1.6,-9.9 -0.3,-12.5 -2.6,-3.4 -8.1,-4.1 -10.6,-1.3 z" />
  <path
     style="fill:#0084ff"
     d="m 73.360256,408.52947 c -4.9,2.1 -5.9,7.7 -2,11.3 6.4,6.1 15.3,-2.2 10.2,-9.5 -1.9,-2.7 -4.6,-3.3 -8.2,-1.8 z" />
  <path
     style="fill:#0084ff"
     d="m 815.06026,412.02947 c -2.5,2.5 -2.6,8.1 -0.2,10.3 4.5,4 12.2,1.1 12.2,-4.7 0,-6.3 -7.7,-9.9 -12,-5.6 z" />
  <path
     style="fill:#0084ff"
     d="m 96.460256,442.02947 c -6.6,1 -13.7,4.2 -19.2,8.7 -17.6,14.5 -17.6,44.1 0,58.6 19.8,16.3 49.100004,9.8 60.200004,-13.3 2.8,-5.9 3.1,-7.4 3.1,-16 0,-8.6 -0.3,-10.1 -3.1,-16 -7.5,-15.7 -23.9,-24.4 -41.000004,-22 z m 18.400004,17.7 c 6.6,4.1 10.5,10.7 11,18.9 1.5,23.1 -26.800004,34.2 -42.000004,16.4 -11.3,-13.2 -5.2,-32.4 12.2,-38.1 4.900004,-1.6 13.900004,-0.3 18.800004,2.8 z" />
  <path
     style="fill:#0084ff"
     d="m 97.260256,475.32947 c -2.8,3 -2.8,6.8 0.1,9.5 4.800004,4.6 11.700004,1.7 11.700004,-4.8 0,-2.9 -0.6,-4.3 -2.2,-5.4 -3.2,-2.3 -7.100004,-2 -9.600004,0.7 z" />
  <path
     style="fill:#0084ff"
     d="m 851.16026,442.22947 c -11.9,1.9 -22.7,10.2 -28.4,21.8 -2.9,5.9 -3.32811,12.65738 -3.2,16 0.0927,2.41904 0.3,10.1 3.1,16 11.1,23.1 40.4,29.6 60.2,13.3 11.2,-9.2 16,-25.8 11.7,-40.7 -5.3,-18.2 -23.9,-29.5 -43.4,-26.4 z m 17.6,16.7 c 7.8,3.9 13.3,12.7 13.3,21.1 0,8.4 -5.5,17.1 -13.4,21.3 -3.1,1.6 -5.9,2.1 -11.2,2.2 -6.1,0 -7.7,-0.4 -12,-3 -17,-10.6 -14.5,-36.1 4.3,-43.1 5,-1.9 13.8,-1.2 19,1.5 z" />
  <path
     style="fill:#0084ff"
     d="m 853.26026,474.62947 c -1.6,1.1 -2.2,2.5 -2.2,5.4 0,2.9 0.6,4.3 2.2,5.4 3.2,2.3 7.1,2 9.6,-0.7 2.8,-3 2.8,-6.8 -0.1,-9.5 -2.7,-2.6 -6.4,-2.8 -9.5,-0.6 z" />
  <path
     style="fill:#0084ff"
     d="m 918.16026,457.22947 c -5.3,1.9 -6.7,7.9 -2.8,11.6 4.8,4.5 11.7,1.7 11.7,-4.7 0,-5.5 -4.2,-8.7 -8.9,-6.9 z" />
  <path
     style="fill:#0084ff"
     d="m 35.060256,490.82947 c -2,1.6 -2.2,2.6 -2.1,10.3 0.2,11.3 2,28.8 3.2,31 1.2,2.3 5,3.3 8.4,2.5 4.5,-1.1 4.9,-3.9 3.6,-23.3 -1.1,-15.7 -1.5,-18.1 -3.4,-20.1 -2.5,-2.7 -6.7,-2.9 -9.7,-0.4 z" />
  <path
     style="fill:#0084ff"
     d="m 135.56026,535.22947 c -2.6,2 -2.7,2.5 -2.2,7.7 1.3,14.2 14.3,59.8 18.3,64.2 3.7,4.1 12.4,1.1 12.4,-4.2 0,-1.2 -2,-8 -4.5,-15.2 -4.6,-13.2 -9.3,-30.7 -11.5,-43 -0.7,-3.7 -2,-7.6 -2.9,-8.6 -2.6,-3 -6.5,-3.4 -9.6,-0.9 z" />
  <path
     style="fill:#0084ff"
     d="m 71.060256,538.02947 c -2.6,2.6 -2.6,8.1 -0.2,10.3 2.6,2.4 7.7,2.1 10.2,-0.5 6,-6.5 -3.8,-16 -10,-9.8 z" />
  <path
     style="fill:#0084ff"
     d="m 879.66026,539.12947 c -1.9,1.5 -2.6,3 -2.6,5.4 0,3.6 3.6,7.5 7,7.5 3.4,0 7,-3.9 7,-7.5 0,-3.6 -3.6,-7.5 -7,-7.5 -1,0 -2.9,0.9 -4.4,2.1 z" />
  <path
     style="fill:#0084ff"
     d="m 844.16026,554.72947 c -1.7,1.4 -3.3,6.3 -7,20.8 -2.7,10.4 -6.8,23.9 -9.1,30 -4.7,12.3 -5.5,15.4 -4.6,18.9 1.1,4.6 9.1,5.6 12.2,1.5 3.6,-4.7 20.4,-59.5 20.4,-66.4 0,-2.4 -4.6,-6.5 -7.3,-6.5 -1.4,0 -3.4,0.8 -4.6,1.7 z" />
  <path
     style="fill:#0084ff"
     d="m 903.16026,585.32947 c -1.4,0.6 -2.8,2.4 -3.3,3.9 -2,5.9 4.3,11.7 9.6,8.9 5.7,-3.1 5.4,-10.9 -0.6,-13 -1.7,-0.6 -3.1,-1.1 -3.2,-1.1 -0.1,0 -1.2,0.6 -2.5,1.3 z" />
  <path
     style="fill:#0084ff"
     d="m 796.76026,600.72947 c -1.4,1.7 -2.1,4.2 -1.8,7 0.2,2.4 4.1,5.3 6.9,5.3 3.5,0 7.2,-3.7 7.2,-7.1 0,-5.8 -8.5,-9.3 -12.3,-5.2 z" />
  <path
     style="fill:#0084ff"
     d="m 58.660256,617.12947 c -5.1,4 -2.5,11.9 4,11.9 4.4,0 7.4,-2.5 7.4,-6.3 0,-3.8 -0.7,-5 -3.7,-6.6 -3.1,-1.6 -4.7,-1.4 -7.7,1 z" />
  <path
     style="fill:#0084ff"
     d="m 852.76026,631.82947 c -4,4.4 -0.7,12.2 5.1,12.2 3.5,0 7.2,-3.7 7.2,-7.1 0,-5.8 -8.5,-9.3 -12.3,-5.1 z" />
  <path
     style="fill:#0084ff"
     d="m 686.06026,635.72947 c -11.2,1.9 -24.6,8.9 -33,17.3 -10.8,10.8 -16.8,24.3 -17.7,40.1 -1.8,31 17.3,56.9 47.7,64.5 8.6,2.2 25,1.4 33.3,-1.5 20,-7 33.4,-20.7 40.3,-41.1 1.5,-4.2 1.9,-8.4 1.9,-18 0,-13.9 -1.1,-18.3 -7.4,-30.5 -9.7,-18.9 -32,-31.7 -54.5,-31.4 -4.5,0.1 -9.2,0.4 -10.6,0.6 z m 35,51.3 c 8,-4.4 15.1,-8 15.8,-8 0.8,0 -1.2,2.8 -4.3,6.2 -3.1,3.5 -10.2,11.4 -15.7,17.6 -5.5,6.3 -10.7,11.6 -11.5,11.9 -0.9,0.4 -4.5,-2.4 -9.6,-7.5 l -8.2,-8.1 -14.7,8 c -8.1,4.5 -15.2,7.9 -15.7,7.7 -0.6,-0.1 3.1,-4.8 8.2,-10.4 5.1,-5.5 12.5,-13.8 16.6,-18.3 l 7.4,-8.3 8.6,8.6 8.6,8.5 14.5,-7.9 z" />
  <path
     style="fill:#0084ff"
     d="m 137.56026,643.52947 c -1.4,1.3 -2.5,3.2 -2.5,4.3 0,2.5 6.6,15.9 13.4,27.1 17,28 34.5,50.9 54,70.8 10.4,10.8 12.3,12.3 15.2,12.3 3.7,0 6.1,-1.9 7,-5.6 0.8,-3.2 -0.5,-5 -11.5,-16.4 -22.2,-22.9 -47.4,-57.7 -60.5,-83.9 -2,-3.9 -4.5,-8 -5.6,-9.1 -2.7,-2.7 -6.6,-2.5 -9.5,0.5 z" />
  <path
     style="fill:#0084ff"
     d="m 881.76026,646.22947 c -2.6,2.1 -3.7,6.1 -2.3,8.9 2.7,5.5 10.3,5.5 12.6,0 2.6,-6.5 -4.8,-13 -10.3,-8.9 z" />
  <path
     style="fill:#0084ff"
     d="m 110.06026,660.22947 c -2.6,2.8 -2.6,5.8 0.1,9.2 3.9,5 12.2,2.2 12.2,-4.2 0,-6.6 -7.8,-9.8 -12.3,-5 z" />
  <path
     style="fill:#0084ff"
     d="m 198.36026,680.52947 c -2.7,1.9 -3.7,5.9 -2.2,8.8 0.7,1.2 6,8 12,15.2 17,20.7 48,50.3 58.4,55.8 3,1.6 3.8,1.7 6.2,0.5 3.7,-1.8 5.2,-6.1 3.2,-9.6 -0.8,-1.4 -5.9,-6.3 -11.4,-10.8 -14.3,-11.7 -35.4,-33 -46.8,-47.2 -11.9,-14.8 -14.2,-16.3 -19.4,-12.7 z" />
  <path
     style="fill:#0084ff"
     d="m 100.36026,703.22947 c -2.800004,1.4 -4.300004,5.5 -3.100004,8.9 0.9,2.6 4.400004,4.9 7.400004,4.9 2.3,0 6.4,-4.7 6.4,-7.3 0,-5.1 -6.1,-8.8 -10.7,-6.5 z" />
  <path
     style="fill:#0084ff"
     d="m 852.26026,703.72947 c -1.2,1 -6.2,8.1 -11.3,15.8 -7,10.6 -9.3,14.8 -9.3,17.4 0,5.6 6.3,9 10.6,5.8 0.9,-0.7 5.9,-7.7 11.2,-15.6 10.8,-16 11.8,-19.3 7,-23 -3.3,-2.6 -5.5,-2.6 -8.2,-0.4 z" />
  <path
     style="fill:#0084ff"
     d="m 805.56026,716.02947 c -2.5,2.7 -2.2,8 0.6,10.2 6.7,5.5 16,-4.1 9.9,-10.2 -2.6,-2.6 -8.1,-2.6 -10.5,0 z" />
  <path
     style="fill:#0084ff"
     d="m 163.56026,740.02947 c -2.5,2.8 -2.1,7.5 1.1,11.8 5.9,8 40.7,41.4 54.4,52.4 24.7,19.7 46.4,33.5 75.1,47.9 25.8,13 49.5,22 78.6,30 10.6,2.9 11.8,3.1 14.2,1.8 3.6,-2 5,-6.3 3,-9.7 -1,-1.9 -3,-3.2 -6.9,-4.4 -3,-0.9 -13.4,-4 -23,-6.9 -37,-11.1 -67.8,-25.8 -103.5,-49.5 -23.2,-15.3 -39,-28.6 -63.2,-53 -18.7,-18.8 -22.7,-22.4 -25.1,-22.4 -1.6,0 -3.7,0.9 -4.7,2 z" />
  <path
     style="fill:#0084ff"
     d="m 157.76026,780.82947 c -4,4.4 -0.7,12.2 5.1,12.2 6,0 9.4,-7.8 5.2,-12 -2.6,-2.6 -8.1,-2.6 -10.3,-0.2 z" />
  <path
     style="fill:#0084ff"
     d="m 792.06026,781.02947 c -4.3,4.3 -1.1,12 5,12 3.8,0 7,-3.2 7,-7 0,-3.8 -3.2,-7 -7,-7 -1.7,0 -3.9,0.9 -5,2 z" />
  <path
     style="fill:#0084ff"
     d="m 319.76026,783.02947 c -3.3,2.6 -3.7,7.8 -0.8,10.4 2.1,1.9 32.2,15.6 34.3,15.6 2.1,0 5.9,-3 6.7,-5.4 1.1,-2.8 -0.5,-7.1 -3.2,-8.4 -4.6,-2.4 -30.3,-13.4 -32.2,-13.9 -1.2,-0.2 -3.2,0.5 -4.8,1.7 z" />
  <path
     style="fill:#0084ff"
     d="m 627.56026,785.52947 c -3,3 -3.1,5.4 -0.4,8.9 2.9,3.6 8,3.6 10.9,-0.1 5.5,-7 -4.2,-15.1 -10.5,-8.8 z" />
  <path
     style="fill:#0084ff"
     d="m 741.56026,785.22947 c -1.1,0.6 -6.3,4.6 -11.5,8.8 -16.4,13.3 -41.1,29.7 -60.3,40 -6.4,3.4 -10.2,6.1 -10.9,7.6 -1.5,3.3 0,7.4 3.4,9.4 2.6,1.4 3.1,1.3 10.5,-2.4 19.5,-9.5 45.4,-26.3 65.6,-42.5 12.2,-9.8 13.2,-10.9 13.5,-14.2 0.3,-3 -0.2,-4.1 -2.4,-5.8 -3,-2.4 -5,-2.6 -7.9,-0.9 z" />
  <path
     style="fill:#0084ff"
     d="m 262.06026,787.02947 c -5,5 0.4,13.2 7.7,11.4 2.7,-0.7 5.5,-5.7 4.5,-8.3 -1.8,-5.2 -8.4,-6.9 -12.2,-3.1 z" />
  <path
     style="fill:#0084ff"
     d="m 644.56026,811.02947 c -8.8,4.4 -22.5,10.5 -30.3,13.6 -15.2,6.1 -18,8.2 -16.8,12.8 1.6,6.5 6.2,7.1 19.1,2.2 13,-4.8 48,-21.4 51,-24.2 5.1,-4.7 2.2,-12.5 -4.5,-12.3 -1.4,0 -9.7,3.6 -18.5,7.9 z" />
  <path
     style="fill:#0084ff"
     d="m 536.56026,815.02947 c -4.2,4.6 -0.8,12 5.4,12 3.4,0 7.1,-3.7 7.1,-7.1 0,-5.8 -8.7,-9.1 -12.5,-4.9 z" />
  <path
     style="fill:#0084ff"
     d="m 469.56026,820.32947 c -6.8,2.3 -11.8,5.3 -16.5,10.1 -14.2,14.2 -15.1,36.7 -2.3,52.4 14.5,17.6 44.1,17.6 58.6,0 16.2,-19.8 9.8,-49.2 -13.3,-60.1 -5.2,-2.5 -8,-3.1 -14.5,-3.4 -4.8,-0.2 -9.6,0.2 -12,1 z m 21.3,16.3 c 11.5,5.7 16.3,19.3 10.8,31 -4,8.5 -12.7,14.4 -21.6,14.4 -11.8,0 -22.2,-9.6 -23.7,-21.8 -2.2,-18.7 17.5,-32.1 34.5,-23.6 z" />
  <path
     style="fill:#0084ff"
     d="m 474.66026,853.22947 c -2.3,3.2 -2,7.1 0.7,9.6 3,2.8 6.8,2.8 9.5,-0.1 4.6,-4.8 1.7,-11.7 -4.8,-11.7 -2.9,0 -4.3,0.6 -5.4,2.2 z" />
  <path
     style="fill:#0084ff"
     d="m 209.06026,821.82947 c -3.1,1 -5,3.6 -5,6.7 0,3.9 1.6,5.8 9.5,11.6 20.1,14.8 24.8,16.7 28.7,12 3.5,-4.5 2.1,-8.5 -5,-13.2 -2.6,-1.8 -8.5,-6 -13.2,-9.5 -9.1,-6.6 -12.5,-8.4 -15,-7.6 z" />
  <path
     style="fill:#0084ff"
     d="m 744.06026,824.02947 c -4.2,4.2 -0.8,12 5.3,12 5.8,0 9.1,-8.5 4.9,-12.3 -2.5,-2.3 -7.8,-2.1 -10.2,0.3 z" />
  <path
     style="fill:#0084ff"
     d="m 348.26026,830.02947 c -2.7,2.6 -2.9,8 -0.4,10.3 3.1,2.9 39.5,13.4 59.4,17.3 8.1,1.5 8.9,1.5 11.3,0 3.2,-2.1 4.2,-6.2 2.4,-9.5 -1.2,-2.1 -2.9,-2.9 -8.9,-4.4 -29.1,-6.9 -42.6,-10.4 -49.9,-12.8 -10.1,-3.4 -11.1,-3.5 -13.9,-0.9 z" />
  <path
     style="fill:#0084ff"
     d="m 678.56026,864.92947 c -21,10.9 -33.3,16.1 -56.1,24 -27.1,9.4 -53.7,16.2 -71.9,18.6 -10.5,1.4 -13.5,3.3 -13.5,8.8 0,1.3 1.1,3.4 2.5,4.7 2.1,2 3,2.2 7.7,1.6 8.7,-1.2 35.5,-6.5 47.8,-9.6 29.8,-7.5 71.6,-24.4 101.7,-41.1 6.5,-3.7 7.8,-11 2.4,-13.8 -3.4,-1.9 -5.2,-1.3 -20.6,6.8 z" />
  <path
     style="fill:#0084ff"
     d="m 288.06026,874.02947 c -4.3,4.3 -1.1,12 5,12 3.6,0 7,-3.4 7,-7 0,-6 -7.8,-9.2 -12,-5 z" />
  <path
     style="fill:#0084ff"
     d="m 410.06026,911.72947 c -2.4,3.1 -2,6.8 1,9.4 2.8,2.4 27.4,5.3 54.5,6.5 15.5,0.6 16.1,0.6 18.8,-1.6 3.4,-2.7 3.6,-7.2 0.4,-10.4 -2.2,-2.1 -3.3,-2.3 -20.7,-3 -10.2,-0.4 -23.9,-1.3 -30.5,-2.1 -18.1,-2.2 -20.9,-2 -23.5,1.2 z" />
</svg>
