<?xml version="1.0" encoding="UTF-8" standalone="no"?>
<svg
   xmlns:dc="http://purl.org/dc/elements/1.1/"
   xmlns:cc="http://creativecommons.org/ns#"
   xmlns:rdf="http://www.w3.org/1999/02/22-rdf-syntax-ns#"
   xmlns:svg="http://www.w3.org/2000/svg"
   xmlns="http://www.w3.org/2000/svg"
   width="107mm"
   height="150mm"
   viewBox="0 0 379.13386 531.49606"
   version="1.1"
   id="svg2">
  <metadata
     id="metadata96">
    <rdf:RDF>
      <cc:Work
         rdf:about="">
        <dc:format>image/svg+xml</dc:format>
        <dc:type
           rdf:resource="http://purl.org/dc/dcmitype/StillImage" />
        <dc:title></dc:title>
      </cc:Work>
    </rdf:RDF>
  </metadata>
  <defs
     id="defs94" />
  <path
     d="m 293.56458,360.11967 c -14.43822,0 -21.7332,10.94128 -21.7332,10.94128 l -5.80381,0 c 0,0 -4.20571,-0.48368 -8.63392,3.94453 -4.42822,4.42822 -4.316,8.85604 -4.316,8.85604 l 0,10.26917 c 0.0744,0 -0.3348,4.35455 3.94452,8.63392 4.27938,4.27937 8.70668,4.01921 8.70668,4.01921 l 6.69805,0 c 0,0 7.22965,10.77851 21.3598,10.77851 14.12786,0 21.65852,-10.85319 21.65852,-10.85319 l 6.02785,0 c 0,0 5.06094,0.44609 9.0054,-3.49837 3.94446,-3.94448 4.16665,-5.76823 4.16665,-8.11118 l 0,-11.23807 c 0,-1.5735 -0.25931,-3.73049 -2.18865,-6.72485 -1.92386,-2.98586 -3.81261,-4.20137 -5.91296,-5.25617 -2.07803,-1.04363 -3.73198,-0.96888 -3.73198,-0.96891 l -6.54868,0 c 0,1e-5 -8.26004,-10.79192 -22.69827,-10.79192 z m 10.77277,13.67755 9.35007,0 c 10.28804,0 10.13646,-0.0127 12.21463,0.96124 2.63696,1.23581 5.07303,4.21014 5.72914,6.99293 0.33153,1.40608 0.32823,13.07567 -0.004,14.3688 -0.68814,2.67788 -2.59887,5.07027 -5.38064,6.7325 -2.11187,1.26193 -0.77662,1.17953 -19.22861,1.17953 l -16.36788,0 1.12783,-1.18144 c 1.76806,-1.85061 2.87908,-3.65154 3.59795,-5.83063 0.33683,-1.02102 0.35149,-1.28116 0.43848,-7.91778 0.0967,-7.37445 0.0857,-7.26128 0.94402,-8.97284 0.50142,-0.99994 1.71694,-2.54846 2.80712,-3.57688 1.20686,-1.13848 2.42897,-1.91307 3.79134,-2.4031 l 0.98038,-0.35233 z m 18.40525,4.62238 c -0.8493,0.014 -1.67833,0.35686 -2.23842,1.02252 -0.76244,0.9061 -0.72346,1.94579 0.1034,2.77265 0.77825,0.77825 2.04293,1.04588 3.29923,0.697 1.62277,-0.45066 2.29035,-2.43679 1.19293,-3.54625 -0.63876,-0.64577 -1.50784,-0.96 -2.35714,-0.94592 z m -36.36434,0.20488 c 3.47808,-0.01 3.70511,4.01299 0.23936,4.23941 -0.37323,0.0244 -0.8936,-0.0225 -1.15847,-0.1034 -0.26488,-0.081 -0.71738,-0.36802 -1.00528,-0.63954 -0.99841,-0.94162 -0.84037,-2.27322 0.36573,-3.07137 0.52173,-0.34526 0.80651,-0.42302 1.55866,-0.4251 z m 15.42388,0.67594 0.0996,2.51224 c 0.0545,1.38174 0.0976,5.4197 0.0976,8.97284 l 0,6.4606 2.48927,0 2.48735,0 0,-2.63862 0,-2.64053 4.75066,0 4.75067,0 0,-2.11014 0,-2.11204 -4.75067,0 -4.75066,0 0,-2.03545 0,-2.03546 5.35383,0 5.35383,0 0,-2.18672 0,-2.18672 -7.94074,0 -7.94076,0 z m -32.90234,0.14361 2.18098,0.0421 2.17906,0.0402 0.98805,4.77748 c 0.54319,2.62698 1.02927,4.81679 1.07996,4.86746 0.12111,0.12112 0.14439,-0.0109 0.89996,-5.15851 l 0.64721,-4.40983 2.38395,0 c 1.31109,0 2.38395,0.043 2.38395,0.0958 0,0.10894 -3.89587,16.87751 -4.01538,17.28315 -0.0695,0.236 -0.31408,0.26425 -2.31884,0.26425 -2.00435,0 -2.25031,-0.0283 -2.32076,-0.26425 -0.0433,-0.14514 -0.48919,-2.43153 -0.99188,-5.08001 -0.50268,-2.64848 -0.94603,-4.84652 -0.98421,-4.8847 -0.11788,-0.11787 -0.19024,0.20491 -1.17188,5.25234 l -0.95166,4.90003 -2.22119,0.0422 c -1.69751,0.0319 -2.23694,-0.003 -2.2863,-0.14937 -0.13198,-0.39341 -4.00197,-17.24161 -4.00197,-17.42293 0,-0.14292 0.58309,-0.18766 2.41268,-0.18766 1.32703,0 2.41302,0.0508 2.41267,0.11298 -9.8e-4,0.19091 1.36372,9.13592 1.45526,9.53771 0.0797,0.34992 0.0936,0.35654 0.19531,0.0766 0.0602,-0.16588 0.54592,-2.42485 1.07804,-5.01874 l 0.96699,-4.7162 z m 51.49714,4.833 0,6.56017 0,6.56017 2.26332,0 2.2614,0 0,-6.56017 0,-6.56017 -2.2614,0 -2.26332,0 z m -36.19199,0.15127 2.11204,0 2.11205,0 0,6.4089 0,6.4089 -2.11205,0 -2.11204,0 0,-6.4089 0,-6.4089 z"
     style="opacity:1;fill:#000000;fill-opacity:1;fill-rule:evenodd;stroke:none;stroke-width:1px;stroke-linecap:butt;stroke-linejoin:miter;stroke-opacity:1"
     id="path4" />
  <path
     id="path4224"
     d="m 88.305459,360.0556 a 37.731714,38.637794 0 0 0 -4.88827,18.97457 37.731714,38.637794 0 0 0 2.40289,13.34596 37.990596,38.573074 0 0 0 0.407184,1.13164 37.731714,38.637794 0 0 0 0.698017,1.60968 37.990596,38.573074 0 0 0 1.081936,2.28233 37.731714,38.637794 0 0 0 0.09627,0.1946 c 0.0029,-0.002 0.0059,-0.003 0.0098,-0.006 a 37.990596,38.573074 0 0 0 33.424677,20.33781 37.990596,38.573074 0 0 0 31.64471,-17.33738 54.50345,54.50345 0 0 0 35.90689,13.65163 54.50345,54.50345 0 0 0 40.88504,-18.53143 l -0.62188,0 a 54.285254,54.285254 0 0 0 10.53379,-16.22901 54.866804,54.866804 0 0 0 0.5013,-1.3749 54.285254,54.285254 0 0 0 1.20146,-3.38646 54.866804,54.866804 0 0 0 0.52773,-2.06445 c -0.11374,0.15261 -0.22817,0.29949 -0.50553,0.63139 -0.10968,0.12341 -0.32888,0.27463 -0.514,0.33632 -0.17826,0.0685 -0.49393,0.19218 -0.70648,0.28133 -0.21253,0.0891 -0.5139,0.16393 -0.67159,0.16393 l -0.28131,0 0,-2.00841 c 0,-1.95396 0.006,-2.00982 0.16392,-2.34577 0.27814,-0.59658 0.90185,-1.02479 1.6467,-1.21519 l 0.35007,0 0,-0.0687 c 0.42593,-0.0621 0.87634,-0.0551 1.32201,0.0508 l 9.8e-4,0 c 0.0432,0.0102 0.0834,0.0239 0.1248,0.036 a 54.866804,54.866804 0 0 0 0.19778,-1.30404 l -1.16655,0 -0.47909,0 0,-5.43293 c 0.3655,-0.0635 0.74525,-0.0647 1.12318,0.0232 0.38862,0.0892 0.74676,0.26564 1.06184,0.50236 a 54.866804,54.866804 0 0 0 0.10364,-2.0856 l -44.14566,0 c -32.18677,3e-5 -48.96164,-0.004 -65.47022,-0.01 a 54.866804,54.866804 0 0 0 1.21413,10.01874 c 0.0646,-0.52908 0.20992,-0.68578 0.54996,-1.01425 0.60332,-0.58961 1.39976,-0.87778 2.38703,-0.86407 0.33594,0.007 0.74765,0.0477 0.91906,0.0888 0.45249,0.13026 1.04197,0.45976 1.32307,0.74773 0.13712,0.13711 0.30744,0.41882 0.38286,0.61764 0.13711,0.3428 0.14383,0.4991 0.14383,2.61759 l 0,2.26327 -2.87881,0 -1.69958,0 a 54.866804,54.866804 0 0 0 0.52352,1.57373 c 0.0724,-0.003 0.14907,-0.0265 0.18825,-0.0592 0.0788,-0.0788 0.37094,-0.12344 0.7086,-0.13114 0.33765,-0.008 0.72174,0.0213 0.98569,0.0899 0.48677,0.12341 0.86386,0.31592 1.17924,0.59014 0.21939,0.19883 0.29357,0.30105 0.52668,0.74668 0.0685,0.13713 0.0963,1.0437 0.10999,4.12891 l 0.0117,3.23522 a 54.866804,54.866804 0 0 0 0.51189,0.83657 l -2.27281,0 a 57.60073,57.60073 0 0 1 -0.0645,-0.11318 l -1.08617,0 0,-0.5362 c 0,-0.28877 -0.0275,-0.56369 -0.055,-0.60495 -0.10313,-0.15813 -0.48058,-0.28871 -1.14751,-0.39872 -0.37815,-0.0687 -0.81803,-0.16603 -0.97617,-0.22104 l -0.29613,-0.10999 0.006,-2.92852 c 0.006,-2.5735 0.007,-3.03762 0.21258,-3.41079 a 57.60073,57.60073 0 0 1 -2.35192,-10.18499 l -2.48009,-0.017 -3.09457,-0.0137 0.0212,-1.73977 0.0201,-1.73237 0.19249,-0.39871 c 0.34377,-0.7013 1.09397,-1.29977 1.8984,-1.53353 0.48816,-0.14438 1.66355,-0.0888 2.14483,0.10364 0.31167,0.12098 0.57586,0.26793 0.80696,0.4442 a 57.60073,57.60073 0 0 1 -0.0772,-2.16913 c -27.08311,-0.0103 -41.568378,-0.0301 -44.453422,-0.0751 z m 27.525331,1.60546 c 0.29123,-0.009 0.58729,0.0223 0.87994,0.0983 1.0657,0.27503 1.82909,0.96281 2.12473,1.90475 0.10314,0.35066 0.12375,0.64601 0.12375,1.95236 l 0,1.53987 -3.02582,0 -3.02477,0 0,-1.53987 c 0,-1.30635 0.0206,-1.6017 0.12374,-1.95236 0.3687,-1.17313 1.53642,-1.96499 2.79843,-2.0031 z m -14.66375,0.002 c 0.18192,0.008 0.36479,0.0309 0.54784,0.0687 0.94883,0.19939 1.75346,0.81106 2.1385,1.62237 0.22001,0.46754 0.21945,0.46727 0.24007,1.74612 l 0.0275,1.27865 -0.39872,-0.13009 c -0.81131,-0.27502 -1.95963,-0.28243 -2.74344,-0.0212 -0.57067,0.19252 -1.216182,0.56418 -1.656219,0.95609 l -0.412458,0.37121 -0.502371,-0.14383 -0.494958,-0.14489 0.0201,-1.72603 0.02118,-1.71861 0.21998,-0.46746 c 0.517389,-1.08891 1.719599,-1.74648 2.993032,-1.69111 z m -7.374706,0.0106 c 0.347352,0.013 0.685752,0.0736 0.971947,0.18192 0.556919,0.21312 1.085583,0.60435 1.381238,1.03751 0.426282,0.60505 0.467459,0.83892 0.467459,2.71594 l 0,1.66468 -0.460057,0.0825 -0.467468,0.0888 -0.412469,-0.24008 c -0.831937,-0.49503 -1.870755,-0.70914 -2.833329,-0.59226 -0.281901,0.0413 -0.536203,0.0555 -0.549958,0.0349 -0.02059,-0.0137 0.0078,-0.0962 0.04863,-0.17872 0.055,-0.0963 0.06186,-0.30296 0.02745,-0.59861 -0.06186,-0.59818 -0.399194,-1.1956 -0.77734,-1.39499 -0.323155,-0.16501 -0.522997,-0.52981 -0.461125,-0.85983 0.103137,-0.55005 0.735987,-1.26485 1.437297,-1.62237 0.442606,-0.23205 1.04874,-0.34116 1.627659,-0.3194 z m 29.679686,0.006 c 0.41511,0.0206 0.8286,0.0827 1.06924,0.17556 0.63942,0.2475 1.12842,0.6181 1.4447,1.10625 0.15126,0.24065 0.30881,0.55047 0.33632,0.68111 0.0344,0.13751 0.0623,0.98344 0.0623,1.87725 l 0,1.63612 -3.05967,0 -3.06706,0 0.0212,-1.73976 0.0201,-1.73237 0.19248,-0.39871 c 0.35753,-0.72193 1.05906,-1.2929 1.90475,-1.53353 0.24408,-0.0722 0.66048,-0.0926 1.07559,-0.072 z m -15.28245,9.8e-4 c 0.48279,-0.0155 1.09563,0.0508 1.42565,0.17451 0.83194,0.31625 1.49172,0.95593 1.77362,1.72601 0.13063,0.35063 0.14383,0.54976 0.14383,1.82861 0,1.3201 -0.007,1.42302 -0.10999,1.31989 -0.0756,-0.0757 -0.12374,-0.28181 -0.15124,-0.60496 l -0.0338,-0.48861 -0.36488,-0.23373 c -0.19939,-0.13063 -0.48119,-0.2681 -0.63244,-0.30247 -0.2544,-0.0687 -0.41238,-0.1718 -1.01743,-0.65995 -0.23376,-0.18564 -0.30874,-0.20571 -0.79004,-0.21259 -0.28877,-0.007 -0.68106,-0.0619 -0.85982,-0.12373 -0.40566,-0.13064 -0.543,-0.13803 -1.12742,-0.0762 -0.40566,0.0481 -0.47482,0.0824 -0.73609,0.35747 l -0.29508,0.29612 0,-0.30246 c 0,-0.43317 0.23316,-1.12101 0.51505,-1.50605 0.39191,-0.52941 1.14847,-1.00417 1.83602,-1.14855 0.11688,-0.0241 0.26317,-0.0382 0.4241,-0.0433 z m 37.64453,0.036 c 0.3429,0.002 0.68808,0.0516 1.0206,0.1544 0.87756,0.27424 1.72076,1.06283 1.9333,1.81698 0.0548,0.17826 0.0825,0.87056 0.0824,1.9058 l 0,1.61814 -3.08503,0 -3.08506,0 0,-1.64564 c 0,-1.85796 0.0341,-2.03551 0.52776,-2.67997 0.57076,-0.74559 1.57722,-1.17518 2.60594,-1.16971 z m 14.75999,0.0106 c 0.32223,0 0.74028,0.0414 0.92541,0.0963 0.8707,0.22624 1.56414,0.78889 1.93436,1.54305 l 0.19143,0.38392 0.0212,1.72707 0.0201,1.73448 -3.05861,0 -3.05015,0 0,-1.64564 c 0,-1.44661 0.0135,-1.68559 0.13009,-1.98724 0.42508,-1.11753 1.56303,-1.84502 2.88622,-1.85187 z m 7.53017,0.002 c 0.37966,8.1e-4 0.76251,0.0463 1.04704,0.13537 0.80899,0.24681 1.48687,0.80935 1.82966,1.50181 0.15084,0.31537 0.18468,0.51329 0.23268,1.23317 0.0342,0.47306 0.0421,1.25456 0.0148,1.73448 l -0.0413,0.87781 -3.08505,0 -3.07765,0 0.019,-1.73553 c 0.0206,-1.72771 0.0211,-1.72601 0.20624,-2.10993 0.34277,-0.69246 1.01429,-1.24869 1.82331,-1.50921 0.27422,-0.0857 0.65152,-0.12884 1.03116,-0.12797 z m 66.77532,0.003 c 0.16173,0.009 0.32454,0.0321 0.4865,0.0698 0.83643,0.19198 1.54887,0.76202 1.93966,1.55045 l 0.22632,0.45901 0.0201,1.69958 0.0275,1.70063 -2.85872,0 -2.85871,0 0.0274,-1.70063 0.0201,-1.69958 0.22634,-0.45901 c 0.52192,-1.05581 1.61132,-1.68249 2.74343,-1.62025 z m -96.58719,9.8e-4 c 0.32223,-0.007 0.74029,0.0351 0.9254,0.0899 0.85699,0.22624 1.56254,0.78197 1.92591,1.51555 l 0.19883,0.41035 0.0212,1.72814 0.0201,1.73447 -3.05754,0 -3.05756,0 0.0201,-1.73447 0.0212,-1.72814 0.19143,-0.39659 c 0.50049,-1.00784 1.54325,-1.61236 2.79103,-1.6192 z m 48.75154,9.8e-4 c 0.50905,-8.2e-4 1.01912,0.034 1.35162,0.10259 1.83741,0.37707 3.55207,1.67914 4.36792,3.31772 0.10285,0.20569 0.22539,0.39774 0.26652,0.42516 0.0411,0.0275 0.0549,0.055 0.0274,0.055 -0.0274,0 0.0145,0.17773 0.0899,0.39026 0.30852,0.88441 0.32159,1.12452 0.34901,4.95701 l 0.0212,3.66884 -6.43131,0.0201 -6.43132,0.0137 0.0212,-3.81902 c 0.0275,-3.70909 0.0268,-3.83952 0.17768,-4.37428 0.19197,-0.67874 0.61077,-1.56991 1.00155,-2.11839 0.87757,-1.22722 2.38516,-2.22128 3.84547,-2.5298 0.32566,-0.072 0.8341,-0.10807 1.34316,-0.10893 z m 33.02278,9.8e-4 c 0.27767,-0.002 0.55566,0.029 0.80589,0.0941 0.85014,0.2194 1.6655,0.91157 1.96716,1.66572 0.14397,0.36336 0.15818,0.50705 0.17873,2.04966 l 0.0201,1.66679 -2.95496,0 -2.95496,0 0.0212,-1.66679 c 0.0206,-1.54261 0.0349,-1.6863 0.17873,-2.04966 0.2948,-0.74043 1.11639,-1.43894 1.93226,-1.65832 0.25023,-0.0652 0.52823,-0.0998 0.80589,-0.10153 z m -15.04767,9.8e-4 c 0.16083,-0.0112 0.3234,-0.0104 0.48545,0.002 0.18519,0.0143 0.36954,0.0438 0.55208,0.091 0.95983,0.25368 1.6789,0.81489 2.05599,1.60334 l 0.21257,0.45265 0.0212,1.65938 0.0201,1.6668 -3.12524,0 -3.12736,0 0.0212,-1.6668 0.0201,-1.65938 0.21259,-0.45265 c 0.46715,-0.97634 1.52568,-1.61814 2.65142,-1.69642 z m 22.14845,0.008 c 0.1498,-0.0114 0.30097,-0.0115 0.45266,0 0.17336,0.0131 0.34703,0.0411 0.51929,0.0857 0.85012,0.22624 1.57733,0.82172 1.94071,1.58959 0.18511,0.39079 0.18566,0.41908 0.20624,2.09195 l 0.0275,1.70063 -2.92851,0 -2.92747,0 0.0275,-1.70063 c 0.0206,-1.67287 0.0212,-1.70116 0.20623,-2.09195 0.45667,-0.97108 1.42732,-1.59553 2.47586,-1.67526 z m -73.82005,0.003 c 0.71303,0.0206 0.78926,0.035 1.2829,0.27497 0.6376,0.30167 1.11071,0.74664 1.3918,1.31567 l 0.19883,0.41141 0.0201,1.72813 0.0212,1.73448 -3.05859,0 -3.05757,0 0.0212,-1.73448 0.0201,-1.72813 0.19248,-0.39766 c 0.25368,-0.50734 0.72639,-0.98644 1.25432,-1.26067 0.58277,-0.30852 0.83575,-0.36429 1.71333,-0.34372 z m 59.08333,0.005 c 0.48142,-0.0154 1.09129,0.05 1.42038,0.17345 0.86384,0.32908 1.52996,0.99363 1.77677,1.78207 0.11654,0.37708 0.13643,0.6313 0.13644,1.96821 l 0,1.53564 -3.05015,0 -3.0512,0 0,-1.53564 c 0,-1.74142 0.0752,-2.13271 0.514,-2.73603 0.39078,-0.52791 1.14513,-1.00036 1.83072,-1.14434 0.11653,-0.024 0.26258,-0.0382 0.42304,-0.0433 z m -36.94122,1.41825 c 0.25538,-0.006 0.5147,0.0224 0.67581,0.091 0.34966,0.14398 0.73286,0.5219 0.90426,0.89898 0.15083,0.32223 0.16393,0.42488 0.16393,1.69323 l 0,1.35796 -1.71333,0 -1.71439,0 0,-1.28922 c 0,-1.02154 0.0215,-1.36501 0.1174,-1.62554 0.12341,-0.37022 0.53458,-0.8228 0.91165,-1.00791 0.14741,-0.072 0.39927,-0.11245 0.65467,-0.11845 z m 22.29334,0.15124 c 0.29028,0.0158 0.5885,0.0913 0.8006,0.21469 0.17142,0.10285 0.39107,0.28749 0.49391,0.41777 0.32224,0.42505 0.36332,0.65828 0.37017,2.00204 l 0,1.25538 -1.72074,0 -1.72178,0 0.0275,-1.35796 c 0.0206,-1.33692 0.0207,-1.35776 0.21257,-1.67314 0.21255,-0.36336 0.542,-0.63761 0.91908,-0.78158 0.0977,-0.0377 0.21228,-0.0617 0.3342,-0.0729 0.0915,-0.009 0.18774,-0.01 0.28449,-0.004 z m -37.30397,4.99403 c 0.39913,0.007 1.07051,0.0903 1.30191,0.17768 0.61703,0.23996 1.3099,0.9111 1.5293,1.48699 0.13711,0.36337 0.14383,0.51525 0.14383,2.54462 l 0,2.15857 -2.78362,0 -2.77624,0 0.0201,-2.24847 c 0.0206,-2.22818 0.0211,-2.24198 0.19248,-2.5848 0.30853,-0.62389 0.9866,-1.17878 1.71333,-1.39816 0.17141,-0.048 0.34223,-0.1026 0.37651,-0.11634 0.0463,-0.0171 0.14933,-0.0225 0.28239,-0.0201 z m -29.79603,0.0127 c 0.38932,0.006 0.78603,0.0473 1.03012,0.11951 0.77005,0.24064 1.36902,0.74234 1.66466,1.40238 0.12377,0.27503 0.13749,0.46821 0.13749,2.54461 l 0,2.25483 -2.85342,0 -2.86083,0 0.0212,-2.32357 0.0201,-2.31722 0.18614,-0.31622 c 0.33003,-0.56379 0.96972,-1.04541 1.67103,-1.27231 0.21314,-0.0687 0.59424,-0.098 0.98357,-0.0921 z m -7.40855,0.003 c 0.20718,0.002 0.41766,0.0249 0.62822,0.0687 0.85257,0.17875 1.62285,0.73492 1.95975,1.42248 l 0.19248,0.39237 0.0137,2.23472 c 0.007,1.34761 -0.006,2.17975 -0.0476,2.09724 -0.0344,-0.0757 -0.0624,-0.34369 -0.0624,-0.5912 -0.007,-0.24752 -0.0544,-0.59225 -0.11634,-0.771 -0.0894,-0.26815 -0.16547,-0.35057 -0.46111,-0.52246 -0.19939,-0.11688 -0.50181,-0.32308 -0.68745,-0.46747 -1.55387,-1.23759 -1.86336,-1.39551 -2.83967,-1.40238 -0.3369,0 -0.7218,-0.0412 -0.85244,-0.0963 -0.22689,-0.0825 -0.25432,-0.0757 -0.43997,0.0963 l -0.19988,0.17873 0.0413,-0.40505 c 0.12635,-1.29948 1.42116,-2.25193 2.87141,-2.23474 z m 30.10166,0.0212 c 0.14314,-0.003 0.24544,-7.5e-4 0.27287,0.01 0.0548,0.0137 0.21984,0.0418 0.36381,0.0623 0.14398,0.0206 0.27453,0.0677 0.29508,0.0952 0.0206,0.0343 0.0816,0.0624 0.13643,0.0624 0.13026,0 0.59008,0.31503 0.96031,0.65784 0.19197,0.17826 0.33659,0.39785 0.43257,0.66523 0.13711,0.37024 0.14383,0.52801 0.14383,2.5848 l 0,2.19347 -2.81113,0 -2.81112,0 0,-2.21356 0,-2.22203 0.20623,-0.40402 c 0.24681,-0.49361 0.58274,-0.83059 1.16549,-1.16654 0.4045,-0.2331 0.50669,-0.25922 1.13058,-0.30035 0.18853,-0.0137 0.37193,-0.0218 0.51505,-0.0243 z m 66.57014,0.0265 c 0.24659,-0.009 0.4975,0.0147 0.74773,0.0729 0.83643,0.19197 1.69353,0.9111 2.00206,1.68583 0.15767,0.38393 0.16451,0.48024 0.18508,2.46845 l 0.0212,2.07715 -2.85238,0 -2.85237,0 0.0212,-2.07715 c 0.0275,-2.44072 0.0478,-2.55767 0.74032,-3.29128 0.54504,-0.58617 1.24744,-0.90898 1.98724,-0.93598 z m -7.25731,0.005 c 0.29373,-0.002 0.59188,0.0272 0.8884,0.0888 0.84328,0.17826 1.60505,0.69211 1.85186,1.24058 0.11656,0.24683 0.13009,0.50014 0.13009,2.61864 l 0,2.35212 -2.84497,0 -2.84603,0 0,-2.35212 c 0,-2.65326 0.007,-2.67333 0.53516,-3.14639 0.57076,-0.5142 1.40428,-0.79652 2.28549,-0.80166 z m -7.66766,9.8e-4 c 0.16157,-0.0109 0.32476,-0.0105 0.48755,0.002 0.18605,0.0145 0.37185,0.0449 0.55525,0.092 0.94611,0.24683 1.68525,0.81593 2.06233,1.59065 l 0.19883,0.39872 0.0212,2.10358 0.0201,2.11204 -3.12524,0 -3.12736,0 0.0212,-2.11204 0.0201,-2.10358 0.19884,-0.39872 c 0.47242,-0.97108 1.5363,-1.60855 2.66729,-1.68478 z m 22.20661,0.004 c 0.27915,-0.009 0.56579,0.011 0.85032,0.0624 0.82272,0.15084 1.62529,0.6864 1.92696,1.28288 0.1097,0.22624 0.12326,0.49377 0.14383,2.59856 l 0.0201,2.35104 -2.81747,0 -2.81748,0 0.0201,-2.35104 c 0.0206,-2.63955 0.0126,-2.59209 0.55419,-3.1337 0.50392,-0.49364 1.28194,-0.78314 2.11944,-0.81014 z m -59.49367,0.006 c 0.5656,-0.0193 1.29719,0.0512 1.61602,0.17451 0.60332,0.23311 1.1451,0.71803 1.43306,1.27336 l 0.24537,0.47381 0.0212,2.18079 0.0201,2.18607 -2.92005,0 -2.92112,0 0.0212,-2.17972 0.0201,-2.17338 0.19248,-0.36383 c 0.36337,-0.69244 1.1856,-1.39744 1.78207,-1.52084 0.13025,-0.0274 0.30114,-0.0443 0.48967,-0.0508 z m -21.89992,0.002 c 0.85015,0.0206 0.8625,0.0198 1.4521,0.30777 l 0.002,0 c 0.47991,0.2331 0.65743,0.36411 0.90425,0.67264 0.17826,0.21253 0.31572,0.4046 0.32258,0.42516 0,0.0275 0.0207,0.10966 0.0413,0.18508 0.0548,0.17139 0.0544,0.61744 0.0338,2.89363 l -0.0148,1.80215 -2.8788,0 -2.87987,0 0,-2.28232 c 0,-2.2556 4.4e-4,-2.28376 0.16499,-2.61969 0.26737,-0.56219 0.85023,-1.0276 1.60438,-1.27443 0.31537,-0.10283 0.55554,-0.13055 1.24798,-0.10999 z m 88.94491,0.006 c 0.39655,0.0109 0.8134,0.0686 1.08722,0.16499 l 0,9.8e-4 c 0.72673,0.25367 1.26124,0.73339 1.46692,1.29557 0.0685,0.19883 0.0894,0.81479 0.0963,2.54249 l 0,2.27703 -2.65354,-0.0137 -2.65988,-0.0212 0,-2.36481 0,-2.36481 0.18507,-0.32257 c 0.31537,-0.53477 0.91157,-0.93968 1.66574,-1.13164 0.11827,-0.0292 0.26615,-0.0479 0.42833,-0.0572 0.12165,-0.007 0.25173,-0.009 0.38391,-0.005 z m -59.23667,0.63033 c 0.24699,0.008 0.50196,0.0824 0.76677,0.22633 0.37708,0.20567 0.73904,0.67217 0.8556,1.0904 0.0411,0.14396 0.0687,1.1184 0.0687,2.29078 l 0,2.04329 -1.71333,0 -1.71439,0 0,-2.05704 c 0,-2.36532 0.0348,-2.55076 0.56265,-3.06495 0.37281,-0.36423 0.76232,-0.54119 1.17395,-0.52881 z m 22.09451,0.11422 c 0.37742,-0.0103 0.76734,0.0623 1.10415,0.22951 0.23995,0.12339 0.4603,0.28752 0.55629,0.4315 0.15082,0.23311 0.15019,0.26105 0.15019,2.55095 l 0,2.32462 -1.71439,0 -1.71439,0 0,-2.31827 c 0,-2.16649 0.007,-2.32413 0.13749,-2.5298 0.25711,-0.42422 0.85164,-0.67137 1.48066,-0.68851 z m -29.906,6.91254 c 0.13851,-0.009 0.28016,-0.009 0.42515,0 0.1657,0.01 0.33559,0.0309 0.50871,0.0635 0.86387,0.16455 1.57029,0.67817 1.87197,1.35691 0.21253,0.47307 0.2194,0.63797 0.19882,3.66143 l -0.0137,2.24848 -2.74345,0 -2.74977,0 0.0212,-2.83015 0.0201,-2.82594 0.18509,-0.30777 c 0.50389,-0.83459 1.30638,-1.30751 2.27598,-1.36642 z m -14.89961,0.003 c 0.35523,-0.0186 0.72691,0.009 1.09886,0.0877 0.56903,0.1234 1.07648,0.37684 1.40556,0.69909 0.48679,0.48675 0.47323,0.41853 0.45266,3.64769 l -0.0137,2.89255 -2.70853,0 -2.70748,0 0,-2.87881 c 0,-2.76983 0.006,-2.89333 0.14383,-3.18129 0.34452,-0.74044 1.26319,-1.2111 2.32886,-1.26701 z m -7.55238,0.0137 c 0.5261,-0.0158 1.19868,0.0568 1.54834,0.19039 0.54847,0.19881 0.9604,0.49322 1.18664,0.82916 l 0.18508,0.28872 0.0201,2.78363 c 0.0206,2.68753 0.0144,2.80365 -0.12269,3.17388 -0.1714,0.45248 -0.56255,0.8431 -0.91906,0.91166 -0.21254,0.0342 -0.24748,0.0691 -0.24748,0.23374 0,0.36335 -0.0674,0.37708 -2.10358,0.39765 l -1.87198,0.0275 0,-3.65404 c 0,-3.56508 0.007,-3.6622 0.14385,-3.95017 0.25367,-0.52103 0.98714,-1.02682 1.72072,-1.18452 0.12513,-0.0257 0.2847,-0.0422 0.46006,-0.0476 z m 15.36282,0.004 c 0.37333,0.009 0.74023,0.0621 1.01531,0.16497 0.58277,0.22627 1.05612,0.6242 1.28922,1.0904 l 0.19884,0.39767 0.0212,2.82593 0.0201,2.83016 -2.64719,0 -2.64509,0 0.0201,-2.83016 0.0212,-2.82593 0.20517,-0.37017 c 0.1234,-0.22624 0.34216,-0.48006 0.54783,-0.63773 0.19196,-0.14399 0.38403,-0.29465 0.42517,-0.32892 0.26566,-0.21854 0.90604,-0.33037 1.52824,-0.31622 z m -30.45701,0.0349 c 0.12386,-0.003 0.27019,-0.002 0.44207,0.003 0.55692,0.0137 0.71542,0.0418 1.06608,0.21364 0.49503,0.23377 1.04489,0.77039 1.26489,1.21731 0.0825,0.18564 0.18561,0.32997 0.21999,0.32997 0.0344,0 0.0624,0.88608 0.0624,2.10993 0,1.28572 -0.028,2.08403 -0.0624,2.04964 -0.055,-0.0619 -0.21309,-0.96332 -0.32998,-1.91215 -0.0275,-0.22002 -0.13793,-0.36373 -0.68109,-0.90002 -0.59817,-0.59818 -0.85244,-0.96979 -0.85244,-1.24481 0,-0.0619 -0.0888,-0.2263 -0.19883,-0.36381 -0.11688,-0.13751 -0.22738,-0.35112 -0.25488,-0.46112 -0.0275,-0.1169 -0.15757,-0.33683 -0.29508,-0.49497 -0.23376,-0.27502 -0.26858,-0.28925 -0.61235,-0.29612 -0.26127,0 -0.35748,-0.0274 -0.34372,-0.0824 0.0361,-0.1083 0.20373,-0.1585 0.57534,-0.16817 z m 97.11282,0.0127 c 0.32769,-0.0127 0.6652,0.0184 0.99945,0.0973 0.74043,0.17827 1.29592,0.5419 1.63188,1.07665 0.15768,0.25367 0.16495,0.30824 0.15124,1.26807 l -0.0201,1.00155 -0.23373,-0.19882 c -0.13027,-0.10284 -0.40406,-0.26784 -0.61659,-0.36382 -0.34279,-0.14398 -0.51454,-0.16399 -1.5018,-0.19143 l -1.1179,-0.0349 -0.26757,0.18509 c -0.14397,0.10284 -0.44587,0.22008 -0.67899,0.26123 -0.45934,0.0891 -0.47209,0.10239 -0.62293,0.81541 -0.15082,0.76102 -0.20517,0.50041 -0.20517,-1.0079 0,-1.43976 0.006,-1.48082 0.16393,-1.73448 0.44219,-0.70447 1.3352,-1.13571 2.31828,-1.17395 z m -22.23517,0.01 c 0.14462,-0.01 0.28979,-0.009 0.43255,0 0.19037,0.0123 0.37699,0.0416 0.55525,0.0877 0.21938,0.0548 0.5213,0.16416 0.67899,0.24642 0.43193,0.21939 0.97982,0.77474 1.15808,1.17924 0.16454,0.34965 0.16452,0.39161 0.18509,3.04485 l 0.0201,2.69373 -2.81748,0 -2.81852,0 0.0212,-2.69373 c 0.0206,-2.65324 0.0205,-2.6952 0.18509,-3.04485 0.17823,-0.4045 0.7272,-0.95985 1.15913,-1.17924 0.37408,-0.19282 0.80667,-0.30567 1.24058,-0.3342 z m 7.38106,0.008 c 0.46727,-0.0161 1.08254,0.0544 1.40132,0.18297 0.50734,0.19882 0.98,0.56205 1.22683,0.93915 0.39764,0.60332 0.41881,0.75531 0.41881,3.56626 l 0,2.55623 -2.74238,0 -2.74978,0 0.0212,-2.69372 0.0201,-2.68739 0.18508,-0.39131 c 0.31537,-0.67189 1.01588,-1.22104 1.81802,-1.42671 0.10628,-0.0257 0.24508,-0.0402 0.40085,-0.0455 z m 7.82524,0.002 c 0.3685,0.018 0.73757,0.0785 0.98781,0.17451 0.76785,0.29479 1.27538,0.75454 1.43306,1.31672 0.0411,0.13026 0.0687,1.39822 0.0687,2.9888 l 0,2.76247 -2.64084,0 -2.64509,0 0.0201,-2.8989 c 0.0206,-2.61212 0.0342,-2.91477 0.14384,-3.1136 0.2811,-0.5142 0.88357,-0.93919 1.64458,-1.15174 0.25025,-0.072 0.61929,-0.0963 0.9878,-0.0782 z m -34.06558,0.6039 c 0.24077,-0.012 0.52675,-0.009 0.9381,0.009 1.2135,0.048 1.48051,0.1226 2.60489,0.67793 1.41232,0.70616 2.53,2.12609 2.9962,3.79893 0.15083,0.53478 0.15124,0.60413 0.15124,5.78724 0.006,2.18943 -0.009,3.77211 -0.0296,4.62281 a 5.9953795,4.269437 0 0 0 -3.79468,3.96922 5.9953795,4.269437 0 0 0 0.004,0.091 l -1.99147,0 a 4.2852349,2.8160115 0 0 0 0.0201,-0.27181 4.2852349,2.8160115 0 0 0 -4.28438,-2.81642 4.2852349,2.8160115 0 0 0 -0.94549,0.0729 c -0.1327,-0.0557 -0.58139,-0.3889 -1.12107,-0.83446 l -0.22633,-0.18508 0,-4.31293 c 0,-2.37215 0.028,-4.31293 0.0624,-4.31293 0.0274,0 0.0746,-0.32898 0.0952,-0.74032 0.0411,-0.77473 0.17863,-1.35003 0.53515,-2.12474 0.10283,-0.2331 0.19936,-0.45274 0.20623,-0.48016 0.0137,-0.0274 0.0753,-0.11016 0.14383,-0.17873 0.0685,-0.0754 0.12268,-0.15767 0.1227,-0.18508 0,-0.13025 1.15891,-1.36432 1.27547,-1.36432 0.0548,0 0.0952,-0.0344 0.0952,-0.0687 0,-0.0411 0.0754,-0.10215 0.17133,-0.13643 0.0891,-0.0342 0.28808,-0.1441 0.43891,-0.24009 0.42507,-0.26052 1.22802,-0.56247 1.86562,-0.69272 0.22968,-0.0446 0.42553,-0.0717 0.6663,-0.0835 z m -10.84579,0.0994 c 0.25818,-0.0139 0.51334,0.0228 0.73188,0.11527 0.41821,0.17826 0.64449,0.37102 0.79531,0.68639 0.13027,0.27425 0.13648,0.41788 0.15019,2.61864 0,1.28207 0.007,2.50871 0,2.72123 l -0.006,0.39765 -1.6118,0 -1.6118,0 0,-2.70852 c 0,-2.95493 0.008,-3.00881 0.39132,-3.36532 0.29138,-0.27852 0.72989,-0.44224 1.16019,-0.46534 z m 22.48583,0.0466 c 0.37022,0.0206 0.56236,0.0686 0.85032,0.22632 0.2194,0.11655 0.43181,0.30871 0.54149,0.46641 l 0.17874,0.27498 0.0201,2.76247 0.0212,2.76246 -1.72179,0 -1.71439,0 0,-2.68631 c 0,-2.59842 0.007,-2.69505 0.14384,-2.98987 0.26052,-0.53476 0.91269,-0.85075 1.68054,-0.81646 z m -30.18839,7.876 c 0.39936,-0.0189 0.85576,0.009 1.20885,0.091 0.82957,0.19881 1.45285,0.61118 1.72708,1.1528 0.15082,0.28795 0.14434,0.0268 0.13749,4.48319 l -0.006,2.41981 -0.83656,0 -0.84397,-0.008 -0.41142,-0.26757 c -0.21938,-0.15084 -0.59661,-0.34182 -0.83658,-0.4241 -0.23997,-0.0891 -0.43149,-0.17776 -0.43149,-0.20518 0,-0.0274 0.0611,-0.1712 0.13642,-0.31517 0.096,-0.17825 0.14442,-0.43243 0.16499,-0.77523 0.0138,-0.28108 0.0615,-0.75488 0.10259,-1.05654 0.048,-0.30854 0.0686,-0.69853 0.0413,-0.89051 -0.0275,-0.19197 -0.055,-0.63131 -0.0687,-0.98781 -0.0412,-0.99413 -0.20577,-1.51519 -0.82282,-2.5573 -0.19196,-0.32908 -0.21236,-0.4042 -0.13009,-0.47276 0.12684,-0.10283 0.46999,-0.16832 0.86935,-0.18718 z m 37.34841,0.0762 c 0.15659,-0.01 0.3157,-0.009 0.47485,0.002 0.18189,0.0128 0.3647,0.0395 0.54467,0.0815 0.84329,0.19881 1.52766,0.73239 1.70594,1.32201 0.0548,0.17141 0.0824,0.8025 0.0824,1.70064 l 0,1.43412 -0.14384,-0.21999 c -0.0754,-0.12341 -0.22658,-0.26719 -0.32257,-0.31518 -0.10283,-0.0548 -0.48589,-0.26761 -0.84925,-0.48014 -0.74045,-0.43878 -0.95316,-0.47321 -1.43307,-0.25383 -0.16454,0.0754 -0.35605,0.1375 -0.41775,0.1375 -0.0685,0 -0.26061,0.0955 -0.42515,0.21892 -0.35652,0.24681 -0.85742,0.32222 -1.33049,0.19882 l -0.28766,-0.0824 0,-1.0354 c 0,-0.58276 0.0334,-1.14475 0.0815,-1.29557 0.23619,-0.79261 1.22418,-1.34689 2.32039,-1.41296 z m 7.92888,0.006 9.8e-4,0 c 0.36852,0.018 0.73652,0.0785 0.98675,0.1745 0.50735,0.19198 0.90489,0.4864 1.13799,0.84291 l 0.19249,0.28133 0.006,1.4119 c 0.007,0.77473 4.2e-4,1.34401 -0.0201,1.26174 -0.0548,-0.26738 -0.19249,-0.32236 -0.59014,-0.24009 -0.57589,0.11654 -1.17942,-0.0958 -1.44681,-0.50025 -0.096,-0.15082 -0.14413,-0.16487 -0.45265,-0.12373 -0.2331,0.0274 -0.43151,0.007 -0.63034,-0.0687 -0.16454,-0.0618 -0.52746,-0.12322 -0.81542,-0.13009 -0.4799,-0.0206 -0.54159,-0.007 -0.76782,0.17134 l -0.25382,0.19248 0,-0.90531 c 0,-0.78158 0.0204,-0.9525 0.14383,-1.19933 0.23997,-0.50048 0.77565,-0.88471 1.52295,-1.0904 0.25025,-0.072 0.61718,-0.0963 0.98569,-0.0782 z m 6.44402,0.0497 c 0.0524,0.0283 -0.0184,0.14201 -0.19672,0.35113 -0.27424,0.32224 -0.31523,0.41184 -0.34266,0.76149 -0.0548,0.64446 -0.54888,1.19202 -1.13165,1.23317 -0.19196,0.0137 -0.192,0.006 -0.21258,-0.39132 -0.0411,-0.76101 0.45926,-1.43246 1.33683,-1.79582 0.31879,-0.13026 0.4945,-0.18692 0.54678,-0.15865 z m -21.64291,0.71283 c 0.5759,0 0.69949,0.0207 1.04915,0.19884 0.69244,0.33594 0.66524,0.20551 0.66524,3.27013 0,2.49558 -0.007,2.66751 -0.1375,2.94861 -0.0596,0.12999 -0.10089,0.32344 -0.11951,0.49073 a 5.9953795,4.269437 0 0 0 -3.17177,-1.11895 l 0,-1.95023 c 0,-3.48969 -0.0341,-3.30435 0.66524,-3.64029 0.34965,-0.17826 0.47325,-0.19884 1.04915,-0.19884 z m -22.19921,0.0424 c 0.47992,0.007 0.73349,0.0416 0.93915,0.13749 0.15769,0.0686 0.28133,0.16458 0.28133,0.21257 0,0.13028 -0.59685,0.56875 -0.91906,0.67159 -0.14398,0.0479 -0.38378,0.0681 -0.52774,0.0476 -0.23997,-0.0342 -0.28754,-0.007 -0.63034,0.32256 l -0.37757,0.34901 -0.0824,0.61765 c -0.0411,0.33595 -0.10267,1.19969 -0.13009,1.91955 -0.0411,0.87757 -0.0895,1.37208 -0.15124,1.50922 -0.0823,0.17823 -0.0958,-0.11096 -0.11635,-2.42828 -0.0137,-2.85892 -0.0201,-2.81022 0.36384,-3.06389 0.34279,-0.22626 0.67866,-0.30194 1.35056,-0.29507 z"
     style="fill:#000000" />
  <path
     id="path4226"
     d="m 121.26284,339.8441 c -21.25823,0 -38.492903,17.57871 -38.492903,39.23587 0,21.65717 17.234673,39.23456 38.492903,39.23456 21.25823,0 38.49423,-17.57739 38.49423,-39.23456 0,-21.65716 -17.236,-39.23587 -38.49423,-39.23587 z m 0,1.08537 c 20.6602,0 37.40886,17.06867 37.40886,38.1505 0,21.08184 -16.74866,38.14918 -37.40886,38.14918 -20.6602,0 -37.407536,-17.06734 -37.407536,-38.14918 0,-21.08183 16.747336,-38.1505 37.407536,-38.1505 z"
     style="fill:#dc0067" />
  <path
     id="path4228"
     d="m 188.84653,317.35939 c -22.924,0 -41.51105,18.90977 -41.51105,42.21039 0,23.30126 18.58705,42.21038 41.51105,42.21038 22.92337,0 41.50972,-18.90912 41.50972,-42.21038 0,-23.30062 -18.58635,-42.21039 -41.50972,-42.21039 z m 0,1.08669 c 22.32606,0 40.42303,18.40048 40.42303,41.1237 0,22.72388 -18.09697,41.1237 -40.42303,41.1237 -22.32671,0 -40.42436,-18.39982 -40.42436,-41.1237 0,-22.72322 18.09765,-41.1237 40.42436,-41.1237 z"
     style="fill:#dc0067" />
  <path
     id="path4230"
     d="m 188.6707,302.49738 c -31.21102,0 -56.54756,25.6027 -56.54757,57.0724 0,31.46971 25.33655,57.0724 56.54757,57.0724 31.21101,0 56.54757,-25.60269 56.54757,-57.0724 0,-31.4697 -25.33656,-57.0724 -56.54757,-57.0724 z m 0,5.8988 c 27.992,0 50.64876,22.86077 50.64876,51.1736 0,28.31284 -22.65676,51.1736 -50.64876,51.1736 -27.99199,0 -50.64876,-22.86076 -50.64876,-51.1736 0,-28.31283 22.65677,-51.1736 50.64876,-51.1736 z"
     style="fill:#dc0067" />
  <path
     id="path4232"
     d="m 111.44274,382.42955 -8.46023,0 6.7678,6.41521 -13.536242,0 0,6.4152 13.536242,0 -6.7678,6.41522 8.46023,0 10.15202,-9.62313 z"
     style="fill:#ffb400" />
  <path
     id="path4234"
     d="m 210.28288,371.23462 -10.61686,-10.98799 23.00341,0 0,-10.98733 -23.00341,0 10.61686,-10.98797 -14.1556,0 -15.92529,16.48164 15.92529,16.48165 z"
     style="fill:#ffb400" />
  <path
     id="path5698"
     d="m 191.45942,119.71292 -0.12419,0.003 c -52.60871,0.66836 -102.610587,17.61367 -148.694118,60.98447 a 11.561053,11.561053 0 1 0 15.844772,16.83596 c 42.261246,-39.77357 85.054516,-54.06267 133.004656,-54.69856 49.35469,0.45652 98.54312,24.07507 128.98908,53.78639 a 11.561053,11.561053 0 1 0 16.14693,-16.5451 C 301.75082,146.04481 248.04718,120.19963 191.5809,119.71581 l -0.12145,-0.003 z"
     style="color:#000000;font-style:normal;font-variant:normal;font-weight:normal;font-stretch:normal;font-size:medium;line-height:normal;font-family:sans-serif;text-indent:0;text-align:start;text-decoration:none;text-decoration-line:none;text-decoration-style:solid;text-decoration-color:#000000;letter-spacing:normal;word-spacing:normal;text-transform:none;direction:ltr;block-progression:tb;writing-mode:lr-tb;baseline-shift:baseline;text-anchor:start;white-space:normal;clip-rule:nonzero;display:inline;overflow:visible;visibility:visible;opacity:1;isolation:auto;mix-blend-mode:normal;color-interpolation:sRGB;color-interpolation-filters:linearRGB;solid-color:#000000;solid-opacity:1;fill:#dc0067;fill-opacity:1;fill-rule:nonzero;stroke:none;stroke-width:15.99072266;stroke-linecap:round;stroke-linejoin:miter;stroke-miterlimit:4;stroke-dasharray:none;stroke-dashoffset:0;stroke-opacity:1;color-rendering:auto;image-rendering:auto;shape-rendering:auto;text-rendering:auto;enable-background:accumulate" />
  <path
     id="path5698-0"
     d="m 190.90472,184.15097 -0.1242,0.003 c -38.1425,0.49445 -74.80506,13.21991 -108.123455,45.21593 a 11.561053,11.561053 0 1 0 16.014207,16.675 c 29.519658,-28.34806 58.864978,-38.30133 92.241978,-38.76619 34.02181,0.32479 68.34065,17.10602 89.38702,38.06304 a 11.561053,11.561053 0 1 0 16.31354,-16.38131 C 271.18462,203.63915 232.3011,184.51472 191.03185,184.15391 l -0.12709,-0.003 z"
     style="color:#000000;font-style:normal;font-variant:normal;font-weight:normal;font-stretch:normal;font-size:medium;line-height:normal;font-family:sans-serif;text-indent:0;text-align:start;text-decoration:none;text-decoration-line:none;text-decoration-style:solid;text-decoration-color:#000000;letter-spacing:normal;word-spacing:normal;text-transform:none;direction:ltr;block-progression:tb;writing-mode:lr-tb;baseline-shift:baseline;text-anchor:start;white-space:normal;clip-rule:nonzero;display:inline;overflow:visible;visibility:visible;opacity:1;isolation:auto;mix-blend-mode:normal;color-interpolation:sRGB;color-interpolation-filters:linearRGB;solid-color:#000000;solid-opacity:1;fill:#dc0067;fill-opacity:1;fill-rule:nonzero;stroke:none;stroke-width:15.99072266;stroke-linecap:round;stroke-linejoin:miter;stroke-miterlimit:4;stroke-dasharray:none;stroke-dashoffset:0;stroke-opacity:1;color-rendering:auto;image-rendering:auto;shape-rendering:auto;text-rendering:auto;enable-background:accumulate" />
  <path
     id="path5698-0-9"
     d="m 190.30462,247.52727 -0.12145,0.003 c -22.63703,0.28389 -44.98083,7.81834 -64.77128,26.20559 a 11.561053,11.561053 0 1 0 15.73747,16.93762 c 15.9519,-14.82085 31.16282,-19.7669 49.20043,-20.01564 17.89747,0.18937 36.46155,8.98359 47.44679,19.56664 a 11.561053,11.561053 0 1 0 16.03963,-16.64959 c -15.44297,-14.87756 -38.49119,-25.83385 -63.41018,-26.04462 l -0.12145,-0.003 z"
     style="color:#000000;font-style:normal;font-variant:normal;font-weight:normal;font-stretch:normal;font-size:medium;line-height:normal;font-family:sans-serif;text-indent:0;text-align:start;text-decoration:none;text-decoration-line:none;text-decoration-style:solid;text-decoration-color:#000000;letter-spacing:normal;word-spacing:normal;text-transform:none;direction:ltr;block-progression:tb;writing-mode:lr-tb;baseline-shift:baseline;text-anchor:start;white-space:normal;clip-rule:nonzero;display:inline;overflow:visible;visibility:visible;opacity:1;isolation:auto;mix-blend-mode:normal;color-interpolation:sRGB;color-interpolation-filters:linearRGB;solid-color:#000000;solid-opacity:1;fill:#dc0067;fill-opacity:1;fill-rule:nonzero;stroke:none;stroke-width:15.99072266;stroke-linecap:round;stroke-linejoin:miter;stroke-miterlimit:4;stroke-dasharray:none;stroke-dashoffset:0;stroke-opacity:1;color-rendering:auto;image-rendering:auto;shape-rendering:auto;text-rendering:auto;enable-background:accumulate" />
  <path
     id="path19"
     d="m 47.846555,486.17097 -4.068991,-28.2436 6.271032,0 1.364309,13.97818 q 0.167546,1.5797 0.263288,3.47057 0.09575,1.86695 0.143611,4.02116 l 0.191482,0 q 0.04787,-2.32176 0.167547,-4.45194 0.143611,-2.15421 0.311158,-3.94933 l 1.268568,-13.06864 5.888068,0 -4.06899,28.2436 -7.731082,0 z"
     style="font-style:normal;font-variant:normal;font-weight:normal;font-stretch:condensed;font-size:50px;line-height:125%;font-family:'Swiss911 XCm BT';-inkscape-font-specification:'Swiss911 XCm BT Condensed';letter-spacing:0px;word-spacing:0px;fill:#000000;fill-opacity:1;stroke:none;stroke-width:1px;stroke-linecap:butt;stroke-linejoin:miter;stroke-opacity:1" />
  <path
     id="path21"
     d="m 66.396365,463.38461 0,17.08972 q 0,0.93353 0.263288,1.34039 0.263287,0.38303 0.861668,0.38303 0.59838,0 0.861668,-0.38303 0.263288,-0.40686 0.263288,-1.34039 l 0,-17.08972 q 0,-0.90954 -0.287223,-1.31644 -0.263288,-0.40689 -0.885603,-0.40689 -0.574447,0 -0.837734,0.38295 -0.239352,0.38297 -0.239352,1.34038 z m -6.271033,1.91481 q 0,-4.38014 1.699402,-6.19922 1.723338,-1.84301 5.648717,-1.84301 3.925379,0 5.62478,1.84301 1.723338,1.81908 1.723338,6.19922 l 0,13.52345 q 0,4.35615 -1.723338,6.19918 -1.699401,1.84303 -5.62478,1.84303 -3.925379,0 -5.648717,-1.84303 -1.699402,-1.84303 -1.699402,-6.19918 l 0,-13.52345 z"
     style="font-style:normal;font-variant:normal;font-weight:normal;font-stretch:condensed;font-size:50px;line-height:125%;font-family:'Swiss911 XCm BT';-inkscape-font-specification:'Swiss911 XCm BT Condensed';letter-spacing:0px;word-spacing:0px;fill:#000000;fill-opacity:1;stroke:none;stroke-width:1px;stroke-linecap:butt;stroke-linejoin:miter;stroke-opacity:1" />
  <path
     id="path23"
     d="m 83.007416,476.30965 q 0,0.98136 0.239352,1.3643 0.263293,0.35902 0.885604,0.35902 0.574448,0 0.837741,-0.40686 0.287224,-0.43088 0.287224,-1.31646 l 0,-12.25486 q 0,-0.86166 -0.287224,-1.24463 -0.263293,-0.4069 -0.837741,-0.4069 -0.622311,0 -0.885604,0.35903 -0.239352,0.3351 -0.239352,1.2925 l 0,12.25486 z m 2.249921,3.63812 -0.09578,0 q -0.670193,1.57979 -1.771217,2.36959 -1.077083,0.76598 -2.632871,0.76598 -2.058431,0 -3.01584,-1.125 -0.95741,-1.14891 -0.95741,-3.63812 l 0,-16.51534 q 0,-2.13023 1.029216,-3.25519 1.029214,-1.14889 2.991905,-1.14889 1.483986,0 2.561069,0.69412 1.077083,0.69412 1.890883,2.20204 l 0.143617,0 0,-2.36959 6.079549,0 0,26.56812 q 0,4.42802 -1.699404,6.2232 -1.699403,1.81901 -5.648718,1.81901 -3.494543,0 -5.433298,-1.6994 -1.914819,-1.67548 -1.914819,-4.71517 l 0,-2.15421 6.223162,0 0,2.20205 q 0,0.93343 0.263293,1.31646 0.263283,0.40687 0.861662,0.40687 0.59838,0 0.861673,-0.40687 0.263283,-0.40695 0.263283,-1.31646 l 0,-6.2232 z"
     style="font-style:normal;font-variant:normal;font-weight:normal;font-stretch:condensed;font-size:50px;line-height:125%;font-family:'Swiss911 XCm BT';-inkscape-font-specification:'Swiss911 XCm BT Condensed';letter-spacing:0px;word-spacing:0px;fill:#000000;fill-opacity:1;stroke:none;stroke-width:1px;stroke-linecap:butt;stroke-linejoin:miter;stroke-opacity:1" />
  <path
     id="path25"
     d="m 92.557586,462.45113 0,-4.52376 1.579717,0 0,-5.24182 6.271037,0 0,5.24182 1.81908,0 0,4.52376 -1.81908,0 0,17.16154 q 0,1.31646 0.31116,1.67548 0.33509,0.3351 1.2925,0.3351 l 0.21542,0 0,4.54772 -3.925382,0 q -2.273852,0 -3.231259,-1.02921 -0.933476,-1.05313 -0.933476,-3.92537 l 0,-18.76526 -1.579717,0 z"
     style="font-style:normal;font-variant:normal;font-weight:normal;font-stretch:condensed;font-size:50px;line-height:125%;font-family:'Swiss911 XCm BT';-inkscape-font-specification:'Swiss911 XCm BT Condensed';letter-spacing:0px;word-spacing:0px;fill:#000000;fill-opacity:1;stroke:none;stroke-width:1px;stroke-linecap:butt;stroke-linejoin:miter;stroke-opacity:1" />
  <path
     id="path27"
     d="m 103.40025,486.17097 0,-35.30449 6.22316,0 0,35.30449 -6.22316,0 z"
     style="font-style:normal;font-variant:normal;font-weight:normal;font-stretch:condensed;font-size:50px;line-height:125%;font-family:'Swiss911 XCm BT';-inkscape-font-specification:'Swiss911 XCm BT Condensed';letter-spacing:0px;word-spacing:0px;fill:#000000;fill-opacity:1;stroke:none;stroke-width:1px;stroke-linecap:butt;stroke-linejoin:miter;stroke-opacity:1" />
  <path
     id="path29"
     d="m 120.15492,479.80414 0,-7.49173 q -0.14362,0.0961 -0.38297,0.28725 -1.86695,1.43617 -1.86695,2.53715 l 0,4.66733 q 0,0.95744 0.23936,1.31646 0.26328,0.3351 0.8856,0.3351 0.57445,0 0.83773,-0.38294 0.28723,-0.40686 0.28723,-1.26862 z m -8.52095,-16.08444 q 0,-3.20732 1.84302,-4.83492 1.86694,-1.62759 5.5051,-1.62759 3.97324,0 5.64872,1.81908 1.6994,1.79514 1.6994,6.22315 l 0,17.18549 q 0,1.12499 0.0958,2.01058 0.11968,0.86166 0.35903,1.67548 l -6.3189,0 q -0.11968,-0.50264 -0.19148,-1.00529 -0.0718,-0.52657 -0.0718,-0.95745 l 0,-0.43078 -0.0958,0 q -0.67018,1.38823 -1.81908,2.13019 -1.12495,0.74205 -2.63287,0.74205 -1.98662,0 -3.01585,-1.19676 -1.00527,-1.19675 -1.00527,-3.54243 l 0,-5.98379 q 0,-2.22597 0.78986,-3.6143 0.8138,-1.41214 2.58501,-2.36955 0.57444,-0.31115 1.62759,-0.83773 3.51848,-1.79515 3.51848,-3.42274 l 0,-2.01056 q 0,-0.90954 -0.28722,-1.31644 -0.26328,-0.4069 -0.8856,-0.4069 -0.57445,0 -0.83773,0.4069 -0.23936,0.4069 -0.23936,1.31644 l 0,4.11687 -6.27103,0 0,-4.069 z"
     style="font-style:normal;font-variant:normal;font-weight:normal;font-stretch:condensed;font-size:50px;line-height:125%;font-family:'Swiss911 XCm BT';-inkscape-font-specification:'Swiss911 XCm BT Condensed';letter-spacing:0px;word-spacing:0px;fill:#000000;fill-opacity:1;stroke:none;stroke-width:1px;stroke-linecap:butt;stroke-linejoin:miter;stroke-opacity:1" />
  <path
     id="path31"
     d="m 128.38864,486.17097 0,-28.2436 6.12742,0 0,2.36959 0.0957,0 q 0.78987,-1.48398 1.89088,-2.17811 1.10102,-0.71805 2.56108,-0.71805 2.03449,0 3.03977,1.2207 1.02922,1.19676 1.02922,3.59028 l 0,23.95919 -6.27104,0 0,-21.90076 q 0,-0.98134 -0.26329,-1.31644 -0.23935,-0.35903 -0.86167,-0.35903 -0.57444,0 -0.86166,0.4069 -0.26329,0.4069 -0.26329,1.26857 l 0,21.90076 -6.22316,0 z"
     style="font-style:normal;font-variant:normal;font-weight:normal;font-stretch:condensed;font-size:50px;line-height:125%;font-family:'Swiss911 XCm BT';-inkscape-font-specification:'Swiss911 XCm BT Condensed';letter-spacing:0px;word-spacing:0px;fill:#000000;fill-opacity:1;stroke:none;stroke-width:1px;stroke-linecap:butt;stroke-linejoin:miter;stroke-opacity:1" />
  <path
     id="path33"
     d="m 159.7438,486.17097 -6.12742,0 0,-2.44136 -0.0958,0 q -0.62231,1.55578 -1.74727,2.34558 -1.10102,0.78989 -2.70468,0.78989 -2.0345,0 -3.03978,-1.17283 -0.98135,-1.19676 -0.98135,-3.59028 l 0,-19.89019 q 0,-2.41746 1.00528,-3.61422 1.00529,-1.19676 3.01585,-1.19676 1.48398,0 2.56106,0.71805 1.07709,0.71807 1.79515,2.17811 l 0.0958,0 0,-9.43048 6.22316,0 0,35.30449 z m -8.47308,-6.17526 q 0,0.98127 0.23936,1.3643 0.26329,0.35902 0.8856,0.35902 0.57445,0 0.83773,-0.43088 0.28723,-0.43078 0.28723,-1.29244 l 0,-15.7255 q 0,-0.86167 -0.28723,-1.26857 -0.26328,-0.4069 -0.83773,-0.4069 -0.62231,0 -0.8856,0.35903 -0.23936,0.3351 -0.23936,1.31644 l 0,15.7255 z"
     style="font-style:normal;font-variant:normal;font-weight:normal;font-stretch:condensed;font-size:50px;line-height:125%;font-family:'Swiss911 XCm BT';-inkscape-font-specification:'Swiss911 XCm BT Condensed';letter-spacing:0px;word-spacing:0px;fill:#000000;fill-opacity:1;stroke:none;stroke-width:1px;stroke-linecap:butt;stroke-linejoin:miter;stroke-opacity:1" />
  <path
     id="path35"
     d="m 162.28094,486.17097 0,-7.20447 6.48644,0 0,7.20447 -6.48644,0 z"
     style="font-style:normal;font-variant:normal;font-weight:normal;font-stretch:condensed;font-size:50px;line-height:125%;font-family:'Swiss911 XCm BT';-inkscape-font-specification:'Swiss911 XCm BT Condensed';letter-spacing:0px;word-spacing:0px;fill:#000000;fill-opacity:1;stroke:none;stroke-width:1px;stroke-linecap:butt;stroke-linejoin:miter;stroke-opacity:1" />
  <path
     id="path37"
     d="m 172.26193,486.17097 0,-23.76771 -1.53186,0 0,-4.47589 1.53186,0 0,-2.68074 q 0,-2.05843 1.24463,-3.20733 1.24464,-1.17282 3.47061,-1.17282 l 3.51848,0 0,4.42801 q -1.10102,0 -1.55579,0.2633 -0.45477,0.23935 -0.45477,0.86167 l 0,1.50791 2.01056,0 0,4.47589 -2.01056,0 0,23.76771 -6.22316,0 z"
     style="font-style:normal;font-variant:normal;font-weight:normal;font-stretch:condensed;font-size:50px;line-height:125%;font-family:'Swiss911 XCm BT';-inkscape-font-specification:'Swiss911 XCm BT Condensed';letter-spacing:0px;word-spacing:0px;fill:#000000;fill-opacity:1;stroke:none;stroke-width:1px;stroke-linecap:butt;stroke-linejoin:miter;stroke-opacity:1" />
  <path
     id="path39"
     d="m 181.62061,486.17097 0,-28.2436 6.12742,0 0,2.36959 0.0958,0 q 0.78986,-1.48398 1.89088,-2.17811 1.10103,-0.71805 2.56107,-0.71805 2.0345,0 3.03978,1.2207 1.02921,1.19676 1.02921,3.59028 l 0,10.91445 -6.27103,0 0,-8.85602 q 0,-0.98134 -0.26328,-1.31644 -0.23936,-0.35903 -0.86167,-0.35903 -0.57445,0 -0.86168,0.4069 -0.26328,0.4069 -0.26328,1.26857 l 0,21.90076 -6.22316,0 z"
     style="font-style:normal;font-variant:normal;font-weight:normal;font-stretch:condensed;font-size:50px;line-height:125%;font-family:'Swiss911 XCm BT';-inkscape-font-specification:'Swiss911 XCm BT Condensed';letter-spacing:0px;word-spacing:0px;fill:#000000;fill-opacity:1;stroke:none;stroke-width:1px;stroke-linecap:butt;stroke-linejoin:miter;stroke-opacity:1" />
  <path
     id="path41"
     d="m 204.9814,463.38461 0,5.33755 2.24992,0 0,-5.33755 q 0,-0.93348 -0.2633,-1.31644 -0.26328,-0.40689 -0.86166,-0.40689 -0.59838,0 -0.86167,0.40689 -0.26329,0.38296 -0.26329,1.31644 z m 0,17.08972 q 0,0.93353 0.26329,1.34039 0.26329,0.38303 0.86167,0.38303 0.59838,0 0.86166,-0.38303 0.2633,-0.40686 0.2633,-1.34039 l 0,-5.28968 6.22315,0 0,5.24184 q 0,3.06371 -1.93874,4.76311 -1.91483,1.67548 -5.40937,1.67548 -3.94931,0 -5.64872,-1.8191 -1.6994,-1.81902 -1.6994,-6.22311 l 0,-13.52345 q 0,-4.45194 1.67546,-6.24709 1.67547,-1.79514 5.62479,-1.79514 3.47061,0 5.43329,1.62759 1.96269,1.60367 1.96269,4.45196 l 0,9.59802 -8.47307,0 0,7.53957 z"
     style="font-style:normal;font-variant:normal;font-weight:normal;font-stretch:condensed;font-size:50px;line-height:125%;font-family:'Swiss911 XCm BT';-inkscape-font-specification:'Swiss911 XCm BT Condensed';letter-spacing:0px;word-spacing:0px;fill:#000000;fill-opacity:1;stroke:none;stroke-width:1px;stroke-linecap:butt;stroke-linejoin:miter;stroke-opacity:1" />
  <path
     id="path43"
     d="m 215.5129,486.17097 0,-28.2436 6.22317,0 0,28.2436 -6.22317,0 z m 0,-29.943 0,-5.36149 6.22317,0 0,5.36149 -6.22317,0 z"
     style="font-style:normal;font-variant:normal;font-weight:normal;font-stretch:condensed;font-size:50px;line-height:125%;font-family:'Swiss911 XCm BT';-inkscape-font-specification:'Swiss911 XCm BT Condensed';letter-spacing:0px;word-spacing:0px;fill:#000000;fill-opacity:1;stroke:none;stroke-width:1px;stroke-linecap:butt;stroke-linejoin:miter;stroke-opacity:1" />
  <path
     id="path45"
     d="m 224.82371,486.17097 0,-23.76771 -1.53186,0 0,-4.47589 1.53186,0 0,-2.68074 q 0,-2.05843 1.24464,-3.20733 1.24463,-1.17282 3.4706,-1.17282 l 3.51848,0 0,4.42801 q -1.10101,0 -1.55578,0.2633 -0.45477,0.23935 -0.45477,0.86167 l 0,1.50791 2.01055,0 0,4.47589 -2.01055,0 0,23.76771 -6.22317,0 z"
     style="font-style:normal;font-variant:normal;font-weight:normal;font-stretch:condensed;font-size:50px;line-height:125%;font-family:'Swiss911 XCm BT';-inkscape-font-specification:'Swiss911 XCm BT Condensed';letter-spacing:0px;word-spacing:0px;fill:#000000;fill-opacity:1;stroke:none;stroke-width:1px;stroke-linecap:butt;stroke-linejoin:miter;stroke-opacity:1" />
  <path
     id="path47"
     d="m 248.9265,457.92737 0,28.2436 -6.12742,0 0,-2.34567 -0.14361,0 q -0.78986,1.46009 -1.86696,2.1542 -1.05314,0.67019 -2.53713,0.67019 -2.03449,0 -3.06371,-1.17283 -1.00528,-1.19676 -1.00528,-3.56636 l 0,-23.98313 6.22317,0 0,21.92471 q 0,0.93343 0.26328,1.29244 0.28722,0.35902 0.90954,0.35902 0.57445,0 0.8138,-0.38294 0.26329,-0.38294 0.26329,-1.26852 l 0,-21.92471 6.27103,0 z"
     style="font-style:normal;font-variant:normal;font-weight:normal;font-stretch:condensed;font-size:50px;line-height:125%;font-family:'Swiss911 XCm BT';-inkscape-font-specification:'Swiss911 XCm BT Condensed';letter-spacing:0px;word-spacing:0px;fill:#000000;fill-opacity:1;stroke:none;stroke-width:1px;stroke-linecap:butt;stroke-linejoin:miter;stroke-opacity:1" />
  <path
     id="path49"
     d="m 250.93706,486.17097 0,-28.2436 6.12742,0 0,2.36959 0.0957,0 q 0.78987,-1.48398 1.89088,-2.17811 1.10103,-0.71805 2.56108,-0.71805 2.03449,0 3.03977,1.2207 1.02922,1.19676 1.02922,3.59028 l 0,23.95919 -6.27104,0 0,-21.90076 q 0,-0.98134 -0.26328,-1.31644 -0.23935,-0.35903 -0.86167,-0.35903 -0.57444,0 -0.86167,0.4069 -0.26329,0.4069 -0.26329,1.26857 l 0,21.90076 -6.22316,0 z"
     style="font-style:normal;font-variant:normal;font-weight:normal;font-stretch:condensed;font-size:50px;line-height:125%;font-family:'Swiss911 XCm BT';-inkscape-font-specification:'Swiss911 XCm BT Condensed';letter-spacing:0px;word-spacing:0px;fill:#000000;fill-opacity:1;stroke:none;stroke-width:1px;stroke-linecap:butt;stroke-linejoin:miter;stroke-opacity:1" />
  <path
     id="path51"
     d="m 267.69173,486.17097 0,-35.30449 6.22316,0 0,19.36361 0.0957,0 2.65681,-12.30272 6.36677,0 -3.08764,12.20697 3.08764,16.03663 -6.55825,0 -2.46533,-14.792 -0.0957,0 0,14.792 -6.22316,0 z"
     style="font-style:normal;font-variant:normal;font-weight:normal;font-stretch:condensed;font-size:50px;line-height:125%;font-family:'Swiss911 XCm BT';-inkscape-font-specification:'Swiss911 XCm BT Condensed';letter-spacing:0px;word-spacing:0px;fill:#000000;fill-opacity:1;stroke:none;stroke-width:1px;stroke-linecap:butt;stroke-linejoin:miter;stroke-opacity:1" />
  <path
     id="path53"
     d="m 284.25491,486.17097 0,-7.20447 6.48645,0 0,7.20447 -6.48645,0 z"
     style="font-style:normal;font-variant:normal;font-weight:normal;font-stretch:condensed;font-size:50px;line-height:125%;font-family:'Swiss911 XCm BT';-inkscape-font-specification:'Swiss911 XCm BT Condensed';letter-spacing:0px;word-spacing:0px;fill:#000000;fill-opacity:1;stroke:none;stroke-width:1px;stroke-linecap:butt;stroke-linejoin:miter;stroke-opacity:1" />
  <path
     id="path55"
     d="m 293.25456,486.17097 0,-28.2436 6.12742,0 0,2.36959 0.0958,0 q 0.78986,-1.48398 1.89088,-2.17811 1.10102,-0.71805 2.56107,-0.71805 2.0345,0 3.03978,1.2207 1.02921,1.19676 1.02921,3.59028 l 0,23.95919 -6.27103,0 0,-21.90076 q 0,-0.98134 -0.26329,-1.31644 -0.23936,-0.35903 -0.86167,-0.35903 -0.57444,0 -0.86167,0.4069 -0.26328,0.4069 -0.26328,1.26857 l 0,21.90076 -6.22317,0 z"
     style="font-style:normal;font-variant:normal;font-weight:normal;font-stretch:condensed;font-size:50px;line-height:125%;font-family:'Swiss911 XCm BT';-inkscape-font-specification:'Swiss911 XCm BT Condensed';letter-spacing:0px;word-spacing:0px;fill:#000000;fill-opacity:1;stroke:none;stroke-width:1px;stroke-linecap:butt;stroke-linejoin:miter;stroke-opacity:1" />
  <path
     id="path57"
     d="m 316.13665,463.38461 0,5.33755 2.24991,0 0,-5.33755 q 0,-0.93348 -0.26328,-1.31644 -0.26329,-0.40689 -0.86168,-0.40689 -0.59838,0 -0.86166,0.40689 -0.26329,0.38296 -0.26329,1.31644 z m 0,17.08972 q 0,0.93353 0.26329,1.34039 0.26328,0.38303 0.86166,0.38303 0.59839,0 0.86168,-0.38303 0.26328,-0.40686 0.26328,-1.34039 l 0,-5.28968 6.22316,0 0,5.24184 q 0,3.06371 -1.93875,4.76311 -1.91481,1.67548 -5.40937,1.67548 -3.94931,0 -5.6487,-1.8191 -1.69941,-1.81902 -1.69941,-6.22311 l 0,-13.52345 q 0,-4.45194 1.67546,-6.24709 1.67548,-1.79514 5.62479,-1.79514 3.4706,0 5.4333,1.62759 1.96268,1.60367 1.96268,4.45196 l 0,9.59802 -8.47307,0 0,7.53957 z"
     style="font-style:normal;font-variant:normal;font-weight:normal;font-stretch:condensed;font-size:50px;line-height:125%;font-family:'Swiss911 XCm BT';-inkscape-font-specification:'Swiss911 XCm BT Condensed';letter-spacing:0px;word-spacing:0px;fill:#000000;fill-opacity:1;stroke:none;stroke-width:1px;stroke-linecap:butt;stroke-linejoin:miter;stroke-opacity:1" />
  <path
     id="path59"
     d="m 325.68681,462.45113 0,-4.52376 1.57973,0 0,-5.24182 6.27103,0 0,5.24182 1.81908,0 0,4.52376 -1.81908,0 0,17.16154 q 0,1.31646 0.31116,1.67548 0.3351,0.3351 1.2925,0.3351 l 0.21542,0 0,4.54772 -3.92538,0 q -2.27385,0 -3.23126,-1.02921 -0.93347,-1.05313 -0.93347,-3.92537 l 0,-18.76526 -1.57973,0 z"
     style="font-style:normal;font-variant:normal;font-weight:normal;font-stretch:condensed;font-size:50px;line-height:125%;font-family:'Swiss911 XCm BT';-inkscape-font-specification:'Swiss911 XCm BT Condensed';letter-spacing:0px;word-spacing:0px;fill:#000000;fill-opacity:1;stroke:none;stroke-width:1px;stroke-linecap:butt;stroke-linejoin:miter;stroke-opacity:1" />
  <path
     id="path62"
     d="m 40.986715,86.266965 0,-42.365373 8.41563,0 0,15.71109 2.64245,0 0,-15.71109 8.473075,0 0,42.365373 -8.473075,0 0,-20.478989 -2.64245,0 0,20.478989 -8.41563,0 z"
     style="font-style:normal;font-variant:normal;font-weight:normal;font-stretch:condensed;font-size:60px;line-height:125%;font-family:'Swiss911 XCm BT';-inkscape-font-specification:'Swiss911 XCm BT Condensed';letter-spacing:0px;word-spacing:0px;fill:#000000;fill-opacity:1;stroke:none;stroke-width:1px;stroke-linecap:butt;stroke-linejoin:miter;stroke-opacity:1" />
  <path
     id="path64"
     d="m 63.160321,86.266965 0,-33.892296 7.467794,0 0,33.892296 -7.467794,0 z m 0,-35.931581 0,-6.433792 7.467794,0 0,6.433792 -7.467794,0 z"
     style="font-style:normal;font-variant:normal;font-weight:normal;font-stretch:condensed;font-size:60px;line-height:125%;font-family:'Swiss911 XCm BT';-inkscape-font-specification:'Swiss911 XCm BT Condensed';letter-spacing:0px;word-spacing:0px;fill:#000000;fill-opacity:1;stroke:none;stroke-width:1px;stroke-linecap:butt;stroke-linejoin:miter;stroke-opacity:1" />
  <path
     id="path66"
     d="m 80.508581,58.923352 0,6.405067 2.699893,0 0,-6.405067 q 0,-1.120171 -0.315939,-1.579727 -0.31595,-0.488282 -1.034005,-0.488282 -0.718056,0 -1.034003,0.488282 -0.315946,0.459556 -0.315946,1.579727 z m 0,20.507714 q 0,1.120162 0.315946,1.608444 0.315947,0.459556 1.034003,0.459556 0.718055,0 1.034005,-0.459556 0.315939,-0.488282 0.315939,-1.608444 l 0,-6.347626 7.467797,0 0,6.290176 q 0,3.676452 -2.326508,5.715737 -2.297783,2.010558 -6.491233,2.010558 -4.739178,0 -6.77846,-2.182891 -2.039283,-2.182891 -2.039283,-7.467797 l 0,-16.228088 q 0,-5.342346 2.01056,-7.496522 2.01056,-2.154166 6.749742,-2.154166 4.164725,0 6.519958,1.953108 2.355224,1.924403 2.355224,5.342347 l 0,11.51764 -10.16769,0 0,9.047524 z"
     style="font-style:normal;font-variant:normal;font-weight:normal;font-stretch:condensed;font-size:60px;line-height:125%;font-family:'Swiss911 XCm BT';-inkscape-font-specification:'Swiss911 XCm BT Condensed';letter-spacing:0px;word-spacing:0px;fill:#000000;fill-opacity:1;stroke:none;stroke-width:1px;stroke-linecap:butt;stroke-linejoin:miter;stroke-opacity:1" />
  <path
     id="path68"
     d="m 93.146387,86.266965 0,-33.892296 7.352903,0 0,2.843505 0.11489,0 q 0.94784,-1.780785 2.26906,-2.613732 1.32123,-0.861663 3.07329,-0.861663 2.44139,0 3.64773,1.464836 1.23506,1.436111 1.23506,4.308342 l 0,13.097368 -7.52524,0 0,-10.627252 q 0,-1.177612 -0.31594,-1.579728 -0.28723,-0.430831 -1.03401,-0.430831 -0.68933,0 -1.03401,0.488282 -0.31594,0.488272 -0.31594,1.522277 l 0,26.280892 -7.467793,0 z"
     style="font-style:normal;font-variant:normal;font-weight:normal;font-stretch:condensed;font-size:60px;line-height:125%;font-family:'Swiss911 XCm BT';-inkscape-font-specification:'Swiss911 XCm BT Condensed';letter-spacing:0px;word-spacing:0px;fill:#000000;fill-opacity:1;stroke:none;stroke-width:1px;stroke-linecap:butt;stroke-linejoin:miter;stroke-opacity:1" />
  <path
     id="path70"
     d="m 124.99941,86.266965 0,-28.521225 -1.83823,0 0,-5.371071 1.83823,0 0,-3.216897 q 0,-2.470115 1.49355,-3.848785 1.49356,-1.407395 4.16474,-1.407395 l 4.22217,0 0,5.313621 q -1.32123,0 -1.86695,0.31595 -0.54572,0.287224 -0.54572,1.034005 l 0,1.809501 2.41267,0 0,5.371071 -2.41267,0 0,28.521225 -7.46779,0 z"
     style="font-style:normal;font-variant:normal;font-weight:normal;font-stretch:condensed;font-size:60px;line-height:125%;font-family:'Swiss911 XCm BT';-inkscape-font-specification:'Swiss911 XCm BT Condensed';letter-spacing:0px;word-spacing:0px;fill:#000000;fill-opacity:1;stroke:none;stroke-width:1px;stroke-linecap:butt;stroke-linejoin:miter;stroke-opacity:1" />
  <path
     id="path72"
     d="m 136.22982,86.266965 0,-33.892296 7.3529,0 0,2.843505 0.11489,0 q 0.94784,-1.780785 2.26906,-2.613732 1.32123,-0.861663 3.07329,-0.861663 2.44139,0 3.64773,1.464836 1.23506,1.436111 1.23506,4.308342 l 0,13.097368 -7.52524,0 0,-10.627252 q 0,-1.177612 -0.31595,-1.579728 -0.28722,-0.430831 -1.034,-0.430831 -0.68933,0 -1.034,0.488282 -0.31595,0.488272 -0.31595,1.522277 l 0,26.280892 -7.46779,0 z"
     style="font-style:normal;font-variant:normal;font-weight:normal;font-stretch:condensed;font-size:60px;line-height:125%;font-family:'Swiss911 XCm BT';-inkscape-font-specification:'Swiss911 XCm BT Condensed';letter-spacing:0px;word-spacing:0px;fill:#000000;fill-opacity:1;stroke:none;stroke-width:1px;stroke-linecap:butt;stroke-linejoin:miter;stroke-opacity:1" />
  <path
     id="path74"
     d="m 164.26277,58.923352 0,6.405067 2.6999,0 0,-6.405067 q 0,-1.120171 -0.31595,-1.579727 -0.31594,-0.488282 -1.034,-0.488282 -0.71806,0 -1.034,0.488282 -0.31595,0.459556 -0.31595,1.579727 z m 0,20.507714 q 0,1.120162 0.31595,1.608444 0.31594,0.459556 1.034,0.459556 0.71806,0 1.034,-0.459556 0.31595,-0.488282 0.31595,-1.608444 l 0,-6.347626 7.46779,0 0,6.290176 q 0,3.676452 -2.3265,5.715737 -2.29779,2.010558 -6.49124,2.010558 -4.73918,0 -6.77846,-2.182891 -2.03928,-2.182891 -2.03928,-7.467797 l 0,-16.228088 q 0,-5.342346 2.01056,-7.496522 2.01056,-2.154166 6.74973,-2.154166 4.16474,0 6.51996,1.953108 2.35523,1.924403 2.35523,5.342347 l 0,11.51764 -10.16769,0 0,9.047524 z"
     style="font-style:normal;font-variant:normal;font-weight:normal;font-stretch:condensed;font-size:60px;line-height:125%;font-family:'Swiss911 XCm BT';-inkscape-font-specification:'Swiss911 XCm BT Condensed';letter-spacing:0px;word-spacing:0px;fill:#000000;fill-opacity:1;stroke:none;stroke-width:1px;stroke-linecap:butt;stroke-linejoin:miter;stroke-opacity:1" />
  <path
     id="path76"
     d="m 176.90058,86.266965 0,-33.892296 7.4678,0 0,33.892296 -7.4678,0 z m 0,-35.931581 0,-6.433792 7.4678,0 0,6.433792 -7.4678,0 z"
     style="font-style:normal;font-variant:normal;font-weight:normal;font-stretch:condensed;font-size:60px;line-height:125%;font-family:'Swiss911 XCm BT';-inkscape-font-specification:'Swiss911 XCm BT Condensed';letter-spacing:0px;word-spacing:0px;fill:#000000;fill-opacity:1;stroke:none;stroke-width:1px;stroke-linecap:butt;stroke-linejoin:miter;stroke-opacity:1" />
  <path
     id="path78"
     d="m 194.24884,58.923352 0,6.405067 2.6999,0 0,-6.405067 q 0,-1.120171 -0.31595,-1.579727 -0.31594,-0.488282 -1.03401,-0.488282 -0.71805,0 -1.03399,0.488282 -0.31595,0.459556 -0.31595,1.579727 z m 0,20.507714 q 0,1.120162 0.31595,1.608444 0.31594,0.459556 1.03399,0.459556 0.71807,0 1.03401,-0.459556 0.31595,-0.488282 0.31595,-1.608444 l 0,-6.347626 7.46779,0 0,6.290176 q 0,3.676452 -2.3265,5.715737 -2.29779,2.010558 -6.49125,2.010558 -4.73917,0 -6.77845,-2.182891 -2.03929,-2.182891 -2.03929,-7.467797 l 0,-16.228088 q 0,-5.342346 2.01056,-7.496522 2.01057,-2.154166 6.74974,-2.154166 4.16474,0 6.51996,1.953108 2.35523,1.924403 2.35523,5.342347 l 0,11.51764 -10.16769,0 0,9.047524 z"
     style="font-style:normal;font-variant:normal;font-weight:normal;font-stretch:condensed;font-size:60px;line-height:125%;font-family:'Swiss911 XCm BT';-inkscape-font-specification:'Swiss911 XCm BT Condensed';letter-spacing:0px;word-spacing:0px;fill:#000000;fill-opacity:1;stroke:none;stroke-width:1px;stroke-linecap:butt;stroke-linejoin:miter;stroke-opacity:1" />
  <path
     id="path80"
     d="m 224.3498,79.258724 q 0,3.791344 -2.26907,5.830629 -2.26905,2.010558 -6.54867,2.010558 -4.19346,0 -6.54868,-2.039284 -2.32651,-2.039274 -2.32651,-5.687011 l 0,-6.290176 7.52523,0 0,6.347626 q 0,1.120162 0.31595,1.608444 0.31594,0.459556 1.03401,0.459556 0.71805,0 1.03399,-0.459556 0.31595,-0.488282 0.31595,-1.608444 l 0,-3.044563 q 0,-2.06801 -3.7339,-5.055123 -0.80422,-0.631889 -1.26378,-1.005279 l -0.0574,-0.05745 q -5.17001,-4.279616 -5.17001,-8.587958 l 0,-3.015838 q 0,-3.360513 2.32651,-5.227465 2.32649,-1.866942 6.49123,-1.866942 4.22217,0 6.54868,1.953108 2.32651,1.953118 2.32651,5.514679 l 0,5.170014 -7.4678,0 0,-5.284896 q 0,-1.120171 -0.31595,-1.579727 -0.31594,-0.488282 -1.03399,-0.488282 -0.71807,0 -1.03401,0.488282 -0.31594,0.459556 -0.31594,1.579727 l 0,1.809501 q 0,2.297783 3.59028,5.055123 0.83295,0.631889 1.29251,1.005279 3.53284,2.843506 4.3945,4.451959 0.8904,1.579718 0.8904,4.136009 l 0,3.877501 z"
     style="font-style:normal;font-variant:normal;font-weight:normal;font-stretch:condensed;font-size:60px;line-height:125%;font-family:'Swiss911 XCm BT';-inkscape-font-specification:'Swiss911 XCm BT Condensed';letter-spacing:0px;word-spacing:0px;fill:#000000;fill-opacity:1;stroke:none;stroke-width:1px;stroke-linecap:butt;stroke-linejoin:miter;stroke-opacity:1" />
  <path
     id="path82"
     d="m 241.32467,86.266965 -4.22218,-42.365373 8.5018,0 1.00527,16.170647 q 0.14362,2.12545 0.22979,4.681732 0.11489,2.527566 0.2585,7.32419 l 0.28722,0 q 0.20106,-2.843506 0.40212,-5.313631 0.22977,-2.498831 0.43083,-4.19345 l 2.21161,-18.669488 8.96135,0 1.75206,19.990717 q 0.0287,0.488272 0.2585,3.303062 0.22979,2.786055 0.40212,4.88279 l 0.28722,0 q 0.11489,-3.50412 0.2585,-6.491243 0.17233,-2.987113 0.37339,-5.773178 l 1.32123,-15.912148 7.09441,0 -4.56685,42.365373 -9.76558,0 -2.12544,-22.719331 q -0.1149,-1.206328 -0.22979,-2.786055 -0.0862,-1.608453 -0.17233,-4.13601 l -0.31595,0 -2.98711,29.641396 -9.65069,0 z"
     style="font-style:normal;font-variant:normal;font-weight:normal;font-stretch:condensed;font-size:60px;line-height:125%;font-family:'Swiss911 XCm BT';-inkscape-font-specification:'Swiss911 XCm BT Condensed';letter-spacing:0px;word-spacing:0px;fill:#000000;fill-opacity:1;stroke:none;stroke-width:1px;stroke-linecap:butt;stroke-linejoin:miter;stroke-opacity:1" />
  <path
     id="path84"
     d="m 273.40746,86.266965 0,-42.365373 8.47308,0 0,35.960306 7.29546,0 0,6.405067 -15.76854,0 z"
     style="font-style:normal;font-variant:normal;font-weight:normal;font-stretch:condensed;font-size:60px;line-height:125%;font-family:'Swiss911 XCm BT';-inkscape-font-specification:'Swiss911 XCm BT Condensed';letter-spacing:0px;word-spacing:0px;fill:#000000;fill-opacity:1;stroke:none;stroke-width:1px;stroke-linecap:butt;stroke-linejoin:miter;stroke-opacity:1" />
  <path
     id="path86"
     d="m 291.58867,86.266965 6.77846,-42.365373 10.8283,0 4.99768,42.365373 -8.7603,0 -0.83295,-11.287857 -4.19345,0 -1.09144,11.287857 -7.7263,0 z m 9.47836,-17.520592 3.13073,0 -0.94784,-12.925035 q -0.0862,-1.091446 -0.14361,-3.934951 -0.0287,-1.235053 -0.0287,-1.924393 l -0.31594,0 q -0.11489,2.4414 -0.20105,3.906236 -0.0862,1.436111 -0.14362,1.895667 l -1.34994,12.982476 z"
     style="font-style:normal;font-variant:normal;font-weight:normal;font-stretch:condensed;font-size:60px;line-height:125%;font-family:'Swiss911 XCm BT';-inkscape-font-specification:'Swiss911 XCm BT Condensed';letter-spacing:0px;word-spacing:0px;fill:#000000;fill-opacity:1;stroke:none;stroke-width:1px;stroke-linecap:butt;stroke-linejoin:miter;stroke-opacity:1" />
  <path
     id="path88"
     d="m 315.859,86.266965 0,-42.365373 11.60381,0 2.98711,17.951432 q 0.40212,2.412675 0.68934,5.399788 0.28723,2.987123 0.48827,6.835908 l 0.34468,0 q -0.20106,-4.480684 -0.31595,-7.812462 -0.0862,-3.360513 -0.0862,-4.825349 l -0.0575,-17.549317 6.63484,0 0,42.365373 -9.9379,0 -4.33707,-23.006545 q -0.2585,-1.349955 -0.66061,-4.078569 -0.37339,-2.728614 -0.77551,-5.974236 l -0.22977,0 q 0.17233,2.642448 0.2585,4.624292 0.11489,1.981833 0.11489,3.245611 l 0,25.189447 -6.72102,0 z"
     style="font-style:normal;font-variant:normal;font-weight:normal;font-stretch:condensed;font-size:60px;line-height:125%;font-family:'Swiss911 XCm BT';-inkscape-font-specification:'Swiss911 XCm BT Condensed';letter-spacing:0px;word-spacing:0px;fill:#000000;fill-opacity:1;stroke:none;stroke-width:1px;stroke-linecap:butt;stroke-linejoin:miter;stroke-opacity:1" />
  <path
     d="m 27.398979,8.6864476 c -11.157727,0 -20.2070861,9.1255834 -20.2070861,20.3315584 l 0,473.460044 c 0,11.20602 9.0493591,20.33157 20.2070861,20.33157 l 324.335901,0 c 11.15772,0 20.20709,-9.12555 20.20709,-20.33157 l 0,-473.460044 c 0,-11.205975 -9.04937,-20.3315584 -20.20709,-20.3315584 l -324.335901,0 z m 0,5.5166004 324.335901,0 c 8.17515,0 14.69048,6.549145 14.69048,14.814958 l 0,473.460044 c 0,8.26584 -6.51533,14.81502 -14.69048,14.81502 l -324.335901,0 c -8.175161,0 -14.688578,-6.54918 -14.688578,-14.81502 l 0,-473.460044 c 0,-8.265813 6.513417,-14.814958 14.688578,-14.814958 z"
     style="color:#000000;font-style:normal;font-variant:normal;font-weight:normal;font-stretch:normal;font-size:medium;line-height:normal;font-family:sans-serif;text-indent:0;text-align:start;text-decoration:none;text-decoration-line:none;text-decoration-style:solid;text-decoration-color:#000000;letter-spacing:normal;word-spacing:normal;text-transform:none;direction:ltr;block-progression:tb;writing-mode:lr-tb;baseline-shift:baseline;text-anchor:start;white-space:normal;clip-rule:nonzero;display:inline;overflow:visible;visibility:visible;opacity:1;isolation:auto;mix-blend-mode:normal;color-interpolation:sRGB;color-interpolation-filters:linearRGB;solid-color:#000000;solid-opacity:1;fill:#000000;fill-opacity:1;fill-rule:nonzero;stroke:none;stroke-width:5.62793875;stroke-linecap:butt;stroke-linejoin:round;stroke-miterlimit:4;stroke-dasharray:none;stroke-dashoffset:0;stroke-opacity:1;color-rendering:auto;image-rendering:auto;shape-rendering:auto;text-rendering:auto;enable-background:accumulate"
     id="path90" />
</svg>
