<?xml version="1.0" encoding="UTF-8" standalone="no"?>
<svg
   xmlns:dc="http://purl.org/dc/elements/1.1/"
   xmlns:cc="http://creativecommons.org/ns#"
   xmlns:rdf="http://www.w3.org/1999/02/22-rdf-syntax-ns#"
   xmlns:svg="http://www.w3.org/2000/svg"
   xmlns="http://www.w3.org/2000/svg"
   id="svg2"
   viewport-fill="#ffffff"
   viewBox="0 0 147.40158 147.40158"
   height="52mm"
   width="52mm"
   version="1.2">
  <metadata
     id="metadata62">
    <rdf:RDF>
      <cc:Work
         rdf:about="">
        <dc:format>image/svg+xml</dc:format>
        <dc:type
           rdf:resource="http://purl.org/dc/dcmitype/StillImage" />
        <dc:title></dc:title>
      </cc:Work>
    </rdf:RDF>
  </metadata>
  <defs
     id="defs60" />
  <path
     id="path4"
     d="m 17.800742,61.856786 c -2.355077,4.165961 -3.707977,8.995431 -3.707977,14.152538 0,15.681041 12.45667,28.376516 27.824119,28.376516 9.051261,0 17.090056,-4.406063 22.171675,-11.230296 -3.852394,-3.470291 -7.075713,-7.633561 -9.457248,-12.309658 l -0.314289,0 0,-0.398417 c 0,-0.12789 -0.01363,-0.182203 -0.02381,-0.268257 -0.04587,-0.09412 -0.09767,-0.184858 -0.142858,-0.279369 -0.139468,-0.075 -0.376335,-0.142242 -0.726992,-0.200002 -0.281272,-0.05112 -0.609365,-0.122459 -0.726993,-0.163493 l -0.21905,-0.08254 0.0048,-2.1778 c 0.0015,-0.685138 0.0081,-0.995657 0.01587,-1.347635 -0.587691,-1.637354 -1.069051,-3.32429 -1.455571,-5.047675 7.3e-5,0.07648 0.0016,0.07407 0.0016,0.158731 l 0,1.677797 -2.122246,0 -2.127007,0 0.01587,-1.728591 0.01428,-1.723828 0.139684,-0.234923 c 0.245492,-0.419352 0.721232,-0.777293 1.242871,-0.946043 0.158525,-0.05112 0.44058,-0.07294 0.730166,-0.06825 0.289587,0.0036 0.585123,0.03597 0.766675,0.08889 0.363134,0.113416 0.665824,0.311788 0.901598,0.561911 -0.08443,-0.499216 -0.160035,-1.001424 -0.226986,-1.506366 l -1.333348,-0.01111 -2.301613,-0.01111 0.01587,-1.295252 0.01428,-1.287316 0.142859,-0.296829 c 0.255714,-0.521642 0.814361,-0.967401 1.412713,-1.141282 0.363101,-0.107375 1.23727,-0.06542 1.595256,0.07778 0.04056,0.01575 0.07424,0.03544 0.1127,0.05238 -0.0179,-0.443375 -0.02906,-0.888201 -0.03334,-1.334935 -19.353625,-0.0074 -29.776316,-0.02373 -32.203533,-0.05556 z m 36.594059,0.115875 c 0.0047,0.383827 0.01281,0.766657 0.02858,1.147631 0.05832,-0.004 0.114959,-0.01237 0.174605,-0.0127 0.23966,-0.0051 0.551205,0.02574 0.688896,0.06666 0.637444,0.16828 1.16149,0.582933 1.431762,1.128584 l 0.14762,0.304766 0.01587,1.285728 0.01587,1.290491 -2.096849,0 c 0.04317,0.292117 0.09794,0.57996 0.147622,0.869851 0.156526,0.01302 0.3369,0.02132 0.414289,0.03968 0.336563,0.09682 0.775054,0.342937 0.984139,0.557149 0.102012,0.101871 0.229636,0.310684 0.285717,0.458735 0.101977,0.254851 0.106351,0.371885 0.106351,1.94764 l 0,1.682559 -0.690485,0 c 0.548021,1.798391 1.223981,3.539719 2.017483,5.212756 l 0,-0.322225 c 0,-2.651783 0.0045,-2.723916 0.10635,-2.938128 0.18869,-0.387567 0.735313,-0.763651 1.280967,-0.880963 0.09305,-0.018 0.210826,-0.03132 0.341274,-0.03493 l 0,-0.0016 c 0.391316,-0.0108 0.892309,0.04192 1.152394,0.141272 0.407963,0.147943 0.714272,0.367584 0.882549,0.617467 l 0.13651,0.214288 0.01587,2.071452 c 0.01548,1.999032 0.01,2.084939 -0.09207,2.360344 -0.127497,0.336562 -0.417371,0.626815 -0.682547,0.677785 -0.158094,0.02519 -0.184129,0.05222 -0.184129,0.174605 0,0.270329 -0.05052,0.279763 -1.565097,0.295241 l -0.150794,0.0031 c 1.911281,3.390016 4.332792,6.441919 7.142935,9.07629 1.165764,-2.216325 2.046362,-4.610016 2.603204,-7.130236 -0.843254,-0.970201 -1.632315,-1.99069 -2.353994,-3.06194 l -1.112711,0 -2.014308,0 0,-2.141293 c 0,-2.060225 0.0056,-2.152517 0.107937,-2.366693 0.07176,-0.154245 0.182568,-0.289081 0.31429,-0.409528 -0.987708,-2.245045 -1.722111,-4.627928 -2.169865,-7.114364 l -1.668273,0 -2.295264,0 0,-1.223825 c 0,-1.381982 0.02667,-1.514314 0.393656,-1.993671 0.424543,-0.554582 1.17294,-0.873912 1.938116,-0.869851 0.25507,9.75e-4 0.511407,0.03939 0.758738,0.115874 0.143546,0.04486 0.284279,0.113012 0.42064,0.190478 -0.02788,-0.472958 -0.04375,-0.948648 -0.05079,-1.426999 -1.795666,-5.75e-4 -5.171812,-9.76e-4 -6.92706,-0.0016 z m 7.735006,0.0016 c 0.01157,0.768692 0.0496,1.530271 0.115874,2.284152 0.05663,0.100654 0.115858,0.201751 0.144446,0.303177 0.04079,0.132576 0.06191,0.647452 0.06191,1.417477 l 0,0.07778 c 0.244404,1.665063 0.623769,3.28348 1.120649,4.84926 l 0,-1.463508 0.153969,-0.301591 c 0.183579,-0.367158 0.433222,-0.616792 0.866676,-0.866676 0.300854,-0.1735 0.377217,-0.193215 0.841279,-0.223812 0.140241,-0.0108 0.276105,-0.01544 0.382545,-0.01905 0.106476,-0.002 0.182803,2.92e-4 0.203177,0.0079 0.04079,0.0108 0.164344,0.032 0.271432,0.04603 0.107087,0.0144 0.203751,0.05092 0.219049,0.07143 0.01512,0.02519 0.0608,0.04603 0.101588,0.04603 0.09691,0 0.438915,0.2339 0.714294,0.488895 0.142796,0.132464 0.250846,0.296331 0.322226,0.495244 0.101977,0.275367 0.106351,0.392381 0.106351,1.922243 l 0,1.631765 -2.0905,0 -1.442873,0 c 0.152547,0.392493 0.313103,0.780764 0.480958,1.165091 0.22132,-0.07341 0.455104,-0.129513 0.709532,-0.142858 0.264209,-0.01439 0.540801,0.0071 0.817469,0.06508 0.423255,0.09179 0.801263,0.281052 1.046043,0.52064 0.362072,0.362047 0.351809,0.310902 0.336512,2.712729 l -0.01111,2.041292 c 0.517868,0.747188 1.077269,1.461351 1.657162,2.157168 0.123613,-0.674079 0.225573,-1.356042 0.30159,-2.046056 l -0.382544,0 0.01587,-2.104784 0.01587,-2.101612 0.152383,-0.276193 c 0.07572,-0.13898 0.201478,-0.283316 0.328575,-0.398417 -0.03058,-0.535144 -0.07886,-1.065335 -0.138096,-1.592081 l -0.374607,0 0.01587,-1.673035 c 0.003,-0.34137 0.008,-0.394583 0.01111,-0.612705 -0.299576,-1.540313 -0.720814,-3.035262 -1.253983,-4.474653 l 0.01428,1.201601 -2.276216,0 -2.273041,0 0.01587,-1.288904 0.01428,-1.285728 0.142858,-0.296828 c 0.188691,-0.377367 0.540662,-0.73254 0.933344,-0.936519 0.325099,-0.172106 0.511703,-0.239583 0.860327,-0.255558 0.116208,-0.0054 0.251103,-0.0039 0.414291,0 0.53036,0.01512 0.586813,0.02456 0.953978,0.203176 0.02825,0.01337 0.05199,0.03032 0.07937,0.04444 -0.230728,-0.472097 -0.474846,-0.935415 -0.730166,-1.392078 -1.144828,-2.94e-4 -2.935323,3.28e-4 -3.969886,0 z m 4.892117,0.0016 c 0.747526,1.385794 1.384691,2.841348 1.906371,4.352429 l 0,-0.369846 c 0,-1.076028 0.01016,-1.253413 0.09682,-1.477794 0.316189,-0.831235 1.161854,-1.372692 2.146056,-1.377793 0.239696,0 0.551198,0.03078 0.688897,0.07143 0.647641,0.16828 1.162732,0.586671 1.438111,1.147632 l 0.142859,0.285718 0.01587,1.285728 0.01428,1.288903 -2.274628,0 -1.985736,0 c 0.157956,0.507488 0.305473,1.019055 0.436512,1.538113 0.258483,-0.276162 0.598953,-0.504227 0.963503,-0.614293 0.127498,-0.03599 0.253883,-0.07723 0.279368,-0.08731 0.03456,-0.0144 0.112157,-0.0179 0.211114,-0.01428 0.296893,0.0072 0.79615,0.06696 0.968265,0.131747 0.458957,0.178539 0.973326,0.678011 1.13652,1.106361 0.101977,0.27033 0.107938,0.382597 0.107938,1.892085 l 0,1.606367 -2.071452,0 -0.877787,0 c 0.04041,0.369038 0.07165,0.741249 0.09841,1.114298 0.221014,-0.05465 0.488981,-0.08407 0.758739,-0.07778 0.277673,0.0072 0.550945,0.04591 0.755563,0.122225 0.433477,0.168461 0.785353,0.46437 0.958742,0.811119 l 0.14762,0.296828 0.01587,2.101612 0.01428,2.104785 -1.968276,0 -0.771437,0 c -0.10309,0.960682 -0.250467,1.907703 -0.442863,2.838126 5.499381,6.160995 13.429362,10.033443 22.255803,10.033443 10.113744,0 19.053314,-5.080843 24.503434,-12.868395 l -1.23016,0 -1.96669,0 0.0143,-2.157167 c 0.0152,-1.942914 0.0266,-2.167991 0.10794,-2.315899 0.2091,-0.382456 0.65618,-0.69747 1.22224,-0.855564 0.18613,-0.05364 0.46084,-0.07205 0.73493,-0.05874 0.27411,0.01439 0.54878,0.05853 0.73493,0.130162 0.57114,0.219213 0.9494,0.561211 1.06668,0.979375 0.0306,0.09682 0.0508,1.039134 0.0508,2.222247 l 0,0.957154 c 0.55738,-0.874379 1.07071,-1.779757 1.53969,-2.712729 0.008,-0.39946 0.0301,-0.585616 0.1127,-0.719056 0.11011,-0.175415 0.26775,-0.317949 0.44286,-0.44445 0.22282,-0.493971 0.43128,-0.995456 0.62857,-1.503191 l -1.40318,0 0.0143,-1.747638 c 0.0151,-1.96336 0.009,-1.928906 0.41269,-2.331772 0.37482,-0.367159 0.95327,-0.581508 1.57621,-0.601594 l 0,-0.0016 c 0.20765,-0.0072 0.42171,0.0084 0.63334,0.04761 0.0512,0.0093 0.10006,0.0312 0.1508,0.04445 0.0697,-0.319823 0.13389,-0.641576 0.19366,-0.96509 l -0.86034,0 -2.1778,0 0.0206,-1.265093 c 0.0151,-1.244285 0.0165,-1.264895 0.15397,-1.555573 0.33966,-0.722305 1.06136,-1.186746 1.84128,-1.246045 0.11141,-0.0086 0.22368,-0.0086 0.33652,0 0.12894,0.0098 0.2576,0.03037 0.38572,0.06349 0.27453,0.07305 0.5268,0.205196 0.75239,0.369845 0.0339,-0.519943 0.0538,-1.043106 0.062,-1.56986 l -4.89688,0 0,0.02063 -17.10972,0 2.12384,2.198437 c 0.38303,-0.626961 1.10363,-1.035521 1.87145,-1.088901 0.11961,-0.0083 0.24139,-0.0075 0.3619,0.0016 0.13776,0.01044 0.27376,0.03299 0.40954,0.06825 0.71394,0.18869 1.24969,0.605621 1.53016,1.192077 l 0.15709,0.336439 0.0159,1.234934 0.0158,1.239697 -1.47779,0 2.60003,2.692094 c 0.0191,-0.87779 0.0946,-0.958842 0.39206,-1.225412 0.42455,-0.382491 1.04456,-0.593016 1.70002,-0.596831 0.2185,-0.0015 0.44136,0.02204 0.66191,0.06666 0.62725,0.132464 1.19264,0.514255 1.37621,0.922232 0.0867,0.18358 0.0968,0.371884 0.0968,1.947641 l 0,1.749225 -2.11589,0 -2.11748,0 0,-1.749225 c 0,-0.350279 0.002,-0.5762 0.005,-0.815883 l -1.14605,0 0.009,0.99525 0.0158,1.569858 -2.32543,0 -2.32541,0 0.0158,-1.569858 0.009,-0.99525 -2.01748,0 c 0.002,0.251816 0.008,0.367774 0.008,0.83493 l 0,1.72859 -1.274611,0 -1.274618,0 0,-1.723827 c 0,-0.486186 0.0049,-0.642134 0.0081,-0.898424 l -1.920655,-1.988911 c 0.01447,0.477988 0.02934,0.866728 0.03649,1.861926 l 0.01585,2.728602 -4.78418,0.01428 -4.784181,0.01111 0.01587,-2.841301 c 0.02052,-2.758869 0.0194,-2.856251 0.131748,-3.254004 0.142796,-0.504878 0.455373,-1.166654 0.74604,-1.574621 0.652756,-0.912834 1.774144,-1.65308 2.860349,-1.882561 0.224067,-0.04955 0.566457,-0.07356 0.915884,-0.07778 l -1.094602,-1.133276 c -8.517806,-8.94e-4 -15.991739,-0.0015 -22.66057,-0.0031 z m 56.029186,0.0048 c -0.0125,0.841709 -0.0536,1.675568 -0.13015,2.500027 0.0834,0.205419 0.0902,0.385809 0.10317,1.438112 l 0.0206,1.265093 -0.49683,0 c -0.079,0.438899 -0.16668,0.874034 -0.26349,1.306364 0.23331,0.163535 0.42617,0.359512 0.53175,0.568261 0.0816,0.16846 0.091,0.367786 0.10635,1.933354 l 0.0143,1.747638 -1.92226,0 c -0.14025,0.371488 -0.28291,0.74182 -0.4365,1.106363 0.0752,-0.0093 0.14685,-0.02876 0.22381,-0.03175 0.24373,-0.0108 0.49425,0.01347 0.74286,0.07143 0.55075,0.132465 0.96443,0.403841 1.21431,0.801596 0.11727,0.188618 0.12292,0.228924 0.11269,0.942867 l -0.0143,0.744454 -0.1746,-0.147622 c -0.0969,-0.07631 -0.30065,-0.198212 -0.45875,-0.269844 -0.25495,-0.106907 -0.38312,-0.122341 -1.11747,-0.142857 l -0.83175,-0.0254 -0.19841,0.138097 c -0.10709,0.07667 -0.33138,0.163056 -0.50477,0.193653 -0.0319,0.0062 -0.0482,0.0118 -0.0746,0.01745 -0.14621,0.281366 -0.29807,0.558703 -0.45239,0.83493 -0.0124,0.03367 -0.0238,0.06347 -0.0333,0.06032 l 0,0.0016 c -5.31705,9.469055 -15.33445,15.860491 -26.824108,15.860491 -8.862207,0 -16.841118,-3.810429 -22.471678,-9.893758 -0.594872,2.46317 -1.491968,4.804818 -2.657172,6.977855 6.647237,5.962113 15.397152,9.582643 24.997103,9.582643 16.950835,0 31.270265,-11.27216 36.008325,-26.825692 l -1.70002,-0.0079 -1.97779,-0.01428 0,-1.760337 0,-1.758749 0.1381,-0.239686 c 0.23458,-0.39779 0.67714,-0.698519 1.2381,-0.841279 0.088,-0.0216 0.19843,-0.03638 0.31905,-0.04285 0.0905,-0.0036 0.18741,-0.0068 0.28572,-0.0031 l 0,-0.0016 c 0.29496,0.0072 0.60427,0.0506 0.80794,0.122224 l 0,0.0016 c 0.54055,0.188619 0.93909,0.54534 1.09208,0.963503 0.051,0.147943 0.0662,0.605407 0.0714,1.890497 l 0,0.712706 c 0.85888,-3.115347 1.33614,-6.39059 1.37779,-9.776299 l -6.66516,0 z M 37.875569,63.0536 c 0.216623,-0.0065 0.437892,0.01644 0.655563,0.07301 0.792691,0.204565 1.359475,0.71525 1.579383,1.415889 0.07671,0.260826 0.09206,0.480726 0.09206,1.452396 l 0,1.146046 -2.250819,0 -2.24923,0 0,-1.146046 c 0,-0.97167 0.01535,-1.191577 0.09207,-1.452396 0.274244,-0.872599 1.142266,-1.460552 2.080975,-1.488905 z m -10.90647,0.0016 c 0.135316,0.0058 0.271778,0.02272 0.407941,0.05079 0.70575,0.148303 1.304098,0.602898 1.590494,1.206363 0.163652,0.347755 0.162434,0.347217 0.17778,1.298427 l 0.02063,0.952391 -0.296828,-0.09682 c -0.603468,-0.204454 -1.456695,-0.210105 -2.039706,-0.01428 -0.424473,0.143264 -0.906044,0.419625 -1.233347,0.71112 l -0.306352,0.276193 -0.373021,-0.107937 -0.368257,-0.107938 0.01428,-1.282554 0.01587,-1.27938 0.163493,-0.347622 c 0.38486,-0.811362 1.279806,-1.299924 2.227009,-1.258744 z m -5.485776,0.0079 c 0.258365,0.0098 0.509356,0.05436 0.72223,0.134923 0.414245,0.158526 0.808675,0.449245 1.028584,0.771437 0.317078,0.450046 0.347622,0.624487 0.347622,2.020657 l 0,1.238109 -0.342861,0.06191 -0.347622,0.06508 -0.306353,-0.17778 c -0.61881,-0.368263 -1.391983,-0.528231 -2.10796,-0.441301 -0.209679,0.0324 -0.3993,0.0416 -0.409528,0.0254 -0.01534,-0.0108 0.0058,-0.07055 0.03651,-0.131748 0.04091,-0.07163 0.04621,-0.226101 0.02063,-0.446036 -0.04603,-0.444909 -0.296507,-0.889798 -0.577785,-1.038107 -0.240362,-0.122746 -0.388887,-0.392625 -0.342861,-0.638102 0.07671,-0.409133 0.546625,-0.942012 1.068267,-1.20795 0.329221,-0.1726 0.780518,-0.252673 1.211123,-0.23651 z m 10.709644,0.0048 c 0.359106,-0.01152 0.814852,0.03812 1.060329,0.13016 0.61881,0.235233 1.109384,0.711348 1.319062,1.28414 0.09717,0.260827 0.10635,0.409098 0.10635,1.360333 0,0.981896 -0.0043,1.057672 -0.08096,0.980965 -0.05626,-0.05616 -0.09224,-0.208724 -0.112701,-0.449212 l -0.0254,-0.363595 -0.271431,-0.174605 C 34.039905,65.738896 33.830878,65.63783 33.71837,65.612273 33.529145,65.561163 33.411261,65.48329 32.961218,65.120204 32.787336,64.982124 32.7319,64.968208 32.37391,64.963059 c -0.214796,-0.0051 -0.506723,-0.04606 -0.63969,-0.09206 -0.301735,-0.09715 -0.40499,-0.103149 -0.839691,-0.05714 -0.301736,0.03564 -0.353288,0.06211 -0.547626,0.26667 l -0.21905,0.21905 0,-0.223812 c 0,-0.322199 0.172866,-0.834257 0.382544,-1.120647 0.291506,-0.393796 0.85527,-0.746581 1.366683,-0.853978 0.08694,-0.018 0.196171,-0.02937 0.315876,-0.03334 z m 10.919168,0 c 0.138721,-0.0085 0.293241,-0.0076 0.447625,0 0.308765,0.01548 0.616252,0.0611 0.795246,0.13016 0.475614,0.184083 0.839364,0.45913 1.074616,0.822231 0.112523,0.179007 0.230314,0.410771 0.250796,0.507942 0.02556,0.102264 0.04603,0.730428 0.04603,1.395254 l 0,1.217474 -2.276216,0 -2.280978,0 0.01587,-1.293665 0.01428,-1.288904 0.142859,-0.296828 c 0.265934,-0.536987 0.788436,-0.962293 1.417476,-1.141282 0.09078,-0.02685 0.213664,-0.0438 0.352384,-0.05238 z m 33.660692,0.03651 c 0.282387,9.75e-4 0.56773,0.03546 0.779374,0.101588 0.601739,0.183579 1.105359,0.600828 1.360332,1.115886 0.112199,0.234585 0.13731,0.382014 0.173017,0.91747 0.02556,0.351861 0.03164,0.933517 0.01111,1.290491 l -0.03016,0.652388 -2.295263,0 -2.288914,0 0.01428,-1.290491 c 0.01512,-1.285098 0.01445,-1.284281 0.152383,-1.569858 0.254958,-0.515058 0.755401,-0.928444 1.357158,-1.122235 0.203988,-0.06375 0.484283,-0.09588 0.766675,-0.09524 z m 49.668803,0.0031 c 0.12029,0.0065 0.24143,0.02261 0.36191,0.05079 0.62215,0.142796 1.1522,0.567529 1.44287,1.153982 l 0.16826,0.341273 0.0143,1.263506 0.0206,1.265093 -2.127,0 -2.12543,0 0.0206,-1.265093 0.0143,-1.263506 0.16825,-0.341273 c 0.38821,-0.785335 1.19922,-1.251069 2.0413,-1.204776 z m -11.01918,0.0031 0.002,0 c 0.20655,-9.75e-4 0.41225,0.02143 0.59843,0.06984 0.63235,0.163206 1.23913,0.677153 1.4635,1.238109 0.10709,0.270257 0.11807,0.378001 0.13334,1.525413 l 0.0143,1.239697 -2.19844,0 -2.19685,0 0.0159,-1.239697 c 0.0151,-1.147412 0.0247,-1.255145 0.13175,-1.525413 0.21928,-0.550759 0.83126,-1.070167 1.43811,-1.233347 0.18613,-0.04842 0.39189,-0.07331 0.59842,-0.07461 z m -5.67942,0.01111 c 0.35809,-0.01152 0.81237,0.03679 1.05715,0.128573 0.64256,0.244771 1.13865,0.738958 1.32224,1.325412 0.0867,0.280479 0.1,0.470669 0.1,1.465095 l 0,1.141283 -2.26828,0 -2.26986,0 0,-1.141283 c 0,-1.295301 0.0562,-1.586182 0.38254,-2.034943 0.29067,-0.392668 0.85196,-0.745291 1.36192,-0.85239 0.0867,-0.018 0.19492,-0.02778 0.31429,-0.03175 z m -27.476491,1.055568 c 0.18995,-0.0047 0.381762,0.01558 0.501593,0.06666 0.26007,0.107087 0.545536,0.389378 0.673023,0.669847 0.112199,0.239697 0.122224,0.315347 0.122224,1.258745 l 0,1.009535 -1.274619,0 -1.274617,0 0,-0.958741 c 0,-0.759837 0.01582,-1.014165 0.08731,-1.20795 0.09179,-0.275368 0.397313,-0.613114 0.677784,-0.750802 0.109645,-0.05356 0.297361,-0.08284 0.487308,-0.08731 z m -38.838527,3.838137 0,0.0016 c 0.154101,0.002 0.31005,0.01769 0.466672,0.05079 0.63415,0.132824 1.206566,0.547311 1.457159,1.058741 l 0.144446,0.292067 0.0096,1.661923 c 0.0051,1.002377 -0.0043,1.621707 -0.03493,1.560335 -0.02556,-0.05616 -0.04761,-0.255532 -0.04761,-0.439688 -0.0051,-0.184298 -0.03968,-0.440054 -0.08572,-0.573022 -0.06648,-0.199418 -0.122926,-0.260891 -0.342861,-0.388893 -0.148303,-0.08711 -0.373037,-0.240356 -0.511118,-0.347623 -1.155794,-0.920522 -1.386514,-1.037757 -2.112721,-1.042868 -0.250592,0 -0.536173,-0.03379 -0.633341,-0.07301 -0.168767,-0.0612 -0.190495,-0.05477 -0.328575,0.07301 l -0.14762,0.131747 0.03016,-0.30159 c 0.09403,-0.967861 1.05781,-1.676326 2.136531,-1.663511 z m 71.905558,0.03493 c 0.18343,-0.0072 0.36943,0.01042 0.55556,0.05397 0.62216,0.142903 1.26101,0.677723 1.4905,1.253981 0.11728,0.285448 0.1212,0.357494 0.13651,1.836529 l 0.0159,1.544461 -2.12067,0 -2.12224,0 0.0158,-1.544461 c 0.0205,-1.815453 0.0358,-1.903572 0.55081,-2.449234 0.4054,-0.436018 0.92751,-0.675195 1.47779,-0.695246 z m -38.836938,0.01111 c 0.420711,-0.01439 0.966052,0.03837 1.203189,0.13016 0.448765,0.173501 0.850898,0.53299 1.065091,0.946042 l 0.182542,0.352385 0.01587,1.62224 0.01587,1.627002 -2.17304,0 -2.17304,0 0.01587,-1.622239 0.01587,-1.615891 0.142859,-0.271432 c 0.270293,-0.515029 0.881744,-1.038382 1.325412,-1.130171 0.09691,-0.0216 0.223271,-0.03269 0.363495,-0.0381 z m -16.289069,0.0016 c 0.632351,0.0144 0.642405,0.01404 1.080965,0.228574 l 0.0016,0 c 0.356972,0.173501 0.487843,0.270388 0.671437,0.500006 0.132573,0.158021 0.23616,0.300398 0.241272,0.315876 0,0.0216 0.01505,0.0823 0.03016,0.138096 0.04079,0.127427 0.04067,0.459339 0.0254,2.152406 l -0.01111,1.341284 -2.141294,0 -2.14288,0 0,-1.698431 c 0,-1.677769 -1.56e-4,-1.699345 0.122223,-1.949228 0.19888,-0.418164 0.632708,-0.764051 1.193664,-0.947629 0.23459,-0.07631 0.413528,-0.09644 0.928582,-0.08096 z m 22.097071,0.471434 c 0.183723,0.0072 0.374465,0.06099 0.571435,0.168256 0.28048,0.152982 0.549816,0.500045 0.636516,0.81112 0.0306,0.106913 0.05079,0.832744 0.05079,1.704782 l 0,1.519063 -1.274619,0 -1.274617,0 0,-1.530175 c 0,-1.759371 0.02488,-1.896935 0.417466,-2.279391 0.277312,-0.271048 0.566855,-0.40287 0.873025,-0.393655 z m -5.809588,5.227043 c 0.103019,-0.0072 0.208033,-0.0072 0.315877,0 0.12325,0.0072 0.250618,0.02047 0.379368,0.04603 0.642563,0.122386 1.167695,0.504656 1.39208,1.009534 0.158094,0.352041 0.162955,0.474925 0.14762,2.723841 l -0.0095,1.673033 -2.041293,0 -2.046055,0 0.01587,-2.106372 0.01587,-2.10161 0.136509,-0.228574 c 0.374809,-0.620785 0.972481,-0.972078 1.69367,-1.015884 z m -27.927295,0.04127 c 0.09215,-0.0025 0.200717,-8.94e-4 0.328576,0.0031 0.414244,0.0108 0.53284,0.03239 0.793659,0.158732 0.368217,0.173861 0.776041,0.572349 0.939693,0.904772 0.06137,0.138224 0.137901,0.246035 0.163493,0.246035 0.02556,0 0.04757,0.657935 0.04762,1.568271 0,0.956339 -0.02206,1.551006 -0.04762,1.525413 -0.04089,-0.04607 -0.157481,-0.716502 -0.244446,-1.422238 -0.02052,-0.16378 -0.10233,-0.271082 -0.506355,-0.669848 -0.444928,-0.444944 -0.634928,-0.720842 -0.634928,-0.925407 0,-0.04607 -0.06577,-0.169203 -0.14762,-0.271432 -0.08693,-0.102228 -0.168446,-0.260791 -0.188891,-0.342861 -0.02052,-0.08711 -0.118372,-0.250623 -0.220638,-0.368258 -0.17386,-0.204457 -0.199856,-0.215598 -0.45556,-0.220637 -0.194342,0 -0.265781,-0.02071 -0.255559,-0.06032 0.02699,-0.08063 0.152174,-0.118199 0.428576,-0.125399 z m 55.694269,0.01745 0.002,0 c 0.10759,-0.0072 0.21446,-0.0072 0.32065,0 0.1416,0.0108 0.28011,0.03233 0.4127,0.06508 0.16316,0.04068 0.38906,0.122936 0.50636,0.184128 0.32126,0.163062 0.72772,0.575347 0.86032,0.8762 0.12238,0.259891 0.1228,0.291486 0.13809,2.265105 l 0.0143,2.003197 -2.09526,0 -2.09685,0 0.0159,-2.003197 c 0.0151,-1.973546 0.0155,-2.005034 0.1381,-2.265105 0.13257,-0.300926 0.54063,-0.713029 0.86192,-0.8762 0.27825,-0.143622 0.59948,-0.22797 0.92223,-0.249208 z m 5.49053,0.0079 c 0.34758,-0.0108 0.80576,0.04076 1.04287,0.136509 0.37737,0.147942 0.72913,0.41794 0.91271,0.698421 0.29578,0.44876 0.31111,0.561588 0.31111,2.65241 l 0,1.901608 -2.0397,0 -2.04605,0 0.0158,-2.004784 0.0159,-1.998435 0.13652,-0.29048 c 0.23458,-0.499766 0.75573,-0.908932 1.35238,-1.061916 0.079,-0.018 0.18256,-0.02815 0.29843,-0.03175 l 0,-0.0016 z M 90.23488,74.27896 c 0.17908,-0.0072 0.392449,-0.008 0.698421,0.0063 0.902626,0.03599 1.100198,0.09156 1.93653,0.504767 1.050508,0.525253 1.881829,1.581122 2.228595,2.825428 0.112162,0.397795 0.112698,0.449539 0.112698,4.30481 0.0041,1.628527 -0.0073,2.805362 -0.02219,3.438134 a 4.459466,3.1756803 0 0 0 -2.822254,2.952419 4.459466,3.1756803 0 0 0 0.0031,0.06827 l -1.480968,0 a 3.1874311,2.0945976 0 0 0 0.01428,-0.203177 3.1874311,2.0945976 0 0 0 -3.18575,-2.093677 3.1874311,2.0945976 0 0 0 -0.704769,0.05394 c -0.09865,-0.04115 -0.431866,-0.289176 -0.833287,-0.620446 l -0.168256,-0.138096 0,-3.207972 c 0,-1.764447 0.02047,-3.207973 0.04603,-3.207973 0.02052,0 0.05614,-0.244906 0.07143,-0.5508 0.0306,-0.576258 0.133221,-1.003123 0.398417,-1.579382 0.0765,-0.1735 0.147271,-0.336629 0.152383,-0.357147 0.01006,-0.0216 0.05693,-0.08258 0.107937,-0.133335 0.05101,-0.05616 0.09047,-0.117938 0.09047,-0.138097 0,-0.09682 0.862528,-1.014296 0.949217,-1.014296 0.04079,0 0.06984,-0.02487 0.06984,-0.05079 0,-0.0324 0.05719,-0.07603 0.128573,-0.101588 0.06631,-0.02519 0.213202,-0.108096 0.3254,-0.179368 0.316188,-0.193657 0.914644,-0.41739 1.388905,-0.51429 0.170836,-0.0324 0.31615,-0.05291 0.495243,-0.06191 l 0,-0.0016 z m -8.066755,0.07301 c 0.192039,-0.0108 0.3819,0.01805 0.54445,0.08571 0.311076,0.132464 0.478287,0.276676 0.590483,0.511117 0.09691,0.2041 0.102511,0.310836 0.1127,1.947641 0,0.953603 0.0054,1.865774 0,2.023832 l -0.0048,0.296829 -1.198426,0 -1.198427,0 0,-2.014308 c 0,-2.197909 0.0048,-2.238021 0.29048,-2.503203 0.216731,-0.207337 0.543433,-0.330345 0.863502,-0.347622 z m 16.725579,0.03651 c 0.27537,0.0144 0.417577,0.05091 0.631758,0.168257 0.163201,0.08675 0.321598,0.230275 0.403177,0.347622 l 0.133331,0.204764 0.0143,2.053992 0.0158,2.055577 -1.280962,0 -1.274618,0 0,-1.998435 c 0,-1.932762 0.0049,-2.004547 0.106351,-2.223833 0.193765,-0.397756 0.679659,-0.633429 1.250805,-0.607944 z m -70.573797,4.112744 6.292134,0 7.550878,7.157223 -7.550878,7.157224 -6.292134,0 5.03339,-4.771486 -10.068366,0 0,-4.771479 10.068366,0 -5.03339,-4.771482 z m 48.117995,1.744464 0,0.0016 c 0.297039,-0.0144 0.637374,0.0062 0.900011,0.06666 0.617049,0.147943 1.080167,0.455874 1.284141,0.85874 0.112198,0.214176 0.108286,0.02186 0.103175,3.334957 l -0.0048,1.798436 -0.62223,0 -0.628578,-0.0061 -0.306353,-0.200008 c -0.163169,-0.112304 -0.443743,-0.253093 -0.622229,-0.314286 -0.178504,-0.06624 -0.320638,-0.131865 -0.320638,-0.152382 0,-0.0216 0.04547,-0.128017 0.101588,-0.234925 0.07138,-0.132464 0.106889,-0.321382 0.122223,-0.576196 0.01044,-0.209136 0.04555,-0.561324 0.07619,-0.785723 0.03564,-0.229294 0.05223,-0.520703 0.03175,-0.663499 -0.02052,-0.142905 -0.04216,-0.468161 -0.05238,-0.733342 -0.0306,-0.739427 -0.152135,-1.12806 -0.611118,-1.903196 -0.142759,-0.244771 -0.158023,-0.299683 -0.09682,-0.350797 0.09435,-0.07631 0.348993,-0.125647 0.646039,-0.139684 z m 27.781258,0.05714 c 0.11648,-0.0072 0.234,-0.0071 0.35238,0.0016 0.13528,0.0108 0.27249,0.03023 0.40635,0.06191 0.62726,0.147944 1.13568,0.544013 1.26827,0.982551 0.0408,0.127428 0.062,0.597044 0.062,1.265093 l 0,1.066679 -0.10792,-0.163494 c -0.0561,-0.09179 -0.16828,-0.199287 -0.23969,-0.234923 -0.0765,-0.04068 -0.36148,-0.199126 -0.63176,-0.357147 -0.55075,-0.326483 -0.70809,-0.352312 -1.06509,-0.188891 -0.12239,0.05615 -0.26525,0.103176 -0.31112,0.103176 -0.051,0 -0.19351,0.07012 -0.31587,0.161907 -0.26518,0.183579 -0.63861,0.239409 -0.99048,0.14762 l -0.2143,-0.06032 0,-0.769851 c 0,-0.433462 0.0246,-0.851303 0.0603,-0.963503 0.17569,-0.589575 0.91163,-1.001671 1.727,-1.050805 l 0,-0.0016 z m 5.89689,0.0048 0.002,0 c 0.27411,0.01441 0.54722,0.05854 0.73334,0.130161 0.37738,0.142904 0.67425,0.36181 0.84763,0.626991 l 0.14286,0.207938 0.005,1.050806 c 0.006,0.576259 -7.9e-4,0.999298 -0.0159,0.938106 -0.0408,-0.199058 -0.14233,-0.238973 -0.4381,-0.17778 -0.42837,0.08675 -0.87732,-0.0722 -1.0762,-0.37302 -0.0713,-0.112307 -0.107,-0.12266 -0.33651,-0.09207 -0.17339,0.0216 -0.32196,0.0039 -0.46985,-0.05079 -0.12239,-0.04608 -0.39217,-0.0918 -0.60636,-0.09682 -0.35693,-0.01439 -0.40315,-0.004 -0.57143,0.126985 l -0.1873,0.144447 0,-0.674611 c 0,-0.581334 0.0144,-0.708459 0.10635,-0.892074 0.17849,-0.372269 0.57749,-0.658136 1.13334,-0.811119 0.18614,-0.05363 0.45765,-0.07046 0.73177,-0.05714 z m 4.7937,0.03651 c 0.0389,0.0216 -0.0134,0.104818 -0.14603,0.260321 -0.20398,0.239733 -0.23514,0.306567 -0.25556,0.566673 -0.0407,0.479361 -0.40782,0.886874 -0.84128,0.91747 -0.1428,0.0108 -0.1434,0.0043 -0.15873,-0.290479 -0.0306,-0.566035 0.34251,-1.066265 0.99524,-1.336522 0.23715,-0.09682 0.36747,-0.138341 0.40636,-0.117463 z m -16.098584,0.530165 c 0.428362,0 0.52088,0.01408 0.780964,0.147621 0.51505,0.249811 0.49365,0.153956 0.49365,2.433361 0,1.856235 -0.005,1.982986 -0.101584,2.192088 -0.04429,0.09682 -0.07501,0.240537 -0.08889,0.365083 A 4.459466,3.1756803 0 0 0 97.536552,85.1807 l 0,-1.45081 c 0,-2.5957 -0.02633,-2.458083 0.493655,-2.707966 0.260074,-0.132465 0.352593,-0.147621 0.780963,-0.147621 z m -16.512881,0.03175 c 0.356972,0.0036 0.547029,0.03334 0.700007,0.103176 0.117276,0.05111 0.20794,0.121509 0.20794,0.157144 0,0.09682 -0.442876,0.423512 -0.682548,0.500006 -0.107088,0.03599 -0.286556,0.05126 -0.393655,0.03651 -0.178503,-0.02519 -0.21329,-0.004 -0.468259,0.239686 l -0.280955,0.26032 -0.06191,0.458736 c -0.0306,0.24981 -0.07487,0.891525 -0.09524,1.426999 -0.0306,0.652713 -0.06681,1.021811 -0.112701,1.123822 -0.0612,0.132465 -0.07201,-0.08259 -0.08731,-1.806369 -0.01006,-2.12653 -0.01395,-2.0907 0.271431,-2.27939 0.254959,-0.16846 0.503412,-0.22409 1.003186,-0.21905 l 0,-0.0016 z"
     style="fill:#000000" />
  <path
     style="fill:#dc0067"
     id="path6"
     d="m 41.916465,46.825393 c -15.812274,0 -28.631753,13.075375 -28.631753,29.184402 0,16.108989 12.819479,29.183385 28.631753,29.183385 15.812272,0 28.632731,-13.074396 28.632731,-29.183385 0,-16.109027 -12.820459,-29.184402 -28.632731,-29.184402 z m 0,0.807309 c 15.367445,0 27.825415,12.696003 27.825415,28.377093 0,15.681037 -12.45797,28.376065 -27.825415,28.376065 -15.367449,0 -27.824436,-12.695028 -27.824436,-28.376065 0,-15.68109 12.456987,-28.377093 27.824436,-28.377093 z" />
  <path
     style="fill:#dc0067"
     id="path8"
     d="m 92.186491,30.100836 c -17.051306,0 -30.876703,14.065442 -30.876703,31.39689 0,17.331916 13.825397,31.396878 30.876703,31.396878 17.050839,0 30.875719,-14.064962 30.875719,-31.396878 0,-17.331448 -13.82488,-31.39689 -30.875719,-31.39689 z m 0,0.808302 c 16.606549,0 30.067419,13.686615 30.067419,30.588588 0,16.902449 -13.46087,30.58859 -30.067419,30.58859 -16.60703,0 -30.068404,-13.686141 -30.068404,-30.58859 0,-16.901973 13.461374,-30.588588 30.068404,-30.588588 z" />
  <path
     style="fill:#dc0067"
     id="path10"
     d="m 92.055707,19.046187 c -23.215344,0 -42.06115,19.043772 -42.06115,42.451539 0,23.407771 18.845806,42.451554 42.06115,42.451554 23.215343,0 42.061143,-19.043783 42.061143,-42.451554 0,-23.407767 -18.8458,-42.451539 -42.061143,-42.451539 z m 0,4.387637 c 20.820983,0 37.673503,17.00427 37.673503,38.063902 0,21.059615 -16.85252,38.063893 -37.673503,38.063893 -20.820972,0 -37.673512,-17.004278 -37.673512,-38.063893 0,-21.059632 16.85254,-38.063902 37.673512,-38.063902 z" />
  <path
     style="fill:#ffb400"
     id="path12"
     d="m 34.612084,78.501251 -6.292879,0 5.034017,4.77176 -10.068512,0 0,4.771762 10.068512,0 -5.034017,4.771761 6.292879,0 7.551264,-7.157895 z" />
  <path
     style="fill:#ffb400"
     id="path14"
     d="m 108.13126,70.174249 -7.89702,-8.173066 17.11037,0 0,-8.172587 -17.11037,0 7.89702,-8.173066 -10.529208,0 -11.845537,12.259355 11.845537,12.259364 z" />
  <path
     style="fill:#000000"
     id="path16"
     d="m 14.919925,125.70745 -1.692251,-11.74621 2.608059,0 0.567402,5.81336 q 0.06968,0.65701 0.109499,1.4434 0.03982,0.77647 0.05972,1.67234 l 0.07964,0 q 0.0199,-0.96556 0.06968,-1.85152 0.05972,-0.89587 0.12941,-1.64246 l 0.527584,-5.43512 2.448788,0 -1.692252,11.74621 -3.215279,0 z" />
  <path
     style="fill:#000000"
     id="path18"
     d="m 22.594784,116.23085 0,7.10746 q 0,0.38821 0.109499,0.55744 0.1095,0.15946 0.358361,0.15946 0.248862,0 0.358362,-0.15946 0.1095,-0.16919 0.1095,-0.55744 l 0,-7.10746 q 0,-0.37827 -0.119453,-0.54749 -0.1095,-0.16918 -0.368315,-0.16918 -0.238904,0 -0.348403,0.15946 -0.09955,0.1591 -0.09955,0.55744 z m -2.608058,0.79636 q 0,-1.82167 0.706764,-2.5782 0.716718,-0.76649 2.349243,-0.76649 1.632526,0 2.33929,0.76649 0.716718,0.75653 0.716718,2.5782 l 0,5.62423 q 0,1.8117 -0.716718,2.57821 -0.706764,0.76649 -2.33929,0.76649 -1.632525,0 -2.349243,-0.76649 -0.706764,-0.76651 -0.706764,-2.57821 l 0,-5.62423 z" />
  <path
     style="fill:#000000"
     id="path20"
     d="m 29.463337,121.60622 q 0,0.40815 0.09955,0.5674 0.1095,0.14939 0.368314,0.14939 0.238906,0 0.348405,-0.16919 0.119452,-0.17924 0.119452,-0.54749 l 0,-5.09665 q 0,-0.35853 -0.119452,-0.51763 -0.109499,-0.16919 -0.348405,-0.16919 -0.258814,0 -0.368314,0.1494 -0.09955,0.13931 -0.09955,0.53752 l 0,5.09665 z m 0.935714,1.51309 -0.03982,0 q -0.278723,0.65699 -0.736627,0.98549 -0.447949,0.31857 -1.094987,0.31857 -0.85608,0 -1.254256,-0.46785 -0.398177,-0.4778 -0.398177,-1.51308 l 0,-6.86856 q 0,-0.88593 0.428039,-1.3538 0.42804,-0.4778 1.244303,-0.4778 0.617174,0 1.065123,0.28869 0.447949,0.28868 0.786399,0.91581 l 0.05972,0 0,-0.9855 2.528423,0 0,11.0494 q 0,1.84159 -0.706764,2.58815 -0.706764,0.75656 -2.349243,0.75656 -1.453345,0 -2.259654,-0.70678 -0.796353,-0.69681 -0.796353,-1.96102 l 0,-0.8959 2.58815,0 0,0.91581 q 0,0.38821 0.109499,0.54749 0.109499,0.16918 0.358361,0.16918 0.248861,0 0.35836,-0.16918 0.109499,-0.16918 0.109499,-0.54749 l 0,-2.58815 z" />
  <path
     style="fill:#000000"
     id="path22"
     d="m 33.43515,115.84264 0,-1.88139 0.656992,0 0,-2.18003 2.608059,0 0,2.18003 0.756536,0 0,1.88139 -0.756536,0 0,7.1373 q 0,0.5475 0.129408,0.69681 0.139362,0.1393 0.537539,0.1393 l 0.08959,0 0,1.89134 -1.632525,0 q -0.94567,0 -1.343847,-0.42803 -0.388222,-0.43799 -0.388222,-1.63252 l 0,-7.80427 -0.656992,0 z" />
  <path
     style="fill:#000000"
     id="path24"
     d="m 37.904685,125.70745 0,-14.68276 2.58815,0 0,14.68276 -2.58815,0 z" />
  <path
     style="fill:#000000"
     id="path26"
     d="m 44.872781,123.05959 0,-3.11573 q -0.05971,0.0399 -0.159281,0.11951 -0.776446,0.59728 -0.776446,1.05518 l 0,1.94112 q 0,0.39819 0.09955,0.54749 0.1095,0.13932 0.368312,0.13932 0.238904,0 0.348404,-0.15947 0.119435,-0.16918 0.119435,-0.52756 z m -3.543775,-6.68936 q 0,-1.33389 0.766491,-2.0108 0.776444,-0.6769 2.289519,-0.6769 1.652431,0 2.349243,0.75653 0.706761,0.74658 0.706761,2.58815 l 0,7.14728 q 0,0.46784 0.03981,0.83615 0.04978,0.35852 0.149312,0.69681 l -2.627968,0 q -0.04978,-0.20914 -0.07963,-0.41809 -0.02988,-0.21886 -0.02988,-0.39816 l 0,-0.17926 -0.03981,0 q -0.278716,0.57735 -0.756534,0.88594 -0.467858,0.30849 -1.094987,0.30849 -0.826217,0 -1.254258,-0.49771 -0.418085,-0.49772 -0.418085,-1.47324 l 0,-2.48861 q 0,-0.92579 0.328495,-1.50312 0.338451,-0.58731 1.075078,-0.98549 0.238905,-0.12923 0.6769,-0.34845 1.463299,-0.74658 1.463299,-1.42349 l 0,-0.83615 q 0,-0.37828 -0.119434,-0.54749 -0.1095,-0.16919 -0.368313,-0.16919 -0.238906,0 -0.348405,0.16919 -0.09955,0.16917 -0.09955,0.54749 l 0,1.71215 -2.608059,0 0,-1.69224 z" />
  <path
     style="fill:#000000"
     id="path28"
     d="m 48.297103,125.70745 0,-11.74621 2.54833,0 0,0.98549 0.03981,0 q 0.328498,-0.61718 0.786399,-0.90583 0.457904,-0.29876 1.065122,-0.29876 0.846126,0 1.264212,0.50768 0.428041,0.49772 0.428041,1.49317 l 0,9.96435 -2.60806,0 0,-9.10829 q 0,-0.40811 -0.1095,-0.5475 -0.09953,-0.14939 -0.358375,-0.14939 -0.238905,0 -0.358375,0.16919 -0.109501,0.16917 -0.109501,0.52759 l 0,9.10829 -2.58815,0 z" />
  <path
     style="fill:#000000"
     id="path30"
     d="m 61.337393,125.70745 -2.548332,0 0,-1.01534 -0.03981,0 q -0.25881,0.64703 -0.726674,0.97554 -0.457904,0.32864 -1.124851,0.32864 -0.846123,0 -1.264208,-0.48779 -0.408128,-0.49771 -0.408128,-1.49314 l 0,-8.27211 q 0,-1.0054 0.418085,-1.50315 0.418085,-0.49773 1.254255,-0.49773 0.617175,0 1.065122,0.29878 0.447951,0.29876 0.746584,0.90583 l 0.03981,0 0,-3.92205 2.588152,0 0,14.68277 z m -3.523864,-2.56823 q 0,0.40811 0.09953,0.56739 0.109499,0.1494 0.368313,0.1494 0.238905,0 0.348404,-0.17926 0.11947,-0.17926 0.11947,-0.53753 l 0,-6.54007 q 0,-0.35851 -0.11947,-0.52759 -0.109499,-0.16916 -0.348404,-0.16916 -0.258811,0 -0.368313,0.14937 -0.09953,0.13931 -0.09953,0.5475 l 0,6.54006 z" />
  <path
     style="fill:#000000"
     id="path32"
     d="m 62.352744,125.70745 0,-2.99626 2.697648,0 0,2.99626 -2.697648,0 z" />
  <path
     style="fill:#000000"
     id="path34"
     d="m 66.463922,125.70745 0,-9.88472 -0.637085,0 0,-1.86148 0.637085,0 0,-1.11491 q 0,-0.85605 0.517631,-1.33386 0.517629,-0.48778 1.443389,-0.48778 l 1.463298,0 0,1.84159 q -0.457904,0 -0.647037,0.10942 -0.189122,0.0996 -0.189122,0.35852 l 0,0.62712 0.836166,0 0,1.86149 -0.836166,0 0,9.88473 -2.588152,0 z" />
  <path
     style="fill:#000000"
     id="path36"
     d="m 70.3561,125.70745 0,-11.74621 2.548329,0 0,0.98549 0.03981,0 q 0.328498,-0.61718 0.786395,-0.90583 0.457904,-0.29876 1.065126,-0.29876 0.846123,0 1.264212,0.50768 0.428038,0.49772 0.428038,1.49317 l 0,4.53919 -2.608062,0 0,-3.68313 q 0,-0.40811 -0.109499,-0.5475 -0.09953,-0.14939 -0.358375,-0.14939 -0.238905,0 -0.358339,0.16919 -0.109499,0.16917 -0.109499,0.52759 l 0,9.10829 -2.588152,0 z" />
  <path
     style="fill:#000000"
     id="path38"
     d="m 80.071615,116.23085 0,2.21983 0.935717,0 0,-2.21983 q 0,-0.38821 -0.109499,-0.54749 -0.109499,-0.16918 -0.358376,-0.16918 -0.248838,0 -0.358374,0.16918 -0.1095,0.15946 -0.1095,0.54749 z m 0,7.10746 q 0,0.38821 0.1095,0.55744 0.109499,0.15946 0.358375,0.15946 0.248875,0 0.358375,-0.15946 0.109499,-0.16919 0.109499,-0.55744 l 0,-2.19991 2.588148,0 0,2.18001 q 0,1.27415 -0.806307,1.98093 -0.796356,0.6968 -2.249701,0.6968 -1.642482,0 -2.349242,-0.75652 -0.706762,-0.75656 -0.706762,-2.58818 l 0,-5.62422 q 0,-1.85152 0.696805,-2.5981 0.696812,-0.74659 2.339294,-0.74659 1.443388,0 2.259649,0.6769 0.816264,0.66693 0.816264,1.85152 l 0,3.99173 -3.523864,0 0,3.13563 z" />
  <path
     style="fill:#000000"
     id="path40"
     d="m 84.411742,125.70745 0,-11.74621 2.588151,0 0,11.74621 -2.588151,0 z m 0,-12.45297 0,-2.22979 2.588151,0 0,2.22979 -2.588151,0 z" />
  <path
     style="fill:#000000"
     id="path42"
     d="m 88.284011,125.70745 0,-9.88472 -0.637081,0 0,-1.86148 0.637081,0 0,-1.11491 q 0,-0.85605 0.517635,-1.33386 0.517624,-0.48778 1.443388,-0.48778 l 1.463298,0 0,1.84159 q -0.457904,0 -0.647037,0.10942 -0.189122,0.0996 -0.189122,0.35852 l 0,0.62712 0.836166,0 0,1.86149 -0.836166,0 0,9.88473 -2.588155,0 z" />
  <path
     style="fill:#000000"
     id="path44"
     d="m 98.308115,113.96124 0,11.74621 -2.548333,0 0,-0.97553 -0.05971,0 q -0.328498,0.60722 -0.776446,0.8959 -0.437991,0.27862 -1.055166,0.27862 -0.846123,0 -1.274168,-0.48779 -0.418081,-0.49771 -0.418081,-1.48317 l 0,-9.97436 2.588144,0 0,9.11827 q 0,0.38822 0.1095,0.53752 0.119434,0.1494 0.378269,0.1494 0.238906,0 0.338434,-0.1591 0.1095,-0.15912 0.1095,-0.52759 l 0,-9.11828 2.60806,0 z" />
  <path
     style="fill:#000000"
     id="path46"
     d="m 99.144285,125.70745 0,-11.74621 2.548335,0 0,0.98549 0.0398,0 q 0.32849,-0.61718 0.78639,-0.90583 0.45791,-0.29876 1.06513,-0.29876 0.84613,0 1.26421,0.50768 0.42804,0.49772 0.42804,1.49317 l 0,9.96435 -2.60806,0 0,-9.10829 q 0,-0.40811 -0.1095,-0.5475 -0.0996,-0.14939 -0.35838,-0.14939 -0.2389,0 -0.35837,0.16919 -0.10946,0.16917 -0.10946,0.52759 l 0,9.10829 -2.588151,0 z" />
  <path
     style="fill:#000000"
     id="path48"
     d="m 106.11238,125.70745 0,-14.68276 2.58815,0 0,8.05315 0.0398,0 1.10494,-5.1166 2.64787,0 -1.28412,5.07675 1.28412,6.66946 -2.72751,0 -1.0253,-6.15181 -0.0398,0 0,6.15181 -2.58815,0 z" />
  <path
     style="fill:#000000"
     id="path50"
     d="m 113.00084,125.70745 0,-2.99626 2.69764,0 0,2.99626 -2.69764,0 z" />
  <path
     style="fill:#000000"
     id="path52"
     d="m 116.70388,125.70745 0,-11.74621 2.54833,0 0,0.98549 0.0398,0 q 0.32849,-0.61718 0.78639,-0.90583 0.45791,-0.29876 1.06513,-0.29876 0.84612,0 1.26421,0.50768 0.42804,0.49772 0.42804,1.49317 l 0,9.96435 -2.60806,0 0,-9.10829 q 0,-0.40811 -0.10949,-0.5475 -0.0996,-0.14939 -0.35839,-0.14939 -0.2389,0 -0.35833,0.16919 -0.1095,0.16917 -0.1095,0.52759 l 0,9.10829 -2.58815,0 z" />
  <path
     style="fill:#000000"
     id="path54"
     d="m 126.22031,116.23085 0,2.21983 0.93571,0 0,-2.21983 q 0,-0.38821 -0.10949,-0.54749 -0.10951,-0.16918 -0.35838,-0.16918 -0.24888,0 -0.35838,0.16918 -0.10949,0.15946 -0.10949,0.54749 z m 0,7.10746 q 0,0.38821 0.1095,0.55744 0.10949,0.15946 0.35837,0.15946 0.24887,0 0.35838,-0.15946 0.1095,-0.16919 0.1095,-0.55744 l 0,-2.19991 2.58815,0 0,2.18001 q 0,1.27415 -0.80631,1.98093 -0.79635,0.6968 -2.24971,0.6968 -1.64247,0 -2.34924,-0.75652 -0.70676,-0.75656 -0.70676,-2.58818 l 0,-5.62422 q 0,-1.85152 0.69681,-2.5981 0.69681,-0.74659 2.33929,-0.74659 1.44339,0 2.25965,0.6769 0.81627,0.66693 0.81627,1.85152 l 0,3.99173 -3.52387,0 0,3.13563 z" />
  <path
     style="fill:#000000"
     id="path56"
     d="m 130.15231,115.84264 0,-1.88139 0.65699,0 0,-2.18003 2.60805,0 0,2.18003 0.75654,0 0,1.88139 -0.75654,0 0,7.1373 q 0,0.5475 0.12941,0.69681 0.13937,0.1393 0.53754,0.1393 l 0.0896,0 0,1.89134 -1.63253,0 q -0.94566,0 -1.34384,-0.42803 -0.38823,-0.43799 -0.38823,-1.63252 l 0,-7.80427 -0.65699,0 z" />
</svg>
