<?xml version="1.0" encoding="UTF-8" standalone="no"?>
<svg
   xmlns:dc="http://purl.org/dc/elements/1.1/"
   xmlns:cc="http://creativecommons.org/ns#"
   xmlns:rdf="http://www.w3.org/1999/02/22-rdf-syntax-ns#"
   xmlns:svg="http://www.w3.org/2000/svg"
   xmlns="http://www.w3.org/2000/svg"
   id="svg2"
   version="1.1"
   viewBox="0 0 372.04724 524.40945"
   height="148mm"
   width="105mm">
  <metadata
     id="metadata96">
    <rdf:RDF>
      <cc:Work
         rdf:about="">
        <dc:format>image/svg+xml</dc:format>
        <dc:type
           rdf:resource="http://purl.org/dc/dcmitype/StillImage" />
        <dc:title></dc:title>
      </cc:Work>
    </rdf:RDF>
  </metadata>
  <defs
     id="defs94" />
  <path
     id="path4"
     style="opacity:1;fill:#000000;fill-opacity:1;fill-rule:evenodd;stroke:none;stroke-width:1px;stroke-linecap:butt;stroke-linejoin:miter;stroke-opacity:1"
     d="m 292.10156,358.4649 c -14.72706,0 -22.16797,11.16016 -22.16797,11.16016 l -5.91992,0 c 0,0 -4.28984,-0.49336 -8.80664,4.02344 -4.51681,4.51681 -4.40234,9.0332 -4.40234,9.0332 l 0,10.47461 c 0.0759,0 -0.3415,4.44166 4.02343,8.80664 4.36499,4.36498 8.88086,4.09961 8.88086,4.09961 l 6.83204,0 c 0,0 7.37428,10.99414 21.7871,10.99414 14.41049,0 22.0918,-11.07031 22.0918,-11.07031 l 6.14844,0 c 0,0 5.16218,0.45501 9.18555,-3.56836 4.02337,-4.02338 4.25,-5.88362 4.25,-8.27344 l 0,-11.46289 c 0,-1.60497 -0.26449,-3.80511 -2.23243,-6.85938 -1.96235,-3.04559 -3.88888,-4.28542 -6.03125,-5.36132 -2.1196,-1.0645 -3.80664,-0.98826 -3.80664,-0.98829 l -6.67968,0 c 0,10e-6 -8.42529,-11.00781 -23.15235,-11.00781 z m 10.98828,13.95117 9.53711,0 c 10.49386,0 10.33924,-0.013 12.45899,0.98047 2.68971,1.26053 5.17451,4.29436 5.84375,7.13282 0.33816,1.43421 0.3348,13.33725 -0.004,14.65625 -0.70191,2.73145 -2.65086,5.1717 -5.48828,6.86718 -2.15412,1.28718 -0.79215,1.20313 -19.61328,1.20313 l -16.69531,0 1.15039,-1.20508 c 1.80343,-1.88763 2.93667,-3.72459 3.66992,-5.94727 0.34357,-1.04144 0.35853,-1.30679 0.44726,-8.07617 0.0986,-7.52198 0.0874,-7.40655 0.9629,-9.15234 0.51145,-1.01995 1.75129,-2.59945 2.86328,-3.64844 1.231,-1.16126 2.47756,-1.95134 3.86718,-2.45117 l 1,-0.35938 z m 18.77344,4.71485 c -0.86629,0.0143 -1.7119,0.364 -2.2832,1.04297 -0.77769,0.92423 -0.73793,1.98472 0.10547,2.82812 0.79382,0.79382 2.0838,1.0668 3.36523,0.71094 1.65524,-0.45967 2.33617,-2.48553 1.2168,-3.61719 -0.65154,-0.65869 -1.53801,-0.9792 -2.4043,-0.96484 z m -37.0918,0.20898 c 3.54765,-0.01 3.77923,4.09327 0.24414,4.32422 -0.38069,0.0249 -0.91147,-0.0229 -1.18164,-0.10547 -0.27018,-0.0826 -0.73173,-0.37538 -1.02539,-0.65234 -1.01838,-0.96045 -0.85718,-2.31869 0.37305,-3.13281 0.53216,-0.35217 0.82264,-0.43148 1.58984,-0.4336 z m 15.73243,0.68946 0.10156,2.5625 c 0.0556,1.40938 0.0996,5.52812 0.0996,9.15234 l 0,6.58984 2.53906,0 2.53711,0 0,-2.6914 0,-2.69336 4.8457,0 4.84571,0 0,-2.15235 0,-2.15429 -4.84571,0 -4.8457,0 0,-2.07617 0,-2.07618 5.46094,0 5.46093,0 0,-2.23047 0,-2.23046 -8.0996,0 -8.09961,0 z m -33.56055,0.14648 2.22461,0.043 2.22265,0.041 1.00782,4.87305 c 0.55406,2.67954 1.04986,4.91315 1.10156,4.96484 0.12354,0.12354 0.14728,-0.0111 0.91797,-5.26171 l 0.66015,-4.49805 2.43165,0 c 1.33731,0 2.43164,0.0439 2.43164,0.0977 0,0.11112 -3.97381,17.21514 -4.09571,17.6289 -0.0709,0.24072 -0.32036,0.26953 -2.36523,0.26953 -2.04445,0 -2.29533,-0.0289 -2.36719,-0.26953 -0.0442,-0.14805 -0.49897,-2.48018 -1.01172,-5.18164 -0.51274,-2.70146 -0.96495,-4.94347 -1.0039,-4.98242 -0.12024,-0.12023 -0.19404,0.20901 -1.19532,5.35742 l -0.9707,4.99805 -2.26562,0.043 c -1.73147,0.0325 -2.28169,-0.003 -2.33204,-0.15235 -0.13462,-0.40128 -4.08203,-17.58653 -4.08203,-17.77148 0,-0.14578 0.59475,-0.19141 2.46094,-0.19141 1.35358,0 2.4613,0.0518 2.46094,0.11524 -0.001,0.19473 1.391,9.31868 1.48437,9.72851 0.0813,0.35692 0.0955,0.36367 0.19922,0.0781 0.0614,-0.1692 0.55684,-2.47336 1.09961,-5.11914 l 0.98633,-4.81055 z m 52.52734,4.92969 0,6.6914 0,6.69141 2.3086,0 2.30664,0 0,-6.69141 0,-6.6914 -2.30664,0 -2.3086,0 z m -36.91601,0.15429 2.15429,0 2.1543,0 0,6.53711 0,6.53711 -2.1543,0 -2.15429,0 0,-6.53711 0,-6.53711 z" />
  <path
     style="fill:#000000"
     d="m 82.73624,358.39955 a 38.486535,39.410742 0 0 0 -4.98606,19.35415 38.486535,39.410742 0 0 0 2.45096,13.61295 38.750596,39.344727 0 0 0 0.41533,1.15428 38.486535,39.410742 0 0 0 0.71198,1.64188 38.750596,39.344727 0 0 0 1.10358,2.32799 38.486535,39.410742 0 0 0 0.0982,0.19849 c 0.003,-0.002 0.006,-0.003 0.01,-0.006 a 38.750596,39.344727 0 0 0 34.09333,20.74467 38.750596,39.344727 0 0 0 32.27776,-17.68422 55.593789,55.593789 0 0 0 36.62521,13.92473 55.593789,55.593789 0 0 0 41.70294,-18.90215 l -0.63432,0 a 55.371228,55.371228 0 0 0 10.74452,-16.55367 55.964412,55.964412 0 0 0 0.51133,-1.4024 55.371228,55.371228 0 0 0 1.22549,-3.45421 55.964412,55.964412 0 0 0 0.53829,-2.10575 c -0.11601,0.15567 -0.23273,0.30548 -0.51564,0.64402 -0.11188,0.12588 -0.33546,0.28013 -0.52428,0.34305 -0.18183,0.0699 -0.50382,0.19603 -0.72062,0.28696 -0.21678,0.0909 -0.52418,0.16721 -0.68502,0.16721 l -0.28694,0 0,-2.04859 c 0,-1.99305 0.006,-2.05002 0.1672,-2.3927 0.2837,-0.60851 0.91989,-1.04529 1.67964,-1.2395 l 0.35707,0 0,-0.0701 c 0.43446,-0.0633 0.89388,-0.0562 1.34846,0.0518 l 0.001,0 c 0.0441,0.0104 0.0851,0.0244 0.1273,0.0367 a 55.964412,55.964412 0 0 0 0.20173,-1.33013 l -1.18988,0 -0.48868,0 0,-5.54162 c 0.37281,-0.0648 0.76016,-0.066 1.14565,0.0237 0.3964,0.091 0.7617,0.27095 1.08308,0.51241 a 55.964412,55.964412 0 0 0 0.10572,-2.12733 l -45.02879,0 c -32.83067,4e-5 -49.94112,-0.004 -66.77995,-0.01 a 55.964412,55.964412 0 0 0 1.23842,10.21916 c 0.0659,-0.53966 0.21411,-0.6995 0.56096,-1.03454 0.61539,-0.6014 1.42776,-0.89534 2.43478,-0.88135 0.34266,0.007 0.76261,0.0487 0.93745,0.0906 0.46154,0.13287 1.06281,0.46896 1.34953,0.76269 0.13987,0.13986 0.31359,0.4272 0.39052,0.63 0.13986,0.34966 0.14671,0.50908 0.14671,2.66995 l 0,2.30855 -2.9364,0 -1.73358,0 a 55.964412,55.964412 0 0 0 0.53399,1.60521 c 0.0738,-0.003 0.15205,-0.027 0.19202,-0.0604 0.0804,-0.0804 0.37836,-0.12591 0.72277,-0.13377 0.34441,-0.008 0.73618,0.0217 1.00541,0.0917 0.49651,0.12588 0.88114,0.32224 1.20283,0.60195 0.22378,0.20281 0.29945,0.30707 0.53722,0.76162 0.0699,0.13987 0.0982,1.06458 0.11219,4.2115 l 0.0119,3.29994 a 55.964412,55.964412 0 0 0 0.52213,0.85331 l -2.31827,0 a 58.75303,58.75303 0 0 1 -0.0658,-0.11544 l -1.1079,0 0,-0.54693 c 0,-0.29455 -0.028,-0.57497 -0.0561,-0.61705 -0.1052,-0.1613 -0.4902,-0.29449 -1.17047,-0.4067 -0.38571,-0.0701 -0.83439,-0.16935 -0.9957,-0.22546 l -0.30205,-0.11219 0.006,-2.98711 c 0.006,-2.62498 0.007,-3.09838 0.21683,-3.47902 a 58.75303,58.75303 0 0 1 -2.39897,-10.38874 l -2.52971,-0.0173 -3.15647,-0.014 0.0216,-1.77458 0.0205,-1.76702 0.19634,-0.40669 c 0.35065,-0.71533 1.11586,-1.32577 1.93638,-1.56421 0.49793,-0.14727 1.69683,-0.0906 2.18774,0.10572 0.3179,0.1234 0.58738,0.27329 0.8231,0.45308 a 58.75303,58.75303 0 0 1 -0.0787,-2.21252 c -27.62491,-0.0105 -42.39995,-0.0307 -45.34271,-0.0766 z m 28.07597,1.63757 c 0.29706,-0.009 0.59904,0.0228 0.89754,0.10032 1.08702,0.28053 1.86568,0.98207 2.16724,1.94286 0.1052,0.35767 0.12622,0.65893 0.12622,1.99141 l 0,1.57068 -3.08635,0 -3.08528,0 0,-1.57068 c 0,-1.33248 0.021,-1.63374 0.12622,-1.99141 0.37607,-1.1966 1.56715,-2.0043 2.85441,-2.04318 z m -14.95709,0.002 c 0.18556,0.008 0.37208,0.0315 0.5588,0.0701 0.9678,0.20338 1.78853,0.82728 2.18127,1.65482 0.22441,0.4769 0.22384,0.47662 0.24488,1.78105 l 0.0281,1.30423 -0.4067,-0.13269 c -0.82754,-0.28052 -1.99883,-0.28808 -2.79832,-0.0216 -0.58208,0.19637 -1.24051,0.57546 -1.68935,0.97521 l -0.42071,0.37864 -0.51242,-0.14671 -0.50486,-0.14779 0.0205,-1.76055 0.0216,-1.753 0.22438,-0.47681 c 0.52774,-1.11069 1.754,-1.78142 3.05291,-1.72494 z m -7.52224,0.0108 c 0.3543,0.0133 0.69947,0.0751 0.99139,0.18555 0.56806,0.21739 1.1073,0.61644 1.40887,1.05827 0.43481,0.61715 0.47681,0.8557 0.47681,2.77027 l 0,1.69798 -0.46926,0.0841 -0.47682,0.0906 -0.42072,-0.24488 c -0.84858,-0.50494 -1.90818,-0.72333 -2.89001,-0.60411 -0.28754,0.0421 -0.54693,0.0566 -0.56096,0.0356 -0.021,-0.014 0.008,-0.0981 0.0496,-0.1823 0.0561,-0.0982 0.0631,-0.30902 0.028,-0.61058 -0.0631,-0.61015 -0.40718,-1.21952 -0.79289,-1.4229 -0.32962,-0.16831 -0.53346,-0.54041 -0.47035,-0.87703 0.1052,-0.56105 0.75071,-1.29015 1.46605,-1.65483 0.45146,-0.23669 1.06972,-0.34798 1.66022,-0.32579 z m 30.27342,0.006 c 0.42342,0.021 0.84518,0.0844 1.09063,0.17908 0.65222,0.25245 1.151,0.63046 1.4736,1.12838 0.15429,0.24546 0.31499,0.56148 0.34305,0.69473 0.0351,0.14026 0.0636,1.00311 0.0636,1.91481 l 0,1.66885 -3.12088,0 -3.12842,0 0.0216,-1.77457 0.0205,-1.76702 0.19633,-0.40669 c 0.36468,-0.73637 1.08025,-1.31876 1.94286,-1.56421 0.24896,-0.0736 0.67369,-0.0944 1.0971,-0.0734 z m -15.58817,10e-4 c 0.49245,-0.0158 1.11755,0.0518 1.45417,0.178 0.84858,0.32258 1.52156,0.97506 1.8091,1.76054 0.13324,0.35765 0.14671,0.56076 0.14671,1.86519 0,1.34651 -0.007,1.45149 -0.11219,1.3463 -0.0771,-0.0772 -0.12622,-0.28745 -0.15427,-0.61706 l -0.0345,-0.49839 -0.37217,-0.2384 c -0.20338,-0.13325 -0.49082,-0.27347 -0.6451,-0.30853 -0.25949,-0.0701 -0.42063,-0.17523 -1.03778,-0.67315 -0.23844,-0.18935 -0.31492,-0.20982 -0.80584,-0.21684 -0.29455,-0.007 -0.69469,-0.0631 -0.87703,-0.12621 -0.41377,-0.13325 -0.55386,-0.14079 -1.14997,-0.0777 -0.41377,0.0491 -0.48432,0.0841 -0.75082,0.36462 l -0.30098,0.30205 0,-0.30852 c 0,-0.44183 0.23783,-1.14343 0.52536,-1.53617 0.39975,-0.54 1.17144,-1.02426 1.87274,-1.17153 0.11922,-0.0246 0.26844,-0.039 0.43259,-0.0442 z m 38.39761,0.0367 c 0.34976,0.002 0.70184,0.0526 1.04101,0.15749 0.89512,0.27973 1.75519,1.08409 1.97198,1.85333 0.0559,0.18183 0.0842,0.88798 0.0841,1.94393 l 0,1.65051 -3.14675,0 -3.14677,0 0,-1.67856 c 0,-1.89513 0.0348,-2.07624 0.53831,-2.73359 0.58218,-0.7605 1.60878,-1.19869 2.65808,-1.19311 z m 15.05526,0.0108 c 0.32868,0 0.75509,0.0422 0.94392,0.0982 0.88812,0.23077 1.59543,0.80467 1.97306,1.57392 l 0.19526,0.3916 0.0216,1.76162 0.0205,1.76918 -3.11979,0 -3.11117,0 0,-1.67856 c 0,-1.47555 0.0138,-1.71931 0.13269,-2.027 0.43358,-1.13988 1.5943,-1.88193 2.94396,-1.88892 z m 7.68081,0.002 c 0.38725,8.3e-4 0.77776,0.0472 1.06799,0.13808 0.82517,0.25175 1.51661,0.82554 1.86626,1.53185 0.15386,0.32168 0.18837,0.52356 0.23733,1.25784 0.0349,0.48253 0.0429,1.27966 0.0151,1.76918 l -0.0421,0.89537 -3.14676,0 -3.13922,0 0.0194,-1.77025 c 0.021,-1.76227 0.0215,-1.76053 0.21036,-2.15214 0.34963,-0.70631 1.03459,-1.27366 1.85979,-1.5394 0.27971,-0.0874 0.66455,-0.13141 1.05179,-0.13053 z m 68.11116,0.003 c 0.16496,0.009 0.33103,0.0327 0.49623,0.0712 0.85316,0.19582 1.57985,0.77726 1.97846,1.58147 l 0.23085,0.46819 0.0205,1.73358 0.028,1.73465 -2.91591,0 -2.9159,0 0.028,-1.73465 0.0205,-1.73358 0.23086,-0.46819 c 0.53236,-1.07694 1.64356,-1.71615 2.79832,-1.65267 z m -98.51942,10e-4 c 0.32868,-0.007 0.7551,0.0358 0.94392,0.0917 0.87413,0.23077 1.5938,0.79761 1.96443,1.54587 l 0.20281,0.41856 0.0216,1.76271 0.0205,1.76917 -3.11871,0 -3.11872,0 0.0205,-1.76917 0.0216,-1.76271 0.19526,-0.40453 c 0.5105,-1.028 1.57412,-1.64461 2.84687,-1.65159 z m 49.72682,0.001 c 0.51923,-8.3e-4 1.0395,0.0347 1.37866,0.10464 1.87416,0.38462 3.62313,1.71273 4.4553,3.38409 0.1049,0.20981 0.22989,0.4057 0.27185,0.43367 0.0419,0.028 0.056,0.0561 0.028,0.0561 -0.028,0 0.0148,0.18129 0.0917,0.39807 0.31469,0.9021 0.32802,1.14701 0.35599,5.05617 l 0.0216,3.74224 -6.55997,0.0205 -6.55998,0.014 0.0216,-3.89542 c 0.028,-3.78329 0.0273,-3.91633 0.18123,-4.46178 0.19581,-0.69232 0.62299,-1.60132 1.02159,-2.16077 0.89512,-1.25177 2.43287,-2.26572 3.9224,-2.58041 0.33217,-0.0734 0.85078,-0.11023 1.37003,-0.11111 z m 33.6834,10e-4 c 0.28322,-0.002 0.56677,0.0296 0.82201,0.096 0.86715,0.22379 1.69882,0.92981 2.00651,1.69905 0.14685,0.37063 0.16135,0.51719 0.18231,2.09066 l 0.0205,1.70013 -3.01408,0 -3.01407,0 0.0216,-1.70013 c 0.021,-1.57347 0.0356,-1.72003 0.18231,-2.09066 0.3007,-0.75525 1.13872,-1.46773 1.97091,-1.6915 0.25524,-0.0665 0.5388,-0.10181 0.82202,-0.10356 z m -15.3487,0.001 c 0.16405,-0.0114 0.32987,-0.0106 0.49516,0.002 0.18889,0.0146 0.37693,0.0447 0.56312,0.0928 0.97904,0.25875 1.71249,0.83119 2.09712,1.63541 l 0.21683,0.46171 0.0216,1.69258 0.0205,1.70014 -3.18776,0 -3.18992,0 0.0216,-1.70014 0.0205,-1.69258 0.21684,-0.46171 c 0.47649,-0.99587 1.5562,-1.65051 2.70446,-1.73035 z m 22.59153,0.008 c 0.15279,-0.0116 0.30699,-0.0117 0.46171,0 0.17683,0.0134 0.35397,0.0419 0.52968,0.0874 0.86713,0.23077 1.60889,0.83816 1.97953,1.62139 0.18882,0.39861 0.18938,0.42747 0.21037,2.1338 l 0.028,1.73465 -2.9871,0 -2.98603,0 0.028,-1.73465 c 0.021,-1.70633 0.0216,-1.73519 0.21036,-2.1338 0.4658,-0.99051 1.45587,-1.62745 2.52539,-1.70877 z m -75.29682,0.003 c 0.72729,0.021 0.80505,0.0357 1.30856,0.28047 0.65036,0.3077 1.13293,0.76157 1.41965,1.34199 l 0.20281,0.41964 0.0205,1.7627 0.0216,1.76918 -3.11978,0 -3.11873,0 0.0216,-1.76918 0.0205,-1.7627 0.19633,-0.40562 c 0.25876,-0.51749 0.74093,-1.00617 1.27942,-1.28589 0.59442,-0.31469 0.85247,-0.37158 1.7476,-0.35059 z m 60.26529,0.005 c 0.49105,-0.0157 1.11312,0.051 1.44879,0.17692 0.88113,0.33567 1.56057,1.01351 1.81232,1.81772 0.11887,0.38463 0.13916,0.64393 0.13917,2.00759 l 0,1.56636 -3.11117,0 -3.11224,0 0,-1.56636 c 0,-1.77626 0.0767,-2.17538 0.52428,-2.79077 0.3986,-0.53847 1.16804,-1.02037 1.86735,-1.16723 0.11886,-0.0245 0.26783,-0.039 0.4315,-0.0442 z m -37.68023,1.44663 c 0.26049,-0.006 0.525,0.0228 0.68933,0.0928 0.35666,0.14686 0.74752,0.53234 0.92235,0.91696 0.15385,0.32868 0.16721,0.43338 0.16721,1.7271 l 0,1.38513 -1.7476,0 -1.74869,0 0,-1.31501 c 0,-1.04198 0.0219,-1.39232 0.11975,-1.65806 0.12588,-0.37763 0.54527,-0.83926 0.92989,-1.02807 0.15035,-0.0734 0.40725,-0.1147 0.66776,-0.12082 z m 22.73932,0.15426 c 0.29609,0.0161 0.60027,0.0931 0.81662,0.21899 0.17484,0.1049 0.39889,0.29324 0.50379,0.42612 0.32868,0.43356 0.37058,0.67145 0.37757,2.0421 l 0,1.28049 -1.75516,0 -1.75623,0 0.028,-1.38513 c 0.021,-1.36366 0.0211,-1.38492 0.21683,-1.70661 0.2168,-0.37063 0.55284,-0.65036 0.93746,-0.79721 0.0996,-0.0385 0.21653,-0.0629 0.34089,-0.0744 0.0933,-0.009 0.19149,-0.01 0.29018,-0.004 z m -38.05024,5.09394 c 0.40712,0.007 1.09193,0.0921 1.32796,0.18123 0.62937,0.24476 1.3361,0.92933 1.55989,1.51674 0.13986,0.37064 0.14671,0.52556 0.14671,2.59552 l 0,2.20176 -2.83931,0 -2.83177,0 0.0205,-2.29345 c 0.021,-2.27276 0.0215,-2.28684 0.19633,-2.63651 0.3147,-0.63637 1.00634,-1.20236 1.7476,-1.42613 0.17484,-0.049 0.34908,-0.10466 0.38405,-0.11867 0.0472,-0.0174 0.15231,-0.023 0.28803,-0.0205 z m -30.39209,0.0129 c 0.39711,0.006 0.80175,0.0483 1.05072,0.1219 0.78546,0.24546 1.39641,0.75719 1.69797,1.43044 0.12624,0.28053 0.14024,0.47757 0.14024,2.59551 l 0,2.29994 -2.91051,0 -2.91806,0 0.0216,-2.37005 0.0205,-2.36358 0.18986,-0.32255 c 0.33663,-0.57507 0.98912,-1.06632 1.70446,-1.29776 0.2174,-0.0701 0.60613,-0.1 1.00325,-0.0939 z m -7.55676,0.003 c 0.21132,0.002 0.42601,0.0254 0.64079,0.0701 0.86962,0.18233 1.65531,0.74963 1.99895,1.45094 l 0.19633,0.40022 0.014,2.27943 c 0.007,1.37456 -0.006,2.22335 -0.0485,2.13919 -0.0351,-0.0772 -0.0637,-0.35056 -0.0637,-0.60303 -0.007,-0.25247 -0.0555,-0.60409 -0.11867,-0.78642 -0.0912,-0.27351 -0.16878,-0.35758 -0.47034,-0.53291 -0.20338,-0.11922 -0.51184,-0.32954 -0.7012,-0.47682 -1.58495,-1.26235 -1.90063,-1.42343 -2.89648,-1.43044 -0.34364,0 -0.73624,-0.042 -0.86949,-0.0982 -0.23143,-0.0842 -0.25941,-0.0772 -0.44877,0.0982 l -0.20388,0.18231 0.0421,-0.41316 c 0.12887,-1.32547 1.44959,-2.29698 2.92885,-2.27944 z m 30.70384,0.0216 c 0.146,-0.003 0.25035,-7.6e-4 0.27833,0.01 0.0559,0.014 0.22424,0.0426 0.37109,0.0636 0.14686,0.021 0.28002,0.0691 0.30098,0.0971 0.021,0.035 0.0832,0.0636 0.13916,0.0636 0.13287,0 0.60189,0.32133 0.97952,0.671 0.19581,0.18182 0.34333,0.40581 0.44122,0.67854 0.13986,0.37764 0.14671,0.53857 0.14671,2.6365 l 0,2.23736 -2.86736,0 -2.86736,0 0,-2.25785 0,-2.26648 0.21036,-0.4121 c 0.25174,-0.50349 0.59439,-0.84721 1.1888,-1.18988 0.41259,-0.23776 0.51683,-0.2644 1.1532,-0.30636 0.1923,-0.014 0.37937,-0.0222 0.52535,-0.0248 z m 67.90187,0.027 c 0.25153,-0.009 0.50746,0.015 0.76269,0.0744 0.85317,0.19581 1.72741,0.92933 2.04211,1.71956 0.16083,0.39161 0.1678,0.48984 0.18879,2.51783 l 0.0216,2.1187 -2.90944,0 -2.90943,0 0.0216,-2.1187 c 0.028,-2.48955 0.0488,-2.60884 0.75513,-3.35712 0.55594,-0.5979 1.2724,-0.92717 2.027,-0.95471 z m -7.40249,0.005 c 0.29961,-0.002 0.60372,0.0277 0.90617,0.0906 0.86015,0.18182 1.63716,0.70595 1.88891,1.2654 0.11889,0.25176 0.13269,0.51014 0.13269,2.67102 l 0,2.39917 -2.90188,0 -2.90296,0 0,-2.39917 c 0,-2.70634 0.007,-2.72681 0.54586,-3.20933 0.58218,-0.52449 1.43237,-0.81246 2.33121,-0.8177 z m -7.82105,10e-4 c 0.1648,-0.0111 0.33126,-0.0107 0.4973,0.002 0.18978,0.0148 0.37929,0.0458 0.56636,0.0938 0.96504,0.25177 1.71897,0.83225 2.10359,1.62247 l 0.20281,0.4067 0.0216,2.14566 0.0205,2.15429 -3.18776,0 -3.18992,0 0.0216,-2.15429 0.0205,-2.14566 0.20281,-0.4067 c 0.48187,-0.99051 1.56704,-1.64073 2.72065,-1.71848 z m 22.65085,0.004 c 0.28474,-0.009 0.57711,0.0112 0.86733,0.0636 0.83918,0.15385 1.65781,0.70013 1.96551,1.30854 0.1119,0.23077 0.12573,0.50365 0.14671,2.65054 l 0.0205,2.39808 -2.87383,0 -2.87384,0 0.0205,-2.39808 c 0.021,-2.69235 0.0128,-2.64394 0.56527,-3.19639 0.514,-0.50351 1.30759,-0.7988 2.16184,-0.82634 z m -60.68384,0.006 c 0.57692,-0.0197 1.32315,0.0522 1.64835,0.178 0.61539,0.23777 1.16801,0.73239 1.46173,1.29883 l 0.25028,0.48329 0.0216,2.22442 0.0205,2.2298 -2.97847,0 -2.97956,0 0.0216,-2.22333 0.0205,-2.21686 0.19633,-0.3711 c 0.37064,-0.7063 1.20932,-1.4254 1.81772,-1.55127 0.13286,-0.028 0.30716,-0.0452 0.49947,-0.0518 z m -22.33802,0.002 c 0.86715,0.021 0.87975,0.0202 1.48115,0.31392 l 0.002,0 c 0.48951,0.23777 0.67058,0.3714 0.92234,0.6861 0.18182,0.21678 0.32203,0.41269 0.32903,0.43366 0,0.028 0.0211,0.11186 0.0421,0.18879 0.0559,0.17481 0.0555,0.62979 0.0345,2.95151 l -0.0151,1.83821 -2.9364,0 -2.93748,0 0,-2.32798 c 0,-2.30073 4.5e-4,-2.32945 0.16829,-2.6721 0.27272,-0.57344 0.86724,-1.04816 1.63648,-1.29992 0.32168,-0.10489 0.56665,-0.13317 1.27295,-0.11219 z m 90.72425,0.006 c 0.40448,0.0111 0.82967,0.07 1.10897,0.16829 l 0,0.001 c 0.74127,0.25875 1.28647,0.74806 1.49626,1.32149 0.0699,0.20281 0.0912,0.83109 0.0982,2.59335 l 0,2.32259 -2.70663,-0.014 -2.71309,-0.0216 0,-2.41212 0,-2.41212 0.18878,-0.32902 c 0.32168,-0.54547 0.9298,-0.95848 1.69906,-1.15428 0.12064,-0.0298 0.27147,-0.0489 0.4369,-0.0583 0.12408,-0.007 0.25676,-0.009 0.39159,-0.005 z m -60.4217,0.64294 c 0.25193,0.008 0.512,0.084 0.78211,0.23086 0.38462,0.20979 0.75382,0.68562 0.87272,1.11221 0.0419,0.14684 0.0701,1.14078 0.0701,2.33661 l 0,2.08417 -1.7476,0 -1.74869,0 0,-2.09819 c 0,-2.41264 0.0355,-2.60179 0.5739,-3.12627 0.38027,-0.37151 0.77758,-0.55201 1.19744,-0.53939 z m 22.53651,0.11651 c 0.38497,-0.0105 0.78269,0.0636 1.12624,0.2341 0.24475,0.12586 0.46951,0.29327 0.56742,0.44013 0.15383,0.23777 0.15319,0.26627 0.15319,2.60198 l 0,2.37113 -1.74868,0 -1.74869,0 0,-2.36465 c 0,-2.20983 0.007,-2.37062 0.14024,-2.58041 0.26225,-0.4327 0.86868,-0.6848 1.51028,-0.70228 z m -30.50427,7.05082 c 0.14128,-0.009 0.28577,-0.009 0.43366,0 0.16901,0.0101 0.3423,0.0315 0.51888,0.0648 0.88115,0.16785 1.60171,0.69174 1.90942,1.38406 0.21678,0.48253 0.22379,0.65073 0.2028,3.73468 l -0.014,2.29346 -2.79833,0 -2.80478,0 0.0216,-2.88677 0.0205,-2.88247 0.18879,-0.31393 c 0.51397,-0.85129 1.33252,-1.33367 2.32151,-1.39376 z m -15.19767,0.003 c 0.36233,-0.019 0.74145,0.009 1.12084,0.0895 0.58041,0.12587 1.09801,0.38438 1.43368,0.71307 0.49652,0.49649 0.48269,0.4269 0.46171,3.72066 l -0.014,2.95042 -2.76272,0 -2.76164,0 0,-2.9364 c 0,-2.82524 0.006,-2.95121 0.14671,-3.24493 0.35141,-0.75525 1.28846,-1.23533 2.37545,-1.29236 z m -7.70347,0.014 c 0.53662,-0.0161 1.22266,0.0579 1.57931,0.19419 0.55945,0.20279 0.97962,0.50309 1.21038,0.84575 l 0.18879,0.2945 0.0205,2.83931 c 0.021,2.7413 0.0147,2.85974 -0.12515,3.23738 -0.17483,0.46153 -0.5738,0.85996 -0.93744,0.9299 -0.21679,0.0349 -0.25243,0.0705 -0.25243,0.23841 0,0.37062 -0.0687,0.38462 -2.14567,0.40561 l -1.90942,0.028 0,-3.72714 c 0,-3.6364 0.007,-3.73547 0.14672,-4.0292 0.25875,-0.53145 1.00689,-1.04736 1.75515,-1.20821 0.12763,-0.0262 0.29039,-0.0431 0.46926,-0.0485 z m 15.67015,0.004 c 0.3808,0.009 0.75504,0.0634 1.03562,0.16828 0.59443,0.23079 1.07725,0.63668 1.31502,1.11221 l 0.20281,0.40562 0.0216,2.88247 0.0205,2.88677 -2.70015,0 -2.698,0 0.0205,-2.88677 0.0216,-2.88247 0.20928,-0.37757 c 0.12587,-0.23077 0.349,-0.48966 0.55879,-0.65049 0.1958,-0.14687 0.39171,-0.30054 0.43367,-0.3355 0.27098,-0.22291 0.92417,-0.33698 1.55881,-0.32255 z m -31.0663,0.0356 c 0.12634,-0.003 0.2756,-0.002 0.45092,0.003 0.56806,0.014 0.72973,0.0426 1.0874,0.21792 0.50494,0.23844 1.06579,0.7858 1.2902,1.24166 0.0842,0.18935 0.18932,0.33657 0.22439,0.33657 0.0351,0 0.0636,0.90381 0.0636,2.15214 0,1.31144 -0.0286,2.12572 -0.0636,2.09064 -0.0561,-0.0631 -0.21736,-0.98259 -0.33658,-1.9504 -0.0281,-0.22442 -0.14069,-0.37101 -0.69472,-0.91803 -0.61014,-0.61014 -0.86949,-0.98919 -0.86949,-1.26971 0,-0.0631 -0.0906,-0.23083 -0.20281,-0.37109 -0.11922,-0.14026 -0.23193,-0.35814 -0.25998,-0.47034 -0.028,-0.11924 -0.16072,-0.34357 -0.30098,-0.50487 -0.23844,-0.28052 -0.27395,-0.29504 -0.6246,-0.30205 -0.2665,0 -0.36463,-0.028 -0.3506,-0.0841 0.0368,-0.11046 0.20781,-0.16167 0.58685,-0.17153 z m 99.05556,0.013 c 0.33425,-0.013 0.67851,0.0188 1.01944,0.0992 0.75525,0.18184 1.32185,0.55274 1.66453,1.09819 0.16083,0.25875 0.16825,0.31441 0.15426,1.29344 l -0.0205,1.02159 -0.2384,-0.2028 c -0.13288,-0.1049 -0.41215,-0.2732 -0.62893,-0.3711 -0.34965,-0.14686 -0.52483,-0.16727 -1.53184,-0.19526 l -1.14026,-0.0356 -0.27293,0.18879 c -0.14685,0.1049 -0.45479,0.22449 -0.69257,0.26646 -0.46853,0.0909 -0.48153,0.10444 -0.63539,0.83172 -0.15384,0.77625 -0.20928,0.51042 -0.20928,-1.02806 0,-1.46856 0.006,-1.51044 0.16721,-1.76918 0.45104,-0.71856 1.36191,-1.15843 2.36466,-1.19743 z m -22.67998,0.01 c 0.14751,-0.01 0.29558,-0.009 0.4412,0 0.19418,0.0126 0.38453,0.0424 0.56636,0.0895 0.22377,0.0559 0.53173,0.16744 0.69257,0.25135 0.44057,0.22378 0.99942,0.79024 1.18125,1.20283 0.16783,0.35664 0.16781,0.39944 0.18879,3.10576 l 0.0205,2.74762 -2.87384,0 -2.87491,0 0.0216,-2.74762 c 0.021,-2.70632 0.0209,-2.74912 0.18879,-3.10576 0.1818,-0.41259 0.74175,-0.97905 1.18232,-1.20283 0.38156,-0.19668 0.82281,-0.31179 1.2654,-0.34089 z m 7.52871,0.008 c 0.47662,-0.0164 1.1042,0.0555 1.42936,0.18663 0.51749,0.2028 0.9996,0.5733 1.25137,0.95794 0.40559,0.61539 0.42719,0.77042 0.42719,3.6376 l 0,2.60737 -2.79724,0 -2.80479,0 0.0216,-2.74761 0.0205,-2.74115 0.18879,-0.39914 c 0.32168,-0.68533 1.0362,-1.24546 1.85439,-1.45525 0.1084,-0.0262 0.24998,-0.041 0.40886,-0.0464 z m 7.98179,0.002 c 0.37587,0.0184 0.75232,0.0801 1.00757,0.178 0.78321,0.30069 1.30089,0.76964 1.46173,1.34306 0.0419,0.13287 0.0701,1.42619 0.0701,3.04859 l 0,2.81774 -2.69367,0 -2.698,0 0.0205,-2.9569 c 0.021,-2.66437 0.0349,-2.97308 0.14672,-3.17588 0.28672,-0.52449 0.90124,-0.95798 1.67748,-1.17478 0.25525,-0.0734 0.63168,-0.0982 1.00756,-0.0798 z m -34.74706,0.61598 c 0.24558,-0.0122 0.53728,-0.009 0.95686,0.009 1.23778,0.049 1.51013,0.12505 2.657,0.69149 1.44058,0.72029 2.58062,2.16862 3.05614,3.87493 0.15385,0.54548 0.15427,0.61621 0.15427,5.90301 0.006,2.23323 -0.009,3.84757 -0.0302,4.71529 a 6.1153168,4.3548469 0 0 0 -3.8706,4.04862 6.1153168,4.3548469 0 0 0 0.004,0.0928 l -2.03131,0 a 4.3709609,2.8723457 0 0 0 0.0205,-0.27724 4.3709609,2.8723457 0 0 0 -4.37008,-2.87277 4.3709609,2.8723457 0 0 0 -0.96441,0.0744 c -0.13535,-0.0568 -0.59302,-0.39668 -1.1435,-0.85115 l -0.23085,-0.18878 0,-4.39921 c 0,-2.41961 0.0286,-4.39921 0.0636,-4.39921 0.028,0 0.0761,-0.33556 0.0971,-0.75513 0.0419,-0.79023 0.1822,-1.37704 0.54585,-2.16725 0.10489,-0.23776 0.20335,-0.4618 0.21036,-0.48976 0.014,-0.028 0.0768,-0.11237 0.14671,-0.18231 0.0699,-0.0769 0.12513,-0.16082 0.12515,-0.18878 0,-0.13286 1.1821,-1.39161 1.30099,-1.39161 0.0559,0 0.0971,-0.0351 0.0971,-0.0701 0,-0.0419 0.0769,-0.10419 0.17476,-0.13916 0.0909,-0.0349 0.29384,-0.14698 0.44769,-0.24489 0.43357,-0.26573 1.25259,-0.57372 1.90294,-0.70658 0.23428,-0.0455 0.43404,-0.0731 0.67963,-0.0852 z m -11.06276,0.10141 c 0.26334,-0.0142 0.52361,0.0233 0.74652,0.11758 0.42657,0.18182 0.65738,0.37844 0.81122,0.70012 0.13287,0.27973 0.13921,0.42624 0.15319,2.67102 0,1.30772 0.007,2.5589 0,2.77567 l -0.006,0.40561 -1.64405,0 -1.64404,0 0,-2.76271 c 0,-3.01404 0.008,-3.069 0.39915,-3.43264 0.2972,-0.28409 0.74449,-0.45109 1.1834,-0.47465 z m 22.93566,0.0475 c 0.37762,0.021 0.57361,0.07 0.86733,0.23085 0.22378,0.11888 0.44044,0.31488 0.55232,0.47574 l 0.18231,0.28048 0.0205,2.81773 0.0216,2.81773 -1.75623,0 -1.74869,0 0,-2.74005 c 0,-2.6504 0.007,-2.74897 0.14672,-3.04968 0.26573,-0.54546 0.93094,-0.86777 1.71416,-0.8328 z m -30.79231,8.03356 c 0.40735,-0.0193 0.87288,0.009 1.23303,0.0928 0.84617,0.20279 1.48192,0.62341 1.76163,1.17586 0.15384,0.29371 0.14723,0.0273 0.14024,4.57288 l -0.006,2.46822 -0.85329,0 -0.86086,-0.008 -0.41965,-0.27292 c -0.22376,-0.15386 -0.60854,-0.34866 -0.85331,-0.43259 -0.24477,-0.0909 -0.44012,-0.18131 -0.44012,-0.20928 0,-0.028 0.0623,-0.17463 0.13915,-0.32148 0.0979,-0.18181 0.1473,-0.44108 0.16829,-0.79073 0.0141,-0.28671 0.0627,-0.76999 0.10464,-1.07768 0.049,-0.31471 0.07,-0.71251 0.0421,-0.90833 -0.028,-0.19581 -0.0561,-0.64393 -0.0701,-1.00757 -0.042,-1.01401 -0.20989,-1.5455 -0.83928,-2.60846 -0.1958,-0.33566 -0.21661,-0.41228 -0.13269,-0.48221 0.12937,-0.10489 0.47939,-0.17169 0.88674,-0.19093 z m 38.09556,0.0777 c 0.15972,-0.01 0.32202,-0.009 0.48435,0.002 0.18553,0.0131 0.372,0.0403 0.55557,0.0831 0.86016,0.20279 1.55822,0.74705 1.74006,1.34846 0.0559,0.17484 0.0841,0.81855 0.0841,1.73466 l 0,1.46281 -0.14671,-0.22439 c -0.0769,-0.12588 -0.23112,-0.27253 -0.32903,-0.32148 -0.10488,-0.0559 -0.49561,-0.27297 -0.86624,-0.48975 -0.75526,-0.44756 -0.97222,-0.48268 -1.46173,-0.25891 -0.16784,0.0769 -0.36318,0.14025 -0.42611,0.14025 -0.0699,0 -0.26583,0.0974 -0.43366,0.2233 -0.36365,0.25175 -0.87457,0.32867 -1.3571,0.2028 l -0.29342,-0.0841 0,-1.05611 c 0,-0.59442 0.0341,-1.16765 0.0831,-1.32149 0.24092,-0.80847 1.24867,-1.37384 2.36681,-1.44123 z m 8.0875,0.006 0.001,0 c 0.37589,0.0184 0.75125,0.0801 1.00649,0.17799 0.5175,0.19582 0.92299,0.49613 1.16075,0.85978 l 0.19634,0.28695 0.006,1.44015 c 0.007,0.79023 4.3e-4,1.3709 -0.0205,1.28698 -0.0559,-0.27273 -0.19634,-0.32881 -0.60195,-0.24489 -0.58741,0.11887 -1.20301,-0.0977 -1.47575,-0.51026 -0.0979,-0.15384 -0.14701,-0.16817 -0.46171,-0.12621 -0.23776,0.028 -0.44014,0.007 -0.64294,-0.0701 -0.16784,-0.063 -0.53802,-0.12569 -0.83174,-0.13269 -0.4895,-0.021 -0.55242,-0.007 -0.78318,0.17476 l -0.2589,0.19633 0,-0.92342 c 0,-0.79721 0.0208,-0.97155 0.14671,-1.22332 0.24477,-0.51049 0.79117,-0.90241 1.55342,-1.11221 0.25525,-0.0734 0.62953,-0.0982 1.00541,-0.0798 z m 6.57293,0.0507 c 0.0534,0.0289 -0.0188,0.14485 -0.20065,0.35815 -0.27973,0.32869 -0.32154,0.42008 -0.34952,0.77672 -0.0559,0.65736 -0.55986,1.21587 -1.15429,1.25784 -0.1958,0.014 -0.19584,0.006 -0.21683,-0.39914 -0.0419,-0.77624 0.46845,-1.46112 1.36357,-1.83175 0.32517,-0.13287 0.50439,-0.19066 0.55772,-0.16182 z m -22.07587,0.72709 c 0.58742,0 0.71348,0.0211 1.07013,0.20281 0.7063,0.34267 0.67855,0.20963 0.67855,3.33555 0,2.54551 -0.007,2.72088 -0.14025,3.0076 -0.0608,0.13259 -0.10291,0.32991 -0.1219,0.50055 a 6.1153168,4.3548469 0 0 0 -3.23522,-1.14134 l 0,-1.98924 c 0,-3.5595 -0.0348,-3.37045 0.67855,-3.71312 0.35664,-0.18182 0.48271,-0.20281 1.07014,-0.20281 z m -22.64331,0.0432 c 0.48952,0.007 0.74816,0.0424 0.95794,0.14024 0.16084,0.07 0.28696,0.16788 0.28696,0.21683 0,0.13288 -0.60879,0.58012 -0.93745,0.68502 -0.14686,0.0489 -0.39146,0.0695 -0.5383,0.0485 -0.24477,-0.0349 -0.29329,-0.007 -0.64295,0.32902 l -0.38512,0.35599 -0.0841,0.63 c -0.0419,0.34267 -0.10472,1.22369 -0.13269,1.95795 -0.0419,0.89513 -0.0913,1.39953 -0.15427,1.53942 -0.0839,0.18179 -0.0977,-0.11318 -0.11867,-2.47686 -0.014,-2.91611 -0.0205,-2.86644 0.37111,-3.12518 0.34965,-0.23079 0.69224,-0.30798 1.37758,-0.30098 z"
     id="path4224" />
  <path
     style="fill:#dc0067"
     d="m 116.35293,337.78372 c -21.6835,0 -39.26295,17.93037 -39.26295,40.02078 0,22.09042 17.57945,40.01944 39.26295,40.01944 21.6835,0 39.2643,-17.92902 39.2643,-40.01944 0,-22.09041 -17.5808,-40.02078 -39.2643,-40.02078 z m 0,1.10708 c 21.07351,0 38.15722,17.41013 38.15722,38.9137 0,21.50358 -17.08371,38.91235 -38.15722,38.91235 -21.0735,0 -38.15587,-17.40877 -38.15587,-38.91235 0,-21.50357 17.08237,-38.9137 38.15587,-38.9137 z"
     id="path4226" />
  <path
     style="fill:#dc0067"
     d="m 185.28863,314.8492 c -23.3826,0 -42.34148,19.28806 -42.34148,43.05481 0,23.7674 18.95888,43.0548 42.34148,43.0548 23.38195,0 42.34012,-19.2874 42.34012,-43.0548 0,-23.76675 -18.95817,-43.05481 -42.34012,-43.05481 z m 0,1.10843 c 22.77269,0 41.23169,18.76858 41.23169,41.94638 0,23.17847 -18.459,41.94638 -41.23169,41.94638 -22.77336,0 -41.23305,-18.76791 -41.23305,-41.94638 0,-23.1778 18.45969,-41.94638 41.23305,-41.94638 z"
     id="path4228" />
  <path
     style="fill:#dc0067"
     d="m 185.10928,299.68988 c -31.83539,0 -57.67879,26.11488 -57.6788,58.21413 0,32.09926 25.84341,58.21413 57.6788,58.21413 31.83539,0 57.6788,-26.11487 57.6788,-58.21413 0,-32.09925 -25.84341,-58.21413 -57.6788,-58.21413 z m 0,6.0168 c 28.55198,0 51.66199,23.3181 51.66199,52.19733 0,28.87924 -23.11001,52.19732 -51.66199,52.19732 -28.55197,0 -51.66199,-23.31808 -51.66199,-52.19732 0,-28.87923 23.11002,-52.19733 51.66199,-52.19733 z"
     id="path4230" />
  <path
     style="fill:#ffb400"
     d="m 106.33638,381.22109 -8.62948,0 6.90319,6.54354 -13.80703,0 0,6.54354 13.80703,0 -6.90319,6.54355 8.62948,0 10.35511,-9.81564 z"
     id="path4232" />
  <path
     style="fill:#ffb400"
     d="m 207.15381,369.8022 -10.82925,-11.2078 23.46359,0 0,-11.20713 -23.46359,0 10.82925,-11.20779 -14.43878,0 -16.24388,16.81136 16.24388,16.81136 z"
     id="path4234" />
  <path
     style="color:#000000;font-style:normal;font-variant:normal;font-weight:normal;font-stretch:normal;font-size:medium;line-height:normal;font-family:sans-serif;text-indent:0;text-align:start;text-decoration:none;text-decoration-line:none;text-decoration-style:solid;text-decoration-color:#000000;letter-spacing:normal;word-spacing:normal;text-transform:none;direction:ltr;block-progression:tb;writing-mode:lr-tb;baseline-shift:baseline;text-anchor:start;white-space:normal;clip-rule:nonzero;display:inline;overflow:visible;visibility:visible;opacity:1;isolation:auto;mix-blend-mode:normal;color-interpolation:sRGB;color-interpolation-filters:linearRGB;solid-color:#000000;solid-opacity:1;fill:#dc0067;fill-opacity:1;fill-rule:nonzero;stroke:none;stroke-width:15.99072266;stroke-linecap:round;stroke-linejoin:miter;stroke-miterlimit:4;stroke-dasharray:none;stroke-dashoffset:0;stroke-opacity:1;color-rendering:auto;image-rendering:auto;shape-rendering:auto;text-rendering:auto;enable-background:accumulate"
     d="m 187.95379,113.24882 -0.12668,0.003 c -53.66114,0.68173 -104.6633,17.96603 -151.668731,62.20446 a 11.792331,11.792331 0 1 0 16.161746,17.17276 c 43.106685,-40.56923 86.756025,-55.14419 135.665405,-55.7928 50.34203,0.46565 100.51447,24.55669 131.5695,54.86239 a 11.792331,11.792331 0 1 0 16.46995,-16.87609 C 300.45156,140.10748 245.67358,113.74527 188.0777,113.25177 l -0.12388,-0.003 z"
     id="path5698" />
  <path
     style="color:#000000;font-style:normal;font-variant:normal;font-weight:normal;font-stretch:normal;font-size:medium;line-height:normal;font-family:sans-serif;text-indent:0;text-align:start;text-decoration:none;text-decoration-line:none;text-decoration-style:solid;text-decoration-color:#000000;letter-spacing:normal;word-spacing:normal;text-transform:none;direction:ltr;block-progression:tb;writing-mode:lr-tb;baseline-shift:baseline;text-anchor:start;white-space:normal;clip-rule:nonzero;display:inline;overflow:visible;visibility:visible;opacity:1;isolation:auto;mix-blend-mode:normal;color-interpolation:sRGB;color-interpolation-filters:linearRGB;solid-color:#000000;solid-opacity:1;fill:#dc0067;fill-opacity:1;fill-rule:nonzero;stroke:none;stroke-width:15.99072266;stroke-linecap:round;stroke-linejoin:miter;stroke-miterlimit:4;stroke-dasharray:none;stroke-dashoffset:0;stroke-opacity:1;color-rendering:auto;image-rendering:auto;shape-rendering:auto;text-rendering:auto;enable-background:accumulate"
     d="m 187.38799,178.97595 -0.12668,0.003 c -38.90554,0.50434 -76.30153,13.48437 -110.28646,46.12047 a 11.792331,11.792331 0 1 0 16.33457,17.00859 c 30.1102,-28.91517 60.04257,-39.06755 94.08727,-39.54171 34.70242,0.33129 69.7078,17.44823 91.17521,38.82449 a 11.792331,11.792331 0 1 0 16.63989,-16.70902 C 269.27389,198.85399 229.6125,179.34698 187.51766,178.97895 l -0.12963,-0.003 z"
     id="path5698-0" />
  <path
     style="color:#000000;font-style:normal;font-variant:normal;font-weight:normal;font-stretch:normal;font-size:medium;line-height:normal;font-family:sans-serif;text-indent:0;text-align:start;text-decoration:none;text-decoration-line:none;text-decoration-style:solid;text-decoration-color:#000000;letter-spacing:normal;word-spacing:normal;text-transform:none;direction:ltr;block-progression:tb;writing-mode:lr-tb;baseline-shift:baseline;text-anchor:start;white-space:normal;clip-rule:nonzero;display:inline;overflow:visible;visibility:visible;opacity:1;isolation:auto;mix-blend-mode:normal;color-interpolation:sRGB;color-interpolation-filters:linearRGB;solid-color:#000000;solid-opacity:1;fill:#dc0067;fill-opacity:1;fill-rule:nonzero;stroke:none;stroke-width:15.99072266;stroke-linecap:round;stroke-linejoin:miter;stroke-miterlimit:4;stroke-dasharray:none;stroke-dashoffset:0;stroke-opacity:1;color-rendering:auto;image-rendering:auto;shape-rendering:auto;text-rendering:auto;enable-background:accumulate"
     d="m 186.77589,243.62009 -0.12388,0.003 c -23.08989,0.28957 -45.88067,7.97475 -66.06703,26.72983 a 11.792331,11.792331 0 1 0 16.0523,17.27646 c 16.27101,-15.11734 31.78623,-20.16234 50.18468,-20.41605 18.25551,0.19316 37.19096,9.1633 48.39596,19.95807 a 11.792331,11.792331 0 1 0 16.3605,-16.98267 c -15.7519,-15.17518 -39.2612,-26.35065 -64.67869,-26.56564 l -0.12388,-0.003 z"
     id="path5698-0-9" />
  <path
     style="font-style:normal;font-variant:normal;font-weight:normal;font-stretch:condensed;font-size:50px;line-height:125%;font-family:'Swiss911 XCm BT';-inkscape-font-specification:'Swiss911 XCm BT Condensed';letter-spacing:0px;word-spacing:0px;fill:#000000;fill-opacity:1;stroke:none;stroke-width:1px;stroke-linecap:butt;stroke-linejoin:miter;stroke-opacity:1"
     d="m 41.467957,487.03785 -4.150391,-28.80861 6.396484,0 1.391602,14.25781 q 0.170898,1.6113 0.268555,3.54 0.09766,1.9043 0.146484,4.1016 l 0.195312,0 q 0.04883,-2.3682 0.170899,-4.541 0.146484,-2.1973 0.317383,-4.02833 l 1.293945,-13.33008 6.005859,0 -4.15039,28.80861 -7.885742,0 z"
     id="path19" />
  <path
     style="font-style:normal;font-variant:normal;font-weight:normal;font-stretch:condensed;font-size:50px;line-height:125%;font-family:'Swiss911 XCm BT';-inkscape-font-specification:'Swiss911 XCm BT Condensed';letter-spacing:0px;word-spacing:0px;fill:#000000;fill-opacity:1;stroke:none;stroke-width:1px;stroke-linecap:butt;stroke-linejoin:miter;stroke-opacity:1"
     d="m 60.388855,463.79565 0,17.4316 q 0,0.9522 0.268555,1.3672 0.268554,0.3907 0.878906,0.3907 0.610351,0 0.878906,-0.3907 0.268555,-0.415 0.268555,-1.3672 l 0,-17.4316 q 0,-0.92774 -0.292969,-1.34278 -0.268555,-0.41503 -0.90332,-0.41503 -0.585938,0 -0.854492,0.39062 -0.244141,0.39063 -0.244141,1.36719 z m -6.396484,1.95312 q 0,-4.46777 1.733398,-6.32324 1.757813,-1.87988 5.761719,-1.87988 4.003906,0 5.737304,1.87988 1.757813,1.85547 1.757813,6.32324 l 0,13.79398 q 0,4.4433 -1.757813,6.3232 -1.733398,1.8799 -5.737304,1.8799 -4.003906,0 -5.761719,-1.8799 -1.733398,-1.8799 -1.733398,-6.3232 l 0,-13.79398 z"
     id="path21" />
  <path
     style="font-style:normal;font-variant:normal;font-weight:normal;font-stretch:condensed;font-size:50px;line-height:125%;font-family:'Swiss911 XCm BT';-inkscape-font-specification:'Swiss911 XCm BT Condensed';letter-spacing:0px;word-spacing:0px;fill:#000000;fill-opacity:1;stroke:none;stroke-width:1px;stroke-linecap:butt;stroke-linejoin:miter;stroke-opacity:1"
     d="m 77.33221,476.97925 q 0,1.001 0.24414,1.3916 0.26856,0.3662 0.90332,0.3662 0.58594,0 0.8545,-0.415 0.29297,-0.4395 0.29297,-1.3428 l 0,-12.50001 q 0,-0.8789 -0.29297,-1.26953 -0.26856,-0.41504 -0.8545,-0.41504 -0.63476,0 -0.90332,0.36621 -0.24414,0.3418 -0.24414,1.31836 l 0,12.50001 z m 2.29493,3.7109 -0.0977,0 q -0.6836,1.6114 -1.80665,2.417 -1.09863,0.7813 -2.685542,0.7813 -2.099609,0 -3.076171,-1.1475 -0.976563,-1.1719 -0.976563,-3.7109 l 0,-16.84573 q 0,-2.17285 1.049805,-3.32031 1.049804,-1.17188 3.051758,-1.17188 1.513673,0 2.612303,0.70801 1.09863,0.70801 1.92871,2.24609 l 0.14649,0 0,-2.41699 6.20117,0 0,27.09961 q 0,4.5166 -1.7334,6.3477 -1.7334,1.8554 -5.76172,1.8554 -3.564452,0 -5.541991,-1.7334 -1.953125,-1.709 -1.953125,-4.8095 l 0,-2.1973 6.347656,0 0,2.2461 q 0,0.9521 0.26856,1.3428 0.26855,0.415 0.8789,0.415 0.61035,0 0.87891,-0.415 0.26855,-0.4151 0.26855,-1.3428 l 0,-6.3477 z"
     id="path23" />
  <path
     style="font-style:normal;font-variant:normal;font-weight:normal;font-stretch:condensed;font-size:50px;line-height:125%;font-family:'Swiss911 XCm BT';-inkscape-font-specification:'Swiss911 XCm BT Condensed';letter-spacing:0px;word-spacing:0px;fill:#000000;fill-opacity:1;stroke:none;stroke-width:1px;stroke-linecap:butt;stroke-linejoin:miter;stroke-opacity:1"
     d="m 87.07343,462.8435 0,-4.61426 1.61132,0 0,-5.34668 6.39649,0 0,5.34668 1.85547,0 0,4.61426 -1.85547,0 0,17.50485 q 0,1.3428 0.31738,1.709 0.3418,0.3418 1.31836,0.3418 l 0.21973,0 0,4.6387 -4.00391,0 q -2.31934,0 -3.2959,-1.0498 -0.95215,-1.0742 -0.95215,-4.0039 l 0,-19.14065 -1.61132,0 z"
     id="path25" />
  <path
     style="font-style:normal;font-variant:normal;font-weight:normal;font-stretch:condensed;font-size:50px;line-height:125%;font-family:'Swiss911 XCm BT';-inkscape-font-specification:'Swiss911 XCm BT Condensed';letter-spacing:0px;word-spacing:0px;fill:#000000;fill-opacity:1;stroke:none;stroke-width:1px;stroke-linecap:butt;stroke-linejoin:miter;stroke-opacity:1"
     d="m 98.133,487.03785 0,-36.01076 6.34765,0 0,36.01076 -6.34765,0 z"
     id="path27" />
  <path
     style="font-style:normal;font-variant:normal;font-weight:normal;font-stretch:condensed;font-size:50px;line-height:125%;font-family:'Swiss911 XCm BT';-inkscape-font-specification:'Swiss911 XCm BT Condensed';letter-spacing:0px;word-spacing:0px;fill:#000000;fill-opacity:1;stroke:none;stroke-width:1px;stroke-linecap:butt;stroke-linejoin:miter;stroke-opacity:1"
     d="m 115.22284,480.54365 0,-7.6416 q -0.14649,0.098 -0.39063,0.293 -1.90429,1.4649 -1.90429,2.5879 l 0,4.7607 q 0,0.9766 0.24414,1.3428 0.26855,0.3418 0.90332,0.3418 0.58594,0 0.85449,-0.3906 0.29297,-0.415 0.29297,-1.294 z m -8.69141,-16.40621 q 0,-3.27148 1.87989,-4.93164 1.90429,-1.66015 5.61523,-1.66015 4.05273,0 5.76172,1.85547 1.7334,1.83105 1.7334,6.34765 l 0,17.52928 q 0,1.1475 0.0977,2.0508 0.12207,0.8789 0.36621,1.709 l -6.44531,0 q -0.12207,-0.5127 -0.19531,-1.0254 -0.0732,-0.5371 -0.0732,-0.9766 l 0,-0.4394 -0.0977,0 q -0.68359,1.416 -1.85547,2.1728 -1.14746,0.7569 -2.68554,0.7569 -2.02637,0 -3.07618,-1.2207 -1.02539,-1.2207 -1.02539,-3.6133 l 0,-6.1035 q 0,-2.2705 0.80567,-3.6866 0.83008,-1.44039 2.63672,-2.41695 0.58593,-0.31738 1.66015,-0.85449 3.58887,-1.83106 3.58887,-3.49121 l 0,-2.05078 q 0,-0.92774 -0.29297,-1.34278 -0.26855,-0.41504 -0.90332,-0.41504 -0.58594,0 -0.85449,0.41504 -0.24414,0.41504 -0.24414,1.34278 l 0,4.19922 -6.39649,0 0,-4.1504 z"
     id="path29" />
  <path
     style="font-style:normal;font-variant:normal;font-weight:normal;font-stretch:condensed;font-size:50px;line-height:125%;font-family:'Swiss911 XCm BT';-inkscape-font-specification:'Swiss911 XCm BT Condensed';letter-spacing:0px;word-spacing:0px;fill:#000000;fill-opacity:1;stroke:none;stroke-width:1px;stroke-linecap:butt;stroke-linejoin:miter;stroke-opacity:1"
     d="m 123.62128,487.03785 0,-28.80861 6.25,0 0,2.41699 0.0976,0 q 0.80567,-1.51367 1.92871,-2.22168 1.12305,-0.73242 2.61231,-0.73242 2.07519,0 3.10058,1.24512 1.04981,1.2207 1.04981,3.66211 l 0,24.43849 -6.39649,0 0,-22.33888 q 0,-1.00098 -0.26855,-1.34278 -0.24414,-0.36621 -0.87891,-0.36621 -0.58593,0 -0.8789,0.41504 -0.26856,0.41504 -0.26856,1.29395 l 0,22.33888 -6.34765,0 z"
     id="path31" />
  <path
     style="font-style:normal;font-variant:normal;font-weight:normal;font-stretch:condensed;font-size:50px;line-height:125%;font-family:'Swiss911 XCm BT';-inkscape-font-specification:'Swiss911 XCm BT Condensed';letter-spacing:0px;word-spacing:0px;fill:#000000;fill-opacity:1;stroke:none;stroke-width:1px;stroke-linecap:butt;stroke-linejoin:miter;stroke-opacity:1"
     d="m 155.6037,487.03785 -6.25,0 0,-2.4902 -0.0977,0 q -0.63476,1.5869 -1.78222,2.3925 -1.12305,0.8057 -2.75879,0.8057 -2.0752,0 -3.10059,-1.1963 -1.00098,-1.2207 -1.00098,-3.6621 l 0,-20.28809 q 0,-2.46582 1.02539,-3.68652 1.0254,-1.22071 3.07618,-1.22071 1.51367,0 2.6123,0.73242 1.09863,0.73243 1.83106,2.22168 l 0.0977,0 0,-9.61914 6.34766,0 0,36.01076 z m -8.64258,-6.2988 q 0,1.0009 0.24414,1.3916 0.26856,0.3662 0.90332,0.3662 0.58594,0 0.85449,-0.4395 0.29297,-0.4394 0.29297,-1.3183 l 0,-16.04008 q 0,-0.87891 -0.29297,-1.29395 -0.26855,-0.41504 -0.85449,-0.41504 -0.63476,0 -0.90332,0.36621 -0.24414,0.3418 -0.24414,1.34278 l 0,16.04008 z"
     id="path33" />
  <path
     style="font-style:normal;font-variant:normal;font-weight:normal;font-stretch:condensed;font-size:50px;line-height:125%;font-family:'Swiss911 XCm BT';-inkscape-font-specification:'Swiss911 XCm BT Condensed';letter-spacing:0px;word-spacing:0px;fill:#000000;fill-opacity:1;stroke:none;stroke-width:1px;stroke-linecap:butt;stroke-linejoin:miter;stroke-opacity:1"
     d="m 158.19159,487.03785 0,-7.3486 6.61621,0 0,7.3486 -6.61621,0 z"
     id="path35" />
  <path
     style="font-style:normal;font-variant:normal;font-weight:normal;font-stretch:condensed;font-size:50px;line-height:125%;font-family:'Swiss911 XCm BT';-inkscape-font-specification:'Swiss911 XCm BT Condensed';letter-spacing:0px;word-spacing:0px;fill:#000000;fill-opacity:1;stroke:none;stroke-width:1px;stroke-linecap:butt;stroke-linejoin:miter;stroke-opacity:1"
     d="m 168.37225,487.03785 0,-24.24318 -1.5625,0 0,-4.56543 1.5625,0 0,-2.73437 q 0,-2.09961 1.26953,-3.27149 1.26954,-1.19629 3.54004,-1.19629 l 3.58887,0 0,4.5166 q -1.12305,0 -1.58691,0.26856 -0.46387,0.24414 -0.46387,0.87891 l 0,1.53808 2.05078,0 0,4.56543 -2.05078,0 0,24.24318 -6.34766,0 z"
     id="path37" />
  <path
     style="font-style:normal;font-variant:normal;font-weight:normal;font-stretch:condensed;font-size:50px;line-height:125%;font-family:'Swiss911 XCm BT';-inkscape-font-specification:'Swiss911 XCm BT Condensed';letter-spacing:0px;word-spacing:0px;fill:#000000;fill-opacity:1;stroke:none;stroke-width:1px;stroke-linecap:butt;stroke-linejoin:miter;stroke-opacity:1"
     d="m 177.91815,487.03785 0,-28.80861 6.25,0 0,2.41699 0.0977,0 q 0.80566,-1.51367 1.92871,-2.22168 1.12305,-0.73242 2.6123,-0.73242 2.0752,0 3.10059,1.24512 1.0498,1.2207 1.0498,3.66211 l 0,11.13279 -6.39648,0 0,-9.03318 q 0,-1.00098 -0.26855,-1.34278 -0.24415,-0.36621 -0.87891,-0.36621 -0.58594,0 -0.87891,0.41504 -0.26855,0.41504 -0.26855,1.29395 l 0,22.33888 -6.34766,0 z"
     id="path39" />
  <path
     style="font-style:normal;font-variant:normal;font-weight:normal;font-stretch:condensed;font-size:50px;line-height:125%;font-family:'Swiss911 XCm BT';-inkscape-font-specification:'Swiss911 XCm BT Condensed';letter-spacing:0px;word-spacing:0px;fill:#000000;fill-opacity:1;stroke:none;stroke-width:1px;stroke-linecap:butt;stroke-linejoin:miter;stroke-opacity:1"
     d="m 201.74628,463.79565 0,5.44433 2.29492,0 0,-5.44433 q 0,-0.95215 -0.26856,-1.34278 -0.26855,-0.41503 -0.8789,-0.41503 -0.61035,0 -0.87891,0.41503 -0.26855,0.39063 -0.26855,1.34278 z m 0,17.4316 q 0,0.9522 0.26855,1.3672 0.26856,0.3907 0.87891,0.3907 0.61035,0 0.8789,-0.3907 0.26856,-0.415 0.26856,-1.3672 l 0,-5.3955 6.34765,0 0,5.3467 q 0,3.125 -1.97753,4.8584 -1.95313,1.709 -5.51758,1.709 -4.02832,0 -5.76172,-1.8555 -1.7334,-1.8554 -1.7334,-6.3476 l 0,-13.79398 q 0,-4.54101 1.70898,-6.37207 1.70899,-1.83105 5.73731,-1.83105 3.54004,0 5.54199,1.66015 2.00195,1.63575 2.00195,4.54102 l 0,9.79003 -8.64257,0 0,7.6904 z"
     id="path41" />
  <path
     style="font-style:normal;font-variant:normal;font-weight:normal;font-stretch:condensed;font-size:50px;line-height:125%;font-family:'Swiss911 XCm BT';-inkscape-font-specification:'Swiss911 XCm BT Condensed';letter-spacing:0px;word-spacing:0px;fill:#000000;fill-opacity:1;stroke:none;stroke-width:1px;stroke-linecap:butt;stroke-linejoin:miter;stroke-opacity:1"
     d="m 212.48846,487.03785 0,-28.80861 6.34766,0 0,28.80861 -6.34766,0 z m 0,-30.54201 0,-5.46875 6.34766,0 0,5.46875 -6.34766,0 z"
     id="path43" />
  <path
     style="font-style:normal;font-variant:normal;font-weight:normal;font-stretch:condensed;font-size:50px;line-height:125%;font-family:'Swiss911 XCm BT';-inkscape-font-specification:'Swiss911 XCm BT Condensed';letter-spacing:0px;word-spacing:0px;fill:#000000;fill-opacity:1;stroke:none;stroke-width:1px;stroke-linecap:butt;stroke-linejoin:miter;stroke-opacity:1"
     d="m 221.98553,487.03785 0,-24.24318 -1.5625,0 0,-4.56543 1.5625,0 0,-2.73437 q 0,-2.09961 1.26954,-3.27149 1.26953,-1.19629 3.54003,-1.19629 l 3.58887,0 0,4.5166 q -1.12304,0 -1.58691,0.26856 -0.46387,0.24414 -0.46387,0.87891 l 0,1.53808 2.05078,0 0,4.56543 -2.05078,0 0,24.24318 -6.34766,0 z"
     id="path45" />
  <path
     style="font-style:normal;font-variant:normal;font-weight:normal;font-stretch:condensed;font-size:50px;line-height:125%;font-family:'Swiss911 XCm BT';-inkscape-font-specification:'Swiss911 XCm BT Condensed';letter-spacing:0px;word-spacing:0px;fill:#000000;fill-opacity:1;stroke:none;stroke-width:1px;stroke-linecap:butt;stroke-linejoin:miter;stroke-opacity:1"
     d="m 246.5705,458.22924 0,28.80861 -6.25,0 0,-2.3926 -0.14649,0 q -0.80566,1.4893 -1.9043,2.1973 -1.07421,0.6836 -2.58789,0.6836 -2.07519,0 -3.125,-1.1963 -1.02539,-1.2207 -1.02539,-3.6377 l 0,-24.46291 6.34766,0 0,22.36331 q 0,0.9521 0.26855,1.3183 0.29297,0.3662 0.92774,0.3662 0.58594,0 0.83008,-0.3906 0.26855,-0.3906 0.26855,-1.2939 l 0,-22.36331 6.39649,0 z"
     id="path47" />
  <path
     style="font-style:normal;font-variant:normal;font-weight:normal;font-stretch:condensed;font-size:50px;line-height:125%;font-family:'Swiss911 XCm BT';-inkscape-font-specification:'Swiss911 XCm BT Condensed';letter-spacing:0px;word-spacing:0px;fill:#000000;fill-opacity:1;stroke:none;stroke-width:1px;stroke-linecap:butt;stroke-linejoin:miter;stroke-opacity:1"
     d="m 248.62128,487.03785 0,-28.80861 6.25,0 0,2.41699 0.0976,0 q 0.80567,-1.51367 1.92871,-2.22168 1.12305,-0.73242 2.61231,-0.73242 2.07519,0 3.10058,1.24512 1.04981,1.2207 1.04981,3.66211 l 0,24.43849 -6.39649,0 0,-22.33888 q 0,-1.00098 -0.26855,-1.34278 -0.24414,-0.36621 -0.87891,-0.36621 -0.58593,0 -0.8789,0.41504 -0.26856,0.41504 -0.26856,1.29395 l 0,22.33888 -6.34765,0 z"
     id="path49" />
  <path
     style="font-style:normal;font-variant:normal;font-weight:normal;font-stretch:condensed;font-size:50px;line-height:125%;font-family:'Swiss911 XCm BT';-inkscape-font-specification:'Swiss911 XCm BT Condensed';letter-spacing:0px;word-spacing:0px;fill:#000000;fill-opacity:1;stroke:none;stroke-width:1px;stroke-linecap:butt;stroke-linejoin:miter;stroke-opacity:1"
     d="m 265.71112,487.03785 0,-36.01076 6.34766,0 0,19.75098 0.0976,0 2.70996,-12.54883 6.49414,0 -3.14941,12.45117 3.14941,16.35744 -6.68945,0 -2.51465,-15.08791 -0.0976,0 0,15.08791 -6.34766,0 z"
     id="path51" />
  <path
     style="font-style:normal;font-variant:normal;font-weight:normal;font-stretch:condensed;font-size:50px;line-height:125%;font-family:'Swiss911 XCm BT';-inkscape-font-specification:'Swiss911 XCm BT Condensed';letter-spacing:0px;word-spacing:0px;fill:#000000;fill-opacity:1;stroke:none;stroke-width:1px;stroke-linecap:butt;stroke-linejoin:miter;stroke-opacity:1"
     d="m 282.60565,487.03785 0,-7.3486 6.61621,0 0,7.3486 -6.61621,0 z"
     id="path53" />
  <path
     style="font-style:normal;font-variant:normal;font-weight:normal;font-stretch:condensed;font-size:50px;line-height:125%;font-family:'Swiss911 XCm BT';-inkscape-font-specification:'Swiss911 XCm BT Condensed';letter-spacing:0px;word-spacing:0px;fill:#000000;fill-opacity:1;stroke:none;stroke-width:1px;stroke-linecap:butt;stroke-linejoin:miter;stroke-opacity:1"
     d="m 291.78534,487.03785 0,-28.80861 6.25,0 0,2.41699 0.0977,0 q 0.80566,-1.51367 1.92871,-2.22168 1.12304,-0.73242 2.6123,-0.73242 2.0752,0 3.10059,1.24512 1.0498,1.2207 1.0498,3.66211 l 0,24.43849 -6.39648,0 0,-22.33888 q 0,-1.00098 -0.26856,-1.34278 -0.24414,-0.36621 -0.8789,-0.36621 -0.58594,0 -0.87891,0.41504 -0.26855,0.41504 -0.26855,1.29395 l 0,22.33888 -6.34766,0 z"
     id="path55" />
  <path
     style="font-style:normal;font-variant:normal;font-weight:normal;font-stretch:condensed;font-size:50px;line-height:125%;font-family:'Swiss911 XCm BT';-inkscape-font-specification:'Swiss911 XCm BT Condensed';letter-spacing:0px;word-spacing:0px;fill:#000000;fill-opacity:1;stroke:none;stroke-width:1px;stroke-linecap:butt;stroke-linejoin:miter;stroke-opacity:1"
     d="m 315.12518,463.79565 0,5.44433 2.29492,0 0,-5.44433 q 0,-0.95215 -0.26855,-1.34278 -0.26855,-0.41503 -0.87891,-0.41503 -0.61035,0 -0.8789,0.41503 -0.26856,0.39063 -0.26856,1.34278 z m 0,17.4316 q 0,0.9522 0.26856,1.3672 0.26855,0.3907 0.8789,0.3907 0.61036,0 0.87891,-0.3907 0.26855,-0.415 0.26855,-1.3672 l 0,-5.3955 6.34766,0 0,5.3467 q 0,3.125 -1.97754,4.8584 -1.95312,1.709 -5.51758,1.709 -4.02832,0 -5.76171,-1.8555 -1.7334,-1.8554 -1.7334,-6.3476 l 0,-13.79398 q 0,-4.54101 1.70898,-6.37207 1.70899,-1.83105 5.73731,-1.83105 3.54003,0 5.54199,1.66015 2.00195,1.63575 2.00195,4.54102 l 0,9.79003 -8.64258,0 0,7.6904 z"
     id="path57" />
  <path
     style="font-style:normal;font-variant:normal;font-weight:normal;font-stretch:condensed;font-size:50px;line-height:125%;font-family:'Swiss911 XCm BT';-inkscape-font-specification:'Swiss911 XCm BT Condensed';letter-spacing:0px;word-spacing:0px;fill:#000000;fill-opacity:1;stroke:none;stroke-width:1px;stroke-linecap:butt;stroke-linejoin:miter;stroke-opacity:1"
     d="m 324.86639,462.8435 0,-4.61426 1.61133,0 0,-5.34668 6.39649,0 0,5.34668 1.85547,0 0,4.61426 -1.85547,0 0,17.50485 q 0,1.3428 0.31738,1.709 0.3418,0.3418 1.31836,0.3418 l 0.21973,0 0,4.6387 -4.00391,0 q -2.31934,0 -3.2959,-1.0498 -0.95215,-1.0742 -0.95215,-4.0039 l 0,-19.14065 -1.61133,0 z"
     id="path59" />
  <path
     style="font-style:normal;font-variant:normal;font-weight:normal;font-stretch:condensed;font-size:60px;line-height:125%;font-family:'Swiss911 XCm BT';-inkscape-font-specification:'Swiss911 XCm BT Condensed';letter-spacing:0px;word-spacing:0px;fill:#000000;fill-opacity:1;stroke:none;stroke-width:1px;stroke-linecap:butt;stroke-linejoin:miter;stroke-opacity:1"
     d="m 34.470886,79.133781 0,-43.212892 8.583985,0 0,16.025392 2.695312,0 0,-16.025392 8.642578,0 0,43.212892 -8.642578,0 0,-20.88867 -2.695312,0 0,20.88867 -8.583985,0 z"
     id="path62" />
  <path
     style="font-style:normal;font-variant:normal;font-weight:normal;font-stretch:condensed;font-size:60px;line-height:125%;font-family:'Swiss911 XCm BT';-inkscape-font-specification:'Swiss911 XCm BT Condensed';letter-spacing:0px;word-spacing:0px;fill:#000000;fill-opacity:1;stroke:none;stroke-width:1px;stroke-linecap:butt;stroke-linejoin:miter;stroke-opacity:1"
     d="m 57.088074,79.133781 0,-34.570312 7.617187,0 0,34.570312 -7.617187,0 z m 0,-36.650392 0,-6.5625 7.617187,0 0,6.5625 -7.617187,0 z"
     id="path64" />
  <path
     style="font-style:normal;font-variant:normal;font-weight:normal;font-stretch:condensed;font-size:60px;line-height:125%;font-family:'Swiss911 XCm BT';-inkscape-font-specification:'Swiss911 XCm BT Condensed';letter-spacing:0px;word-spacing:0px;fill:#000000;fill-opacity:1;stroke:none;stroke-width:1px;stroke-linecap:butt;stroke-linejoin:miter;stroke-opacity:1"
     d="m 74.783386,51.243161 0,6.5332 2.753904,0 0,-6.5332 q 0,-1.142582 -0.32226,-1.611332 -0.32227,-0.49805 -1.05469,-0.49805 -0.73242,0 -1.054688,0.49805 -0.322266,0.46875 -0.322266,1.611332 z m 0,20.91797 q 0,1.14257 0.322266,1.64062 0.322268,0.46875 1.054688,0.46875 0.73242,0 1.05469,-0.46875 0.32226,-0.49805 0.32226,-1.64062 l 0,-6.47461 7.61719,0 0,6.41601 q 0,3.75 -2.37305,5.83008 -2.34375,2.05078 -6.62109,2.05078 -4.833985,0 -6.914063,-2.22656 -2.080078,-2.22656 -2.080078,-7.61719 l 0,-16.55273 q 0,-5.449222 2.050781,-7.646492 2.050781,-2.19726 6.88477,-2.19726 4.24804,0 6.65039,1.99218 2.40234,1.9629 2.40234,5.449222 l 0,11.74805 -10.371094,0 0,9.22852 z"
     id="path66" />
  <path
     style="font-style:normal;font-variant:normal;font-weight:normal;font-stretch:condensed;font-size:60px;line-height:125%;font-family:'Swiss911 XCm BT';-inkscape-font-specification:'Swiss911 XCm BT Condensed';letter-spacing:0px;word-spacing:0px;fill:#000000;fill-opacity:1;stroke:none;stroke-width:1px;stroke-linecap:butt;stroke-linejoin:miter;stroke-opacity:1"
     d="m 87.67401,79.133781 0,-34.570312 7.5,0 0,2.90039 0.11719,0 q 0.9668,-1.81641 2.31445,-2.66602 1.34766,-0.8789 3.13477,-0.8789 2.49023,0 3.7207,1.49414 1.25977,1.46484 1.25977,4.39453 l 0,13.359382 -7.67579,0 0,-10.83985 q 0,-1.20117 -0.32226,-1.61133 -0.29297,-0.439452 -1.05469,-0.439452 -0.70312,0 -1.05469,0.498052 -0.32226,0.49804 -0.32226,1.55273 l 0,26.80664 -7.61719,0 z"
     id="path68" />
  <path
     style="font-style:normal;font-variant:normal;font-weight:normal;font-stretch:condensed;font-size:60px;line-height:125%;font-family:'Swiss911 XCm BT';-inkscape-font-specification:'Swiss911 XCm BT Condensed';letter-spacing:0px;word-spacing:0px;fill:#000000;fill-opacity:1;stroke:none;stroke-width:1px;stroke-linecap:butt;stroke-linejoin:miter;stroke-opacity:1"
     d="m 120.16425,79.133781 0,-29.091792 -1.875,0 0,-5.47852 1.875,0 0,-3.28125 q 0,-2.51953 1.52343,-3.92578 1.52344,-1.43555 4.24805,-1.43555 l 4.30664,0 0,5.41992 q -1.34766,0 -1.9043,0.32227 -0.55664,0.29297 -0.55664,1.05469 l 0,1.8457 2.46094,0 0,5.47852 -2.46094,0 0,29.091792 -7.61718,0 z"
     id="path70" />
  <path
     style="font-style:normal;font-variant:normal;font-weight:normal;font-stretch:condensed;font-size:60px;line-height:125%;font-family:'Swiss911 XCm BT';-inkscape-font-specification:'Swiss911 XCm BT Condensed';letter-spacing:0px;word-spacing:0px;fill:#000000;fill-opacity:1;stroke:none;stroke-width:1px;stroke-linecap:butt;stroke-linejoin:miter;stroke-opacity:1"
     d="m 131.61932,79.133781 0,-34.570312 7.5,0 0,2.90039 0.11719,0 q 0.9668,-1.81641 2.31445,-2.66602 1.34766,-0.8789 3.13477,-0.8789 2.49023,0 3.7207,1.49414 1.25977,1.46484 1.25977,4.39453 l 0,13.359382 -7.67578,0 0,-10.83985 q 0,-1.20117 -0.32227,-1.61133 -0.29297,-0.439452 -1.05469,-0.439452 -0.70312,0 -1.05468,0.498052 -0.32227,0.49804 -0.32227,1.55273 l 0,26.80664 -7.61719,0 z"
     id="path72" />
  <path
     style="font-style:normal;font-variant:normal;font-weight:normal;font-stretch:condensed;font-size:60px;line-height:125%;font-family:'Swiss911 XCm BT';-inkscape-font-specification:'Swiss911 XCm BT Condensed';letter-spacing:0px;word-spacing:0px;fill:#000000;fill-opacity:1;stroke:none;stroke-width:1px;stroke-linecap:butt;stroke-linejoin:miter;stroke-opacity:1"
     d="m 160.21307,51.243161 0,6.5332 2.75391,0 0,-6.5332 q 0,-1.142582 -0.32227,-1.611332 -0.32226,-0.49805 -1.05468,-0.49805 -0.73243,0 -1.05469,0.49805 -0.32227,0.46875 -0.32227,1.611332 z m 0,20.91797 q 0,1.14257 0.32227,1.64062 0.32226,0.46875 1.05469,0.46875 0.73242,0 1.05468,-0.46875 0.32227,-0.49805 0.32227,-1.64062 l 0,-6.47461 7.61719,0 0,6.41601 q 0,3.75 -2.37305,5.83008 -2.34375,2.05078 -6.62109,2.05078 -4.83399,0 -6.91407,-2.22656 -2.08007,-2.22656 -2.08007,-7.61719 l 0,-16.55273 q 0,-5.449222 2.05078,-7.646492 2.05078,-2.19726 6.88476,-2.19726 4.24805,0 6.65039,1.99218 2.40235,1.9629 2.40235,5.449222 l 0,11.74805 -10.3711,0 0,9.22852 z"
     id="path74" />
  <path
     style="font-style:normal;font-variant:normal;font-weight:normal;font-stretch:condensed;font-size:60px;line-height:125%;font-family:'Swiss911 XCm BT';-inkscape-font-specification:'Swiss911 XCm BT Condensed';letter-spacing:0px;word-spacing:0px;fill:#000000;fill-opacity:1;stroke:none;stroke-width:1px;stroke-linecap:butt;stroke-linejoin:miter;stroke-opacity:1"
     d="m 173.1037,79.133781 0,-34.570312 7.61719,0 0,34.570312 -7.61719,0 z m 0,-36.650392 0,-6.5625 7.61719,0 0,6.5625 -7.61719,0 z"
     id="path76" />
  <path
     style="font-style:normal;font-variant:normal;font-weight:normal;font-stretch:condensed;font-size:60px;line-height:125%;font-family:'Swiss911 XCm BT';-inkscape-font-specification:'Swiss911 XCm BT Condensed';letter-spacing:0px;word-spacing:0px;fill:#000000;fill-opacity:1;stroke:none;stroke-width:1px;stroke-linecap:butt;stroke-linejoin:miter;stroke-opacity:1"
     d="m 190.79901,51.243161 0,6.5332 2.75391,0 0,-6.5332 q 0,-1.142582 -0.32227,-1.611332 -0.32226,-0.49805 -1.05469,-0.49805 -0.73242,0 -1.05468,0.49805 -0.32227,0.46875 -0.32227,1.611332 z m 0,20.91797 q 0,1.14257 0.32227,1.64062 0.32226,0.46875 1.05468,0.46875 0.73243,0 1.05469,-0.46875 0.32227,-0.49805 0.32227,-1.64062 l 0,-6.47461 7.61718,0 0,6.41601 q 0,3.75 -2.37304,5.83008 -2.34375,2.05078 -6.6211,2.05078 -4.83398,0 -6.91406,-2.22656 -2.08008,-2.22656 -2.08008,-7.61719 l 0,-16.55273 q 0,-5.449222 2.05078,-7.646492 2.05079,-2.19726 6.88477,-2.19726 4.24805,0 6.65039,1.99218 2.40234,1.9629 2.40234,5.449222 l 0,11.74805 -10.37109,0 0,9.22852 z"
     id="path78" />
  <path
     style="font-style:normal;font-variant:normal;font-weight:normal;font-stretch:condensed;font-size:60px;line-height:125%;font-family:'Swiss911 XCm BT';-inkscape-font-specification:'Swiss911 XCm BT Condensed';letter-spacing:0px;word-spacing:0px;fill:#000000;fill-opacity:1;stroke:none;stroke-width:1px;stroke-linecap:butt;stroke-linejoin:miter;stroke-opacity:1"
     d="m 221.50214,71.985341 q 0,3.86719 -2.31446,5.94727 -2.31445,2.05078 -6.67968,2.05078 -4.27735,0 -6.67969,-2.08008 -2.37305,-2.08007 -2.37305,-5.80078 l 0,-6.41601 7.67578,0 0,6.47461 q 0,1.14257 0.32227,1.64062 0.32226,0.46875 1.05469,0.46875 0.73242,0 1.05468,-0.46875 0.32227,-0.49805 0.32227,-1.64062 l 0,-3.10547 q 0,-2.10938 -3.8086,-5.15625 -0.82031,-0.64453 -1.28906,-1.02539 l -0.0586,-0.0586 q -5.27344,-4.36523 -5.27344,-8.75976 l 0,-3.07617 q 0,-3.427742 2.37305,-5.332042 2.37304,-1.90429 6.62109,-1.90429 4.30664,0 6.67969,1.99218 2.37305,1.99219 2.37305,5.625002 l 0,5.27344 -7.61719,0 0,-5.39062 q 0,-1.142582 -0.32227,-1.611332 -0.32226,-0.49805 -1.05468,-0.49805 -0.73243,0 -1.05469,0.49805 -0.32227,0.46875 -0.32227,1.611332 l 0,1.8457 q 0,2.34375 3.66211,5.15625 0.84961,0.64453 1.31836,1.02539 3.60352,2.90039 4.48242,4.54102 0.90821,1.61132 0.90821,4.21875 l 0,3.95507 z"
     id="path80" />
  <path
     style="font-style:normal;font-variant:normal;font-weight:normal;font-stretch:condensed;font-size:60px;line-height:125%;font-family:'Swiss911 XCm BT';-inkscape-font-specification:'Swiss911 XCm BT Condensed';letter-spacing:0px;word-spacing:0px;fill:#000000;fill-opacity:1;stroke:none;stroke-width:1px;stroke-linecap:butt;stroke-linejoin:miter;stroke-opacity:1"
     d="m 238.81659,79.133781 -4.30664,-43.212892 8.67187,0 1.02539,16.494142 q 0.14649,2.16797 0.23438,4.77539 0.11719,2.57813 0.26367,7.47071 l 0.29297,0 q 0.20508,-2.90039 0.41016,-5.41993 0.23437,-2.54882 0.43945,-4.27734 l 2.25586,-19.042972 9.14062,0 1.78711,20.390632 q 0.0293,0.49804 0.26367,3.36914 0.23438,2.84179 0.41016,4.98047 l 0.29297,0 q 0.11719,-3.57422 0.26367,-6.6211 0.17578,-3.04687 0.38086,-5.88867 l 1.34766,-16.230472 7.23633,0 -4.65821,43.212892 -9.96094,0 -2.16796,-23.17383 q -0.11719,-1.23046 -0.23438,-2.84179 -0.0879,-1.64063 -0.17578,-4.218752 l -0.32227,0 -3.04687,30.234372 -9.84375,0 z"
     id="path82" />
  <path
     style="font-style:normal;font-variant:normal;font-weight:normal;font-stretch:condensed;font-size:60px;line-height:125%;font-family:'Swiss911 XCm BT';-inkscape-font-specification:'Swiss911 XCm BT Condensed';letter-spacing:0px;word-spacing:0px;fill:#000000;fill-opacity:1;stroke:none;stroke-width:1px;stroke-linecap:butt;stroke-linejoin:miter;stroke-opacity:1"
     d="m 271.5412,79.133781 0,-43.212892 8.64258,0 0,36.679692 7.4414,0 0,6.5332 -16.08398,0 z"
     id="path84" />
  <path
     style="font-style:normal;font-variant:normal;font-weight:normal;font-stretch:condensed;font-size:60px;line-height:125%;font-family:'Swiss911 XCm BT';-inkscape-font-specification:'Swiss911 XCm BT Condensed';letter-spacing:0px;word-spacing:0px;fill:#000000;fill-opacity:1;stroke:none;stroke-width:1px;stroke-linecap:butt;stroke-linejoin:miter;stroke-opacity:1"
     d="m 290.08612,79.133781 6.91406,-43.212892 11.04492,0 5.09766,43.212892 -8.93555,0 -0.84961,-11.51367 -4.27734,0 -1.11328,11.51367 -7.88086,0 z m 9.66797,-17.87109 3.19336,0 -0.9668,-13.183602 q -0.0879,-1.11328 -0.14648,-4.01367 -0.0293,-1.25976 -0.0293,-1.96289 l -0.32227,0 q -0.11718,2.49024 -0.20507,3.98438 -0.0879,1.46484 -0.14649,1.93359 l -1.37695,13.242192 z"
     id="path86" />
  <path
     style="font-style:normal;font-variant:normal;font-weight:normal;font-stretch:condensed;font-size:60px;line-height:125%;font-family:'Swiss911 XCm BT';-inkscape-font-specification:'Swiss911 XCm BT Condensed';letter-spacing:0px;word-spacing:0px;fill:#000000;fill-opacity:1;stroke:none;stroke-width:1px;stroke-linecap:butt;stroke-linejoin:miter;stroke-opacity:1"
     d="m 314.84198,79.133781 0,-43.212892 11.83594,0 3.04687,18.310552 q 0.41016,2.46094 0.70313,5.50781 0.29297,3.04688 0.49804,6.97266 l 0.35157,0 q -0.20508,-4.57032 -0.32227,-7.96875 -0.0879,-3.42774 -0.0879,-4.92188 l -0.0586,-17.900392 6.76757,0 0,43.212892 -10.13671,0 -4.42383,-23.46679 q -0.26367,-1.37696 -0.67383,-4.16016 -0.38086,-2.783202 -0.79102,-6.093752 l -0.23437,0 q 0.17578,2.69531 0.26367,4.7168 0.11719,2.021482 0.11719,3.310542 l 0,25.69336 -6.85547,0 z"
     id="path88" />
  <path
     id="path90"
     style="color:#000000;font-style:normal;font-variant:normal;font-weight:normal;font-stretch:normal;font-size:medium;line-height:normal;font-family:sans-serif;text-indent:0;text-align:start;text-decoration:none;text-decoration-line:none;text-decoration-style:solid;text-decoration-color:#000000;letter-spacing:normal;word-spacing:normal;text-transform:none;direction:ltr;block-progression:tb;writing-mode:lr-tb;baseline-shift:baseline;text-anchor:start;white-space:normal;clip-rule:nonzero;display:inline;overflow:visible;visibility:visible;opacity:1;isolation:auto;mix-blend-mode:normal;color-interpolation:sRGB;color-interpolation-filters:linearRGB;solid-color:#000000;solid-opacity:1;fill:#000000;fill-opacity:1;fill-rule:nonzero;stroke:none;stroke-width:5.62793875;stroke-linecap:butt;stroke-linejoin:round;stroke-miterlimit:4;stroke-dasharray:none;stroke-dashoffset:0;stroke-opacity:1;color-rendering:auto;image-rendering:auto;shape-rendering:auto;text-rendering:auto;enable-background:accumulate"
     d="M 20.611328,0.00126679 C 9.230391,0.00126679 0,9.3094068 0,20.739557 L 0,503.67115 c 0,11.4302 9.230391,20.7383 20.611328,20.7383 l 330.824222,0 c 11.38093,0 20.61133,-9.3081 20.61133,-20.7383 l 0,-482.931593 c 0,-11.4301502 -9.2304,-20.73829021 -20.61133,-20.73829021 l -330.824222,0 z m 0,5.62696001 330.824222,0 c 8.3387,0 14.98437,6.6801602 14.98437,15.1113302 l 0,482.931593 c 0,8.4312 -6.64567,15.1114 -14.98437,15.1114 l -330.824222,0 c -8.338705,0 -14.982422,-6.6802 -14.982422,-15.1114 l 0,-482.931593 c 0,-8.43117 6.643717,-15.1113302 14.982422,-15.1113302 z" />
</svg>
